<?xml version="1.0" encoding="UTF-8" standalone="no"?>
<!-- Created with Inkscape (http://www.inkscape.org/) -->

<svg
   version="1.1"
   id="svg1"
   width="793.70135"
   height="1248"
   viewBox="0 0 793.70135 1248"
   sodipodi:docname="upload_pzmwnlt2y6anol2xfthkvdx5p5.pdf"
   xmlns:inkscape="http://www.inkscape.org/namespaces/inkscape"
   xmlns:sodipodi="http://sodipodi.sourceforge.net/DTD/sodipodi-0.dtd"
   xmlns="http://www.w3.org/2000/svg"
   xmlns:svg="http://www.w3.org/2000/svg">
  <defs
     id="defs1" />
  <sodipodi:namedview
     id="namedview1"
     pagecolor="#ffffff"
     bordercolor="#000000"
     borderopacity="0.25"
     inkscape:showpageshadow="2"
     inkscape:pageopacity="0.0"
     inkscape:pagecheckerboard="0"
     inkscape:deskcolor="#d1d1d1">
    <inkscape:page
       x="0"
       y="0"
       inkscape:label="1"
       id="page1"
       width="793.70135"
       height="1248"
       margin="8.7091064 12.488 82.038666 16.292"
       bleed="0" />
  </sodipodi:namedview>
  <g
     id="layer-MC0"
     inkscape:groupmode="layer"
     inkscape:label="Layer 1">
    <path
       id="path1"
       d="m 0,0 -45.774,-26.73 0.262,-53.007 46.036,-26.276 45.774,26.731 -0.262,53.006 z"
       style="fill:#4fc6f4;fill-opacity:1;fill-rule:nonzero;stroke:#231f20;stroke-width:1;stroke-linecap:butt;stroke-linejoin:miter;stroke-miterlimit:10;stroke-dasharray:none;stroke-opacity:1"
       transform="matrix(1.3333333,0,0,-1.3333333,460.92267,82.808)" />
    <path
       id="path2"
       d="m 0,0 -45.774,-26.73 0.262,-53.007 46.036,-26.276 45.774,26.731 -0.262,53.006 z"
       style="fill:#4fc6f4;fill-opacity:1;fill-rule:nonzero;stroke:#231f20;stroke-width:1;stroke-linecap:butt;stroke-linejoin:miter;stroke-miterlimit:10;stroke-dasharray:none;stroke-opacity:1"
       transform="matrix(1.3333333,0,0,-1.3333333,330.37507,82.808)" />
    <path
       id="path3"
       d="m 0,0 -45.774,-26.73 0.262,-53.007 46.036,-26.276 45.774,26.731 -0.262,53.006 z"
       style="fill:#4fc6f4;fill-opacity:1;fill-rule:nonzero;stroke:#231f20;stroke-width:1;stroke-linecap:butt;stroke-linejoin:miter;stroke-miterlimit:10;stroke-dasharray:none;stroke-opacity:1"
       transform="matrix(1.3333333,0,0,-1.3333333,269.45747,197.0716)" />
    <path
       id="path4"
       d="m 0,0 -45.774,-26.73 0.262,-53.007 46.036,-26.276 45.774,26.731 -0.262,53.006 z"
       style="fill:#4fc6f4;fill-opacity:1;fill-rule:nonzero;stroke:#231f20;stroke-width:1;stroke-linecap:butt;stroke-linejoin:miter;stroke-miterlimit:10;stroke-dasharray:none;stroke-opacity:1"
       transform="matrix(1.3333333,0,0,-1.3333333,397.10093,197.0716)" />
    <path
       id="path5"
       d="m 0,0 -45.774,-26.73 0.262,-53.007 46.036,-26.276 45.774,26.731 -0.262,53.006 z"
       style="fill:#4fc6f4;fill-opacity:1;fill-rule:nonzero;stroke:#231f20;stroke-width:1;stroke-linecap:butt;stroke-linejoin:miter;stroke-miterlimit:10;stroke-dasharray:none;stroke-opacity:1"
       transform="matrix(1.3333333,0,0,-1.3333333,524.7444,197.0716)" />
    <path
       id="path6"
       d="m 0,0 -45.774,-26.73 0.262,-53.007 46.036,-26.276 45.774,26.731 -0.262,53.006 z"
       style="fill:#4fc6f4;fill-opacity:1;fill-rule:nonzero;stroke:#231f20;stroke-width:1;stroke-linecap:butt;stroke-linejoin:miter;stroke-miterlimit:10;stroke-dasharray:none;stroke-opacity:1"
       transform="matrix(1.3333333,0,0,-1.3333333,205.63573,311.5804)" />
    <path
       id="path7"
       d="m 0,0 -45.774,-26.73 0.262,-53.007 46.036,-26.276 45.774,26.731 -0.262,53.006 z"
       style="fill:#4fc6f4;fill-opacity:1;fill-rule:nonzero;stroke:#231f20;stroke-width:1;stroke-linecap:butt;stroke-linejoin:miter;stroke-miterlimit:10;stroke-dasharray:none;stroke-opacity:1"
       transform="matrix(1.3333333,0,0,-1.3333333,588.56627,311.5804)" />
    <path
       id="path8"
       d="m 0,0 -45.774,-26.73 0.262,-53.007 46.036,-26.276 45.774,26.731 -0.262,53.006 z"
       style="fill:#4fc6f4;fill-opacity:1;fill-rule:nonzero;stroke:#231f20;stroke-width:1;stroke-linecap:butt;stroke-linejoin:miter;stroke-miterlimit:10;stroke-dasharray:none;stroke-opacity:1"
       transform="matrix(1.3333333,0,0,-1.3333333,141.814,425.844)" />
    <path
       id="path9"
       d="m 0,0 -45.774,-26.73 0.262,-53.007 46.036,-26.276 45.774,26.731 -0.262,53.006 z"
       style="fill:#4fc6f4;fill-opacity:1;fill-rule:nonzero;stroke:#231f20;stroke-width:1;stroke-linecap:butt;stroke-linejoin:miter;stroke-miterlimit:10;stroke-dasharray:none;stroke-opacity:1"
       transform="matrix(1.3333333,0,0,-1.3333333,652.388,425.844)" />
    <path
       id="path10"
       d="m 0,0 -45.774,-26.73 0.262,-53.007 46.036,-26.276 45.774,26.73 -0.262,53.007 z"
       style="fill:#4fc6f4;fill-opacity:1;fill-rule:nonzero;stroke:#231f20;stroke-width:1;stroke-linecap:butt;stroke-linejoin:miter;stroke-miterlimit:10;stroke-dasharray:none;stroke-opacity:1"
       transform="matrix(1.3333333,0,0,-1.3333333,77.992133,540.3528)" />
    <path
       id="path11"
       d="m 0,0 -45.774,-26.73 0.262,-53.007 46.036,-26.276 45.774,26.73 -0.262,53.007 z"
       style="fill:#4fc6f4;fill-opacity:1;fill-rule:nonzero;stroke:#231f20;stroke-width:1;stroke-linecap:butt;stroke-linejoin:miter;stroke-miterlimit:10;stroke-dasharray:none;stroke-opacity:1"
       transform="matrix(1.3333333,0,0,-1.3333333,716.20973,540.3528)" />
    <path
       id="path12"
       d="m 0,0 -45.774,-26.73 0.262,-53.007 46.036,-26.276 45.774,26.731 -0.262,53.006 z"
       style="fill:#4fc6f4;fill-opacity:1;fill-rule:nonzero;stroke:#231f20;stroke-width:1;stroke-linecap:butt;stroke-linejoin:miter;stroke-miterlimit:10;stroke-dasharray:none;stroke-opacity:1"
       transform="matrix(1.3333333,0,0,-1.3333333,141.814,654.6164)" />
    <path
       id="path13"
       d="m 0,0 -45.774,-26.73 0.262,-53.007 46.036,-26.276 45.774,26.731 -0.262,53.006 z"
       style="fill:#4fc6f4;fill-opacity:1;fill-rule:nonzero;stroke:#231f20;stroke-width:1;stroke-linecap:butt;stroke-linejoin:miter;stroke-miterlimit:10;stroke-dasharray:none;stroke-opacity:1"
       transform="matrix(1.3333333,0,0,-1.3333333,652.388,654.6164)" />
    <path
       id="path14"
       d="m 0,0 -45.774,-26.73 0.262,-53.007 46.036,-26.276 45.774,26.731 -0.262,53.006 z"
       style="fill:#4fc6f4;fill-opacity:1;fill-rule:nonzero;stroke:#231f20;stroke-width:1;stroke-linecap:butt;stroke-linejoin:miter;stroke-miterlimit:10;stroke-dasharray:none;stroke-opacity:1"
       transform="matrix(1.3333333,0,0,-1.3333333,718.814,764.32733)" />
    <path
       id="path15"
       d="m 0,0 -45.774,-26.73 0.262,-53.007 46.036,-26.276 45.774,26.731 -0.262,53.006 z"
       style="fill:#4fc6f4;fill-opacity:1;fill-rule:nonzero;stroke:#231f20;stroke-width:1;stroke-linecap:butt;stroke-linejoin:miter;stroke-miterlimit:10;stroke-dasharray:none;stroke-opacity:1"
       transform="matrix(1.3333333,0,0,-1.3333333,205.63573,769.1252)" />
    <path
       id="path16"
       d="m 0,0 -45.774,-26.73 0.262,-53.007 46.036,-26.276 45.774,26.731 -0.262,53.006 z"
       style="fill:#4fc6f4;fill-opacity:1;fill-rule:nonzero;stroke:#231f20;stroke-width:1;stroke-linecap:butt;stroke-linejoin:miter;stroke-miterlimit:10;stroke-dasharray:none;stroke-opacity:1"
       transform="matrix(1.3333333,0,0,-1.3333333,588.56627,769.1252)" />
    <path
       id="path17"
       d="m 0,0 -45.774,-26.73 0.262,-53.007 46.036,-26.276 45.774,26.731 -0.262,53.006 z"
       style="fill:#4fc6f4;fill-opacity:1;fill-rule:nonzero;stroke:#231f20;stroke-width:1;stroke-linecap:butt;stroke-linejoin:miter;stroke-miterlimit:10;stroke-dasharray:none;stroke-opacity:1"
       transform="matrix(1.3333333,0,0,-1.3333333,269.45747,883.3888)" />
    <path
       id="path18"
       d="m 0,0 -45.774,-26.73 0.262,-53.007 46.036,-26.276 45.774,26.731 -0.262,53.006 z"
       style="fill:#4fc6f4;fill-opacity:1;fill-rule:nonzero;stroke:#231f20;stroke-width:1;stroke-linecap:butt;stroke-linejoin:miter;stroke-miterlimit:10;stroke-dasharray:none;stroke-opacity:1"
       transform="matrix(1.3333333,0,0,-1.3333333,397.10093,883.3888)" />
    <path
       id="path19"
       d="m 0,0 -45.774,-26.73 0.262,-53.007 46.036,-26.276 45.774,26.731 -0.262,53.006 z"
       style="fill:#4fc6f4;fill-opacity:1;fill-rule:nonzero;stroke:#231f20;stroke-width:1;stroke-linecap:butt;stroke-linejoin:miter;stroke-miterlimit:10;stroke-dasharray:none;stroke-opacity:1"
       transform="matrix(1.3333333,0,0,-1.3333333,524.7444,883.3888)" />
    <path
       id="path20"
       d="M 0,0 42.828,26.609 91.601,-1.276 138.979,26.609 181.382,2.695 v -58.57 l 48.359,-27.229 v -54.315 l 46.091,-31.625 1.985,-53.323 -45.807,-28.616 -1.559,-56.19 -47.225,-30.632 -0.426,-57.294 -43.253,-28.646 L 91.601,-392.12 43.963,-421.476 0,-397.793 v 57.577 l -47.225,27.938 v 56.726 l -47.792,29.214 v 55.592 l 47.792,29.214 0.568,55.733 49.21,30.065 z"
       style="fill:#4fc6f4;fill-opacity:1;fill-rule:nonzero;stroke:#231f20;stroke-width:1;stroke-linecap:butt;stroke-linejoin:miter;stroke-miterlimit:10;stroke-dasharray:none;stroke-opacity:1"
       transform="matrix(1.3333333,0,0,-1.3333333,275.3156,347.0596)" />
    <path
       id="path21"
       d="M 3.4345219,-8.8005911e-6 H 4.6649906 V -9.4468934 H 3.5751469 l -2.0625,1.1055743 0.2460937,0.9735654 1.640625,-0.8910599 h 0.035156 z M 8.8544438,0.14850118 c 0.3046875,0.008251 0.7148437,0 1.1835942,-0.07425499 1.019531,-0.11550776 2.015625,-0.55278714 2.742187,-1.26233479 0.9375,-0.907561 1.628906,-2.3596585 1.628906,-4.4387982 0,-2.4091618 -1.195312,-3.9850177 -3.128906,-3.9850177 -1.9335937,0 -3.2226562,1.5758559 -3.2226562,3.3579756 0,1.6171086 1.0898437,2.8959445 2.7890622,2.8959445 0.949219,0 1.699219,-0.3795255 2.226563,-1.0148181 h 0.04687 c -0.175781,1.1138248 -0.632813,1.9471308 -1.253906,2.5081684 -0.539063,0.5115344 -1.230469,0.8168049 -1.9804692,0.91581156 -0.4335938,0.0495033 -0.75,0.074255 -1.03125,0.0495033 z M 11.186475,-8.6383391 c 1.335938,0 1.933594,1.2375831 1.933594,2.8546918 0,0.1980133 -0.04687,0.3465233 -0.117188,0.462031 -0.339843,0.5692883 -1.007812,0.9900665 -1.863281,0.9900665 -1.101562,0 -1.8164062,-0.833306 -1.8164062,-2.0048847 0,-1.3365897 0.7734372,-2.3019046 1.8632812,-2.3019046 z m 0,0"
       style="fill:#231f20;fill-opacity:1;fill-rule:nonzero;stroke:none"
       aria-label="19"
       transform="matrix(1.3333333,0,0,1.8938122,685.8972,1232.4063)" />
  </g>
</svg>
