<?xml version="1.0" encoding="UTF-8" standalone="no"?>
<!-- Created with Inkscape (http://www.inkscape.org/) -->

<svg
   version="1.1"
   id="svg1"
   width="793.70135"
   height="1248"
   viewBox="0 0 793.70135 1248"
   sodipodi:docname="upload_ehjvk6xrthahehtjnsxpbbiap5.pdf"
   xmlns:inkscape="http://www.inkscape.org/namespaces/inkscape"
   xmlns:sodipodi="http://sodipodi.sourceforge.net/DTD/sodipodi-0.dtd"
   xmlns="http://www.w3.org/2000/svg"
   xmlns:svg="http://www.w3.org/2000/svg">
  <defs
     id="defs1" />
  <sodipodi:namedview
     id="namedview1"
     pagecolor="#ffffff"
     bordercolor="#000000"
     borderopacity="0.25"
     inkscape:showpageshadow="2"
     inkscape:pageopacity="0.0"
     inkscape:pagecheckerboard="0"
     inkscape:deskcolor="#d1d1d1">
    <inkscape:page
       x="0"
       y="0"
       inkscape:label="1"
       id="page1"
       width="793.70135"
       height="1248"
       margin="8.7091064 27.409334 173.64799 21.980534"
       bleed="0" />
  </sodipodi:namedview>
  <g
     id="layer-MC0"
     inkscape:groupmode="layer"
     inkscape:label="Layer 1">
    <path
       id="path1"
       d="m 0,0 -44.691,-26.098 0.256,-51.752 44.947,-25.654 44.691,26.098 -0.256,51.752 z"
       style="fill:#4fc6f4;fill-opacity:1;fill-rule:nonzero;stroke:#231f20;stroke-width:1;stroke-linecap:butt;stroke-linejoin:miter;stroke-miterlimit:10;stroke-dasharray:none;stroke-opacity:1"
       transform="matrix(1.3333333,0,0,-1.3333333,331.4832,174.41733)" />
    <path
       id="path2"
       d="m 0,0 -44.691,-26.098 0.256,-51.752 44.947,-25.654 44.691,26.098 -0.256,51.752 z"
       style="fill:#4fc6f4;fill-opacity:1;fill-rule:nonzero;stroke:#231f20;stroke-width:1;stroke-linecap:butt;stroke-linejoin:miter;stroke-miterlimit:10;stroke-dasharray:none;stroke-opacity:1"
       transform="matrix(1.3333333,0,0,-1.3333333,456.1064,174.41733)" />
    <path
       id="path3"
       d="m 0,0 -44.691,-26.098 0.256,-51.752 44.947,-25.654 44.691,26.097 -0.256,51.753 z"
       style="fill:#4fc6f4;fill-opacity:1;fill-rule:nonzero;stroke:#231f20;stroke-width:1;stroke-linecap:butt;stroke-linejoin:miter;stroke-miterlimit:10;stroke-dasharray:none;stroke-opacity:1"
       transform="matrix(1.3333333,0,0,-1.3333333,269.17147,285.97733)" />
    <path
       id="path4"
       d="m 0,0 -44.691,-26.098 0.256,-51.752 44.947,-25.654 44.691,26.097 -0.256,51.753 z"
       style="fill:#4fc6f4;fill-opacity:1;fill-rule:nonzero;stroke:#231f20;stroke-width:1;stroke-linecap:butt;stroke-linejoin:miter;stroke-miterlimit:10;stroke-dasharray:none;stroke-opacity:1"
       transform="matrix(1.3333333,0,0,-1.3333333,141.57307,285.97733)" />
    <path
       id="path5"
       d="m 0,0 -44.691,-26.098 0.256,-51.752 44.947,-25.654 44.691,26.097 -0.256,51.753 z"
       style="fill:#4fc6f4;fill-opacity:1;fill-rule:nonzero;stroke:#231f20;stroke-width:1;stroke-linecap:butt;stroke-linejoin:miter;stroke-miterlimit:10;stroke-dasharray:none;stroke-opacity:1"
       transform="matrix(1.3333333,0,0,-1.3333333,393.7948,285.97733)" />
    <path
       id="path6"
       d="m 0,0 -44.691,-26.098 0.256,-51.752 44.947,-25.654 44.691,26.097 -0.256,51.753 z"
       style="fill:#4fc6f4;fill-opacity:1;fill-rule:nonzero;stroke:#231f20;stroke-width:1;stroke-linecap:butt;stroke-linejoin:miter;stroke-miterlimit:10;stroke-dasharray:none;stroke-opacity:1"
       transform="matrix(1.3333333,0,0,-1.3333333,518.418,285.97733)" />
    <path
       id="path7"
       d="m 0,0 -44.691,-26.098 0.256,-51.752 44.947,-25.654 44.691,26.097 -0.256,51.753 z"
       style="fill:#4fc6f4;fill-opacity:1;fill-rule:nonzero;stroke:#231f20;stroke-width:1;stroke-linecap:butt;stroke-linejoin:miter;stroke-miterlimit:10;stroke-dasharray:none;stroke-opacity:1"
       transform="matrix(1.3333333,0,0,-1.3333333,646.8048,285.97733)" />
    <path
       id="path8"
       d="m 0,0 -44.691,-26.098 0.256,-51.752 44.947,-25.654 44.691,26.097 -0.256,51.753 z"
       style="fill:#4fc6f4;fill-opacity:1;fill-rule:nonzero;stroke:#231f20;stroke-width:1;stroke-linecap:butt;stroke-linejoin:miter;stroke-miterlimit:10;stroke-dasharray:none;stroke-opacity:1"
       transform="matrix(1.3333333,0,0,-1.3333333,705.3528,397.77667)" />
    <path
       id="path9"
       d="m 0,0 -44.691,-26.098 0.256,-51.752 44.947,-25.654 44.691,26.097 -0.256,51.753 z"
       style="fill:#4fc6f4;fill-opacity:1;fill-rule:nonzero;stroke:#231f20;stroke-width:1;stroke-linecap:butt;stroke-linejoin:miter;stroke-miterlimit:10;stroke-dasharray:none;stroke-opacity:1"
       transform="matrix(1.3333333,0,0,-1.3333333,206.85987,397.77667)" />
    <path
       id="path10"
       d="m 0,0 -44.691,-26.098 0.256,-51.752 44.947,-25.654 44.691,26.097 -0.256,51.753 z"
       style="fill:#4fc6f4;fill-opacity:1;fill-rule:nonzero;stroke:#231f20;stroke-width:1;stroke-linecap:butt;stroke-linejoin:miter;stroke-miterlimit:10;stroke-dasharray:none;stroke-opacity:1"
       transform="matrix(1.3333333,0,0,-1.3333333,580.7296,397.77667)" />
    <path
       id="path11"
       d="m 0,0 -44.691,-26.098 0.256,-51.752 44.947,-25.654 44.691,26.098 -0.256,51.752 z"
       style="fill:#4fc6f4;fill-opacity:1;fill-rule:nonzero;stroke:#231f20;stroke-width:1;stroke-linecap:butt;stroke-linejoin:miter;stroke-miterlimit:10;stroke-dasharray:none;stroke-opacity:1"
       transform="matrix(1.3333333,0,0,-1.3333333,144.54827,509.33653)" />
    <path
       id="path12"
       d="m 0,0 -44.691,-26.098 0.256,-51.752 44.947,-25.654 44.691,26.098 -0.256,51.752 z"
       style="fill:#4fc6f4;fill-opacity:1;fill-rule:nonzero;stroke:#231f20;stroke-width:1;stroke-linecap:butt;stroke-linejoin:miter;stroke-miterlimit:10;stroke-dasharray:none;stroke-opacity:1"
       transform="matrix(1.3333333,0,0,-1.3333333,643.0412,509.33653)" />
    <path
       id="path13"
       d="m 0,0 -44.691,-26.098 0.256,-51.752 44.947,-25.654 44.691,26.098 -0.256,51.752 z"
       style="fill:#4fc6f4;fill-opacity:1;fill-rule:nonzero;stroke:#231f20;stroke-width:1;stroke-linecap:butt;stroke-linejoin:miter;stroke-miterlimit:10;stroke-dasharray:none;stroke-opacity:1"
       transform="matrix(1.3333333,0,0,-1.3333333,82.236667,621.13587)" />
    <path
       id="path14"
       d="m 0,0 -44.691,-26.098 0.256,-51.752 44.947,-25.654 44.691,26.098 -0.256,51.752 z"
       style="fill:#4fc6f4;fill-opacity:1;fill-rule:nonzero;stroke:#231f20;stroke-width:1;stroke-linecap:butt;stroke-linejoin:miter;stroke-miterlimit:10;stroke-dasharray:none;stroke-opacity:1"
       transform="matrix(1.3333333,0,0,-1.3333333,705.3528,621.13587)" />
    <path
       id="path15"
       d="m 0,0 -44.691,-26.098 0.256,-51.752 44.947,-25.654 44.691,26.097 -0.256,51.753 z"
       style="fill:#4fc6f4;fill-opacity:1;fill-rule:nonzero;stroke:#231f20;stroke-width:1;stroke-linecap:butt;stroke-linejoin:miter;stroke-miterlimit:10;stroke-dasharray:none;stroke-opacity:1"
       transform="matrix(1.3333333,0,0,-1.3333333,144.54827,732.69587)" />
    <path
       id="path16"
       d="m 0,0 -44.691,-26.098 0.256,-51.752 44.947,-25.654 44.691,26.097 -0.256,51.753 z"
       style="fill:#4fc6f4;fill-opacity:1;fill-rule:nonzero;stroke:#231f20;stroke-width:1;stroke-linecap:butt;stroke-linejoin:miter;stroke-miterlimit:10;stroke-dasharray:none;stroke-opacity:1"
       transform="matrix(1.3333333,0,0,-1.3333333,643.0412,732.69587)" />
    <path
       id="path17"
       d="m 0,0 -44.691,-26.098 0.256,-51.752 44.947,-25.654 44.691,26.097 -0.256,51.753 z"
       style="fill:#4fc6f4;fill-opacity:1;fill-rule:nonzero;stroke:#231f20;stroke-width:1;stroke-linecap:butt;stroke-linejoin:miter;stroke-miterlimit:10;stroke-dasharray:none;stroke-opacity:1"
       transform="matrix(1.3333333,0,0,-1.3333333,206.85987,844.49507)" />
    <path
       id="path18"
       d="m 0,0 -44.691,-26.098 0.256,-51.752 44.947,-25.654 44.691,26.097 -0.256,51.753 z"
       style="fill:#4fc6f4;fill-opacity:1;fill-rule:nonzero;stroke:#231f20;stroke-width:1;stroke-linecap:butt;stroke-linejoin:miter;stroke-miterlimit:10;stroke-dasharray:none;stroke-opacity:1"
       transform="matrix(1.3333333,0,0,-1.3333333,580.7296,844.49507)" />
    <path
       id="path19"
       d="m 0,0 -44.691,-26.098 0.256,-51.752 44.947,-25.654 44.691,26.097 -0.256,51.753 z"
       style="fill:#4fc6f4;fill-opacity:1;fill-rule:nonzero;stroke:#231f20;stroke-width:1;stroke-linecap:butt;stroke-linejoin:miter;stroke-miterlimit:10;stroke-dasharray:none;stroke-opacity:1"
       transform="matrix(1.3333333,0,0,-1.3333333,269.17147,956.05507)" />
    <path
       id="path20"
       d="m 0,0 -44.691,-26.098 0.256,-51.752 44.947,-25.654 44.691,26.097 -0.256,51.753 z"
       style="fill:#4fc6f4;fill-opacity:1;fill-rule:nonzero;stroke:#231f20;stroke-width:1;stroke-linecap:butt;stroke-linejoin:miter;stroke-miterlimit:10;stroke-dasharray:none;stroke-opacity:1"
       transform="matrix(1.3333333,0,0,-1.3333333,393.7948,956.05507)" />
    <path
       id="path21"
       d="m 0,0 -44.691,-26.098 0.256,-51.752 44.947,-25.654 44.691,26.097 -0.256,51.753 z"
       style="fill:#4fc6f4;fill-opacity:1;fill-rule:nonzero;stroke:#231f20;stroke-width:1;stroke-linecap:butt;stroke-linejoin:miter;stroke-miterlimit:10;stroke-dasharray:none;stroke-opacity:1"
       transform="matrix(1.3333333,0,0,-1.3333333,518.418,956.05507)" />
    <path
       id="path22"
       d="M 0,0 41.815,25.98 89.434,-1.246 135.691,25.98 177.09,2.631 v -57.184 l 47.215,-26.585 v -53.03 l 45,-30.876 1.938,-52.061 -44.722,-27.939 -1.523,-54.861 -46.108,-29.907 -0.415,-55.938 -42.23,-27.969 -46.811,30.877 L 42.923,-411.503 0,-388.381 v 56.215 l -46.107,27.277 v 55.384 l -46.661,28.523 v 54.276 l 46.661,28.523 0.554,54.415 48.045,29.353 z"
       style="fill:#4fc6f4;fill-opacity:1;fill-rule:nonzero;stroke:#231f20;stroke-width:1;stroke-linecap:butt;stroke-linejoin:miter;stroke-miterlimit:10;stroke-dasharray:none;stroke-opacity:1"
       transform="matrix(1.3333333,0,0,-1.3333333,274.89107,432.4164)" />
    <path
       id="path23"
       d="M 6.6923344,-8.8005911e-6 V -1.0643303 H 2.4384281 v -0.024752 l 0.7617188,-0.7012971 c 1.9921875,-1.9141286 3.2578125,-3.3249733 3.2578125,-5.0740908 0,-1.3530909 -0.8554688,-2.7474346 -2.8945313,-2.7474346 -1.0898437,0 -2.015625,0.4125277 -2.67187497,0.9653149 l 0.39843747,0.8993104 c 0.4453125,-0.3630244 1.1484375,-0.8003038 2.015625,-0.8003038 1.40625,0 1.875,0.8828093 1.875,1.8481242 -0.011719,1.4190953 -1.1132812,2.6401773 -3.5273437,4.9420819 L 0.65717813,-0.78381145 V -8.8005911e-6 Z m 4.2011716,0 h 1.230469 V -9.4468934 h -1.089844 l -2.0624997,1.1055743 0.2460937,0.9735654 1.640625,-0.8910599 h 0.03516 z m 0,0"
       style="fill:#231f20;fill-opacity:1;fill-rule:nonzero;stroke:none"
       aria-label="21"
       transform="matrix(1.3333333,0,0,1.8938122,685.8972,1232.4063)" />
  </g>
</svg>
