<?xml version="1.0" encoding="UTF-8" standalone="no"?>
<!-- Created with Inkscape (http://www.inkscape.org/) -->

<svg
   version="1.1"
   id="svg1"
   width="793.70135"
   height="1248"
   viewBox="0 0 793.70135 1248"
   sodipodi:docname="upload_m4zgrsfbh3bfu4gfzvnre5ui72.pdf"
   xmlns:inkscape="http://www.inkscape.org/namespaces/inkscape"
   xmlns:sodipodi="http://sodipodi.sourceforge.net/DTD/sodipodi-0.dtd"
   xmlns="http://www.w3.org/2000/svg"
   xmlns:svg="http://www.w3.org/2000/svg">
  <defs
     id="defs1" />
  <sodipodi:namedview
     id="namedview1"
     pagecolor="#ffffff"
     bordercolor="#000000"
     borderopacity="0.25"
     inkscape:showpageshadow="2"
     inkscape:pageopacity="0.0"
     inkscape:pagecheckerboard="0"
     inkscape:deskcolor="#d1d1d1">
    <inkscape:page
       x="0"
       y="0"
       inkscape:label="1"
       id="page1"
       width="793.70135"
       height="1248"
       margin="8.7091064 7.6493335 166.31067 21.996933"
       bleed="0" />
  </sodipodi:namedview>
  <g
     id="layer-MC0"
     inkscape:groupmode="layer"
     inkscape:label="Layer 1">
    <path
       id="path1"
       d="m 0,0 -45.166,-26.375 0.259,-52.303 45.424,-25.927 45.166,26.375 -0.258,52.303 z"
       style="fill:#4fc6f4;fill-opacity:1;fill-rule:nonzero;stroke:#231f20;stroke-width:1;stroke-linecap:butt;stroke-linejoin:miter;stroke-miterlimit:10;stroke-dasharray:none;stroke-opacity:1"
       transform="matrix(1.3333333,0,0,-1.3333333,340.04813,167.07987)" />
    <path
       id="path2"
       d="m 0,0 -45.166,-26.375 0.259,-52.303 45.424,-25.927 45.166,26.375 -0.258,52.303 z"
       style="fill:#4fc6f4;fill-opacity:1;fill-rule:nonzero;stroke:#231f20;stroke-width:1;stroke-linecap:butt;stroke-linejoin:miter;stroke-miterlimit:10;stroke-dasharray:none;stroke-opacity:1"
       transform="matrix(1.3333333,0,0,-1.3333333,465.99707,167.07987)" />
    <path
       id="path3"
       d="m 0,0 -45.166,-26.375 0.259,-52.303 45.424,-25.927 45.166,26.375 -0.258,52.303 z"
       style="fill:#4fc6f4;fill-opacity:1;fill-rule:nonzero;stroke:#231f20;stroke-width:1;stroke-linecap:butt;stroke-linejoin:miter;stroke-miterlimit:10;stroke-dasharray:none;stroke-opacity:1"
       transform="matrix(1.3333333,0,0,-1.3333333,591.94613,167.07987)" />
    <path
       id="path4"
       d="m 0,0 -45.166,-26.375 0.259,-52.303 45.424,-25.927 45.166,26.375 -0.258,52.303 z"
       style="fill:#4fc6f4;fill-opacity:1;fill-rule:nonzero;stroke:#231f20;stroke-width:1;stroke-linecap:butt;stroke-linejoin:miter;stroke-miterlimit:10;stroke-dasharray:none;stroke-opacity:1"
       transform="matrix(1.3333333,0,0,-1.3333333,277.0736,279.82653)" />
    <path
       id="path5"
       d="m 0,0 -45.166,-26.375 0.259,-52.303 45.424,-25.927 45.166,26.375 -0.258,52.303 z"
       style="fill:#4fc6f4;fill-opacity:1;fill-rule:nonzero;stroke:#231f20;stroke-width:1;stroke-linecap:butt;stroke-linejoin:miter;stroke-miterlimit:10;stroke-dasharray:none;stroke-opacity:1"
       transform="matrix(1.3333333,0,0,-1.3333333,147.75453,279.82653)" />
    <path
       id="path6"
       d="m 0,0 -45.166,-26.375 0.259,-52.303 45.424,-25.927 45.166,26.375 -0.258,52.303 z"
       style="fill:#4fc6f4;fill-opacity:1;fill-rule:nonzero;stroke:#231f20;stroke-width:1;stroke-linecap:butt;stroke-linejoin:miter;stroke-miterlimit:10;stroke-dasharray:none;stroke-opacity:1"
       transform="matrix(1.3333333,0,0,-1.3333333,403.02253,279.82653)" />
    <path
       id="path7"
       d="m 0,0 -45.166,-26.375 0.259,-52.303 45.424,-25.927 45.166,26.375 -0.258,52.303 z"
       style="fill:#4fc6f4;fill-opacity:1;fill-rule:nonzero;stroke:#231f20;stroke-width:1;stroke-linecap:butt;stroke-linejoin:miter;stroke-miterlimit:10;stroke-dasharray:none;stroke-opacity:1"
       transform="matrix(1.3333333,0,0,-1.3333333,528.9716,279.82653)" />
    <path
       id="path8"
       d="m 0,0 -45.166,-26.375 0.259,-52.303 45.424,-25.927 45.167,26.375 -0.259,52.303 z"
       style="fill:#4fc6f4;fill-opacity:1;fill-rule:nonzero;stroke:#231f20;stroke-width:1;stroke-linecap:butt;stroke-linejoin:miter;stroke-miterlimit:10;stroke-dasharray:none;stroke-opacity:1"
       transform="matrix(1.3333333,0,0,-1.3333333,658.72427,279.82653)" />
    <path
       id="path9"
       d="m 0,0 -45.166,-26.375 0.259,-52.303 45.424,-25.927 45.166,26.375 -0.258,52.303 z"
       style="fill:#4fc6f4;fill-opacity:1;fill-rule:nonzero;stroke:#231f20;stroke-width:1;stroke-linecap:butt;stroke-linejoin:miter;stroke-miterlimit:10;stroke-dasharray:none;stroke-opacity:1"
       transform="matrix(1.3333333,0,0,-1.3333333,724.47213,397.34693)" />
    <path
       id="path10"
       d="m 0,0 -45.166,-26.375 0.259,-52.303 45.424,-25.927 45.166,26.375 -0.258,52.303 z"
       style="fill:#4fc6f4;fill-opacity:1;fill-rule:nonzero;stroke:#231f20;stroke-width:1;stroke-linecap:butt;stroke-linejoin:miter;stroke-miterlimit:10;stroke-dasharray:none;stroke-opacity:1"
       transform="matrix(1.3333333,0,0,-1.3333333,82.887067,395.7688)" />
    <path
       id="path11"
       d="m 0,0 -45.166,-26.375 0.259,-52.303 45.424,-25.927 45.166,26.375 -0.258,52.303 z"
       style="fill:#4fc6f4;fill-opacity:1;fill-rule:nonzero;stroke:#231f20;stroke-width:1;stroke-linecap:butt;stroke-linejoin:miter;stroke-miterlimit:10;stroke-dasharray:none;stroke-opacity:1"
       transform="matrix(1.3333333,0,0,-1.3333333,214.09907,392.8152)" />
    <path
       id="path12"
       d="m 0,0 -45.166,-26.375 0.259,-52.303 45.424,-25.927 45.166,26.375 -0.258,52.303 z"
       style="fill:#4fc6f4;fill-opacity:1;fill-rule:nonzero;stroke:#231f20;stroke-width:1;stroke-linecap:butt;stroke-linejoin:miter;stroke-miterlimit:10;stroke-dasharray:none;stroke-opacity:1"
       transform="matrix(1.3333333,0,0,-1.3333333,591.94613,392.8152)" />
    <path
       id="path13"
       d="m 0,0 -45.166,-26.375 0.259,-52.303 45.424,-25.927 45.166,26.375 -0.258,52.303 z"
       style="fill:#4fc6f4;fill-opacity:1;fill-rule:nonzero;stroke:#231f20;stroke-width:1;stroke-linecap:butt;stroke-linejoin:miter;stroke-miterlimit:10;stroke-dasharray:none;stroke-opacity:1"
       transform="matrix(1.3333333,0,0,-1.3333333,151.12453,505.56187)" />
    <path
       id="path14"
       d="m 0,0 -45.166,-26.375 0.259,-52.303 45.424,-25.927 45.166,26.375 -0.258,52.303 z"
       style="fill:#4fc6f4;fill-opacity:1;fill-rule:nonzero;stroke:#231f20;stroke-width:1;stroke-linecap:butt;stroke-linejoin:miter;stroke-miterlimit:10;stroke-dasharray:none;stroke-opacity:1"
       transform="matrix(1.3333333,0,0,-1.3333333,654.92067,505.56187)" />
    <path
       id="path15"
       d="m 0,0 -45.166,-26.375 0.259,-52.303 45.424,-25.927 45.166,26.375 -0.258,52.303 z"
       style="fill:#4fc6f4;fill-opacity:1;fill-rule:nonzero;stroke:#231f20;stroke-width:1;stroke-linecap:butt;stroke-linejoin:miter;stroke-miterlimit:10;stroke-dasharray:none;stroke-opacity:1"
       transform="matrix(1.3333333,0,0,-1.3333333,88.15,618.55067)" />
    <path
       id="path16"
       d="m 0,0 -45.166,-26.375 0.259,-52.303 45.424,-25.927 45.166,26.375 -0.258,52.303 z"
       style="fill:#4fc6f4;fill-opacity:1;fill-rule:nonzero;stroke:#231f20;stroke-width:1;stroke-linecap:butt;stroke-linejoin:miter;stroke-miterlimit:10;stroke-dasharray:none;stroke-opacity:1"
       transform="matrix(1.3333333,0,0,-1.3333333,717.8952,618.55067)" />
    <path
       id="path17"
       d="m 0,0 -45.166,-26.375 0.259,-52.303 45.424,-25.927 45.166,26.375 -0.258,52.303 z"
       style="fill:#4fc6f4;fill-opacity:1;fill-rule:nonzero;stroke:#231f20;stroke-width:1;stroke-linecap:butt;stroke-linejoin:miter;stroke-miterlimit:10;stroke-dasharray:none;stroke-opacity:1"
       transform="matrix(1.3333333,0,0,-1.3333333,151.12453,731.29733)" />
    <path
       id="path18"
       d="m 0,0 -45.166,-26.375 0.259,-52.303 45.424,-25.927 45.166,26.375 -0.258,52.303 z"
       style="fill:#4fc6f4;fill-opacity:1;fill-rule:nonzero;stroke:#231f20;stroke-width:1;stroke-linecap:butt;stroke-linejoin:miter;stroke-miterlimit:10;stroke-dasharray:none;stroke-opacity:1"
       transform="matrix(1.3333333,0,0,-1.3333333,654.92067,731.29733)" />
    <path
       id="path19"
       d="m 0,0 -45.166,-26.375 0.259,-52.303 45.424,-25.927 45.166,26.375 -0.258,52.303 z"
       style="fill:#4fc6f4;fill-opacity:1;fill-rule:nonzero;stroke:#231f20;stroke-width:1;stroke-linecap:butt;stroke-linejoin:miter;stroke-miterlimit:10;stroke-dasharray:none;stroke-opacity:1"
       transform="matrix(1.3333333,0,0,-1.3333333,214.09907,844.286)" />
    <path
       id="path20"
       d="m 0,0 -45.166,-26.375 0.259,-52.303 45.424,-25.927 45.166,26.375 -0.258,52.303 z"
       style="fill:#4fc6f4;fill-opacity:1;fill-rule:nonzero;stroke:#231f20;stroke-width:1;stroke-linecap:butt;stroke-linejoin:miter;stroke-miterlimit:10;stroke-dasharray:none;stroke-opacity:1"
       transform="matrix(1.3333333,0,0,-1.3333333,591.94613,844.286)" />
    <path
       id="path21"
       d="m 0,0 -45.166,-26.375 0.259,-52.303 45.424,-25.927 45.166,26.375 -0.258,52.303 z"
       style="fill:#4fc6f4;fill-opacity:1;fill-rule:nonzero;stroke:#231f20;stroke-width:1;stroke-linecap:butt;stroke-linejoin:miter;stroke-miterlimit:10;stroke-dasharray:none;stroke-opacity:1"
       transform="matrix(1.3333333,0,0,-1.3333333,277.0736,957.0328)" />
    <path
       id="path22"
       d="m 0,0 -45.166,-26.375 0.259,-52.303 45.424,-25.927 45.166,26.375 -0.258,52.303 z"
       style="fill:#4fc6f4;fill-opacity:1;fill-rule:nonzero;stroke:#231f20;stroke-width:1;stroke-linecap:butt;stroke-linejoin:miter;stroke-miterlimit:10;stroke-dasharray:none;stroke-opacity:1"
       transform="matrix(1.3333333,0,0,-1.3333333,403.02253,957.0328)" />
    <path
       id="path23"
       d="m 0,0 -45.166,-26.375 0.259,-52.303 45.424,-25.927 45.166,26.375 -0.258,52.303 z"
       style="fill:#4fc6f4;fill-opacity:1;fill-rule:nonzero;stroke:#231f20;stroke-width:1;stroke-linecap:butt;stroke-linejoin:miter;stroke-miterlimit:10;stroke-dasharray:none;stroke-opacity:1"
       transform="matrix(1.3333333,0,0,-1.3333333,528.9716,957.0328)" />
    <path
       id="path24"
       d="m 0,0 42.26,26.256 48.125,-27.515 46.749,27.515 41.84,-23.597 v -57.793 l 47.718,-26.867 v -53.594 l 45.478,-31.205 1.959,-52.615 -45.198,-28.236 -1.54,-55.444 -46.597,-30.226 -0.42,-56.533 -42.68,-28.266 -47.309,31.205 L 43.379,-415.881 0,-392.512 v 56.813 l -46.598,27.566 v 55.974 l -47.157,28.826 v 54.854 l 47.157,28.826 0.56,54.994 48.557,29.665 z"
       style="fill:#4fc6f4;fill-opacity:1;fill-rule:nonzero;stroke:#231f20;stroke-width:1;stroke-linecap:butt;stroke-linejoin:miter;stroke-miterlimit:10;stroke-dasharray:none;stroke-opacity:1"
       transform="matrix(1.3333333,0,0,-1.3333333,282.854,427.82347)" />
    <path
       id="path25"
       d="M 6.6923344,-8.8005911e-6 V -1.0643303 H 2.4384281 v -0.024752 l 0.7617188,-0.7012971 c 1.9921875,-1.9141286 3.2578125,-3.3249733 3.2578125,-5.0740908 0,-1.3530909 -0.8554688,-2.7474346 -2.8945313,-2.7474346 -1.0898437,0 -2.015625,0.4125277 -2.67187497,0.9653149 l 0.39843747,0.8993104 c 0.4453125,-0.3630244 1.1484375,-0.8003038 2.015625,-0.8003038 1.40625,0 1.875,0.8828093 1.875,1.8481242 -0.011719,1.4190953 -1.1132812,2.6401773 -3.5273437,4.9420819 L 0.65717813,-0.78381145 V -8.8005911e-6 Z M 8.0692875,-0.47854095 c 0.46875,0.30527051 1.3945313,0.63529268 2.4609375,0.63529268 2.261719,0 3.445313,-1.32008863 3.445313,-2.82994013 0,-1.3283392 -0.949219,-2.1946474 -2.109375,-2.4256629 v -0.033002 c 1.160156,-0.4207783 1.746093,-1.2540843 1.746093,-2.2276497 0,-1.146827 -0.84375,-2.2524013 -2.707031,-2.2524013 -1.0195312,0 -1.9804687,0.3630244 -2.4726562,0.7260488 l 0.3398437,0.9323126 c 0.3984375,-0.2887694 1.125,-0.6270421 1.8867185,-0.6270421 1.183594,0 1.652344,0.6682949 1.652344,1.4273459 0,1.1220754 -1.171875,1.6006075 -2.097656,1.6006075 H 9.498975 v 0.9570643 h 0.714844 c 1.230469,0 2.425781,0.5692882 2.4375,1.8893769 0.01172,0.7838027 -0.492188,1.83162305 -2.132813,1.83162305 -0.8906247,0 -1.7343747,-0.36302435 -2.097656,-0.59403995 z m 0,0"
       style="fill:#231f20;fill-opacity:1;fill-rule:nonzero;stroke:none"
       aria-label="23"
       transform="matrix(1.3333333,0,0,1.8938122,685.8972,1232.4063)" />
  </g>
</svg>
