<?xml version="1.0" encoding="UTF-8" standalone="no"?>
<!-- Created with Inkscape (http://www.inkscape.org/) -->

<svg
   version="1.1"
   id="svg1"
   width="793.70135"
   height="1248"
   viewBox="0 0 793.70135 1248"
   sodipodi:docname="upload_rgw6r443sokf5d4qzfwobcrufx.pdf"
   xmlns:inkscape="http://www.inkscape.org/namespaces/inkscape"
   xmlns:sodipodi="http://sodipodi.sourceforge.net/DTD/sodipodi-0.dtd"
   xmlns="http://www.w3.org/2000/svg"
   xmlns:svg="http://www.w3.org/2000/svg">
  <defs
     id="defs1" />
  <sodipodi:namedview
     id="namedview1"
     pagecolor="#ffffff"
     bordercolor="#000000"
     borderopacity="0.25"
     inkscape:showpageshadow="2"
     inkscape:pageopacity="0.0"
     inkscape:pagecheckerboard="0"
     inkscape:deskcolor="#d1d1d1">
    <inkscape:page
       x="0"
       y="0"
       inkscape:label="1"
       id="page1"
       width="793.70135"
       height="1248"
       margin="8.7091064 24.849333 19.879999 18.0588"
       bleed="0" />
  </sodipodi:namedview>
  <g
     id="layer-MC0"
     inkscape:groupmode="layer"
     inkscape:label="Layer 1">
    <path
       id="path1"
       d="M 6.6914344,-8.8005911e-6 V -1.0643303 H 2.4375281 v -0.024752 l 0.7617188,-0.7012971 c 1.9921875,-1.9141286 3.2578125,-3.3249733 3.2578125,-5.0740908 0,-1.3530909 -0.8554688,-2.7474346 -2.8945313,-2.7474346 -1.0898437,0 -2.015625,0.4125277 -2.67187498,0.9653149 l 0.39843748,0.8993104 c 0.4453125,-0.3630244 1.1484375,-0.8003038 2.015625,-0.8003038 1.40625,0 1.875,0.8828093 1.875,1.8481242 -0.011719,1.4190953 -1.1132812,2.6401773 -3.5273437,4.9420819 L 0.65627812,-0.78381145 V -8.8005911e-6 Z M 8.8535437,0.14850118 c 0.3046875,0.008251 0.7148438,0 1.1835933,-0.07425499 1.019532,-0.11550776 2.015625,-0.55278714 2.742188,-1.26233479 0.9375,-0.907561 1.628906,-2.3596585 1.628906,-4.4387982 0,-2.4091618 -1.195312,-3.9850177 -3.128906,-3.9850177 -1.9335938,0 -3.2226563,1.5758559 -3.2226563,3.3579756 0,1.6171086 1.0898438,2.8959445 2.7890623,2.8959445 0.949219,0 1.699219,-0.3795255 2.226563,-1.0148181 h 0.04687 c -0.175782,1.1138248 -0.632813,1.9471308 -1.253907,2.5081684 -0.539062,0.5115344 -1.230468,0.8168049 -1.9804683,0.91581156 -0.4335937,0.0495033 -0.75,0.074255 -1.03125,0.0495033 z M 11.185575,-8.6383391 c 1.335937,0 1.933594,1.2375831 1.933594,2.8546918 0,0.1980133 -0.04687,0.3465233 -0.117188,0.462031 -0.339844,0.5692883 -1.007812,0.9900665 -1.863281,0.9900665 -1.101563,0 -1.8164063,-0.833306 -1.8164063,-2.0048847 0,-1.3365897 0.7734373,-2.3019046 1.8632813,-2.3019046 z m 0,0"
       style="fill:#231f20;fill-opacity:1;fill-rule:nonzero;stroke:none"
       aria-label="29"
       transform="matrix(1.3333333,0,0,1.8938122,685.8984,1232.4063)" />
    <path
       id="path2"
       d="m 0,0 -44.77,-26.144 0.256,-51.845 45.027,-25.7 44.77,26.144 -0.256,51.845 z"
       style="fill:#4fc6f4;fill-opacity:1;fill-rule:nonzero;stroke:#231f20;stroke-width:1;stroke-linecap:butt;stroke-linejoin:miter;stroke-miterlimit:10;stroke-dasharray:none;stroke-opacity:1"
       transform="matrix(1.3333333,0,0,-1.3333333,206.10707,131.65013)" />
    <path
       id="path3"
       d="m 0,0 -44.77,-26.144 0.256,-51.845 45.027,-25.7 44.77,26.144 -0.256,51.845 z"
       style="fill:#4fc6f4;fill-opacity:1;fill-rule:nonzero;stroke:#231f20;stroke-width:1;stroke-linecap:butt;stroke-linejoin:miter;stroke-miterlimit:10;stroke-dasharray:none;stroke-opacity:1"
       transform="matrix(1.3333333,0,0,-1.3333333,330.95253,131.65013)" />
    <path
       id="path4"
       d="m 0,0 -44.77,-26.144 0.256,-51.845 45.027,-25.7 44.77,26.144 -0.256,51.845 z"
       style="fill:#4fc6f4;fill-opacity:1;fill-rule:nonzero;stroke:#231f20;stroke-width:1;stroke-linecap:butt;stroke-linejoin:miter;stroke-miterlimit:10;stroke-dasharray:none;stroke-opacity:1"
       transform="matrix(1.3333333,0,0,-1.3333333,455.79813,131.65013)" />
    <path
       id="path5"
       d="m 0,0 -44.77,-26.144 0.256,-51.845 45.027,-25.7 44.77,26.144 -0.256,51.845 z"
       style="fill:#4fc6f4;fill-opacity:1;fill-rule:nonzero;stroke:#231f20;stroke-width:1;stroke-linecap:butt;stroke-linejoin:miter;stroke-miterlimit:10;stroke-dasharray:none;stroke-opacity:1"
       transform="matrix(1.3333333,0,0,-1.3333333,580.6436,131.65013)" />
    <path
       id="path6"
       d="m 0,0 -44.77,-26.144 0.256,-51.845 45.027,-25.7 44.77,26.144 -0.256,51.845 z"
       style="fill:#4fc6f4;fill-opacity:1;fill-rule:nonzero;stroke:#231f20;stroke-width:1;stroke-linecap:butt;stroke-linejoin:miter;stroke-miterlimit:10;stroke-dasharray:none;stroke-opacity:1"
       transform="matrix(1.3333333,0,0,-1.3333333,143.6844,243.40907)" />
    <path
       id="path7"
       d="m 0,0 -44.77,-26.144 0.256,-51.845 45.027,-25.7 44.77,26.144 -0.256,51.845 z"
       style="fill:#4fc6f4;fill-opacity:1;fill-rule:nonzero;stroke:#231f20;stroke-width:1;stroke-linecap:butt;stroke-linejoin:miter;stroke-miterlimit:10;stroke-dasharray:none;stroke-opacity:1"
       transform="matrix(1.3333333,0,0,-1.3333333,268.52987,243.40907)" />
    <path
       id="path8"
       d="m 0,0 -44.77,-26.144 0.256,-51.845 45.027,-25.7 44.77,26.144 -0.256,51.845 z"
       style="fill:#4fc6f4;fill-opacity:1;fill-rule:nonzero;stroke:#231f20;stroke-width:1;stroke-linecap:butt;stroke-linejoin:miter;stroke-miterlimit:10;stroke-dasharray:none;stroke-opacity:1"
       transform="matrix(1.3333333,0,0,-1.3333333,393.37533,243.40907)" />
    <path
       id="path9"
       d="m 0,0 -44.77,-26.144 0.256,-51.845 45.027,-25.7 44.77,26.144 -0.256,51.845 z"
       style="fill:#4fc6f4;fill-opacity:1;fill-rule:nonzero;stroke:#231f20;stroke-width:1;stroke-linecap:butt;stroke-linejoin:miter;stroke-miterlimit:10;stroke-dasharray:none;stroke-opacity:1"
       transform="matrix(1.3333333,0,0,-1.3333333,518.2208,243.40907)" />
    <path
       id="path10"
       d="m 0,0 -44.77,-26.144 0.256,-51.845 45.027,-25.7 44.77,26.144 -0.256,51.845 z"
       style="fill:#4fc6f4;fill-opacity:1;fill-rule:nonzero;stroke:#231f20;stroke-width:1;stroke-linecap:butt;stroke-linejoin:miter;stroke-miterlimit:10;stroke-dasharray:none;stroke-opacity:1"
       transform="matrix(1.3333333,0,0,-1.3333333,643.06627,243.40907)" />
    <path
       id="path11"
       d="m 0,0 -44.77,-26.144 0.256,-51.845 45.027,-25.7 44.77,26.144 -0.256,51.845 z"
       style="fill:#4fc6f4;fill-opacity:1;fill-rule:nonzero;stroke:#231f20;stroke-width:1;stroke-linecap:butt;stroke-linejoin:miter;stroke-miterlimit:10;stroke-dasharray:none;stroke-opacity:1"
       transform="matrix(1.3333333,0,0,-1.3333333,393.37533,20.650267)" />
    <path
       id="path12"
       d="m 0,0 -44.77,-26.144 0.256,-51.845 45.027,-25.7 44.77,26.144 -0.256,51.845 z"
       style="fill:#4fc6f4;fill-opacity:1;fill-rule:nonzero;stroke:#231f20;stroke-width:1;stroke-linecap:butt;stroke-linejoin:miter;stroke-miterlimit:10;stroke-dasharray:none;stroke-opacity:1"
       transform="matrix(1.3333333,0,0,-1.3333333,268.52987,20.650267)" />
    <path
       id="path13"
       d="m 0,0 -44.77,-26.144 0.256,-51.845 45.027,-25.7 44.77,26.144 -0.256,51.845 z"
       style="fill:#4fc6f4;fill-opacity:1;fill-rule:nonzero;stroke:#231f20;stroke-width:1;stroke-linecap:butt;stroke-linejoin:miter;stroke-miterlimit:10;stroke-dasharray:none;stroke-opacity:1"
       transform="matrix(1.3333333,0,0,-1.3333333,707.80533,353.67653)" />
    <path
       id="path14"
       d="m 0,0 -44.77,-26.144 0.256,-51.845 45.027,-25.7 44.77,26.144 -0.256,51.845 z"
       style="fill:#4fc6f4;fill-opacity:1;fill-rule:nonzero;stroke:#231f20;stroke-width:1;stroke-linecap:butt;stroke-linejoin:miter;stroke-miterlimit:10;stroke-dasharray:none;stroke-opacity:1"
       transform="matrix(1.3333333,0,0,-1.3333333,206.10707,355.40773)" />
    <path
       id="path15"
       d="m 0,0 -44.77,-26.144 0.256,-51.845 45.027,-25.7 44.77,26.144 -0.256,51.845 z"
       style="fill:#4fc6f4;fill-opacity:1;fill-rule:nonzero;stroke:#231f20;stroke-width:1;stroke-linecap:butt;stroke-linejoin:miter;stroke-miterlimit:10;stroke-dasharray:none;stroke-opacity:1"
       transform="matrix(1.3333333,0,0,-1.3333333,580.6436,355.40773)" />
    <path
       id="path16"
       d="m 0,0 -44.77,-26.144 0.256,-51.845 45.027,-25.7 44.77,26.144 -0.256,51.845 z"
       style="fill:#4fc6f4;fill-opacity:1;fill-rule:nonzero;stroke:#231f20;stroke-width:1;stroke-linecap:butt;stroke-linejoin:miter;stroke-miterlimit:10;stroke-dasharray:none;stroke-opacity:1"
       transform="matrix(1.3333333,0,0,-1.3333333,143.6844,467.16653)" />
    <path
       id="path17"
       d="m 0,0 -44.77,-26.144 0.256,-51.845 45.027,-25.7 44.77,26.144 -0.256,51.845 z"
       style="fill:#4fc6f4;fill-opacity:1;fill-rule:nonzero;stroke:#231f20;stroke-width:1;stroke-linecap:butt;stroke-linejoin:miter;stroke-miterlimit:10;stroke-dasharray:none;stroke-opacity:1"
       transform="matrix(1.3333333,0,0,-1.3333333,643.06627,467.16653)" />
    <path
       id="path18"
       d="m 0,0 -44.77,-26.144 0.256,-51.845 45.027,-25.7 44.77,26.144 -0.256,51.845 z"
       style="fill:#4fc6f4;fill-opacity:1;fill-rule:nonzero;stroke:#231f20;stroke-width:1;stroke-linecap:butt;stroke-linejoin:miter;stroke-miterlimit:10;stroke-dasharray:none;stroke-opacity:1"
       transform="matrix(1.3333333,0,0,-1.3333333,81.2616,579.16533)" />
    <path
       id="path19"
       d="m 0,0 -44.77,-26.144 0.256,-51.845 45.027,-25.7 44.77,26.144 -0.256,51.845 z"
       style="fill:#4fc6f4;fill-opacity:1;fill-rule:nonzero;stroke:#231f20;stroke-width:1;stroke-linecap:butt;stroke-linejoin:miter;stroke-miterlimit:10;stroke-dasharray:none;stroke-opacity:1"
       transform="matrix(1.3333333,0,0,-1.3333333,705.48907,579.16533)" />
    <path
       id="path20"
       d="m 0,0 -44.77,-26.144 0.256,-51.845 45.027,-25.7 44.77,26.144 -0.256,51.845 z"
       style="fill:#4fc6f4;fill-opacity:1;fill-rule:nonzero;stroke:#231f20;stroke-width:1;stroke-linecap:butt;stroke-linejoin:miter;stroke-miterlimit:10;stroke-dasharray:none;stroke-opacity:1"
       transform="matrix(1.3333333,0,0,-1.3333333,143.6844,690.92413)" />
    <path
       id="path21"
       d="m 0,0 -44.77,-26.144 0.256,-51.845 45.027,-25.7 44.77,26.144 -0.256,51.845 z"
       style="fill:#4fc6f4;fill-opacity:1;fill-rule:nonzero;stroke:#231f20;stroke-width:1;stroke-linecap:butt;stroke-linejoin:miter;stroke-miterlimit:10;stroke-dasharray:none;stroke-opacity:1"
       transform="matrix(1.3333333,0,0,-1.3333333,643.06627,690.92413)" />
    <path
       id="path22"
       d="m 0,0 -44.77,-26.144 0.256,-51.845 45.027,-25.7 44.77,26.144 -0.256,51.845 z"
       style="fill:#4fc6f4;fill-opacity:1;fill-rule:nonzero;stroke:#231f20;stroke-width:1;stroke-linecap:butt;stroke-linejoin:miter;stroke-miterlimit:10;stroke-dasharray:none;stroke-opacity:1"
       transform="matrix(1.3333333,0,0,-1.3333333,206.10707,802.9228)" />
    <path
       id="path23"
       d="m 0,0 -44.77,-26.144 0.256,-51.845 45.027,-25.7 44.77,26.144 -0.256,51.845 z"
       style="fill:#4fc6f4;fill-opacity:1;fill-rule:nonzero;stroke:#231f20;stroke-width:1;stroke-linecap:butt;stroke-linejoin:miter;stroke-miterlimit:10;stroke-dasharray:none;stroke-opacity:1"
       transform="matrix(1.3333333,0,0,-1.3333333,580.6436,802.9228)" />
    <path
       id="path24"
       d="m 0,0 -44.77,-26.144 0.256,-51.845 45.027,-25.7 44.77,26.144 -0.256,51.845 z"
       style="fill:#4fc6f4;fill-opacity:1;fill-rule:nonzero;stroke:#231f20;stroke-width:1;stroke-linecap:butt;stroke-linejoin:miter;stroke-miterlimit:10;stroke-dasharray:none;stroke-opacity:1"
       transform="matrix(1.3333333,0,0,-1.3333333,268.52987,914.68173)" />
    <path
       id="path25"
       d="m 0,0 -44.77,-26.144 0.256,-51.845 45.027,-25.7 44.77,26.144 -0.256,51.845 z"
       style="fill:#4fc6f4;fill-opacity:1;fill-rule:nonzero;stroke:#231f20;stroke-width:1;stroke-linecap:butt;stroke-linejoin:miter;stroke-miterlimit:10;stroke-dasharray:none;stroke-opacity:1"
       transform="matrix(1.3333333,0,0,-1.3333333,393.37533,914.68173)" />
    <path
       id="path26"
       d="m 0,0 -44.77,-26.144 0.256,-51.845 45.027,-25.7 44.77,26.144 -0.256,51.845 z"
       style="fill:#4fc6f4;fill-opacity:1;fill-rule:nonzero;stroke:#231f20;stroke-width:1;stroke-linecap:butt;stroke-linejoin:miter;stroke-miterlimit:10;stroke-dasharray:none;stroke-opacity:1"
       transform="matrix(1.3333333,0,0,-1.3333333,518.2208,914.68173)" />
    <path
       id="path27"
       d="m 0,0 -44.77,-26.144 0.256,-51.845 45.027,-25.7 44.77,26.144 -0.256,51.845 z"
       style="fill:#4fc6f4;fill-opacity:1;fill-rule:nonzero;stroke:#231f20;stroke-width:1;stroke-linecap:butt;stroke-linejoin:miter;stroke-miterlimit:10;stroke-dasharray:none;stroke-opacity:1"
       transform="matrix(1.3333333,0,0,-1.3333333,455.79813,1021.9669)" />
    <path
       id="path28"
       d="m 0,0 -44.77,-26.144 0.256,-51.845 45.027,-25.7 44.77,26.144 -0.256,51.845 z"
       style="fill:#4fc6f4;fill-opacity:1;fill-rule:nonzero;stroke:#231f20;stroke-width:1;stroke-linecap:butt;stroke-linejoin:miter;stroke-miterlimit:10;stroke-dasharray:none;stroke-opacity:1"
       transform="matrix(1.3333333,0,0,-1.3333333,330.95253,1021.9669)" />
    <path
       id="path29"
       d="m 0,0 -44.77,-26.144 0.256,-51.845 45.027,-25.7 44.77,26.144 -0.256,51.845 z"
       style="fill:#4fc6f4;fill-opacity:1;fill-rule:nonzero;stroke:#231f20;stroke-width:1;stroke-linecap:butt;stroke-linejoin:miter;stroke-miterlimit:10;stroke-dasharray:none;stroke-opacity:1"
       transform="matrix(1.3333333,0,0,-1.3333333,518.2208,20.650267)" />
    <path
       id="path30"
       d="m 0,0 -44.77,-26.144 0.256,-51.845 45.027,-25.7 44.77,26.144 -0.256,51.845 z"
       style="fill:#4fc6f4;fill-opacity:1;fill-rule:nonzero;stroke:#231f20;stroke-width:1;stroke-linecap:butt;stroke-linejoin:miter;stroke-miterlimit:10;stroke-dasharray:none;stroke-opacity:1"
       transform="matrix(1.3333333,0,0,-1.3333333,78.4212,355.40773)" />
    <path
       id="path31"
       d="m 0,0 41.89,26.026 47.703,-27.274 46.34,27.274 41.473,-23.391 v -57.286 l 47.299,-26.631 v -53.125 l 45.08,-30.932 1.942,-52.154 -44.802,-27.988 -1.526,-54.958 -46.189,-29.961 -0.417,-56.038 -42.305,-28.019 -46.895,30.932 L 42.999,-412.237 0,-389.073 v 56.315 l -46.189,27.325 v 55.483 l -46.745,28.574 v 54.373 l 46.745,28.573 0.554,54.512 48.132,29.406 z"
       style="fill:#4fc6f4;fill-opacity:1;fill-rule:nonzero;stroke:#231f20;stroke-width:1;stroke-linecap:butt;stroke-linejoin:miter;stroke-miterlimit:10;stroke-dasharray:none;stroke-opacity:1"
       transform="matrix(1.3333333,0,0,-1.3333333,274.2596,390.1092)" />
  </g>
</svg>
