<?xml version="1.0" encoding="UTF-8" standalone="no"?>
<!-- Created with Inkscape (http://www.inkscape.org/) -->

<svg
   version="1.1"
   id="svg1"
   width="793.70135"
   height="1248"
   viewBox="0 0 793.70135 1248"
   sodipodi:docname="upload_jgdh5kqkvrp6n2vdq3etix6yym.pdf"
   xmlns:inkscape="http://www.inkscape.org/namespaces/inkscape"
   xmlns:sodipodi="http://sodipodi.sourceforge.net/DTD/sodipodi-0.dtd"
   xmlns="http://www.w3.org/2000/svg"
   xmlns:svg="http://www.w3.org/2000/svg">
  <defs
     id="defs1" />
  <sodipodi:namedview
     id="namedview1"
     pagecolor="#ffffff"
     bordercolor="#000000"
     borderopacity="0.25"
     inkscape:showpageshadow="2"
     inkscape:pageopacity="0.0"
     inkscape:pagecheckerboard="0"
     inkscape:deskcolor="#d1d1d1">
    <inkscape:page
       x="0"
       y="0"
       inkscape:label="1"
       id="page1"
       width="793.70135"
       height="1248"
       margin="8.7091064 39.101334 25.059999 39.101067"
       bleed="0" />
  </sodipodi:namedview>
  <g
     id="layer-MC0"
     inkscape:groupmode="layer"
     inkscape:label="Layer 1">
    <path
       id="path1"
       d="m 0.60940312,-0.47854095 c 0.46874998,0.30527051 1.39453128,0.63529268 2.46093748,0.63529268 2.2617188,0 3.4453125,-1.32008863 3.4453125,-2.82994013 0,-1.3283392 -0.9492187,-2.1946474 -2.109375,-2.4256629 v -0.033002 c 1.1601563,-0.4207783 1.7460938,-1.2540843 1.7460938,-2.2276497 0,-1.146827 -0.84375,-2.2524013 -2.7070313,-2.2524013 -1.0195312,0 -1.9804687,0.3630244 -2.47265623,0.7260488 l 0.33984373,0.9323126 c 0.3984375,-0.2887694 1.125,-0.6270421 1.8867188,-0.6270421 1.1835937,0 1.6523437,0.6682949 1.6523437,1.4273459 0,1.1220754 -1.171875,1.6006075 -2.0976562,1.6006075 H 2.0390906 v 0.9570643 h 0.7148438 c 1.2304687,0 2.4257812,0.5692882 2.4375,1.8893769 0.011719,0.7838027 -0.4921875,1.83162305 -2.1328125,1.83162305 -0.890625,0 -1.734375,-0.36302435 -2.09765628,-0.59403995 z M 11.267606,-9.6119045 c -1.9218748,0 -3.2812498,1.7491175 -3.2812498,4.9173303 0.023437,3.1269601 1.2773438,4.85132593 3.1171878,4.85132593 2.097656,0 3.292968,-1.77386913 3.292968,-4.98333473 0,-3.0114523 -1.136718,-4.7853215 -3.128906,-4.7853215 z m -0.07031,0.9900665 c 1.324218,0 1.921875,1.5263526 1.921875,3.8530088 0,2.4174124 -0.632813,3.94376498 -1.933594,3.94376498 -1.171875,0 -1.921875,-1.40259418 -1.921875,-3.85300888 0,-2.5741729 0.808594,-3.9437649 1.933594,-3.9437649 z m 0,0"
       style="fill:#231f20;fill-opacity:1;fill-rule:nonzero;stroke:none"
       aria-label="30"
       transform="matrix(1.3333333,0,0,1.8938122,685.8984,1232.4063)" />
    <path
       id="path2"
       d="m 0,0 -42.662,-24.913 0.244,-49.403 42.907,-24.49 42.662,24.913 -0.245,49.403 z"
       style="fill:#4fc6f4;fill-opacity:1;fill-rule:nonzero;stroke:#231f20;stroke-width:1;stroke-linecap:butt;stroke-linejoin:miter;stroke-miterlimit:10;stroke-dasharray:none;stroke-opacity:1"
       transform="matrix(1.3333333,0,0,-1.3333333,218.32507,131.60267)" />
    <path
       id="path3"
       d="m 0,0 -42.662,-24.913 0.244,-49.403 42.907,-24.49 42.662,24.913 -0.245,49.403 z"
       style="fill:#4fc6f4;fill-opacity:1;fill-rule:nonzero;stroke:#231f20;stroke-width:1;stroke-linecap:butt;stroke-linejoin:miter;stroke-miterlimit:10;stroke-dasharray:none;stroke-opacity:1"
       transform="matrix(1.3333333,0,0,-1.3333333,337.2912,131.60267)" />
    <path
       id="path4"
       d="m 0,0 -42.662,-24.913 0.244,-49.403 42.907,-24.49 42.662,24.913 -0.245,49.403 z"
       style="fill:#4fc6f4;fill-opacity:1;fill-rule:nonzero;stroke:#231f20;stroke-width:1;stroke-linecap:butt;stroke-linejoin:miter;stroke-miterlimit:10;stroke-dasharray:none;stroke-opacity:1"
       transform="matrix(1.3333333,0,0,-1.3333333,456.25747,131.60267)" />
    <path
       id="path5"
       d="m 0,0 -42.662,-24.913 0.244,-49.403 42.907,-24.49 42.662,24.913 -0.245,49.403 z"
       style="fill:#4fc6f4;fill-opacity:1;fill-rule:nonzero;stroke:#231f20;stroke-width:1;stroke-linecap:butt;stroke-linejoin:miter;stroke-miterlimit:10;stroke-dasharray:none;stroke-opacity:1"
       transform="matrix(1.3333333,0,0,-1.3333333,575.2236,131.60267)" />
    <path
       id="path6"
       d="m 0,0 -42.662,-24.913 0.244,-49.403 42.907,-24.49 42.662,24.913 -0.245,49.403 z"
       style="fill:#4fc6f4;fill-opacity:1;fill-rule:nonzero;stroke:#231f20;stroke-width:1;stroke-linecap:butt;stroke-linejoin:miter;stroke-miterlimit:10;stroke-dasharray:none;stroke-opacity:1"
       transform="matrix(1.3333333,0,0,-1.3333333,158.842,238.09853)" />
    <path
       id="path7"
       d="m 0,0 -42.662,-24.913 0.244,-49.403 42.907,-24.49 42.662,24.913 -0.245,49.403 z"
       style="fill:#4fc6f4;fill-opacity:1;fill-rule:nonzero;stroke:#231f20;stroke-width:1;stroke-linecap:butt;stroke-linejoin:miter;stroke-miterlimit:10;stroke-dasharray:none;stroke-opacity:1"
       transform="matrix(1.3333333,0,0,-1.3333333,277.80813,238.09853)" />
    <path
       id="path8"
       d="m 0,0 -42.662,-24.913 0.244,-49.403 42.907,-24.49 42.662,24.913 -0.245,49.403 z"
       style="fill:#4fc6f4;fill-opacity:1;fill-rule:nonzero;stroke:#231f20;stroke-width:1;stroke-linecap:butt;stroke-linejoin:miter;stroke-miterlimit:10;stroke-dasharray:none;stroke-opacity:1"
       transform="matrix(1.3333333,0,0,-1.3333333,396.77427,238.09853)" />
    <path
       id="path9"
       d="m 0,0 -42.662,-24.913 0.244,-49.403 42.907,-24.49 42.662,24.913 -0.245,49.403 z"
       style="fill:#4fc6f4;fill-opacity:1;fill-rule:nonzero;stroke:#231f20;stroke-width:1;stroke-linecap:butt;stroke-linejoin:miter;stroke-miterlimit:10;stroke-dasharray:none;stroke-opacity:1"
       transform="matrix(1.3333333,0,0,-1.3333333,515.74053,238.09853)" />
    <path
       id="path10"
       d="m 0,0 -42.662,-24.913 0.244,-49.403 42.907,-24.49 42.662,24.913 -0.245,49.403 z"
       style="fill:#4fc6f4;fill-opacity:1;fill-rule:nonzero;stroke:#231f20;stroke-width:1;stroke-linecap:butt;stroke-linejoin:miter;stroke-miterlimit:10;stroke-dasharray:none;stroke-opacity:1"
       transform="matrix(1.3333333,0,0,-1.3333333,634.70667,238.09853)" />
    <path
       id="path11"
       d="m 0,0 -42.662,-24.913 0.244,-49.403 42.907,-24.49 42.662,24.913 -0.245,49.403 z"
       style="fill:#4fc6f4;fill-opacity:1;fill-rule:nonzero;stroke:#231f20;stroke-width:1;stroke-linecap:butt;stroke-linejoin:miter;stroke-miterlimit:10;stroke-dasharray:none;stroke-opacity:1"
       transform="matrix(1.3333333,0,0,-1.3333333,396.77427,25.830133)" />
    <path
       id="path12"
       d="m 0,0 -42.662,-24.913 0.244,-49.403 42.907,-24.49 42.662,24.913 -0.245,49.403 z"
       style="fill:#4fc6f4;fill-opacity:1;fill-rule:nonzero;stroke:#231f20;stroke-width:1;stroke-linecap:butt;stroke-linejoin:miter;stroke-miterlimit:10;stroke-dasharray:none;stroke-opacity:1"
       transform="matrix(1.3333333,0,0,-1.3333333,277.80813,25.830133)" />
    <path
       id="path13"
       d="m 0,0 -42.662,-24.913 0.244,-49.403 42.907,-24.49 42.662,24.913 -0.245,49.403 z"
       style="fill:#4fc6f4;fill-opacity:1;fill-rule:nonzero;stroke:#231f20;stroke-width:1;stroke-linecap:butt;stroke-linejoin:miter;stroke-miterlimit:10;stroke-dasharray:none;stroke-opacity:1"
       transform="matrix(1.3333333,0,0,-1.3333333,696.39693,343.1732)" />
    <path
       id="path14"
       d="m 0,0 -42.662,-24.913 0.244,-49.403 42.907,-24.49 42.662,24.913 -0.245,49.403 z"
       style="fill:#4fc6f4;fill-opacity:1;fill-rule:nonzero;stroke:#231f20;stroke-width:1;stroke-linecap:butt;stroke-linejoin:miter;stroke-miterlimit:10;stroke-dasharray:none;stroke-opacity:1"
       transform="matrix(1.3333333,0,0,-1.3333333,218.32507,344.8228)" />
    <path
       id="path15"
       d="m 0,0 -42.662,-24.913 0.244,-49.403 42.907,-24.49 42.662,24.913 -0.245,49.403 z"
       style="fill:#4fc6f4;fill-opacity:1;fill-rule:nonzero;stroke:#231f20;stroke-width:1;stroke-linecap:butt;stroke-linejoin:miter;stroke-miterlimit:10;stroke-dasharray:none;stroke-opacity:1"
       transform="matrix(1.3333333,0,0,-1.3333333,575.2236,344.8228)" />
    <path
       id="path16"
       d="m 0,0 -42.662,-24.913 0.244,-49.403 42.907,-24.49 42.662,24.913 -0.245,49.403 z"
       style="fill:#4fc6f4;fill-opacity:1;fill-rule:nonzero;stroke:#231f20;stroke-width:1;stroke-linecap:butt;stroke-linejoin:miter;stroke-miterlimit:10;stroke-dasharray:none;stroke-opacity:1"
       transform="matrix(1.3333333,0,0,-1.3333333,158.842,451.31867)" />
    <path
       id="path17"
       d="m 0,0 -42.662,-24.913 0.244,-49.403 42.907,-24.49 42.662,24.913 -0.245,49.403 z"
       style="fill:#4fc6f4;fill-opacity:1;fill-rule:nonzero;stroke:#231f20;stroke-width:1;stroke-linecap:butt;stroke-linejoin:miter;stroke-miterlimit:10;stroke-dasharray:none;stroke-opacity:1"
       transform="matrix(1.3333333,0,0,-1.3333333,634.70667,451.31867)" />
    <path
       id="path18"
       d="m 0,0 -42.662,-24.913 0.244,-49.403 42.907,-24.49 42.662,24.913 -0.245,49.403 z"
       style="fill:#4fc6f4;fill-opacity:1;fill-rule:nonzero;stroke:#231f20;stroke-width:1;stroke-linecap:butt;stroke-linejoin:miter;stroke-miterlimit:10;stroke-dasharray:none;stroke-opacity:1"
       transform="matrix(1.3333333,0,0,-1.3333333,99.358933,558.04307)" />
    <path
       id="path19"
       d="m 0,0 -42.662,-24.913 0.244,-49.403 42.907,-24.49 42.662,24.913 -0.245,49.403 z"
       style="fill:#4fc6f4;fill-opacity:1;fill-rule:nonzero;stroke:#231f20;stroke-width:1;stroke-linecap:butt;stroke-linejoin:miter;stroke-miterlimit:10;stroke-dasharray:none;stroke-opacity:1"
       transform="matrix(1.3333333,0,0,-1.3333333,694.18973,558.04307)" />
    <path
       id="path20"
       d="m 0,0 -42.662,-24.913 0.244,-49.403 42.907,-24.49 42.662,24.913 -0.245,49.403 z"
       style="fill:#4fc6f4;fill-opacity:1;fill-rule:nonzero;stroke:#231f20;stroke-width:1;stroke-linecap:butt;stroke-linejoin:miter;stroke-miterlimit:10;stroke-dasharray:none;stroke-opacity:1"
       transform="matrix(1.3333333,0,0,-1.3333333,158.842,664.5388)" />
    <path
       id="path21"
       d="m 0,0 -42.662,-24.913 0.244,-49.403 42.907,-24.49 42.662,24.913 -0.245,49.403 z"
       style="fill:#4fc6f4;fill-opacity:1;fill-rule:nonzero;stroke:#231f20;stroke-width:1;stroke-linecap:butt;stroke-linejoin:miter;stroke-miterlimit:10;stroke-dasharray:none;stroke-opacity:1"
       transform="matrix(1.3333333,0,0,-1.3333333,634.70667,664.5388)" />
    <path
       id="path22"
       d="m 0,0 -42.662,-24.913 0.244,-49.403 42.907,-24.49 42.662,24.913 -0.245,49.403 z"
       style="fill:#4fc6f4;fill-opacity:1;fill-rule:nonzero;stroke:#231f20;stroke-width:1;stroke-linecap:butt;stroke-linejoin:miter;stroke-miterlimit:10;stroke-dasharray:none;stroke-opacity:1"
       transform="matrix(1.3333333,0,0,-1.3333333,218.32507,771.2632)" />
    <path
       id="path23"
       d="m 0,0 -42.662,-24.913 0.244,-49.403 42.907,-24.49 42.662,24.913 -0.245,49.403 z"
       style="fill:#4fc6f4;fill-opacity:1;fill-rule:nonzero;stroke:#231f20;stroke-width:1;stroke-linecap:butt;stroke-linejoin:miter;stroke-miterlimit:10;stroke-dasharray:none;stroke-opacity:1"
       transform="matrix(1.3333333,0,0,-1.3333333,575.2236,771.2632)" />
    <path
       id="path24"
       d="m 0,0 -42.662,-24.913 0.244,-49.403 42.907,-24.49 42.662,24.913 -0.245,49.403 z"
       style="fill:#4fc6f4;fill-opacity:1;fill-rule:nonzero;stroke:#231f20;stroke-width:1;stroke-linecap:butt;stroke-linejoin:miter;stroke-miterlimit:10;stroke-dasharray:none;stroke-opacity:1"
       transform="matrix(1.3333333,0,0,-1.3333333,277.80813,877.75907)" />
    <path
       id="path25"
       d="m 0,0 -42.662,-24.913 0.244,-49.403 42.907,-24.49 42.662,24.913 -0.245,49.403 z"
       style="fill:#4fc6f4;fill-opacity:1;fill-rule:nonzero;stroke:#231f20;stroke-width:1;stroke-linecap:butt;stroke-linejoin:miter;stroke-miterlimit:10;stroke-dasharray:none;stroke-opacity:1"
       transform="matrix(1.3333333,0,0,-1.3333333,396.77427,877.75907)" />
    <path
       id="path26"
       d="m 0,0 -42.662,-24.913 0.244,-49.403 42.907,-24.49 42.662,24.913 -0.245,49.403 z"
       style="fill:#4fc6f4;fill-opacity:1;fill-rule:nonzero;stroke:#231f20;stroke-width:1;stroke-linecap:butt;stroke-linejoin:miter;stroke-miterlimit:10;stroke-dasharray:none;stroke-opacity:1"
       transform="matrix(1.3333333,0,0,-1.3333333,515.74053,877.75907)" />
    <path
       id="path27"
       d="m 0,0 -42.662,-24.913 0.244,-49.403 42.907,-24.49 42.662,24.913 -0.245,49.403 z"
       style="fill:#4fc6f4;fill-opacity:1;fill-rule:nonzero;stroke:#231f20;stroke-width:1;stroke-linecap:butt;stroke-linejoin:miter;stroke-miterlimit:10;stroke-dasharray:none;stroke-opacity:1"
       transform="matrix(1.3333333,0,0,-1.3333333,456.25747,979.99187)" />
    <path
       id="path28"
       d="m 0,0 -42.662,-24.913 0.244,-49.403 42.907,-24.49 42.662,24.913 -0.245,49.403 z"
       style="fill:#4fc6f4;fill-opacity:1;fill-rule:nonzero;stroke:#231f20;stroke-width:1;stroke-linecap:butt;stroke-linejoin:miter;stroke-miterlimit:10;stroke-dasharray:none;stroke-opacity:1"
       transform="matrix(1.3333333,0,0,-1.3333333,396.52453,1082.4639)" />
    <path
       id="path29"
       d="m 0,0 -42.662,-24.913 0.244,-49.403 42.907,-24.49 42.662,24.913 -0.245,49.403 z"
       style="fill:#4fc6f4;fill-opacity:1;fill-rule:nonzero;stroke:#231f20;stroke-width:1;stroke-linecap:butt;stroke-linejoin:miter;stroke-miterlimit:10;stroke-dasharray:none;stroke-opacity:1"
       transform="matrix(1.3333333,0,0,-1.3333333,337.2912,979.99187)" />
    <path
       id="path30"
       d="m 0,0 -42.662,-24.913 0.244,-49.403 42.907,-24.49 42.662,24.913 -0.245,49.403 z"
       style="fill:#4fc6f4;fill-opacity:1;fill-rule:nonzero;stroke:#231f20;stroke-width:1;stroke-linecap:butt;stroke-linejoin:miter;stroke-miterlimit:10;stroke-dasharray:none;stroke-opacity:1"
       transform="matrix(1.3333333,0,0,-1.3333333,515.74053,25.830133)" />
    <path
       id="path31"
       d="m 0,0 -42.662,-24.913 0.244,-49.403 42.907,-24.49 42.662,24.913 -0.245,49.403 z"
       style="fill:#4fc6f4;fill-opacity:1;fill-rule:nonzero;stroke:#231f20;stroke-width:1;stroke-linecap:butt;stroke-linejoin:miter;stroke-miterlimit:10;stroke-dasharray:none;stroke-opacity:1"
       transform="matrix(1.3333333,0,0,-1.3333333,96.652267,344.8228)" />
    <path
       id="path32"
       d="M 0,0 39.917,24.8 85.374,-1.19 129.531,24.8 169.052,2.511 v -54.588 l 45.071,-25.378 v -50.623 l 42.957,-29.475 1.851,-49.697 -42.693,-26.671 -1.454,-52.37 -44.014,-28.55 -0.397,-53.398 -40.313,-26.7 -44.686,29.475 -44.4,-27.36 L 0,-370.751 v 53.663 l -44.014,26.039 v 52.87 l -44.543,27.228 v 51.812 l 44.543,27.228 0.528,51.945 45.865,28.021 z"
       style="fill:#4fc6f4;fill-opacity:1;fill-rule:nonzero;stroke:#231f20;stroke-width:1;stroke-linecap:butt;stroke-linejoin:miter;stroke-miterlimit:10;stroke-dasharray:none;stroke-opacity:1"
       transform="matrix(1.3333333,0,0,-1.3333333,283.268,377.89013)" />
  </g>
</svg>
