<?xml version="1.0" encoding="UTF-8" standalone="no"?>
<!-- Created with Inkscape (http://www.inkscape.org/) -->

<svg
   version="1.1"
   id="svg1"
   width="793.70135"
   height="1248"
   viewBox="0 0 793.70135 1248"
   sodipodi:docname="upload_tvcetuai7jfsbx5eibip3yshsm.pdf"
   xmlns:inkscape="http://www.inkscape.org/namespaces/inkscape"
   xmlns:sodipodi="http://sodipodi.sourceforge.net/DTD/sodipodi-0.dtd"
   xmlns="http://www.w3.org/2000/svg"
   xmlns:svg="http://www.w3.org/2000/svg">
  <defs
     id="defs1" />
  <sodipodi:namedview
     id="namedview1"
     pagecolor="#ffffff"
     bordercolor="#000000"
     borderopacity="0.25"
     inkscape:showpageshadow="2"
     inkscape:pageopacity="0.0"
     inkscape:pagecheckerboard="0"
     inkscape:deskcolor="#d1d1d1">
    <inkscape:page
       x="0"
       y="0"
       inkscape:label="1"
       id="page1"
       width="793.70135"
       height="1248"
       margin="8.7091064 6.0906668 25.059999 3.9779866"
       bleed="0" />
  </sodipodi:namedview>
  <g
     id="layer-MC0"
     inkscape:groupmode="layer"
     inkscape:label="Layer 1">
    <path
       id="path1"
       d="m 0.61030313,-0.47854095 c 0.46874997,0.30527051 1.39453127,0.63529268 2.46093747,0.63529268 2.2617188,0 3.4453125,-1.32008863 3.4453125,-2.82994013 0,-1.3283392 -0.9492187,-2.1946474 -2.109375,-2.4256629 v -0.033002 c 1.1601563,-0.4207783 1.7460938,-1.2540843 1.7460938,-2.2276497 0,-1.146827 -0.84375,-2.2524013 -2.7070313,-2.2524013 -1.0195312,0 -1.9804687,0.3630244 -2.47265622,0.7260488 l 0.33984372,0.9323126 c 0.3984375,-0.2887694 1.125,-0.6270421 1.8867188,-0.6270421 1.1835937,0 1.6523437,0.6682949 1.6523437,1.4273459 0,1.1220754 -1.171875,1.6006075 -2.0976562,1.6006075 H 2.0399906 v 0.9570643 h 0.7148438 c 1.2304687,0 2.4257812,0.5692882 2.4375,1.8893769 0.011719,0.7838027 -0.4921875,1.83162305 -2.1328125,1.83162305 -0.890625,0 -1.734375,-0.36302435 -2.09765627,-0.59403995 z M 14.151319,-8.8005911e-6 V -1.0643303 H 9.8974125 v -0.024752 l 0.7617185,-0.7012971 c 1.992188,-1.9141286 3.257813,-3.3249733 3.257813,-5.0740908 0,-1.3530909 -0.855469,-2.7474346 -2.894531,-2.7474346 -1.0898442,0 -2.0156255,0.4125277 -2.6718755,0.9653149 L 8.748975,-7.7472792 C 9.1942875,-8.1103036 9.8974125,-8.547583 10.7646,-8.547583 c 1.40625,0 1.875,0.8828093 1.875,1.8481242 -0.01172,1.4190953 -1.113281,2.6401773 -3.5273437,4.9420819 L 8.1161625,-0.78381145 V -8.8005911e-6 Z m 0,0"
       style="fill:#231f20;fill-opacity:1;fill-rule:nonzero;stroke:none"
       aria-label="32"
       transform="matrix(1.3333333,0,0,1.8938122,685.8972,1232.4063)" />
    <path
       id="path2"
       d="m 0,0 -40.253,-23.506 0.231,-46.613 40.483,-23.107 40.253,23.506 -0.231,46.613 z"
       style="fill:#4fc6f4;fill-opacity:1;fill-rule:nonzero;stroke:#231f20;stroke-width:1;stroke-linecap:butt;stroke-linejoin:miter;stroke-miterlimit:10;stroke-dasharray:none;stroke-opacity:1"
       transform="matrix(1.3333333,0,0,-1.3333333,227.54413,125.62907)" />
    <path
       id="path3"
       d="m 0,0 -40.253,-23.506 0.231,-46.613 40.483,-23.107 40.253,23.506 -0.231,46.613 z"
       style="fill:#4fc6f4;fill-opacity:1;fill-rule:nonzero;stroke:#231f20;stroke-width:1;stroke-linecap:butt;stroke-linejoin:miter;stroke-miterlimit:10;stroke-dasharray:none;stroke-opacity:1"
       transform="matrix(1.3333333,0,0,-1.3333333,339.7916,125.62907)" />
    <path
       id="path4"
       d="m 0,0 -40.253,-23.506 0.231,-46.613 40.483,-23.107 40.253,23.506 -0.231,46.613 z"
       style="fill:#4fc6f4;fill-opacity:1;fill-rule:nonzero;stroke:#231f20;stroke-width:1;stroke-linecap:butt;stroke-linejoin:miter;stroke-miterlimit:10;stroke-dasharray:none;stroke-opacity:1"
       transform="matrix(1.3333333,0,0,-1.3333333,452.03907,125.62907)" />
    <path
       id="path5"
       d="m 0,0 -40.253,-23.506 0.231,-46.613 40.483,-23.107 40.253,23.506 -0.231,46.613 z"
       style="fill:#4fc6f4;fill-opacity:1;fill-rule:nonzero;stroke:#231f20;stroke-width:1;stroke-linecap:butt;stroke-linejoin:miter;stroke-miterlimit:10;stroke-dasharray:none;stroke-opacity:1"
       transform="matrix(1.3333333,0,0,-1.3333333,564.28653,125.62907)" />
    <path
       id="path6"
       d="m 0,0 -40.253,-23.506 0.231,-46.613 40.483,-23.107 40.253,23.506 -0.231,46.613 z"
       style="fill:#4fc6f4;fill-opacity:1;fill-rule:nonzero;stroke:#231f20;stroke-width:1;stroke-linecap:butt;stroke-linejoin:miter;stroke-miterlimit:10;stroke-dasharray:none;stroke-opacity:1"
       transform="matrix(1.3333333,0,0,-1.3333333,171.4204,226.1104)" />
    <path
       id="path7"
       d="m 0,0 -40.253,-23.506 0.231,-46.613 40.483,-23.107 40.253,23.506 -0.231,46.613 z"
       style="fill:#4fc6f4;fill-opacity:1;fill-rule:nonzero;stroke:#231f20;stroke-width:1;stroke-linecap:butt;stroke-linejoin:miter;stroke-miterlimit:10;stroke-dasharray:none;stroke-opacity:1"
       transform="matrix(1.3333333,0,0,-1.3333333,283.66787,226.1104)" />
    <path
       id="path8"
       d="m 0,0 -40.253,-23.506 0.231,-46.613 40.483,-23.107 40.253,23.506 -0.231,46.613 z"
       style="fill:#4fc6f4;fill-opacity:1;fill-rule:nonzero;stroke:#231f20;stroke-width:1;stroke-linecap:butt;stroke-linejoin:miter;stroke-miterlimit:10;stroke-dasharray:none;stroke-opacity:1"
       transform="matrix(1.3333333,0,0,-1.3333333,395.91533,226.1104)" />
    <path
       id="path9"
       d="m 0,0 -40.253,-23.506 0.231,-46.613 40.483,-23.107 40.253,23.506 -0.231,46.613 z"
       style="fill:#4fc6f4;fill-opacity:1;fill-rule:nonzero;stroke:#231f20;stroke-width:1;stroke-linecap:butt;stroke-linejoin:miter;stroke-miterlimit:10;stroke-dasharray:none;stroke-opacity:1"
       transform="matrix(1.3333333,0,0,-1.3333333,508.1628,226.1104)" />
    <path
       id="path10"
       d="m 0,0 -40.253,-23.506 0.231,-46.613 40.483,-23.107 40.253,23.506 -0.231,46.613 z"
       style="fill:#4fc6f4;fill-opacity:1;fill-rule:nonzero;stroke:#231f20;stroke-width:1;stroke-linecap:butt;stroke-linejoin:miter;stroke-miterlimit:10;stroke-dasharray:none;stroke-opacity:1"
       transform="matrix(1.3333333,0,0,-1.3333333,620.41027,226.1104)" />
    <path
       id="path11"
       d="m 0,0 -40.253,-23.506 0.231,-46.613 40.483,-23.107 40.253,23.506 -0.231,46.613 z"
       style="fill:#4fc6f4;fill-opacity:1;fill-rule:nonzero;stroke:#231f20;stroke-width:1;stroke-linecap:butt;stroke-linejoin:miter;stroke-miterlimit:10;stroke-dasharray:none;stroke-opacity:1"
       transform="matrix(1.3333333,0,0,-1.3333333,395.91533,25.830133)" />
    <path
       id="path12"
       d="m 0,0 -40.253,-23.506 0.231,-46.613 40.483,-23.107 40.253,23.506 -0.231,46.613 z"
       style="fill:#4fc6f4;fill-opacity:1;fill-rule:nonzero;stroke:#231f20;stroke-width:1;stroke-linecap:butt;stroke-linejoin:miter;stroke-miterlimit:10;stroke-dasharray:none;stroke-opacity:1"
       transform="matrix(1.3333333,0,0,-1.3333333,283.66787,25.830133)" />
    <path
       id="path13"
       d="m 0,0 -40.253,-23.506 0.231,-46.613 40.483,-23.107 40.253,23.506 -0.231,46.613 z"
       style="fill:#4fc6f4;fill-opacity:1;fill-rule:nonzero;stroke:#231f20;stroke-width:1;stroke-linecap:butt;stroke-linejoin:miter;stroke-miterlimit:10;stroke-dasharray:none;stroke-opacity:1"
       transform="matrix(1.3333333,0,0,-1.3333333,678.61653,325.25107)" />
    <path
       id="path14"
       d="m 0,0 -40.253,-23.506 0.231,-46.613 40.483,-23.107 40.253,23.506 -0.231,46.613 z"
       style="fill:#4fc6f4;fill-opacity:1;fill-rule:nonzero;stroke:#231f20;stroke-width:1;stroke-linecap:butt;stroke-linejoin:miter;stroke-miterlimit:10;stroke-dasharray:none;stroke-opacity:1"
       transform="matrix(1.3333333,0,0,-1.3333333,227.54413,326.80747)" />
    <path
       id="path15"
       d="m 0,0 -40.253,-23.506 0.231,-46.613 40.483,-23.107 40.253,23.506 -0.231,46.613 z"
       style="fill:#4fc6f4;fill-opacity:1;fill-rule:nonzero;stroke:#231f20;stroke-width:1;stroke-linecap:butt;stroke-linejoin:miter;stroke-miterlimit:10;stroke-dasharray:none;stroke-opacity:1"
       transform="matrix(1.3333333,0,0,-1.3333333,564.28653,326.80747)" />
    <path
       id="path16"
       d="m 0,0 -40.253,-23.506 0.231,-46.613 40.483,-23.107 40.253,23.506 -0.231,46.613 z"
       style="fill:#4fc6f4;fill-opacity:1;fill-rule:nonzero;stroke:#231f20;stroke-width:1;stroke-linecap:butt;stroke-linejoin:miter;stroke-miterlimit:10;stroke-dasharray:none;stroke-opacity:1"
       transform="matrix(1.3333333,0,0,-1.3333333,171.4204,427.28893)" />
    <path
       id="path17"
       d="m 0,0 -40.253,-23.506 0.231,-46.613 40.483,-23.107 40.253,23.506 -0.231,46.613 z"
       style="fill:#4fc6f4;fill-opacity:1;fill-rule:nonzero;stroke:#231f20;stroke-width:1;stroke-linecap:butt;stroke-linejoin:miter;stroke-miterlimit:10;stroke-dasharray:none;stroke-opacity:1"
       transform="matrix(1.3333333,0,0,-1.3333333,620.41027,423.28893)" />
    <path
       id="path18"
       d="m 0,0 -40.253,-23.506 0.231,-46.613 40.483,-23.107 40.253,23.506 -0.231,46.613 z"
       style="fill:#4fc6f4;fill-opacity:1;fill-rule:nonzero;stroke:#231f20;stroke-width:1;stroke-linecap:butt;stroke-linejoin:miter;stroke-miterlimit:10;stroke-dasharray:none;stroke-opacity:1"
       transform="matrix(1.3333333,0,0,-1.3333333,115.29667,527.98587)" />
    <path
       id="path19"
       d="m 0,0 -40.253,-23.506 0.231,-46.613 40.483,-23.107 40.253,23.506 -0.231,46.613 z"
       style="fill:#4fc6f4;fill-opacity:1;fill-rule:nonzero;stroke:#231f20;stroke-width:1;stroke-linecap:butt;stroke-linejoin:miter;stroke-miterlimit:10;stroke-dasharray:none;stroke-opacity:1"
       transform="matrix(1.3333333,0,0,-1.3333333,676.534,527.98587)" />
    <path
       id="path20"
       d="m 0,0 -40.253,-23.506 0.231,-46.613 40.483,-23.107 40.253,23.506 -0.231,46.613 z"
       style="fill:#4fc6f4;fill-opacity:1;fill-rule:nonzero;stroke:#231f20;stroke-width:1;stroke-linecap:butt;stroke-linejoin:miter;stroke-miterlimit:10;stroke-dasharray:none;stroke-opacity:1"
       transform="matrix(1.3333333,0,0,-1.3333333,171.4204,628.46733)" />
    <path
       id="path21"
       d="m 0,0 -40.253,-23.506 0.231,-46.613 40.483,-23.107 40.253,23.506 -0.231,46.613 z"
       style="fill:#4fc6f4;fill-opacity:1;fill-rule:nonzero;stroke:#231f20;stroke-width:1;stroke-linecap:butt;stroke-linejoin:miter;stroke-miterlimit:10;stroke-dasharray:none;stroke-opacity:1"
       transform="matrix(1.3333333,0,0,-1.3333333,620.41027,628.46733)" />
    <path
       id="path22"
       d="m 0,0 -40.253,-23.506 0.231,-46.613 40.483,-23.107 40.253,23.506 -0.231,46.613 z"
       style="fill:#4fc6f4;fill-opacity:1;fill-rule:nonzero;stroke:#231f20;stroke-width:1;stroke-linecap:butt;stroke-linejoin:miter;stroke-miterlimit:10;stroke-dasharray:none;stroke-opacity:1"
       transform="matrix(1.3333333,0,0,-1.3333333,227.54413,729.16427)" />
    <path
       id="path23"
       d="m 0,0 -40.253,-23.506 0.231,-46.613 40.483,-23.107 40.253,23.506 -0.231,46.613 z"
       style="fill:#4fc6f4;fill-opacity:1;fill-rule:nonzero;stroke:#231f20;stroke-width:1;stroke-linecap:butt;stroke-linejoin:miter;stroke-miterlimit:10;stroke-dasharray:none;stroke-opacity:1"
       transform="matrix(1.3333333,0,0,-1.3333333,564.28653,729.16427)" />
    <path
       id="path24"
       d="m 0,0 -40.253,-23.506 0.231,-46.613 40.483,-23.107 40.253,23.506 -0.231,46.613 z"
       style="fill:#4fc6f4;fill-opacity:1;fill-rule:nonzero;stroke:#231f20;stroke-width:1;stroke-linecap:butt;stroke-linejoin:miter;stroke-miterlimit:10;stroke-dasharray:none;stroke-opacity:1"
       transform="matrix(1.3333333,0,0,-1.3333333,283.66787,829.64573)" />
    <path
       id="path25"
       d="m 0,0 -40.253,-23.506 0.231,-46.613 40.483,-23.107 40.253,23.506 -0.231,46.613 z"
       style="fill:#4fc6f4;fill-opacity:1;fill-rule:nonzero;stroke:#231f20;stroke-width:1;stroke-linecap:butt;stroke-linejoin:miter;stroke-miterlimit:10;stroke-dasharray:none;stroke-opacity:1"
       transform="matrix(1.3333333,0,0,-1.3333333,395.91533,829.64573)" />
    <path
       id="path26"
       d="m 0,0 -40.253,-23.506 0.231,-46.613 40.483,-23.107 40.253,23.506 -0.231,46.613 z"
       style="fill:#4fc6f4;fill-opacity:1;fill-rule:nonzero;stroke:#231f20;stroke-width:1;stroke-linecap:butt;stroke-linejoin:miter;stroke-miterlimit:10;stroke-dasharray:none;stroke-opacity:1"
       transform="matrix(1.3333333,0,0,-1.3333333,508.1628,829.64573)" />
    <path
       id="path27"
       d="m 0,0 -40.253,-23.506 0.231,-46.613 40.483,-23.107 40.253,23.506 -0.231,46.613 z"
       style="fill:#4fc6f4;fill-opacity:1;fill-rule:nonzero;stroke:#231f20;stroke-width:1;stroke-linecap:butt;stroke-linejoin:miter;stroke-miterlimit:10;stroke-dasharray:none;stroke-opacity:1"
       transform="matrix(1.3333333,0,0,-1.3333333,452.03907,926.1048)" />
    <path
       id="path28"
       d="m 0,0 -40.253,-23.506 0.231,-46.613 40.483,-23.107 40.253,23.506 -0.231,46.613 z"
       style="fill:#4fc6f4;fill-opacity:1;fill-rule:nonzero;stroke:#231f20;stroke-width:1;stroke-linecap:butt;stroke-linejoin:miter;stroke-miterlimit:10;stroke-dasharray:none;stroke-opacity:1"
       transform="matrix(1.3333333,0,0,-1.3333333,732.65773,628.46733)" />
    <path
       id="path29"
       d="m 0,0 -40.253,-23.506 0.231,-46.613 40.483,-23.107 40.253,23.506 -0.231,46.613 z"
       style="fill:#4fc6f4;fill-opacity:1;fill-rule:nonzero;stroke:#231f20;stroke-width:1;stroke-linecap:butt;stroke-linejoin:miter;stroke-miterlimit:10;stroke-dasharray:none;stroke-opacity:1"
       transform="matrix(1.3333333,0,0,-1.3333333,58.316667,427.60733)" />
    <path
       id="path30"
       d="m 0,0 -40.253,-23.506 0.231,-46.613 40.483,-23.107 40.253,23.506 -0.231,46.613 z"
       style="fill:#4fc6f4;fill-opacity:1;fill-rule:nonzero;stroke:#231f20;stroke-width:1;stroke-linecap:butt;stroke-linejoin:miter;stroke-miterlimit:10;stroke-dasharray:none;stroke-opacity:1"
       transform="matrix(1.3333333,0,0,-1.3333333,732.65773,427.28893)" />
    <path
       id="path31"
       d="m 0,0 -40.253,-23.506 0.231,-46.613 40.483,-23.107 40.253,23.506 -0.231,46.613 z"
       style="fill:#4fc6f4;fill-opacity:1;fill-rule:nonzero;stroke:#231f20;stroke-width:1;stroke-linecap:butt;stroke-linejoin:miter;stroke-miterlimit:10;stroke-dasharray:none;stroke-opacity:1"
       transform="matrix(1.3333333,0,0,-1.3333333,339.7916,926.1048)" />
    <path
       id="path32"
       d="m 0,0 -40.253,-23.506 0.231,-46.613 40.483,-23.107 40.253,23.506 -0.231,46.613 z"
       style="fill:#4fc6f4;fill-opacity:1;fill-rule:nonzero;stroke:#231f20;stroke-width:1;stroke-linecap:butt;stroke-linejoin:miter;stroke-miterlimit:10;stroke-dasharray:none;stroke-opacity:1"
       transform="matrix(1.3333333,0,0,-1.3333333,508.1628,25.830133)" />
    <path
       id="path33"
       d="m 0,0 -40.253,-23.506 0.231,-46.613 40.483,-23.107 40.253,23.506 -0.231,46.613 z"
       style="fill:#4fc6f4;fill-opacity:1;fill-rule:nonzero;stroke:#231f20;stroke-width:1;stroke-linecap:butt;stroke-linejoin:miter;stroke-miterlimit:10;stroke-dasharray:none;stroke-opacity:1"
       transform="matrix(1.3333333,0,0,-1.3333333,112.74293,326.80747)" />
    <path
       id="path34"
       d="M 0,0 37.662,23.4 80.552,-1.122 122.216,23.4 159.504,2.37 v -51.506 l 42.527,-23.944 v -47.764 l 40.53,-27.811 1.746,-46.891 -40.281,-25.164 -1.372,-49.412 -41.528,-26.938 -0.375,-50.383 -38.036,-25.191 -42.163,27.81 L 38.66,-370.639 0,-349.812 v 50.632 l -41.529,24.568 v 49.884 l -42.027,25.69 v 48.887 l 42.027,25.69 0.499,49.011 43.275,26.439 z"
       style="fill:#4fc6f4;fill-opacity:1;fill-rule:nonzero;stroke:#231f20;stroke-width:1;stroke-linecap:butt;stroke-linejoin:miter;stroke-miterlimit:10;stroke-dasharray:none;stroke-opacity:1"
       transform="matrix(1.3333333,0,0,-1.3333333,288.81947,358.00733)" />
  </g>
</svg>
