<?xml version="1.0" encoding="UTF-8" standalone="no"?>
<!-- Created with Inkscape (http://www.inkscape.org/) -->

<svg
   version="1.1"
   id="svg1"
   width="793.70135"
   height="1248"
   viewBox="0 0 793.70135 1248"
   sodipodi:docname="upload_p6jf7smpqdkhqkovhublncsw22.pdf"
   xmlns:inkscape="http://www.inkscape.org/namespaces/inkscape"
   xmlns:sodipodi="http://sodipodi.sourceforge.net/DTD/sodipodi-0.dtd"
   xmlns="http://www.w3.org/2000/svg"
   xmlns:svg="http://www.w3.org/2000/svg">
  <defs
     id="defs1" />
  <sodipodi:namedview
     id="namedview1"
     pagecolor="#ffffff"
     bordercolor="#000000"
     borderopacity="0.25"
     inkscape:showpageshadow="2"
     inkscape:pageopacity="0.0"
     inkscape:pagecheckerboard="0"
     inkscape:deskcolor="#d1d1d1">
    <inkscape:page
       x="0"
       y="0"
       inkscape:label="1"
       id="page1"
       width="793.70135"
       height="1248"
       margin="8.7091064 7.1973333 25.059999 2.8710933"
       bleed="0" />
  </sodipodi:namedview>
  <g
     id="layer-MC0"
     inkscape:groupmode="layer"
     inkscape:label="Layer 1">
    <path
       id="path1"
       d="m 0.83300781,-0.65521825 c 0.64453129,0.41797637 1.91015629,0.86984272 3.36328129,0.86984272 3.1171875,0 4.7226562,-1.80746537 4.7226562,-3.87475397 0,-1.818762 -1.2890625,-3.0049112 -2.8828125,-3.3212176 v -0.045187 c 1.59375,-0.5761296 2.390625,-1.7170921 2.390625,-3.0500979 0,-1.570235 -1.1601562,-3.083987 -3.703125,-3.083987 -1.3945312,0 -2.7070312,0.497053 -3.3867187,0.994106 l 0.4570312,1.276522 c 0.5507813,-0.395383 1.546875,-0.858546 2.5898438,-0.858546 1.6054687,0 2.2617187,0.915029 2.2617187,1.9543216 0,1.5363455 -1.6054687,2.1915517 -2.8828125,2.1915517 H 2.7900391 v 1.3104125 h 0.9726562 c 1.6992188,0 3.328125,0.7794694 3.3515625,2.5869348 0.011719,1.0731826 -0.6796875,2.5078582 -2.9296875,2.5078582 -1.21875,0 -2.3671875,-0.497053 -2.8710937,-0.8133594 z M 12.124023,0.20332781 c 0.421875,0.0112967 0.972657,0 1.617188,-0.10166993 1.394531,-0.15815322 2.765625,-0.75687613 3.761719,-1.72838878 1.277343,-1.2426325 2.226562,-3.2308444 2.226562,-6.0776024 0,-3.2986247 -1.628906,-5.4562857 -4.277344,-5.4562857 -2.648437,0 -4.417968,2.157661 -4.417968,4.5977397 0,2.2141451 1.488281,3.9651272 3.820312,3.9651272 1.289063,0 2.332031,-0.5196463 3.046875,-1.3894891 h 0.05859 c -0.234375,1.525049 -0.855469,2.6660115 -1.710938,3.4341843 -0.738281,0.7003928 -1.699218,1.1183692 -2.707031,1.2539291 -0.597656,0.06778 -1.042969,0.1016699 -1.417969,0.06778 z m 3.1875,-12.03094181 c 1.828125,0 2.648438,1.694499 2.648438,3.9086442 0,0.2711198 -0.05859,0.4744597 -0.164063,0.6326129 -0.457031,0.7794694 -1.371093,1.355599 -2.542968,1.355599 -1.511719,0 -2.496094,-1.1409625 -2.496094,-2.745088 0,-1.8300591 1.066406,-3.1517681 2.554687,-3.1517681 z m 0,0"
       style="fill:#231f20;fill-opacity:1;fill-rule:nonzero;stroke:none"
       aria-label="39"
       transform="matrix(1.3333333,0,0,1.3831523,674.66667,1232.4063)" />
    <path
       id="path2"
       d="m 0,0 -40.253,-23.506 0.231,-46.613 40.483,-23.107 40.253,23.506 -0.231,46.613 z"
       style="fill:#4fc6f4;fill-opacity:1;fill-rule:nonzero;stroke:#231f20;stroke-width:1;stroke-linecap:butt;stroke-linejoin:miter;stroke-miterlimit:10;stroke-dasharray:none;stroke-opacity:1"
       transform="matrix(1.3333333,0,0,-1.3333333,226.43733,125.62907)" />
    <path
       id="path3"
       d="m 0,0 -40.253,-23.506 0.231,-46.613 40.483,-23.107 40.253,23.506 -0.231,46.613 z"
       style="fill:#4fc6f4;fill-opacity:1;fill-rule:nonzero;stroke:#231f20;stroke-width:1;stroke-linecap:butt;stroke-linejoin:miter;stroke-miterlimit:10;stroke-dasharray:none;stroke-opacity:1"
       transform="matrix(1.3333333,0,0,-1.3333333,338.6848,125.62907)" />
    <path
       id="path4"
       d="m 0,0 -40.253,-23.506 0.231,-46.613 40.483,-23.107 40.253,23.506 -0.231,46.613 z"
       style="fill:#4fc6f4;fill-opacity:1;fill-rule:nonzero;stroke:#231f20;stroke-width:1;stroke-linecap:butt;stroke-linejoin:miter;stroke-miterlimit:10;stroke-dasharray:none;stroke-opacity:1"
       transform="matrix(1.3333333,0,0,-1.3333333,450.93227,125.62907)" />
    <path
       id="path5"
       d="m 0,0 -40.253,-23.506 0.231,-46.613 40.483,-23.107 40.253,23.506 -0.231,46.613 z"
       style="fill:#4fc6f4;fill-opacity:1;fill-rule:nonzero;stroke:#231f20;stroke-width:1;stroke-linecap:butt;stroke-linejoin:miter;stroke-miterlimit:10;stroke-dasharray:none;stroke-opacity:1"
       transform="matrix(1.3333333,0,0,-1.3333333,563.1796,125.62907)" />
    <path
       id="path6"
       d="m 0,0 -40.253,-23.506 0.231,-46.613 40.483,-23.107 40.253,23.506 -0.231,46.613 z"
       style="fill:#4fc6f4;fill-opacity:1;fill-rule:nonzero;stroke:#231f20;stroke-width:1;stroke-linecap:butt;stroke-linejoin:miter;stroke-miterlimit:10;stroke-dasharray:none;stroke-opacity:1"
       transform="matrix(1.3333333,0,0,-1.3333333,170.3136,226.1104)" />
    <path
       id="path7"
       d="m 0,0 -40.253,-23.506 0.231,-46.613 40.483,-23.107 40.253,23.506 -0.231,46.613 z"
       style="fill:#4fc6f4;fill-opacity:1;fill-rule:nonzero;stroke:#231f20;stroke-width:1;stroke-linecap:butt;stroke-linejoin:miter;stroke-miterlimit:10;stroke-dasharray:none;stroke-opacity:1"
       transform="matrix(1.3333333,0,0,-1.3333333,282.56107,226.1104)" />
    <path
       id="path8"
       d="m 0,0 -40.253,-23.506 0.231,-46.613 40.483,-23.107 40.253,23.506 -0.231,46.613 z"
       style="fill:#4fc6f4;fill-opacity:1;fill-rule:nonzero;stroke:#231f20;stroke-width:1;stroke-linecap:butt;stroke-linejoin:miter;stroke-miterlimit:10;stroke-dasharray:none;stroke-opacity:1"
       transform="matrix(1.3333333,0,0,-1.3333333,394.80853,226.1104)" />
    <path
       id="path9"
       d="m 0,0 -40.253,-23.506 0.231,-46.613 40.483,-23.107 40.253,23.506 -0.231,46.613 z"
       style="fill:#4fc6f4;fill-opacity:1;fill-rule:nonzero;stroke:#231f20;stroke-width:1;stroke-linecap:butt;stroke-linejoin:miter;stroke-miterlimit:10;stroke-dasharray:none;stroke-opacity:1"
       transform="matrix(1.3333333,0,0,-1.3333333,507.05587,226.1104)" />
    <path
       id="path10"
       d="m 0,0 -40.253,-23.506 0.231,-46.613 40.483,-23.107 40.253,23.506 -0.231,46.613 z"
       style="fill:#4fc6f4;fill-opacity:1;fill-rule:nonzero;stroke:#231f20;stroke-width:1;stroke-linecap:butt;stroke-linejoin:miter;stroke-miterlimit:10;stroke-dasharray:none;stroke-opacity:1"
       transform="matrix(1.3333333,0,0,-1.3333333,619.30333,226.1104)" />
    <path
       id="path11"
       d="m 0,0 -40.253,-23.506 0.231,-46.613 40.483,-23.107 40.253,23.506 -0.231,46.613 z"
       style="fill:#4fc6f4;fill-opacity:1;fill-rule:nonzero;stroke:#231f20;stroke-width:1;stroke-linecap:butt;stroke-linejoin:miter;stroke-miterlimit:10;stroke-dasharray:none;stroke-opacity:1"
       transform="matrix(1.3333333,0,0,-1.3333333,394.80853,25.830133)" />
    <path
       id="path12"
       d="m 0,0 -40.253,-23.506 0.231,-46.613 40.483,-23.107 40.253,23.506 -0.231,46.613 z"
       style="fill:#4fc6f4;fill-opacity:1;fill-rule:nonzero;stroke:#231f20;stroke-width:1;stroke-linecap:butt;stroke-linejoin:miter;stroke-miterlimit:10;stroke-dasharray:none;stroke-opacity:1"
       transform="matrix(1.3333333,0,0,-1.3333333,282.56107,25.830133)" />
    <path
       id="path13"
       d="m 0,0 -40.253,-23.506 0.231,-46.613 40.483,-23.107 40.253,23.506 -0.231,46.613 z"
       style="fill:#4fc6f4;fill-opacity:1;fill-rule:nonzero;stroke:#231f20;stroke-width:1;stroke-linecap:butt;stroke-linejoin:miter;stroke-miterlimit:10;stroke-dasharray:none;stroke-opacity:1"
       transform="matrix(1.3333333,0,0,-1.3333333,677.5096,325.25107)" />
    <path
       id="path14"
       d="m 0,0 -40.253,-23.506 0.231,-46.613 40.483,-23.107 40.253,23.506 -0.231,46.613 z"
       style="fill:#4fc6f4;fill-opacity:1;fill-rule:nonzero;stroke:#231f20;stroke-width:1;stroke-linecap:butt;stroke-linejoin:miter;stroke-miterlimit:10;stroke-dasharray:none;stroke-opacity:1"
       transform="matrix(1.3333333,0,0,-1.3333333,226.43733,326.80747)" />
    <path
       id="path15"
       d="m 0,0 -40.253,-23.506 0.231,-46.613 40.483,-23.107 40.253,23.506 -0.231,46.613 z"
       style="fill:#4fc6f4;fill-opacity:1;fill-rule:nonzero;stroke:#231f20;stroke-width:1;stroke-linecap:butt;stroke-linejoin:miter;stroke-miterlimit:10;stroke-dasharray:none;stroke-opacity:1"
       transform="matrix(1.3333333,0,0,-1.3333333,563.1796,326.80747)" />
    <path
       id="path16"
       d="m 0,0 -40.253,-23.506 0.231,-46.613 40.483,-23.107 40.253,23.506 -0.231,46.613 z"
       style="fill:#4fc6f4;fill-opacity:1;fill-rule:nonzero;stroke:#231f20;stroke-width:1;stroke-linecap:butt;stroke-linejoin:miter;stroke-miterlimit:10;stroke-dasharray:none;stroke-opacity:1"
       transform="matrix(1.3333333,0,0,-1.3333333,170.3136,427.28893)" />
    <path
       id="path17"
       d="m 0,0 -40.253,-23.506 0.231,-46.613 40.483,-23.107 40.253,23.506 -0.231,46.613 z"
       style="fill:#4fc6f4;fill-opacity:1;fill-rule:nonzero;stroke:#231f20;stroke-width:1;stroke-linecap:butt;stroke-linejoin:miter;stroke-miterlimit:10;stroke-dasharray:none;stroke-opacity:1"
       transform="matrix(1.3333333,0,0,-1.3333333,619.30333,423.28893)" />
    <path
       id="path18"
       d="m 0,0 -40.253,-23.506 0.231,-46.613 40.483,-23.107 40.253,23.506 -0.231,46.613 z"
       style="fill:#4fc6f4;fill-opacity:1;fill-rule:nonzero;stroke:#231f20;stroke-width:1;stroke-linecap:butt;stroke-linejoin:miter;stroke-miterlimit:10;stroke-dasharray:none;stroke-opacity:1"
       transform="matrix(1.3333333,0,0,-1.3333333,114.18987,527.98587)" />
    <path
       id="path19"
       d="m 0,0 -40.253,-23.506 0.231,-46.613 40.483,-23.107 40.253,23.506 -0.231,46.613 z"
       style="fill:#4fc6f4;fill-opacity:1;fill-rule:nonzero;stroke:#231f20;stroke-width:1;stroke-linecap:butt;stroke-linejoin:miter;stroke-miterlimit:10;stroke-dasharray:none;stroke-opacity:1"
       transform="matrix(1.3333333,0,0,-1.3333333,675.42707,527.98587)" />
    <path
       id="path20"
       d="m 0,0 -40.253,-23.506 0.231,-46.613 40.483,-23.107 40.253,23.506 -0.231,46.613 z"
       style="fill:#4fc6f4;fill-opacity:1;fill-rule:nonzero;stroke:#231f20;stroke-width:1;stroke-linecap:butt;stroke-linejoin:miter;stroke-miterlimit:10;stroke-dasharray:none;stroke-opacity:1"
       transform="matrix(1.3333333,0,0,-1.3333333,170.3136,628.46733)" />
    <path
       id="path21"
       d="m 0,0 -40.253,-23.506 0.231,-46.613 40.483,-23.107 40.253,23.506 -0.231,46.613 z"
       style="fill:#4fc6f4;fill-opacity:1;fill-rule:nonzero;stroke:#231f20;stroke-width:1;stroke-linecap:butt;stroke-linejoin:miter;stroke-miterlimit:10;stroke-dasharray:none;stroke-opacity:1"
       transform="matrix(1.3333333,0,0,-1.3333333,619.30333,628.46733)" />
    <path
       id="path22"
       d="m 0,0 -40.253,-23.506 0.231,-46.613 40.483,-23.107 40.253,23.506 -0.231,46.613 z"
       style="fill:#4fc6f4;fill-opacity:1;fill-rule:nonzero;stroke:#231f20;stroke-width:1;stroke-linecap:butt;stroke-linejoin:miter;stroke-miterlimit:10;stroke-dasharray:none;stroke-opacity:1"
       transform="matrix(1.3333333,0,0,-1.3333333,226.43733,729.16427)" />
    <path
       id="path23"
       d="m 0,0 -40.253,-23.506 0.231,-46.613 40.483,-23.107 40.253,23.506 -0.231,46.613 z"
       style="fill:#4fc6f4;fill-opacity:1;fill-rule:nonzero;stroke:#231f20;stroke-width:1;stroke-linecap:butt;stroke-linejoin:miter;stroke-miterlimit:10;stroke-dasharray:none;stroke-opacity:1"
       transform="matrix(1.3333333,0,0,-1.3333333,563.1796,729.16427)" />
    <path
       id="path24"
       d="m 0,0 -40.253,-23.506 0.231,-46.613 40.483,-23.107 40.253,23.506 -0.231,46.613 z"
       style="fill:#4fc6f4;fill-opacity:1;fill-rule:nonzero;stroke:#231f20;stroke-width:1;stroke-linecap:butt;stroke-linejoin:miter;stroke-miterlimit:10;stroke-dasharray:none;stroke-opacity:1"
       transform="matrix(1.3333333,0,0,-1.3333333,282.56107,829.64573)" />
    <path
       id="path25"
       d="m 0,0 -40.253,-23.506 0.231,-46.613 40.483,-23.107 40.253,23.506 -0.231,46.613 z"
       style="fill:#4fc6f4;fill-opacity:1;fill-rule:nonzero;stroke:#231f20;stroke-width:1;stroke-linecap:butt;stroke-linejoin:miter;stroke-miterlimit:10;stroke-dasharray:none;stroke-opacity:1"
       transform="matrix(1.3333333,0,0,-1.3333333,394.80853,829.64573)" />
    <path
       id="path26"
       d="m 0,0 -40.253,-23.506 0.231,-46.613 40.483,-23.107 40.253,23.506 -0.231,46.613 z"
       style="fill:#4fc6f4;fill-opacity:1;fill-rule:nonzero;stroke:#231f20;stroke-width:1;stroke-linecap:butt;stroke-linejoin:miter;stroke-miterlimit:10;stroke-dasharray:none;stroke-opacity:1"
       transform="matrix(1.3333333,0,0,-1.3333333,507.05587,829.64573)" />
    <path
       id="path27"
       d="m 0,0 -40.253,-23.506 0.231,-46.613 40.483,-23.107 40.253,23.506 -0.231,46.613 z"
       style="fill:#4fc6f4;fill-opacity:1;fill-rule:nonzero;stroke:#231f20;stroke-width:1;stroke-linecap:butt;stroke-linejoin:miter;stroke-miterlimit:10;stroke-dasharray:none;stroke-opacity:1"
       transform="matrix(1.3333333,0,0,-1.3333333,450.93227,926.1048)" />
    <path
       id="path28"
       d="m 0,0 -40.253,-23.506 0.231,-46.613 40.483,-23.107 40.253,23.506 -0.231,46.613 z"
       style="fill:#4fc6f4;fill-opacity:1;fill-rule:nonzero;stroke:#231f20;stroke-width:1;stroke-linecap:butt;stroke-linejoin:miter;stroke-miterlimit:10;stroke-dasharray:none;stroke-opacity:1"
       transform="matrix(1.3333333,0,0,-1.3333333,731.5508,628.46733)" />
    <path
       id="path29"
       d="m 0,0 -40.253,-23.506 0.231,-46.613 40.483,-23.107 40.253,23.506 -0.231,46.613 z"
       style="fill:#4fc6f4;fill-opacity:1;fill-rule:nonzero;stroke:#231f20;stroke-width:1;stroke-linecap:butt;stroke-linejoin:miter;stroke-miterlimit:10;stroke-dasharray:none;stroke-opacity:1"
       transform="matrix(1.3333333,0,0,-1.3333333,394.80853,1022.1959)" />
    <path
       id="path30"
       d="m 0,0 -40.253,-23.506 0.231,-46.613 40.483,-23.107 40.253,23.506 -0.231,46.613 z"
       style="fill:#4fc6f4;fill-opacity:1;fill-rule:nonzero;stroke:#231f20;stroke-width:1;stroke-linecap:butt;stroke-linejoin:miter;stroke-miterlimit:10;stroke-dasharray:none;stroke-opacity:1"
       transform="matrix(1.3333333,0,0,-1.3333333,58.066133,628.46733)" />
    <path
       id="path31"
       d="m 0,0 -40.253,-23.506 0.231,-46.613 40.483,-23.107 40.253,23.506 -0.231,46.613 z"
       style="fill:#4fc6f4;fill-opacity:1;fill-rule:nonzero;stroke:#231f20;stroke-width:1;stroke-linecap:butt;stroke-linejoin:miter;stroke-miterlimit:10;stroke-dasharray:none;stroke-opacity:1"
       transform="matrix(1.3333333,0,0,-1.3333333,114.18987,729.16427)" />
    <path
       id="path32"
       d="m 0,0 -40.253,-23.506 0.231,-46.613 40.483,-23.107 40.253,23.506 -0.231,46.613 z"
       style="fill:#4fc6f4;fill-opacity:1;fill-rule:nonzero;stroke:#231f20;stroke-width:1;stroke-linecap:butt;stroke-linejoin:miter;stroke-miterlimit:10;stroke-dasharray:none;stroke-opacity:1"
       transform="matrix(1.3333333,0,0,-1.3333333,168.72787,829.64573)" />
    <path
       id="path33"
       d="m 0,0 -40.253,-23.506 0.231,-46.613 40.483,-23.107 40.253,23.506 -0.231,46.613 z"
       style="fill:#4fc6f4;fill-opacity:1;fill-rule:nonzero;stroke:#231f20;stroke-width:1;stroke-linecap:butt;stroke-linejoin:miter;stroke-miterlimit:10;stroke-dasharray:none;stroke-opacity:1"
       transform="matrix(1.3333333,0,0,-1.3333333,621.8572,829.64573)" />
    <path
       id="path34"
       d="m 0,0 -40.253,-23.506 0.231,-46.613 40.483,-23.107 40.253,23.506 -0.231,46.613 z"
       style="fill:#4fc6f4;fill-opacity:1;fill-rule:nonzero;stroke:#231f20;stroke-width:1;stroke-linecap:butt;stroke-linejoin:miter;stroke-miterlimit:10;stroke-dasharray:none;stroke-opacity:1"
       transform="matrix(1.3333333,0,0,-1.3333333,675.93227,729.16427)" />
    <path
       id="path35"
       d="m 0,0 -40.253,-23.506 0.231,-46.613 40.483,-23.107 40.253,23.506 -0.231,46.613 z"
       style="fill:#4fc6f4;fill-opacity:1;fill-rule:nonzero;stroke:#231f20;stroke-width:1;stroke-linecap:butt;stroke-linejoin:miter;stroke-miterlimit:10;stroke-dasharray:none;stroke-opacity:1"
       transform="matrix(1.3333333,0,0,-1.3333333,57.209867,427.60733)" />
    <path
       id="path36"
       d="m 0,0 -40.253,-23.506 0.231,-46.613 40.483,-23.107 40.253,23.506 -0.231,46.613 z"
       style="fill:#4fc6f4;fill-opacity:1;fill-rule:nonzero;stroke:#231f20;stroke-width:1;stroke-linecap:butt;stroke-linejoin:miter;stroke-miterlimit:10;stroke-dasharray:none;stroke-opacity:1"
       transform="matrix(1.3333333,0,0,-1.3333333,731.5508,427.28893)" />
    <path
       id="path37"
       d="m 0,0 -40.253,-23.506 0.231,-46.613 40.483,-23.107 40.253,23.506 -0.231,46.613 z"
       style="fill:#4fc6f4;fill-opacity:1;fill-rule:nonzero;stroke:#231f20;stroke-width:1;stroke-linecap:butt;stroke-linejoin:miter;stroke-miterlimit:10;stroke-dasharray:none;stroke-opacity:1"
       transform="matrix(1.3333333,0,0,-1.3333333,338.6848,926.1048)" />
    <path
       id="path38"
       d="m 0,0 -40.253,-23.506 0.231,-46.613 40.483,-23.107 40.253,23.506 -0.231,46.613 z"
       style="fill:#4fc6f4;fill-opacity:1;fill-rule:nonzero;stroke:#231f20;stroke-width:1;stroke-linecap:butt;stroke-linejoin:miter;stroke-miterlimit:10;stroke-dasharray:none;stroke-opacity:1"
       transform="matrix(1.3333333,0,0,-1.3333333,226.43733,926.1048)" />
    <path
       id="path39"
       d="m 0,0 -40.253,-23.506 0.231,-46.613 40.483,-23.107 40.253,23.506 -0.231,46.613 z"
       style="fill:#4fc6f4;fill-opacity:1;fill-rule:nonzero;stroke:#231f20;stroke-width:1;stroke-linecap:butt;stroke-linejoin:miter;stroke-miterlimit:10;stroke-dasharray:none;stroke-opacity:1"
       transform="matrix(1.3333333,0,0,-1.3333333,507.05587,25.830133)" />
    <path
       id="path40"
       d="m 0,0 -40.253,-23.506 0.231,-46.613 40.483,-23.107 40.253,23.506 -0.231,46.613 z"
       style="fill:#4fc6f4;fill-opacity:1;fill-rule:nonzero;stroke:#231f20;stroke-width:1;stroke-linecap:butt;stroke-linejoin:miter;stroke-miterlimit:10;stroke-dasharray:none;stroke-opacity:1"
       transform="matrix(1.3333333,0,0,-1.3333333,111.636,326.80747)" />
    <path
       id="path41"
       d="M 0,0 37.662,23.4 80.552,-1.122 122.216,23.4 159.504,2.37 v -51.506 l 42.527,-23.944 v -47.764 l 40.53,-27.811 1.746,-46.891 -40.281,-25.164 -1.372,-49.412 -41.528,-26.938 -0.375,-50.383 -38.036,-25.191 -42.163,27.81 L 38.66,-370.639 0,-349.812 v 50.632 l -41.529,24.568 v 49.884 l -42.027,25.69 v 48.887 l 42.027,25.69 0.499,49.011 43.275,26.439 z"
       style="fill:#4fc6f4;fill-opacity:1;fill-rule:nonzero;stroke:#231f20;stroke-width:1;stroke-linecap:butt;stroke-linejoin:miter;stroke-miterlimit:10;stroke-dasharray:none;stroke-opacity:1"
       transform="matrix(1.3333333,0,0,-1.3333333,287.71253,358.00733)" />
  </g>
</svg>
