<?xml version="1.0" encoding="UTF-8"?>
<svg id="Layer_1" xmlns="http://www.w3.org/2000/svg" version="1.1" viewBox="0 0 595.3 936">
  <defs>
    <style>
      .st0 {
        fill: #00c1f3;
        stroke: #231f20;
        stroke-miterlimit: 10;
      }
      .st1 {
        fill: #231f20;
        font-family: MyriadPro-Regular, 'Myriad Pro';
        font-size: 20.7px;
      }
    </style>
  </defs>
  <!-- Border slots: 39 polygons -->
  <polygon class="st0" points="171.4 74.2 131.2 97.7 131.4 144.3 171.9 167.4 212.2 143.9 211.9 97.3 171.4 74.2"/>
  <polygon class="st0" points="255.6 74.2 215.4 97.7 215.6 144.3 256.1 167.4 296.3 143.9 296.1 97.3 255.6 74.2"/>
  <polygon class="st0" points="339.8 74.2 299.6 97.7 299.8 144.3 340.3 167.4 380.5 143.9 380.3 97.3 339.8 74.2"/>
  <polygon class="st0" points="424 74.2 383.8 97.7 384 144.3 424.5 167.4 464.7 143.9 464.5 97.3 424 74.2"/>
  <polygon class="st0" points="129.4 149.6 89.1 173.1 89.3 219.7 129.8 242.8 170.1 219.3 169.8 172.7 129.4 149.6"/>
  <polygon class="st0" points="213.5 149.6 173.3 173.1 173.5 219.7 214 242.8 254.3 219.3 254 172.7 213.5 149.6"/>
  <polygon class="st0" points="297.7 149.6 257.5 173.1 257.7 219.7 298.2 242.8 338.4 219.3 338.2 172.7 297.7 149.6"/>
  <polygon class="st0" points="381.9 149.6 341.7 173.1 341.9 219.7 382.4 242.8 422.6 219.3 422.4 172.7 381.9 149.6"/>
  <polygon class="st0" points="466.1 149.6 425.8 173.1 426.1 219.7 466.6 242.8 506.8 219.3 506.6 172.7 466.1 149.6"/>
  <polygon class="st0" points="171.4 225.1 131.2 248.6 131.4 295.2 171.9 318.3 212.2 294.8 211.9 248.2 171.4 225.1"/>
  <polygon class="st0" points="424 225.1 383.8 248.6 384 295.2 424.5 318.3 464.7 294.8 464.5 248.2 424 225.1"/>
  <polygon class="st0" points="129.4 300.5 89.1 324 89.3 370.6 129.8 393.7 170.1 370.2 169.8 323.6 129.4 300.5"/>
  <polygon class="st0" points="466.1 297.5 425.8 321 426.1 367.6 466.6 390.7 506.8 367.2 506.6 320.6 466.1 297.5"/>
  <polygon class="st0" points="87.3 376 47 399.5 47.2 446.1 87.7 469.2 128 445.7 127.7 399.1 87.3 376"/>
  <polygon class="st0" points="508.2 376 467.9 399.5 468.2 446.1 508.7 469.2 548.9 445.7 548.7 399.1 508.2 376"/>
  <polygon class="st0" points="129.4 451.4 89.1 474.9 89.3 521.5 129.8 544.6 170.1 521.1 169.8 474.5 129.4 451.4"/>
  <polygon class="st0" points="466.1 451.4 425.8 474.9 426.1 521.5 466.6 544.6 506.8 521.1 506.6 474.5 466.1 451.4"/>
  <polygon class="st0" points="171.4 526.9 131.2 550.4 131.4 597 171.9 620.1 212.2 596.6 211.9 550 171.4 526.9"/>
  <polygon class="st0" points="424 526.9 383.8 550.4 384 597 424.5 620.1 464.7 596.6 464.5 550 424 526.9"/>
  <polygon class="st0" points="213.5 602.2 173.3 625.7 173.5 672.4 214 695.5 254.3 672 254 625.3 213.5 602.2"/>
  <polygon class="st0" points="297.7 602.2 257.5 625.7 257.7 672.4 298.2 695.5 338.4 672 338.2 625.3 297.7 602.2"/>
  <polygon class="st0" points="381.9 602.2 341.7 625.7 341.9 672.4 382.4 695.5 422.6 672 422.4 625.3 381.9 602.2"/>
  <polygon class="st0" points="255.6 674.6 215.4 698.1 215.6 744.7 256.1 767.8 296.3 744.3 296.1 697.7 255.6 674.6"/>
  <polygon class="st0" points="339.8 674.6 299.6 698.1 299.8 744.7 340.3 767.8 380.5 744.3 380.3 697.7 339.8 674.6"/>
  <polygon class="st0" points="50.3 301.4 10 324.9 10.3 371.5 50.7 394.6 91 371.1 90.8 324.5 50.3 301.4"/>
  <polygon class="st0" points="540.3 301.4 500 324.9 500.3 371.5 540.7 394.6 581 371.1 580.8 324.5 540.3 301.4"/>
  <polygon class="st0" points="50.3 451.4 10 474.9 10.3 521.5 50.7 544.6 91 521.1 90.8 474.5 50.3 451.4"/>
  <polygon class="st0" points="540.3 451.4 500 474.9 500.3 521.5 540.7 544.6 581 521.1 580.8 474.5 540.3 451.4"/>
  <polygon class="st0" points="213.5 -5.6 173.3 17.9 173.5 64.5 214 87.6 254.3 64.1 254 17.5 213.5 -5.6"/>
  <polygon class="st0" points="297.7 -5.6 257.5 17.9 257.7 64.5 298.2 87.6 338.4 64.1 338.2 17.5 297.7 -5.6"/>
  <polygon class="st0" points="381.9 -5.6 341.7 17.9 341.9 64.5 382.4 87.6 422.6 64.1 422.4 17.5 381.9 -5.6"/>
  <polygon class="st0" points="85.3 225.1 45.1 248.6 45.3 295.2 85.8 318.3 126.1 294.8 125.8 248.2 85.3 225.1"/>
  <polygon class="st0" points="509.8 223.9 469.5 247.4 469.7 294.1 510.2 317.2 550.5 293.7 550.2 247 509.8 223.9"/>
  <polygon class="st0" points="213.5 749.6 173.3 773.1 173.5 819.7 214 842.8 254.3 819.3 254 772.7 213.5 749.6"/>
  <polygon class="st0" points="297.7 749.6 257.5 773.1 257.7 819.7 298.2 842.8 338.4 819.3 338.2 772.7 297.7 749.6"/>
  <polygon class="st0" points="381.9 749.6 341.7 773.1 341.9 819.7 382.4 842.8 422.6 819.3 422.4 772.7 381.9 749.6"/>
  <polygon class="st0" points="171.4 825.1 131.2 848.6 131.4 895.2 171.9 918.3 212.2 894.8 211.9 848.2 171.4 825.1"/>
  <polygon class="st0" points="424 825.1 383.8 848.6 384 895.2 424.5 918.3 464.7 894.8 464.5 848.2 424 825.1"/>
  <polygon class="st0" points="129.4 676.6 89.1 700.1 89.3 746.7 129.8 769.8 170.1 746.3 169.8 699.7 129.4 676.6"/>
  <!-- Central Slot: Large Hexagon -->
  <polygon class="st0" points="217.4 248.5 255.1 225.1 298 249.6 339.6 225.1 376.9 246.1 376.9 297.6 419.4 321.6 419.4 369.3 460 397.2 461.7 444.1 421.4 469.2 420.1 518.6 378.5 545.6 378.2 595.9 340.1 621.1 298 593.3 256.1 619.1 217.4 598.3 217.4 547.7 175.9 523.1 175.9 473.2 133.9 447.5 133.9 398.7 175.9 373 176.4 324 219.7 297.5 217.4 248.5"/>
  <text class="st1" transform="translate(514.4 924.3) scale(.7 1)"><tspan x="0" y="0">40</tspan></text>
</svg>
