<svg xmlns="http://www.w3.org/2000/svg" xmlns:xlink="http://www.w3.org/1999/xlink" xmlns:inkscape="http://www.inkscape.org/namespaces/inkscape" version="1.1" width="595.276" height="936" viewBox="0 0 595.276 936">
<g inkscape:groupmode="layer" inkscape:label="Layer 1">
<text fill="#231f20" xml:space="preserve" transform="matrix(.98182567 0 -0 1.0185108 0 936)" font-size="20.277939" font-family="MyriadPro-Regular"><tspan y="-11.482745" x="515.36648 525.76907">40</tspan></text>
<path transform="matrix(1,0,0,-1,173.3235,94.2218)" d="M0 0-40.253-23.506-40.022-70.119 .461-93.226 40.714-69.72 40.483-23.107Z" fill="#00c1f3"/>
<path transform="matrix(1,0,0,-1,173.3235,94.2218)" stroke-width="1" stroke-linecap="butt" stroke-miterlimit="10" stroke-linejoin="miter" fill="none" stroke="#231f20" d="M0 0-40.253-23.506-40.022-70.119 .461-93.226 40.714-69.72 40.483-23.107 0 0Z"/>
<path transform="matrix(1,0,0,-1,257.509,94.2218)" d="M0 0-40.253-23.506-40.022-70.119 .461-93.226 40.714-69.72 40.483-23.107Z" fill="#00c1f3"/>
<path transform="matrix(1,0,0,-1,257.509,94.2218)" stroke-width="1" stroke-linecap="butt" stroke-miterlimit="10" stroke-linejoin="miter" fill="none" stroke="#231f20" d="M0 0-40.253-23.506-40.022-70.119 .461-93.226 40.714-69.72 40.483-23.107 0 0Z"/>
<path transform="matrix(1,0,0,-1,341.6946,94.2218)" d="M0 0-40.253-23.506-40.022-70.119 .461-93.226 40.714-69.72 40.483-23.107Z" fill="#00c1f3"/>
<path transform="matrix(1,0,0,-1,341.6946,94.2218)" stroke-width="1" stroke-linecap="butt" stroke-miterlimit="10" stroke-linejoin="miter" fill="none" stroke="#231f20" d="M0 0-40.253-23.506-40.022-70.119 .461-93.226 40.714-69.72 40.483-23.107 0 0Z"/>
<path transform="matrix(1,0,0,-1,425.8802,94.2218)" d="M0 0-40.253-23.506-40.022-70.119 .461-93.226 40.714-69.72 40.483-23.107Z" fill="#00c1f3"/>
<path transform="matrix(1,0,0,-1,425.8802,94.2218)" stroke-width="1" stroke-linecap="butt" stroke-miterlimit="10" stroke-linejoin="miter" fill="none" stroke="#231f20" d="M0 0-40.253-23.506-40.022-70.119 .461-93.226 40.714-69.72 40.483-23.107 0 0Z"/>
<path transform="matrix(1,0,0,-1,131.2307,169.58283)" d="M0 0-40.253-23.506-40.022-70.119 .461-93.226 40.714-69.72 40.483-23.107Z" fill="#00c1f3"/>
<path transform="matrix(1,0,0,-1,131.2307,169.58283)" stroke-width="1" stroke-linecap="butt" stroke-miterlimit="10" stroke-linejoin="miter" fill="none" stroke="#231f20" d="M0 0-40.253-23.506-40.022-70.119 .461-93.226 40.714-69.72 40.483-23.107 0 0Z"/>
<path transform="matrix(1,0,0,-1,215.4162,169.58283)" d="M0 0-40.253-23.506-40.022-70.119 .461-93.226 40.714-69.72 40.483-23.107Z" fill="#00c1f3"/>
<path transform="matrix(1,0,0,-1,215.4162,169.58283)" stroke-width="1" stroke-linecap="butt" stroke-miterlimit="10" stroke-linejoin="miter" fill="none" stroke="#231f20" d="M0 0-40.253-23.506-40.022-70.119 .461-93.226 40.714-69.72 40.483-23.107 0 0Z"/>
<path transform="matrix(1,0,0,-1,299.6018,169.58283)" d="M0 0-40.253-23.506-40.022-70.119 .461-93.226 40.714-69.72 40.483-23.107Z" fill="#00c1f3"/>
<path transform="matrix(1,0,0,-1,299.6018,169.58283)" stroke-width="1" stroke-linecap="butt" stroke-miterlimit="10" stroke-linejoin="miter" fill="none" stroke="#231f20" d="M0 0-40.253-23.506-40.022-70.119 .461-93.226 40.714-69.72 40.483-23.107 0 0Z"/>
<path transform="matrix(1,0,0,-1,383.7874,169.58283)" d="M0 0-40.253-23.506-40.022-70.119 .461-93.226 40.714-69.72 40.483-23.107Z" fill="#00c1f3"/>
<path transform="matrix(1,0,0,-1,383.7874,169.58283)" stroke-width="1" stroke-linecap="butt" stroke-miterlimit="10" stroke-linejoin="miter" fill="none" stroke="#231f20" d="M0 0-40.253-23.506-40.022-70.119 .461-93.226 40.714-69.72 40.483-23.107 0 0Z"/>
<path transform="matrix(1,0,0,-1,467.973,169.58283)" d="M0 0-40.253-23.506-40.022-70.119 .461-93.226 40.714-69.72 40.483-23.107Z" fill="#00c1f3"/>
<path transform="matrix(1,0,0,-1,467.973,169.58283)" stroke-width="1" stroke-linecap="butt" stroke-miterlimit="10" stroke-linejoin="miter" fill="none" stroke="#231f20" d="M0 0-40.253-23.506-40.022-70.119 .461-93.226 40.714-69.72 40.483-23.107 0 0Z"/>
<path transform="matrix(1,0,0,-1,299.6018,19.37262)" d="M0 0-40.253-23.506-40.022-70.119 .461-93.226 40.714-69.72 40.483-23.107Z" fill="#00c1f3"/>
<path transform="matrix(1,0,0,-1,299.6018,19.37262)" stroke-width="1" stroke-linecap="butt" stroke-miterlimit="10" stroke-linejoin="miter" fill="none" stroke="#231f20" d="M0 0-40.253-23.506-40.022-70.119 .461-93.226 40.714-69.72 40.483-23.107 0 0Z"/>
<path transform="matrix(1,0,0,-1,215.4162,19.37262)" d="M0 0-40.253-23.506-40.022-70.119 .461-93.226 40.714-69.72 40.483-23.107Z" fill="#00c1f3"/>
<path transform="matrix(1,0,0,-1,215.4162,19.37262)" stroke-width="1" stroke-linecap="butt" stroke-miterlimit="10" stroke-linejoin="miter" fill="none" stroke="#231f20" d="M0 0-40.253-23.506-40.022-70.119 .461-93.226 40.714-69.72 40.483-23.107 0 0Z"/>
<path transform="matrix(1,0,0,-1,511.6277,243.9383)" d="M0 0-40.253-23.506-40.022-70.119 .461-93.226 40.714-69.72 40.483-23.107Z" fill="#00c1f3"/>
<path transform="matrix(1,0,0,-1,511.6277,243.9383)" stroke-width="1" stroke-linecap="butt" stroke-miterlimit="10" stroke-linejoin="miter" fill="none" stroke="#231f20" d="M0 0-40.253-23.506-40.022-70.119 .461-93.226 40.714-69.72 40.483-23.107 0 0Z"/>
<path transform="matrix(1,0,0,-1,173.3235,245.10559)" d="M0 0-40.253-23.506-40.022-70.119 .461-93.226 40.714-69.72 40.483-23.107Z" fill="#00c1f3"/>
<path transform="matrix(1,0,0,-1,173.3235,245.10559)" stroke-width="1" stroke-linecap="butt" stroke-miterlimit="10" stroke-linejoin="miter" fill="none" stroke="#231f20" d="M0 0-40.253-23.506-40.022-70.119 .461-93.226 40.714-69.72 40.483-23.107 0 0Z"/>
<path transform="matrix(1,0,0,-1,425.8802,245.10559)" d="M0 0-40.253-23.506-40.022-70.119 .461-93.226 40.714-69.72 40.483-23.107Z" fill="#00c1f3"/>
<path transform="matrix(1,0,0,-1,425.8802,245.10559)" stroke-width="1" stroke-linecap="butt" stroke-miterlimit="10" stroke-linejoin="miter" fill="none" stroke="#231f20" d="M0 0-40.253-23.506-40.022-70.119 .461-93.226 40.714-69.72 40.483-23.107 0 0Z"/>
<path transform="matrix(1,0,0,-1,131.2307,320.46669)" d="M0 0-40.253-23.506-40.022-70.119 .461-93.226 40.714-69.72 40.483-23.107Z" fill="#00c1f3"/>
<path transform="matrix(1,0,0,-1,131.2307,320.46669)" stroke-width="1" stroke-linecap="butt" stroke-miterlimit="10" stroke-linejoin="miter" fill="none" stroke="#231f20" d="M0 0-40.253-23.506-40.022-70.119 .461-93.226 40.714-69.72 40.483-23.107 0 0Z"/>
<path transform="matrix(1,0,0,-1,467.973,317.46669)" d="M0 0-40.253-23.506-40.022-70.119 .461-93.226 40.714-69.72 40.483-23.107Z" fill="#00c1f3"/>
<path transform="matrix(1,0,0,-1,467.973,317.46669)" stroke-width="1" stroke-linecap="butt" stroke-miterlimit="10" stroke-linejoin="miter" fill="none" stroke="#231f20" d="M0 0-40.253-23.506-40.022-70.119 .461-93.226 40.714-69.72 40.483-23.107 0 0Z"/>
<path transform="matrix(1,0,0,-1,89.1379,395.98939)" d="M0 0-40.253-23.506-40.022-70.119 .461-93.226 40.714-69.72 40.483-23.107Z" fill="#00c1f3"/>
<path transform="matrix(1,0,0,-1,89.1379,395.98939)" stroke-width="1" stroke-linecap="butt" stroke-miterlimit="10" stroke-linejoin="miter" fill="none" stroke="#231f20" d="M0 0-40.253-23.506-40.022-70.119 .461-93.226 40.714-69.72 40.483-23.107 0 0Z"/>
<path transform="matrix(1,0,0,-1,510.0658,395.98939)" d="M0 0-40.253-23.506-40.022-70.119 .461-93.226 40.714-69.72 40.483-23.107Z" fill="#00c1f3"/>
<path transform="matrix(1,0,0,-1,510.0658,395.98939)" stroke-width="1" stroke-linecap="butt" stroke-miterlimit="10" stroke-linejoin="miter" fill="none" stroke="#231f20" d="M0 0-40.253-23.506-40.022-70.119 .461-93.226 40.714-69.72 40.483-23.107 0 0Z"/>
<path transform="matrix(1,0,0,-1,131.2307,471.3505)" d="M0 0-40.253-23.506-40.022-70.119 .461-93.226 40.714-69.72 40.483-23.107Z" fill="#00c1f3"/>
<path transform="matrix(1,0,0,-1,131.2307,471.3505)" stroke-width="1" stroke-linecap="butt" stroke-miterlimit="10" stroke-linejoin="miter" fill="none" stroke="#231f20" d="M0 0-40.253-23.506-40.022-70.119 .461-93.226 40.714-69.72 40.483-23.107 0 0Z"/>
<path transform="matrix(1,0,0,-1,467.973,471.3505)" d="M0 0-40.253-23.506-40.022-70.119 .461-93.226 40.714-69.72 40.483-23.107Z" fill="#00c1f3"/>
<path transform="matrix(1,0,0,-1,467.973,471.3505)" stroke-width="1" stroke-linecap="butt" stroke-miterlimit="10" stroke-linejoin="miter" fill="none" stroke="#231f20" d="M0 0-40.253-23.506-40.022-70.119 .461-93.226 40.714-69.72 40.483-23.107 0 0Z"/>
<path transform="matrix(1,0,0,-1,173.3235,546.87319)" d="M0 0-40.253-23.506-40.022-70.119 .461-93.226 40.714-69.72 40.483-23.107Z" fill="#00c1f3"/>
<path transform="matrix(1,0,0,-1,173.3235,546.87319)" stroke-width="1" stroke-linecap="butt" stroke-miterlimit="10" stroke-linejoin="miter" fill="none" stroke="#231f20" d="M0 0-40.253-23.506-40.022-70.119 .461-93.226 40.714-69.72 40.483-23.107 0 0Z"/>
<path transform="matrix(1,0,0,-1,425.8802,546.87319)" d="M0 0-40.253-23.506-40.022-70.119 .461-93.226 40.714-69.72 40.483-23.107Z" fill="#00c1f3"/>
<path transform="matrix(1,0,0,-1,425.8802,546.87319)" stroke-width="1" stroke-linecap="butt" stroke-miterlimit="10" stroke-linejoin="miter" fill="none" stroke="#231f20" d="M0 0-40.253-23.506-40.022-70.119 .461-93.226 40.714-69.72 40.483-23.107 0 0Z"/>
<path transform="matrix(1,0,0,-1,215.4162,622.2343)" d="M0 0-40.253-23.506-40.022-70.119 .461-93.226 40.714-69.72 40.483-23.107Z" fill="#00c1f3"/>
<path transform="matrix(1,0,0,-1,215.4162,622.2343)" stroke-width="1" stroke-linecap="butt" stroke-miterlimit="10" stroke-linejoin="miter" fill="none" stroke="#231f20" d="M0 0-40.253-23.506-40.022-70.119 .461-93.226 40.714-69.72 40.483-23.107 0 0Z"/>
<path transform="matrix(1,0,0,-1,299.6018,622.2343)" d="M0 0-40.253-23.506-40.022-70.119 .461-93.226 40.714-69.72 40.483-23.107Z" fill="#00c1f3"/>
<path transform="matrix(1,0,0,-1,299.6018,622.2343)" stroke-width="1" stroke-linecap="butt" stroke-miterlimit="10" stroke-linejoin="miter" fill="none" stroke="#231f20" d="M0 0-40.253-23.506-40.022-70.119 .461-93.226 40.714-69.72 40.483-23.107 0 0Z"/>
<path transform="matrix(1,0,0,-1,383.7874,622.2343)" d="M0 0-40.253-23.506-40.022-70.119 .461-93.226 40.714-69.72 40.483-23.107Z" fill="#00c1f3"/>
<path transform="matrix(1,0,0,-1,383.7874,622.2343)" stroke-width="1" stroke-linecap="butt" stroke-miterlimit="10" stroke-linejoin="miter" fill="none" stroke="#231f20" d="M0 0-40.253-23.506-40.022-70.119 .461-93.226 40.714-69.72 40.483-23.107 0 0Z"/>
<path transform="matrix(1,0,0,-1,341.6946,694.5786)" d="M0 0-40.253-23.506-40.022-70.119 .461-93.226 40.714-69.72 40.483-23.107Z" fill="#00c1f3"/>
<path transform="matrix(1,0,0,-1,341.6946,694.5786)" stroke-width="1" stroke-linecap="butt" stroke-miterlimit="10" stroke-linejoin="miter" fill="none" stroke="#231f20" d="M0 0-40.253-23.506-40.022-70.119 .461-93.226 40.714-69.72 40.483-23.107 0 0Z"/>
<path transform="matrix(1,0,0,-1,426.0339,694.5786)" d="M0 0-40.253-23.506-40.022-70.119 .461-93.226 40.714-69.72 40.483-23.107Z" fill="#00c1f3"/>
<path transform="matrix(1,0,0,-1,426.0339,694.5786)" stroke-width="1" stroke-linecap="butt" stroke-miterlimit="10" stroke-linejoin="miter" fill="none" stroke="#231f20" d="M0 0-40.253-23.506-40.022-70.119 .461-93.226 40.714-69.72 40.483-23.107 0 0Z"/>
<path transform="matrix(1,0,0,-1,552.1586,471.3505)" d="M0 0-40.253-23.506-40.022-70.119 .461-93.226 40.714-69.72 40.483-23.107Z" fill="#00c1f3"/>
<path transform="matrix(1,0,0,-1,552.1586,471.3505)" stroke-width="1" stroke-linecap="butt" stroke-miterlimit="10" stroke-linejoin="miter" fill="none" stroke="#231f20" d="M0 0-40.253-23.506-40.022-70.119 .461-93.226 40.714-69.72 40.483-23.107 0 0Z"/>
<path transform="matrix(1,0,0,-1,299.6018,766.6469)" d="M0 0-40.253-23.506-40.022-70.119 .461-93.226 40.714-69.72 40.483-23.107Z" fill="#00c1f3"/>
<path transform="matrix(1,0,0,-1,299.6018,766.6469)" stroke-width="1" stroke-linecap="butt" stroke-miterlimit="10" stroke-linejoin="miter" fill="none" stroke="#231f20" d="M0 0-40.253-23.506-40.022-70.119 .461-93.226 40.714-69.72 40.483-23.107 0 0Z"/>
<path transform="matrix(1,0,0,-1,47.0451,471.3505)" d="M0 0-40.253-23.506-40.022-70.119 .461-93.226 40.714-69.72 40.483-23.107Z" fill="#00c1f3"/>
<path transform="matrix(1,0,0,-1,47.0451,471.3505)" stroke-width="1" stroke-linecap="butt" stroke-miterlimit="10" stroke-linejoin="miter" fill="none" stroke="#231f20" d="M0 0-40.253-23.506-40.022-70.119 .461-93.226 40.714-69.72 40.483-23.107 0 0Z"/>
<path transform="matrix(1,0,0,-1,89.1379,546.87319)" d="M0 0-40.253-23.506-40.022-70.119 .461-93.226 40.714-69.72 40.483-23.107Z" fill="#00c1f3"/>
<path transform="matrix(1,0,0,-1,89.1379,546.87319)" stroke-width="1" stroke-linecap="butt" stroke-miterlimit="10" stroke-linejoin="miter" fill="none" stroke="#231f20" d="M0 0-40.253-23.506-40.022-70.119 .461-93.226 40.714-69.72 40.483-23.107 0 0Z"/>
<path transform="matrix(1,0,0,-1,130.0414,622.2343)" d="M0 0-40.253-23.506-40.022-70.119 .461-93.226 40.714-69.72 40.483-23.107Z" fill="#00c1f3"/>
<path transform="matrix(1,0,0,-1,130.0414,622.2343)" stroke-width="1" stroke-linecap="butt" stroke-miterlimit="10" stroke-linejoin="miter" fill="none" stroke="#231f20" d="M0 0-40.253-23.506-40.022-70.119 .461-93.226 40.714-69.72 40.483-23.107 0 0Z"/>
<path transform="matrix(1,0,0,-1,469.8884,622.2343)" d="M0 0-40.253-23.506-40.022-70.119 .461-93.226 40.714-69.72 40.483-23.107Z" fill="#00c1f3"/>
<path transform="matrix(1,0,0,-1,469.8884,622.2343)" stroke-width="1" stroke-linecap="butt" stroke-miterlimit="10" stroke-linejoin="miter" fill="none" stroke="#231f20" d="M0 0-40.253-23.506-40.022-70.119 .461-93.226 40.714-69.72 40.483-23.107 0 0Z"/>
<path transform="matrix(1,0,0,-1,510.4447,546.87319)" d="M0 0-40.253-23.506-40.022-70.119 .461-93.226 40.714-69.72 40.483-23.107Z" fill="#00c1f3"/>
<path transform="matrix(1,0,0,-1,510.4447,546.87319)" stroke-width="1" stroke-linecap="butt" stroke-miterlimit="10" stroke-linejoin="miter" fill="none" stroke="#231f20" d="M0 0-40.253-23.506-40.022-70.119 .461-93.226 40.714-69.72 40.483-23.107 0 0Z"/>
<path transform="matrix(1,0,0,-1,46.4029,320.7055)" d="M0 0-40.253-23.506-40.022-70.119 .461-93.226 40.714-69.72 40.483-23.107Z" fill="#00c1f3"/>
<path transform="matrix(1,0,0,-1,46.4029,320.7055)" stroke-width="1" stroke-linecap="butt" stroke-miterlimit="10" stroke-linejoin="miter" fill="none" stroke="#231f20" d="M0 0-40.253-23.506-40.022-70.119 .461-93.226 40.714-69.72 40.483-23.107 0 0Z"/>
<path transform="matrix(1,0,0,-1,552.1586,320.46669)" d="M0 0-40.253-23.506-40.022-70.119 .461-93.226 40.714-69.72 40.483-23.107Z" fill="#00c1f3"/>
<path transform="matrix(1,0,0,-1,552.1586,320.46669)" stroke-width="1" stroke-linecap="butt" stroke-miterlimit="10" stroke-linejoin="miter" fill="none" stroke="#231f20" d="M0 0-40.253-23.506-40.022-70.119 .461-93.226 40.714-69.72 40.483-23.107 0 0Z"/>
<path transform="matrix(1,0,0,-1,257.509,694.5786)" d="M0 0-40.253-23.506-40.022-70.119 .461-93.226 40.714-69.72 40.483-23.107Z" fill="#00c1f3"/>
<path transform="matrix(1,0,0,-1,257.509,694.5786)" stroke-width="1" stroke-linecap="butt" stroke-miterlimit="10" stroke-linejoin="miter" fill="none" stroke="#231f20" d="M0 0-40.253-23.506-40.022-70.119 .461-93.226 40.714-69.72 40.483-23.107 0 0Z"/>
<path transform="matrix(1,0,0,-1,173.3235,694.5786)" d="M0 0-40.253-23.506-40.022-70.119 .461-93.226 40.714-69.72 40.483-23.107Z" fill="#00c1f3"/>
<path transform="matrix(1,0,0,-1,173.3235,694.5786)" stroke-width="1" stroke-linecap="butt" stroke-miterlimit="10" stroke-linejoin="miter" fill="none" stroke="#231f20" d="M0 0-40.253-23.506-40.022-70.119 .461-93.226 40.714-69.72 40.483-23.107 0 0Z"/>
<path transform="matrix(1,0,0,-1,383.7874,19.37262)" d="M0 0-40.253-23.506-40.022-70.119 .461-93.226 40.714-69.72 40.483-23.107Z" fill="#00c1f3"/>
<path transform="matrix(1,0,0,-1,383.7874,19.37262)" stroke-width="1" stroke-linecap="butt" stroke-miterlimit="10" stroke-linejoin="miter" fill="none" stroke="#231f20" d="M0 0-40.253-23.506-40.022-70.119 .461-93.226 40.714-69.72 40.483-23.107 0 0Z"/>
<path transform="matrix(1,0,0,-1,87.2225,245.10559)" d="M0 0-40.253-23.506-40.022-70.119 .461-93.226 40.714-69.72 40.483-23.107Z" fill="#00c1f3"/>
<path transform="matrix(1,0,0,-1,87.2225,245.10559)" stroke-width="1" stroke-linecap="butt" stroke-miterlimit="10" stroke-linejoin="miter" fill="none" stroke="#231f20" d="M0 0-40.253-23.506-40.022-70.119 .461-93.226 40.714-69.72 40.483-23.107 0 0Z"/>
<path transform="matrix(1,0,0,-1,219.2799,268.5055)" d="M0 0 37.662 23.4 80.552-1.122 122.216 23.4 159.504 2.37V-49.136L202.031-73.08V-120.844L242.561-148.655 244.307-195.546 204.026-220.71 202.654-270.122 161.126-297.06 160.751-347.443 122.715-372.634 80.552-344.824 38.66-370.639 0-349.812V-299.18L-41.529-274.612V-224.728L-83.556-199.038V-150.151L-41.529-124.461-41.03-75.45 2.245-49.011Z" fill="#00c1f3"/>
<path transform="matrix(1,0,0,-1,219.2799,268.5055)" stroke-width="1" stroke-linecap="butt" stroke-miterlimit="10" stroke-linejoin="miter" fill="none" stroke="#231f20" d="M0 0 37.662 23.4 80.552-1.122 122.216 23.4 159.504 2.37V-49.136L202.031-73.08V-120.844L242.561-148.655 244.307-195.546 204.026-220.71 202.654-270.122 161.126-297.06 160.751-347.443 122.715-372.634 80.552-344.824 38.66-370.639 0-349.812V-299.18L-41.529-274.612V-224.728L-83.556-199.038V-150.151L-41.529-124.461-41.03-75.45 2.245-49.011 0 0Z"/>
</g>
</svg>
