<?xml version="1.0" encoding="UTF-8" standalone="no"?>
<!-- Created with Inkscape (http://www.inkscape.org/) -->

<svg
   version="1.1"
   id="svg1"
   width="793.70135"
   height="1248"
   viewBox="0 0 793.70135 1248"
   sodipodi:docname="upload_aadnx622r3dsm3cjxv6keo3jud.pdf"
   xmlns:inkscape="http://www.inkscape.org/namespaces/inkscape"
   xmlns:sodipodi="http://sodipodi.sourceforge.net/DTD/sodipodi-0.dtd"
   xmlns="http://www.w3.org/2000/svg"
   xmlns:svg="http://www.w3.org/2000/svg">
  <defs
     id="defs1" />
  <sodipodi:namedview
     id="namedview1"
     pagecolor="#ffffff"
     bordercolor="#000000"
     borderopacity="0.25"
     inkscape:showpageshadow="2"
     inkscape:pageopacity="0.0"
     inkscape:pagecheckerboard="0"
     inkscape:deskcolor="#d1d1d1">
    <inkscape:page
       x="0"
       y="0"
       inkscape:label="1"
       id="page1"
       width="793.70135"
       height="1248"
       margin="8.7091064 2.9133334 25.059999 7.1553998"
       bleed="0" />
  </sodipodi:namedview>
  <g
     id="layer-MC0"
     inkscape:groupmode="layer"
     inkscape:label="Layer 1">
    <path
       id="path1"
       d="M 7.9677266,-1.2049769e-5 V -3.5245696 H 9.7724141 V -4.8914653 H 7.9677266 V -12.934686 H 6.0692891 l -5.77734379,8.2578572 v 1.1522592 H 6.3153828 V -1.2049769e-5 Z M 2.0731953,-4.8914653 v -0.045187 l 3.1640625,-4.3944002 c 0.3515625,-0.598723 0.6796875,-1.1635555 1.078125,-1.9204315 h 0.058594 c -0.046875,0.677799 -0.058594,1.3555985 -0.058594,2.033398 v 4.3266203 z m 8.9736327,4.23624705 c 0.644531,0.41797637 1.910156,0.86984272 3.363281,0.86984272 3.117188,0 4.722657,-1.80746537 4.722657,-3.87475397 0,-1.818762 -1.289063,-3.0049112 -2.882813,-3.3212176 v -0.045187 c 1.59375,-0.5761296 2.390625,-1.7170921 2.390625,-3.0500979 0,-1.570235 -1.160156,-3.083987 -3.703125,-3.083987 -1.394531,0 -2.707031,0.497053 -3.386719,0.994106 l 0.457032,1.276522 c 0.550781,-0.395383 1.546875,-0.858546 2.589843,-0.858546 1.605469,0 2.261719,0.915029 2.261719,1.9543216 0,1.5363455 -1.605469,2.1915517 -2.882812,2.1915517 h -0.972657 v 1.3104125 h 0.972657 c 1.699218,0 3.328125,0.7794694 3.351562,2.5869348 0.01172,1.0731826 -0.679687,2.5078582 -2.929687,2.5078582 -1.21875,0 -2.367188,-0.497053 -2.871094,-0.8133594 z m 0,0"
       style="fill:#231f20;fill-opacity:1;fill-rule:nonzero;stroke:none"
       aria-label="43"
       transform="matrix(1.3333333,0,0,1.3831523,674.66933,1232.4063)" />
    <path
       id="path2"
       d="m 0,0 -40.253,-23.506 0.231,-46.613 40.483,-23.107 40.253,23.506 -0.231,46.613 z"
       style="fill:#4fc6f4;fill-opacity:1;fill-rule:nonzero;stroke:#231f20;stroke-width:1;stroke-linecap:butt;stroke-linejoin:miter;stroke-miterlimit:10;stroke-dasharray:none;stroke-opacity:1"
       transform="matrix(1.3333333,0,0,-1.3333333,230.7216,125.62907)" />
    <path
       id="path3"
       d="m 0,0 -40.253,-23.506 0.231,-46.613 40.483,-23.107 40.253,23.506 -0.231,46.613 z"
       style="fill:#4fc6f4;fill-opacity:1;fill-rule:nonzero;stroke:#231f20;stroke-width:1;stroke-linecap:butt;stroke-linejoin:miter;stroke-miterlimit:10;stroke-dasharray:none;stroke-opacity:1"
       transform="matrix(1.3333333,0,0,-1.3333333,118.47413,125.62907)" />
    <path
       id="path4"
       d="m 0,0 -40.253,-23.506 0.231,-46.613 40.483,-23.107 40.253,23.506 -0.231,46.613 z"
       style="fill:#4fc6f4;fill-opacity:1;fill-rule:nonzero;stroke:#231f20;stroke-width:1;stroke-linecap:butt;stroke-linejoin:miter;stroke-miterlimit:10;stroke-dasharray:none;stroke-opacity:1"
       transform="matrix(1.3333333,0,0,-1.3333333,342.96907,125.62907)" />
    <path
       id="path5"
       d="m 0,0 -40.253,-23.506 0.231,-46.613 40.483,-23.107 40.253,23.506 -0.231,46.613 z"
       style="fill:#4fc6f4;fill-opacity:1;fill-rule:nonzero;stroke:#231f20;stroke-width:1;stroke-linecap:butt;stroke-linejoin:miter;stroke-miterlimit:10;stroke-dasharray:none;stroke-opacity:1"
       transform="matrix(1.3333333,0,0,-1.3333333,455.21653,125.62907)" />
    <path
       id="path6"
       d="m 0,0 -40.253,-23.506 0.231,-46.613 40.483,-23.107 40.253,23.506 -0.231,46.613 z"
       style="fill:#4fc6f4;fill-opacity:1;fill-rule:nonzero;stroke:#231f20;stroke-width:1;stroke-linecap:butt;stroke-linejoin:miter;stroke-miterlimit:10;stroke-dasharray:none;stroke-opacity:1"
       transform="matrix(1.3333333,0,0,-1.3333333,567.464,125.62907)" />
    <path
       id="path7"
       d="m 0,0 -40.253,-23.506 0.231,-46.613 40.483,-23.107 40.253,23.506 -0.231,46.613 z"
       style="fill:#4fc6f4;fill-opacity:1;fill-rule:nonzero;stroke:#231f20;stroke-width:1;stroke-linecap:butt;stroke-linejoin:miter;stroke-miterlimit:10;stroke-dasharray:none;stroke-opacity:1"
       transform="matrix(1.3333333,0,0,-1.3333333,679.71133,125.62907)" />
    <path
       id="path8"
       d="m 0,0 -40.253,-23.506 0.231,-46.613 40.483,-23.107 40.253,23.506 -0.231,46.613 z"
       style="fill:#4fc6f4;fill-opacity:1;fill-rule:nonzero;stroke:#231f20;stroke-width:1;stroke-linecap:butt;stroke-linejoin:miter;stroke-miterlimit:10;stroke-dasharray:none;stroke-opacity:1"
       transform="matrix(1.3333333,0,0,-1.3333333,174.59787,226.1104)" />
    <path
       id="path9"
       d="m 0,0 -40.253,-23.506 0.231,-46.613 40.483,-23.107 40.253,23.506 -0.231,46.613 z"
       style="fill:#4fc6f4;fill-opacity:1;fill-rule:nonzero;stroke:#231f20;stroke-width:1;stroke-linecap:butt;stroke-linejoin:miter;stroke-miterlimit:10;stroke-dasharray:none;stroke-opacity:1"
       transform="matrix(1.3333333,0,0,-1.3333333,286.84533,226.1104)" />
    <path
       id="path10"
       d="m 0,0 -40.253,-23.506 0.231,-46.613 40.483,-23.107 40.253,23.506 -0.231,46.613 z"
       style="fill:#4fc6f4;fill-opacity:1;fill-rule:nonzero;stroke:#231f20;stroke-width:1;stroke-linecap:butt;stroke-linejoin:miter;stroke-miterlimit:10;stroke-dasharray:none;stroke-opacity:1"
       transform="matrix(1.3333333,0,0,-1.3333333,399.0928,226.1104)" />
    <path
       id="path11"
       d="m 0,0 -40.253,-23.506 0.231,-46.613 40.483,-23.107 40.253,23.506 -0.231,46.613 z"
       style="fill:#4fc6f4;fill-opacity:1;fill-rule:nonzero;stroke:#231f20;stroke-width:1;stroke-linecap:butt;stroke-linejoin:miter;stroke-miterlimit:10;stroke-dasharray:none;stroke-opacity:1"
       transform="matrix(1.3333333,0,0,-1.3333333,511.34027,226.1104)" />
    <path
       id="path12"
       d="m 0,0 -40.253,-23.506 0.231,-46.613 40.483,-23.107 40.253,23.506 -0.231,46.613 z"
       style="fill:#4fc6f4;fill-opacity:1;fill-rule:nonzero;stroke:#231f20;stroke-width:1;stroke-linecap:butt;stroke-linejoin:miter;stroke-miterlimit:10;stroke-dasharray:none;stroke-opacity:1"
       transform="matrix(1.3333333,0,0,-1.3333333,623.58773,226.1104)" />
    <path
       id="path13"
       d="m 0,0 -40.253,-23.506 0.231,-46.613 40.483,-23.107 40.253,23.506 -0.231,46.613 z"
       style="fill:#4fc6f4;fill-opacity:1;fill-rule:nonzero;stroke:#231f20;stroke-width:1;stroke-linecap:butt;stroke-linejoin:miter;stroke-miterlimit:10;stroke-dasharray:none;stroke-opacity:1"
       transform="matrix(1.3333333,0,0,-1.3333333,399.0928,25.830133)" />
    <path
       id="path14"
       d="m 0,0 -40.253,-23.506 0.231,-46.613 40.483,-23.107 40.253,23.506 -0.231,46.613 z"
       style="fill:#4fc6f4;fill-opacity:1;fill-rule:nonzero;stroke:#231f20;stroke-width:1;stroke-linecap:butt;stroke-linejoin:miter;stroke-miterlimit:10;stroke-dasharray:none;stroke-opacity:1"
       transform="matrix(1.3333333,0,0,-1.3333333,286.84533,25.830133)" />
    <path
       id="path15"
       d="m 0,0 -40.253,-23.506 0.231,-46.613 40.483,-23.107 40.253,23.506 -0.231,46.613 z"
       style="fill:#4fc6f4;fill-opacity:1;fill-rule:nonzero;stroke:#231f20;stroke-width:1;stroke-linecap:butt;stroke-linejoin:miter;stroke-miterlimit:10;stroke-dasharray:none;stroke-opacity:1"
       transform="matrix(1.3333333,0,0,-1.3333333,681.79387,325.25107)" />
    <path
       id="path16"
       d="m 0,0 -40.253,-23.506 0.231,-46.613 40.483,-23.107 40.253,23.506 -0.231,46.613 z"
       style="fill:#4fc6f4;fill-opacity:1;fill-rule:nonzero;stroke:#231f20;stroke-width:1;stroke-linecap:butt;stroke-linejoin:miter;stroke-miterlimit:10;stroke-dasharray:none;stroke-opacity:1"
       transform="matrix(1.3333333,0,0,-1.3333333,230.7216,326.80747)" />
    <path
       id="path17"
       d="m 0,0 -40.253,-23.506 0.231,-46.613 40.483,-23.107 40.253,23.506 -0.231,46.613 z"
       style="fill:#4fc6f4;fill-opacity:1;fill-rule:nonzero;stroke:#231f20;stroke-width:1;stroke-linecap:butt;stroke-linejoin:miter;stroke-miterlimit:10;stroke-dasharray:none;stroke-opacity:1"
       transform="matrix(1.3333333,0,0,-1.3333333,567.464,326.80747)" />
    <path
       id="path18"
       d="m 0,0 -40.253,-23.506 0.231,-46.613 40.483,-23.107 40.253,23.506 -0.231,46.613 z"
       style="fill:#4fc6f4;fill-opacity:1;fill-rule:nonzero;stroke:#231f20;stroke-width:1;stroke-linecap:butt;stroke-linejoin:miter;stroke-miterlimit:10;stroke-dasharray:none;stroke-opacity:1"
       transform="matrix(1.3333333,0,0,-1.3333333,174.59787,427.28893)" />
    <path
       id="path19"
       d="m 0,0 -40.253,-23.506 0.231,-46.613 40.483,-23.107 40.253,23.506 -0.231,46.613 z"
       style="fill:#4fc6f4;fill-opacity:1;fill-rule:nonzero;stroke:#231f20;stroke-width:1;stroke-linecap:butt;stroke-linejoin:miter;stroke-miterlimit:10;stroke-dasharray:none;stroke-opacity:1"
       transform="matrix(1.3333333,0,0,-1.3333333,623.58773,423.28893)" />
    <path
       id="path20"
       d="m 0,0 -40.253,-23.506 0.231,-46.613 40.483,-23.107 40.253,23.506 -0.231,46.613 z"
       style="fill:#4fc6f4;fill-opacity:1;fill-rule:nonzero;stroke:#231f20;stroke-width:1;stroke-linecap:butt;stroke-linejoin:miter;stroke-miterlimit:10;stroke-dasharray:none;stroke-opacity:1"
       transform="matrix(1.3333333,0,0,-1.3333333,118.47413,527.98587)" />
    <path
       id="path21"
       d="m 0,0 -40.253,-23.506 0.231,-46.613 40.483,-23.107 40.253,23.506 -0.231,46.613 z"
       style="fill:#4fc6f4;fill-opacity:1;fill-rule:nonzero;stroke:#231f20;stroke-width:1;stroke-linecap:butt;stroke-linejoin:miter;stroke-miterlimit:10;stroke-dasharray:none;stroke-opacity:1"
       transform="matrix(1.3333333,0,0,-1.3333333,679.71133,527.98587)" />
    <path
       id="path22"
       d="m 0,0 -40.253,-23.506 0.231,-46.613 40.483,-23.107 40.253,23.506 -0.231,46.613 z"
       style="fill:#4fc6f4;fill-opacity:1;fill-rule:nonzero;stroke:#231f20;stroke-width:1;stroke-linecap:butt;stroke-linejoin:miter;stroke-miterlimit:10;stroke-dasharray:none;stroke-opacity:1"
       transform="matrix(1.3333333,0,0,-1.3333333,174.59787,628.46733)" />
    <path
       id="path23"
       d="m 0,0 -40.253,-23.506 0.231,-46.613 40.483,-23.107 40.253,23.506 -0.231,46.613 z"
       style="fill:#4fc6f4;fill-opacity:1;fill-rule:nonzero;stroke:#231f20;stroke-width:1;stroke-linecap:butt;stroke-linejoin:miter;stroke-miterlimit:10;stroke-dasharray:none;stroke-opacity:1"
       transform="matrix(1.3333333,0,0,-1.3333333,623.58773,628.46733)" />
    <path
       id="path24"
       d="m 0,0 -40.253,-23.506 0.231,-46.613 40.483,-23.107 40.253,23.506 -0.231,46.613 z"
       style="fill:#4fc6f4;fill-opacity:1;fill-rule:nonzero;stroke:#231f20;stroke-width:1;stroke-linecap:butt;stroke-linejoin:miter;stroke-miterlimit:10;stroke-dasharray:none;stroke-opacity:1"
       transform="matrix(1.3333333,0,0,-1.3333333,230.7216,729.16427)" />
    <path
       id="path25"
       d="m 0,0 -40.253,-23.506 0.231,-46.613 40.483,-23.107 40.253,23.506 -0.231,46.613 z"
       style="fill:#4fc6f4;fill-opacity:1;fill-rule:nonzero;stroke:#231f20;stroke-width:1;stroke-linecap:butt;stroke-linejoin:miter;stroke-miterlimit:10;stroke-dasharray:none;stroke-opacity:1"
       transform="matrix(1.3333333,0,0,-1.3333333,567.464,729.16427)" />
    <path
       id="path26"
       d="m 0,0 -40.253,-23.506 0.231,-46.613 40.483,-23.107 40.253,23.506 -0.231,46.613 z"
       style="fill:#4fc6f4;fill-opacity:1;fill-rule:nonzero;stroke:#231f20;stroke-width:1;stroke-linecap:butt;stroke-linejoin:miter;stroke-miterlimit:10;stroke-dasharray:none;stroke-opacity:1"
       transform="matrix(1.3333333,0,0,-1.3333333,286.84533,829.64573)" />
    <path
       id="path27"
       d="m 0,0 -40.253,-23.506 0.231,-46.613 40.483,-23.107 40.253,23.506 -0.231,46.613 z"
       style="fill:#4fc6f4;fill-opacity:1;fill-rule:nonzero;stroke:#231f20;stroke-width:1;stroke-linecap:butt;stroke-linejoin:miter;stroke-miterlimit:10;stroke-dasharray:none;stroke-opacity:1"
       transform="matrix(1.3333333,0,0,-1.3333333,399.0928,829.64573)" />
    <path
       id="path28"
       d="m 0,0 -40.253,-23.506 0.231,-46.613 40.483,-23.107 40.253,23.506 -0.231,46.613 z"
       style="fill:#4fc6f4;fill-opacity:1;fill-rule:nonzero;stroke:#231f20;stroke-width:1;stroke-linecap:butt;stroke-linejoin:miter;stroke-miterlimit:10;stroke-dasharray:none;stroke-opacity:1"
       transform="matrix(1.3333333,0,0,-1.3333333,511.34027,829.64573)" />
    <path
       id="path29"
       d="m 0,0 -40.253,-23.506 0.231,-46.613 40.483,-23.107 40.253,23.506 -0.231,46.613 z"
       style="fill:#4fc6f4;fill-opacity:1;fill-rule:nonzero;stroke:#231f20;stroke-width:1;stroke-linecap:butt;stroke-linejoin:miter;stroke-miterlimit:10;stroke-dasharray:none;stroke-opacity:1"
       transform="matrix(1.3333333,0,0,-1.3333333,455.21653,926.1048)" />
    <path
       id="path30"
       d="m 0,0 -40.253,-23.506 0.231,-46.613 40.483,-23.107 40.253,23.506 -0.231,46.613 z"
       style="fill:#4fc6f4;fill-opacity:1;fill-rule:nonzero;stroke:#231f20;stroke-width:1;stroke-linecap:butt;stroke-linejoin:miter;stroke-miterlimit:10;stroke-dasharray:none;stroke-opacity:1"
       transform="matrix(1.3333333,0,0,-1.3333333,567.6688,926.1048)" />
    <path
       id="path31"
       d="m 0,0 -40.253,-23.506 0.231,-46.613 40.483,-23.107 40.253,23.506 -0.231,46.613 z"
       style="fill:#4fc6f4;fill-opacity:1;fill-rule:nonzero;stroke:#231f20;stroke-width:1;stroke-linecap:butt;stroke-linejoin:miter;stroke-miterlimit:10;stroke-dasharray:none;stroke-opacity:1"
       transform="matrix(1.3333333,0,0,-1.3333333,735.83507,628.46733)" />
    <path
       id="path32"
       d="m 0,0 -40.253,-23.506 0.231,-46.613 40.483,-23.107 40.253,23.506 -0.231,46.613 z"
       style="fill:#4fc6f4;fill-opacity:1;fill-rule:nonzero;stroke:#231f20;stroke-width:1;stroke-linecap:butt;stroke-linejoin:miter;stroke-miterlimit:10;stroke-dasharray:none;stroke-opacity:1"
       transform="matrix(1.3333333,0,0,-1.3333333,399.0928,1022.1959)" />
    <path
       id="path33"
       d="m 0,0 -40.253,-23.506 0.231,-46.613 40.483,-23.107 40.253,23.506 -0.231,46.613 z"
       style="fill:#4fc6f4;fill-opacity:1;fill-rule:nonzero;stroke:#231f20;stroke-width:1;stroke-linecap:butt;stroke-linejoin:miter;stroke-miterlimit:10;stroke-dasharray:none;stroke-opacity:1"
       transform="matrix(1.3333333,0,0,-1.3333333,511.67853,1022.1959)" />
    <path
       id="path34"
       d="m 0,0 -40.253,-23.506 0.231,-46.613 40.483,-23.107 40.253,23.506 -0.231,46.613 z"
       style="fill:#4fc6f4;fill-opacity:1;fill-rule:nonzero;stroke:#231f20;stroke-width:1;stroke-linecap:butt;stroke-linejoin:miter;stroke-miterlimit:10;stroke-dasharray:none;stroke-opacity:1"
       transform="matrix(1.3333333,0,0,-1.3333333,286.83533,1022.1959)" />
    <path
       id="path35"
       d="m 0,0 -40.253,-23.506 0.231,-46.613 40.483,-23.107 40.253,23.506 -0.231,46.613 z"
       style="fill:#4fc6f4;fill-opacity:1;fill-rule:nonzero;stroke:#231f20;stroke-width:1;stroke-linecap:butt;stroke-linejoin:miter;stroke-miterlimit:10;stroke-dasharray:none;stroke-opacity:1"
       transform="matrix(1.3333333,0,0,-1.3333333,62.3504,628.46733)" />
    <path
       id="path36"
       d="m 0,0 -40.253,-23.506 0.231,-46.613 40.483,-23.107 40.253,23.506 -0.231,46.613 z"
       style="fill:#4fc6f4;fill-opacity:1;fill-rule:nonzero;stroke:#231f20;stroke-width:1;stroke-linecap:butt;stroke-linejoin:miter;stroke-miterlimit:10;stroke-dasharray:none;stroke-opacity:1"
       transform="matrix(1.3333333,0,0,-1.3333333,118.47413,729.16427)" />
    <path
       id="path37"
       d="m 0,0 -40.253,-23.506 0.231,-46.613 40.483,-23.107 40.253,23.506 -0.231,46.613 z"
       style="fill:#4fc6f4;fill-opacity:1;fill-rule:nonzero;stroke:#231f20;stroke-width:1;stroke-linecap:butt;stroke-linejoin:miter;stroke-miterlimit:10;stroke-dasharray:none;stroke-opacity:1"
       transform="matrix(1.3333333,0,0,-1.3333333,173.01213,829.64573)" />
    <path
       id="path38"
       d="m 0,0 -40.253,-23.506 0.231,-46.613 40.483,-23.107 40.253,23.506 -0.231,46.613 z"
       style="fill:#4fc6f4;fill-opacity:1;fill-rule:nonzero;stroke:#231f20;stroke-width:1;stroke-linecap:butt;stroke-linejoin:miter;stroke-miterlimit:10;stroke-dasharray:none;stroke-opacity:1"
       transform="matrix(1.3333333,0,0,-1.3333333,626.14147,829.64573)" />
    <path
       id="path39"
       d="m 0,0 -40.253,-23.506 0.231,-46.613 40.483,-23.107 40.253,23.506 -0.231,46.613 z"
       style="fill:#4fc6f4;fill-opacity:1;fill-rule:nonzero;stroke:#231f20;stroke-width:1;stroke-linecap:butt;stroke-linejoin:miter;stroke-miterlimit:10;stroke-dasharray:none;stroke-opacity:1"
       transform="matrix(1.3333333,0,0,-1.3333333,680.21653,729.16427)" />
    <path
       id="path40"
       d="m 0,0 -40.253,-23.506 0.231,-46.613 40.483,-23.107 40.253,23.506 -0.231,46.613 z"
       style="fill:#4fc6f4;fill-opacity:1;fill-rule:nonzero;stroke:#231f20;stroke-width:1;stroke-linecap:butt;stroke-linejoin:miter;stroke-miterlimit:10;stroke-dasharray:none;stroke-opacity:1"
       transform="matrix(1.3333333,0,0,-1.3333333,61.494133,427.60733)" />
    <path
       id="path41"
       d="m 0,0 -40.253,-23.506 0.231,-46.613 40.483,-23.107 40.253,23.506 -0.231,46.613 z"
       style="fill:#4fc6f4;fill-opacity:1;fill-rule:nonzero;stroke:#231f20;stroke-width:1;stroke-linecap:butt;stroke-linejoin:miter;stroke-miterlimit:10;stroke-dasharray:none;stroke-opacity:1"
       transform="matrix(1.3333333,0,0,-1.3333333,735.83507,427.28893)" />
    <path
       id="path42"
       d="m 0,0 -40.253,-23.506 0.231,-46.613 40.483,-23.107 40.253,23.506 -0.231,46.613 z"
       style="fill:#4fc6f4;fill-opacity:1;fill-rule:nonzero;stroke:#231f20;stroke-width:1;stroke-linecap:butt;stroke-linejoin:miter;stroke-miterlimit:10;stroke-dasharray:none;stroke-opacity:1"
       transform="matrix(1.3333333,0,0,-1.3333333,342.96907,926.1048)" />
    <path
       id="path43"
       d="m 0,0 -40.253,-23.506 0.231,-46.613 40.483,-23.107 40.253,23.506 -0.231,46.613 z"
       style="fill:#4fc6f4;fill-opacity:1;fill-rule:nonzero;stroke:#231f20;stroke-width:1;stroke-linecap:butt;stroke-linejoin:miter;stroke-miterlimit:10;stroke-dasharray:none;stroke-opacity:1"
       transform="matrix(1.3333333,0,0,-1.3333333,230.7216,926.1048)" />
    <path
       id="path44"
       d="m 0,0 -40.253,-23.506 0.231,-46.613 40.483,-23.107 40.253,23.506 -0.231,46.613 z"
       style="fill:#4fc6f4;fill-opacity:1;fill-rule:nonzero;stroke:#231f20;stroke-width:1;stroke-linecap:butt;stroke-linejoin:miter;stroke-miterlimit:10;stroke-dasharray:none;stroke-opacity:1"
       transform="matrix(1.3333333,0,0,-1.3333333,511.34027,25.830133)" />
    <path
       id="path45"
       d="m 0,0 -40.253,-23.506 0.231,-46.613 40.483,-23.107 40.253,23.506 -0.231,46.613 z"
       style="fill:#4fc6f4;fill-opacity:1;fill-rule:nonzero;stroke:#231f20;stroke-width:1;stroke-linecap:butt;stroke-linejoin:miter;stroke-miterlimit:10;stroke-dasharray:none;stroke-opacity:1"
       transform="matrix(1.3333333,0,0,-1.3333333,115.9204,326.80747)" />
    <path
       id="path46"
       d="M 0,0 37.662,23.4 80.552,-1.122 122.216,23.4 159.504,2.37 v -51.506 l 42.527,-23.944 v -47.764 l 40.53,-27.811 1.746,-46.891 -40.281,-25.164 -1.372,-49.412 -41.528,-26.938 -0.375,-50.383 -38.036,-25.191 -42.163,27.81 L 38.66,-370.639 0,-349.812 v 50.632 l -41.529,24.568 v 49.884 l -42.027,25.69 v 48.887 l 42.027,25.69 0.499,49.011 43.275,26.439 z"
       style="fill:#4fc6f4;fill-opacity:1;fill-rule:nonzero;stroke:#231f20;stroke-width:1;stroke-linecap:butt;stroke-linejoin:miter;stroke-miterlimit:10;stroke-dasharray:none;stroke-opacity:1"
       transform="matrix(1.3333333,0,0,-1.3333333,291.99693,358.00733)" />
  </g>
</svg>
