<?xml version="1.0" encoding="UTF-8" standalone="no"?>
<!-- Created with Inkscape (http://www.inkscape.org/) -->

<svg
   version="1.1"
   id="svg1"
   width="793.70135"
   height="1248"
   viewBox="0 0 793.70135 1248"
   sodipodi:docname="upload_z2z7aqqv2tjt5ypf5zmiqdj57m.pdf"
   xmlns:inkscape="http://www.inkscape.org/namespaces/inkscape"
   xmlns:sodipodi="http://sodipodi.sourceforge.net/DTD/sodipodi-0.dtd"
   xmlns="http://www.w3.org/2000/svg"
   xmlns:svg="http://www.w3.org/2000/svg">
  <defs
     id="defs1" />
  <sodipodi:namedview
     id="namedview1"
     pagecolor="#ffffff"
     bordercolor="#000000"
     borderopacity="0.25"
     inkscape:showpageshadow="2"
     inkscape:pageopacity="0.0"
     inkscape:pagecheckerboard="0"
     inkscape:deskcolor="#d1d1d1">
    <inkscape:page
       x="0"
       y="0"
       inkscape:label="1"
       id="page1"
       width="793.70135"
       height="1248"
       margin="8.7091064 4.4346666 25.059999 5.6338668"
       bleed="0" />
  </sodipodi:namedview>
  <g
     id="layer-MC0"
     inkscape:groupmode="layer"
     inkscape:label="Layer 1">
    <path
       id="path1"
       d="M 7.9677266,-1.2049769e-5 V -3.5245696 H 9.7724141 V -4.8914653 H 7.9677266 V -12.934686 H 6.0692891 l -5.77734379,8.2578572 v 1.1522592 H 6.3153828 V -1.2049769e-5 Z M 2.0731953,-4.8914653 v -0.045187 l 3.1640625,-4.3944002 c 0.3515625,-0.598723 0.6796875,-1.1635555 1.078125,-1.9204315 h 0.058594 c -0.046875,0.677799 -0.058594,1.3555985 -0.058594,2.033398 v 4.3266203 z M 18.183547,-1.2049769e-5 V -3.5245696 h 1.804687 v -1.3668957 h -1.804687 v -8.0432207 h -1.898438 l -5.777343,8.2578572 v 1.1522592 h 6.023437 V -1.2049769e-5 Z M 12.289016,-4.8914653 v -0.045187 l 3.164062,-4.3944002 c 0.351563,-0.598723 0.679688,-1.1635555 1.078125,-1.9204315 h 0.05859 c -0.04687,0.677799 -0.05859,1.3555985 -0.05859,2.033398 v 4.3266203 z m 0,0"
       style="fill:#231f20;fill-opacity:1;fill-rule:nonzero;stroke:none"
       aria-label="44"
       transform="matrix(1.3333333,0,0,1.3831523,674.66933,1232.4063)" />
    <path
       id="path2"
       d="m 0,0 -40.253,-23.506 0.231,-46.613 40.483,-23.107 40.253,23.506 -0.231,46.613 z"
       style="fill:#4fc6f4;fill-opacity:1;fill-rule:nonzero;stroke:#231f20;stroke-width:1;stroke-linecap:butt;stroke-linejoin:miter;stroke-miterlimit:10;stroke-dasharray:none;stroke-opacity:1"
       transform="matrix(1.3333333,0,0,-1.3333333,229.20013,125.62907)" />
    <path
       id="path3"
       d="m 0,0 -40.253,-23.506 0.231,-46.613 40.483,-23.107 40.253,23.506 -0.231,46.613 z"
       style="fill:#4fc6f4;fill-opacity:1;fill-rule:nonzero;stroke:#231f20;stroke-width:1;stroke-linecap:butt;stroke-linejoin:miter;stroke-miterlimit:10;stroke-dasharray:none;stroke-opacity:1"
       transform="matrix(1.3333333,0,0,-1.3333333,116.95267,125.62907)" />
    <path
       id="path4"
       d="m 0,0 -40.253,-23.506 0.231,-46.613 40.483,-23.107 40.253,23.506 -0.231,46.613 z"
       style="fill:#4fc6f4;fill-opacity:1;fill-rule:nonzero;stroke:#231f20;stroke-width:1;stroke-linecap:butt;stroke-linejoin:miter;stroke-miterlimit:10;stroke-dasharray:none;stroke-opacity:1"
       transform="matrix(1.3333333,0,0,-1.3333333,341.44747,125.62907)" />
    <path
       id="path5"
       d="m 0,0 -40.253,-23.506 0.231,-46.613 40.483,-23.107 40.253,23.506 -0.231,46.613 z"
       style="fill:#4fc6f4;fill-opacity:1;fill-rule:nonzero;stroke:#231f20;stroke-width:1;stroke-linecap:butt;stroke-linejoin:miter;stroke-miterlimit:10;stroke-dasharray:none;stroke-opacity:1"
       transform="matrix(1.3333333,0,0,-1.3333333,453.69493,125.62907)" />
    <path
       id="path6"
       d="m 0,0 -40.253,-23.506 0.231,-46.613 40.483,-23.107 40.253,23.506 -0.231,46.613 z"
       style="fill:#4fc6f4;fill-opacity:1;fill-rule:nonzero;stroke:#231f20;stroke-width:1;stroke-linecap:butt;stroke-linejoin:miter;stroke-miterlimit:10;stroke-dasharray:none;stroke-opacity:1"
       transform="matrix(1.3333333,0,0,-1.3333333,565.9424,125.62907)" />
    <path
       id="path7"
       d="m 0,0 -40.253,-23.506 0.231,-46.613 40.483,-23.107 40.253,23.506 -0.231,46.613 z"
       style="fill:#4fc6f4;fill-opacity:1;fill-rule:nonzero;stroke:#231f20;stroke-width:1;stroke-linecap:butt;stroke-linejoin:miter;stroke-miterlimit:10;stroke-dasharray:none;stroke-opacity:1"
       transform="matrix(1.3333333,0,0,-1.3333333,678.18987,125.62907)" />
    <path
       id="path8"
       d="m 0,0 -40.253,-23.506 0.231,-46.613 40.483,-23.107 40.253,23.506 -0.231,46.613 z"
       style="fill:#4fc6f4;fill-opacity:1;fill-rule:nonzero;stroke:#231f20;stroke-width:1;stroke-linecap:butt;stroke-linejoin:miter;stroke-miterlimit:10;stroke-dasharray:none;stroke-opacity:1"
       transform="matrix(1.3333333,0,0,-1.3333333,173.0764,226.1104)" />
    <path
       id="path9"
       d="m 0,0 -40.253,-23.506 0.231,-46.613 40.483,-23.107 40.253,23.506 -0.231,46.613 z"
       style="fill:#4fc6f4;fill-opacity:1;fill-rule:nonzero;stroke:#231f20;stroke-width:1;stroke-linecap:butt;stroke-linejoin:miter;stroke-miterlimit:10;stroke-dasharray:none;stroke-opacity:1"
       transform="matrix(1.3333333,0,0,-1.3333333,285.32373,226.1104)" />
    <path
       id="path10"
       d="m 0,0 -40.253,-23.506 0.231,-46.613 40.483,-23.107 40.253,23.506 -0.231,46.613 z"
       style="fill:#4fc6f4;fill-opacity:1;fill-rule:nonzero;stroke:#231f20;stroke-width:1;stroke-linecap:butt;stroke-linejoin:miter;stroke-miterlimit:10;stroke-dasharray:none;stroke-opacity:1"
       transform="matrix(1.3333333,0,0,-1.3333333,397.5712,226.1104)" />
    <path
       id="path11"
       d="m 0,0 -40.253,-23.506 0.231,-46.613 40.483,-23.107 40.253,23.506 -0.231,46.613 z"
       style="fill:#4fc6f4;fill-opacity:1;fill-rule:nonzero;stroke:#231f20;stroke-width:1;stroke-linecap:butt;stroke-linejoin:miter;stroke-miterlimit:10;stroke-dasharray:none;stroke-opacity:1"
       transform="matrix(1.3333333,0,0,-1.3333333,509.81867,226.1104)" />
    <path
       id="path12"
       d="m 0,0 -40.253,-23.506 0.231,-46.613 40.483,-23.107 40.253,23.506 -0.231,46.613 z"
       style="fill:#4fc6f4;fill-opacity:1;fill-rule:nonzero;stroke:#231f20;stroke-width:1;stroke-linecap:butt;stroke-linejoin:miter;stroke-miterlimit:10;stroke-dasharray:none;stroke-opacity:1"
       transform="matrix(1.3333333,0,0,-1.3333333,622.06613,226.1104)" />
    <path
       id="path13"
       d="m 0,0 -40.253,-23.506 0.231,-46.613 40.483,-23.107 40.253,23.506 -0.231,46.613 z"
       style="fill:#4fc6f4;fill-opacity:1;fill-rule:nonzero;stroke:#231f20;stroke-width:1;stroke-linecap:butt;stroke-linejoin:miter;stroke-miterlimit:10;stroke-dasharray:none;stroke-opacity:1"
       transform="matrix(1.3333333,0,0,-1.3333333,397.5712,25.830133)" />
    <path
       id="path14"
       d="m 0,0 -40.253,-23.506 0.231,-46.613 40.483,-23.107 40.253,23.506 -0.231,46.613 z"
       style="fill:#4fc6f4;fill-opacity:1;fill-rule:nonzero;stroke:#231f20;stroke-width:1;stroke-linecap:butt;stroke-linejoin:miter;stroke-miterlimit:10;stroke-dasharray:none;stroke-opacity:1"
       transform="matrix(1.3333333,0,0,-1.3333333,285.32373,25.830133)" />
    <path
       id="path15"
       d="m 0,0 -40.253,-23.506 0.231,-46.613 40.483,-23.107 40.253,23.506 -0.231,46.613 z"
       style="fill:#4fc6f4;fill-opacity:1;fill-rule:nonzero;stroke:#231f20;stroke-width:1;stroke-linecap:butt;stroke-linejoin:miter;stroke-miterlimit:10;stroke-dasharray:none;stroke-opacity:1"
       transform="matrix(1.3333333,0,0,-1.3333333,170.92107,25.830133)" />
    <path
       id="path16"
       d="m 0,0 -40.253,-23.506 0.231,-46.613 40.483,-23.107 40.253,23.506 -0.231,46.613 z"
       style="fill:#4fc6f4;fill-opacity:1;fill-rule:nonzero;stroke:#231f20;stroke-width:1;stroke-linecap:butt;stroke-linejoin:miter;stroke-miterlimit:10;stroke-dasharray:none;stroke-opacity:1"
       transform="matrix(1.3333333,0,0,-1.3333333,680.2724,325.25107)" />
    <path
       id="path17"
       d="m 0,0 -40.253,-23.506 0.231,-46.613 40.483,-23.107 40.253,23.506 -0.231,46.613 z"
       style="fill:#4fc6f4;fill-opacity:1;fill-rule:nonzero;stroke:#231f20;stroke-width:1;stroke-linecap:butt;stroke-linejoin:miter;stroke-miterlimit:10;stroke-dasharray:none;stroke-opacity:1"
       transform="matrix(1.3333333,0,0,-1.3333333,229.20013,326.80747)" />
    <path
       id="path18"
       d="m 0,0 -40.253,-23.506 0.231,-46.613 40.483,-23.107 40.253,23.506 -0.231,46.613 z"
       style="fill:#4fc6f4;fill-opacity:1;fill-rule:nonzero;stroke:#231f20;stroke-width:1;stroke-linecap:butt;stroke-linejoin:miter;stroke-miterlimit:10;stroke-dasharray:none;stroke-opacity:1"
       transform="matrix(1.3333333,0,0,-1.3333333,565.9424,326.80747)" />
    <path
       id="path19"
       d="m 0,0 -40.253,-23.506 0.231,-46.613 40.483,-23.107 40.253,23.506 -0.231,46.613 z"
       style="fill:#4fc6f4;fill-opacity:1;fill-rule:nonzero;stroke:#231f20;stroke-width:1;stroke-linecap:butt;stroke-linejoin:miter;stroke-miterlimit:10;stroke-dasharray:none;stroke-opacity:1"
       transform="matrix(1.3333333,0,0,-1.3333333,173.0764,427.28893)" />
    <path
       id="path20"
       d="m 0,0 -40.253,-23.506 0.231,-46.613 40.483,-23.107 40.253,23.506 -0.231,46.613 z"
       style="fill:#4fc6f4;fill-opacity:1;fill-rule:nonzero;stroke:#231f20;stroke-width:1;stroke-linecap:butt;stroke-linejoin:miter;stroke-miterlimit:10;stroke-dasharray:none;stroke-opacity:1"
       transform="matrix(1.3333333,0,0,-1.3333333,622.06613,423.28893)" />
    <path
       id="path21"
       d="m 0,0 -40.253,-23.506 0.231,-46.613 40.483,-23.107 40.253,23.506 -0.231,46.613 z"
       style="fill:#4fc6f4;fill-opacity:1;fill-rule:nonzero;stroke:#231f20;stroke-width:1;stroke-linecap:butt;stroke-linejoin:miter;stroke-miterlimit:10;stroke-dasharray:none;stroke-opacity:1"
       transform="matrix(1.3333333,0,0,-1.3333333,116.95267,527.98587)" />
    <path
       id="path22"
       d="m 0,0 -40.253,-23.506 0.231,-46.613 40.483,-23.107 40.253,23.506 -0.231,46.613 z"
       style="fill:#4fc6f4;fill-opacity:1;fill-rule:nonzero;stroke:#231f20;stroke-width:1;stroke-linecap:butt;stroke-linejoin:miter;stroke-miterlimit:10;stroke-dasharray:none;stroke-opacity:1"
       transform="matrix(1.3333333,0,0,-1.3333333,678.18987,527.98587)" />
    <path
       id="path23"
       d="m 0,0 -40.253,-23.506 0.231,-46.613 40.483,-23.107 40.253,23.506 -0.231,46.613 z"
       style="fill:#4fc6f4;fill-opacity:1;fill-rule:nonzero;stroke:#231f20;stroke-width:1;stroke-linecap:butt;stroke-linejoin:miter;stroke-miterlimit:10;stroke-dasharray:none;stroke-opacity:1"
       transform="matrix(1.3333333,0,0,-1.3333333,173.0764,628.46733)" />
    <path
       id="path24"
       d="m 0,0 -40.253,-23.506 0.231,-46.613 40.483,-23.107 40.253,23.506 -0.231,46.613 z"
       style="fill:#4fc6f4;fill-opacity:1;fill-rule:nonzero;stroke:#231f20;stroke-width:1;stroke-linecap:butt;stroke-linejoin:miter;stroke-miterlimit:10;stroke-dasharray:none;stroke-opacity:1"
       transform="matrix(1.3333333,0,0,-1.3333333,622.06613,628.46733)" />
    <path
       id="path25"
       d="m 0,0 -40.253,-23.506 0.231,-46.613 40.483,-23.107 40.253,23.506 -0.231,46.613 z"
       style="fill:#4fc6f4;fill-opacity:1;fill-rule:nonzero;stroke:#231f20;stroke-width:1;stroke-linecap:butt;stroke-linejoin:miter;stroke-miterlimit:10;stroke-dasharray:none;stroke-opacity:1"
       transform="matrix(1.3333333,0,0,-1.3333333,229.20013,729.16427)" />
    <path
       id="path26"
       d="m 0,0 -40.253,-23.506 0.231,-46.613 40.483,-23.107 40.253,23.506 -0.231,46.613 z"
       style="fill:#4fc6f4;fill-opacity:1;fill-rule:nonzero;stroke:#231f20;stroke-width:1;stroke-linecap:butt;stroke-linejoin:miter;stroke-miterlimit:10;stroke-dasharray:none;stroke-opacity:1"
       transform="matrix(1.3333333,0,0,-1.3333333,565.9424,729.16427)" />
    <path
       id="path27"
       d="m 0,0 -40.253,-23.506 0.231,-46.613 40.483,-23.107 40.253,23.506 -0.231,46.613 z"
       style="fill:#4fc6f4;fill-opacity:1;fill-rule:nonzero;stroke:#231f20;stroke-width:1;stroke-linecap:butt;stroke-linejoin:miter;stroke-miterlimit:10;stroke-dasharray:none;stroke-opacity:1"
       transform="matrix(1.3333333,0,0,-1.3333333,285.32373,829.64573)" />
    <path
       id="path28"
       d="m 0,0 -40.253,-23.506 0.231,-46.613 40.483,-23.107 40.253,23.506 -0.231,46.613 z"
       style="fill:#4fc6f4;fill-opacity:1;fill-rule:nonzero;stroke:#231f20;stroke-width:1;stroke-linecap:butt;stroke-linejoin:miter;stroke-miterlimit:10;stroke-dasharray:none;stroke-opacity:1"
       transform="matrix(1.3333333,0,0,-1.3333333,397.5712,829.64573)" />
    <path
       id="path29"
       d="m 0,0 -40.253,-23.506 0.231,-46.613 40.483,-23.107 40.253,23.506 -0.231,46.613 z"
       style="fill:#4fc6f4;fill-opacity:1;fill-rule:nonzero;stroke:#231f20;stroke-width:1;stroke-linecap:butt;stroke-linejoin:miter;stroke-miterlimit:10;stroke-dasharray:none;stroke-opacity:1"
       transform="matrix(1.3333333,0,0,-1.3333333,509.81867,829.64573)" />
    <path
       id="path30"
       d="m 0,0 -40.253,-23.506 0.231,-46.613 40.483,-23.107 40.253,23.506 -0.231,46.613 z"
       style="fill:#4fc6f4;fill-opacity:1;fill-rule:nonzero;stroke:#231f20;stroke-width:1;stroke-linecap:butt;stroke-linejoin:miter;stroke-miterlimit:10;stroke-dasharray:none;stroke-opacity:1"
       transform="matrix(1.3333333,0,0,-1.3333333,453.69493,926.1048)" />
    <path
       id="path31"
       d="m 0,0 -40.253,-23.506 0.231,-46.613 40.483,-23.107 40.253,23.506 -0.231,46.613 z"
       style="fill:#4fc6f4;fill-opacity:1;fill-rule:nonzero;stroke:#231f20;stroke-width:1;stroke-linecap:butt;stroke-linejoin:miter;stroke-miterlimit:10;stroke-dasharray:none;stroke-opacity:1"
       transform="matrix(1.3333333,0,0,-1.3333333,566.14733,926.1048)" />
    <path
       id="path32"
       d="m 0,0 -40.253,-23.506 0.231,-46.613 40.483,-23.107 40.253,23.506 -0.231,46.613 z"
       style="fill:#4fc6f4;fill-opacity:1;fill-rule:nonzero;stroke:#231f20;stroke-width:1;stroke-linecap:butt;stroke-linejoin:miter;stroke-miterlimit:10;stroke-dasharray:none;stroke-opacity:1"
       transform="matrix(1.3333333,0,0,-1.3333333,734.3136,628.46733)" />
    <path
       id="path33"
       d="m 0,0 -40.253,-23.506 0.231,-46.613 40.483,-23.107 40.253,23.506 -0.231,46.613 z"
       style="fill:#4fc6f4;fill-opacity:1;fill-rule:nonzero;stroke:#231f20;stroke-width:1;stroke-linecap:butt;stroke-linejoin:miter;stroke-miterlimit:10;stroke-dasharray:none;stroke-opacity:1"
       transform="matrix(1.3333333,0,0,-1.3333333,397.5712,1022.1959)" />
    <path
       id="path34"
       d="m 0,0 -40.253,-23.506 0.231,-46.613 40.483,-23.107 40.253,23.506 -0.231,46.613 z"
       style="fill:#4fc6f4;fill-opacity:1;fill-rule:nonzero;stroke:#231f20;stroke-width:1;stroke-linecap:butt;stroke-linejoin:miter;stroke-miterlimit:10;stroke-dasharray:none;stroke-opacity:1"
       transform="matrix(1.3333333,0,0,-1.3333333,510.15693,1022.1959)" />
    <path
       id="path35"
       d="m 0,0 -40.253,-23.506 0.231,-46.613 40.483,-23.107 40.253,23.506 -0.231,46.613 z"
       style="fill:#4fc6f4;fill-opacity:1;fill-rule:nonzero;stroke:#231f20;stroke-width:1;stroke-linecap:butt;stroke-linejoin:miter;stroke-miterlimit:10;stroke-dasharray:none;stroke-opacity:1"
       transform="matrix(1.3333333,0,0,-1.3333333,285.31387,1022.1959)" />
    <path
       id="path36"
       d="m 0,0 -40.253,-23.506 0.231,-46.613 40.483,-23.107 40.253,23.506 -0.231,46.613 z"
       style="fill:#4fc6f4;fill-opacity:1;fill-rule:nonzero;stroke:#231f20;stroke-width:1;stroke-linecap:butt;stroke-linejoin:miter;stroke-miterlimit:10;stroke-dasharray:none;stroke-opacity:1"
       transform="matrix(1.3333333,0,0,-1.3333333,60.828933,628.46733)" />
    <path
       id="path37"
       d="m 0,0 -40.253,-23.506 0.231,-46.613 40.483,-23.107 40.253,23.506 -0.231,46.613 z"
       style="fill:#4fc6f4;fill-opacity:1;fill-rule:nonzero;stroke:#231f20;stroke-width:1;stroke-linecap:butt;stroke-linejoin:miter;stroke-miterlimit:10;stroke-dasharray:none;stroke-opacity:1"
       transform="matrix(1.3333333,0,0,-1.3333333,116.95267,729.16427)" />
    <path
       id="path38"
       d="m 0,0 -40.253,-23.506 0.231,-46.613 40.483,-23.107 40.253,23.506 -0.231,46.613 z"
       style="fill:#4fc6f4;fill-opacity:1;fill-rule:nonzero;stroke:#231f20;stroke-width:1;stroke-linecap:butt;stroke-linejoin:miter;stroke-miterlimit:10;stroke-dasharray:none;stroke-opacity:1"
       transform="matrix(1.3333333,0,0,-1.3333333,171.49067,829.64573)" />
    <path
       id="path39"
       d="m 0,0 -40.253,-23.506 0.231,-46.613 40.483,-23.107 40.253,23.506 -0.231,46.613 z"
       style="fill:#4fc6f4;fill-opacity:1;fill-rule:nonzero;stroke:#231f20;stroke-width:1;stroke-linecap:butt;stroke-linejoin:miter;stroke-miterlimit:10;stroke-dasharray:none;stroke-opacity:1"
       transform="matrix(1.3333333,0,0,-1.3333333,624.62,829.64573)" />
    <path
       id="path40"
       d="m 0,0 -40.253,-23.506 0.231,-46.613 40.483,-23.107 40.253,23.506 -0.231,46.613 z"
       style="fill:#4fc6f4;fill-opacity:1;fill-rule:nonzero;stroke:#231f20;stroke-width:1;stroke-linecap:butt;stroke-linejoin:miter;stroke-miterlimit:10;stroke-dasharray:none;stroke-opacity:1"
       transform="matrix(1.3333333,0,0,-1.3333333,678.69507,729.16427)" />
    <path
       id="path41"
       d="m 0,0 -40.253,-23.506 0.231,-46.613 40.483,-23.107 40.253,23.506 -0.231,46.613 z"
       style="fill:#4fc6f4;fill-opacity:1;fill-rule:nonzero;stroke:#231f20;stroke-width:1;stroke-linecap:butt;stroke-linejoin:miter;stroke-miterlimit:10;stroke-dasharray:none;stroke-opacity:1"
       transform="matrix(1.3333333,0,0,-1.3333333,59.972667,427.60733)" />
    <path
       id="path42"
       d="m 0,0 -40.253,-23.506 0.231,-46.613 40.483,-23.107 40.253,23.506 -0.231,46.613 z"
       style="fill:#4fc6f4;fill-opacity:1;fill-rule:nonzero;stroke:#231f20;stroke-width:1;stroke-linecap:butt;stroke-linejoin:miter;stroke-miterlimit:10;stroke-dasharray:none;stroke-opacity:1"
       transform="matrix(1.3333333,0,0,-1.3333333,734.3136,427.28893)" />
    <path
       id="path43"
       d="m 0,0 -40.253,-23.506 0.231,-46.613 40.483,-23.107 40.253,23.506 -0.231,46.613 z"
       style="fill:#4fc6f4;fill-opacity:1;fill-rule:nonzero;stroke:#231f20;stroke-width:1;stroke-linecap:butt;stroke-linejoin:miter;stroke-miterlimit:10;stroke-dasharray:none;stroke-opacity:1"
       transform="matrix(1.3333333,0,0,-1.3333333,341.44747,926.1048)" />
    <path
       id="path44"
       d="m 0,0 -40.253,-23.506 0.231,-46.613 40.483,-23.107 40.253,23.506 -0.231,46.613 z"
       style="fill:#4fc6f4;fill-opacity:1;fill-rule:nonzero;stroke:#231f20;stroke-width:1;stroke-linecap:butt;stroke-linejoin:miter;stroke-miterlimit:10;stroke-dasharray:none;stroke-opacity:1"
       transform="matrix(1.3333333,0,0,-1.3333333,229.20013,926.1048)" />
    <path
       id="path45"
       d="m 0,0 -40.253,-23.506 0.231,-46.613 40.483,-23.107 40.253,23.506 -0.231,46.613 z"
       style="fill:#4fc6f4;fill-opacity:1;fill-rule:nonzero;stroke:#231f20;stroke-width:1;stroke-linecap:butt;stroke-linejoin:miter;stroke-miterlimit:10;stroke-dasharray:none;stroke-opacity:1"
       transform="matrix(1.3333333,0,0,-1.3333333,509.81867,25.830133)" />
    <path
       id="path46"
       d="m 0,0 -40.253,-23.506 0.231,-46.613 40.483,-23.107 40.253,23.506 -0.231,46.613 z"
       style="fill:#4fc6f4;fill-opacity:1;fill-rule:nonzero;stroke:#231f20;stroke-width:1;stroke-linecap:butt;stroke-linejoin:miter;stroke-miterlimit:10;stroke-dasharray:none;stroke-opacity:1"
       transform="matrix(1.3333333,0,0,-1.3333333,114.3988,326.80747)" />
    <path
       id="path47"
       d="M 0,0 37.662,23.4 80.552,-1.122 122.216,23.4 159.504,2.37 v -51.506 l 42.527,-23.944 v -47.764 l 40.53,-27.811 1.746,-46.891 -40.281,-25.164 -1.372,-49.412 -41.528,-26.938 -0.375,-50.383 -38.036,-25.191 -42.163,27.81 L 38.66,-370.639 0,-349.812 v 50.632 l -41.529,24.568 v 49.884 l -42.027,25.69 v 48.887 l 42.027,25.69 0.499,49.011 43.275,26.439 z"
       style="fill:#4fc6f4;fill-opacity:1;fill-rule:nonzero;stroke:#231f20;stroke-width:1;stroke-linecap:butt;stroke-linejoin:miter;stroke-miterlimit:10;stroke-dasharray:none;stroke-opacity:1"
       transform="matrix(1.3333333,0,0,-1.3333333,290.47533,358.00733)" />
  </g>
</svg>
