<?xml version="1.0" encoding="UTF-8" standalone="no"?>
<!-- Created with Inkscape (http://www.inkscape.org/) -->

<svg
   version="1.1"
   id="svg1"
   width="793.70135"
   height="1248"
   viewBox="0 0 793.70135 1248"
   sodipodi:docname="upload_owvfblrguzfs5xouxvt2fkd6lm.pdf"
   xmlns:inkscape="http://www.inkscape.org/namespaces/inkscape"
   xmlns:sodipodi="http://sodipodi.sourceforge.net/DTD/sodipodi-0.dtd"
   xmlns="http://www.w3.org/2000/svg"
   xmlns:svg="http://www.w3.org/2000/svg">
  <defs
     id="defs1" />
  <sodipodi:namedview
     id="namedview1"
     pagecolor="#ffffff"
     bordercolor="#000000"
     borderopacity="0.25"
     inkscape:showpageshadow="2"
     inkscape:pageopacity="0.0"
     inkscape:pagecheckerboard="0"
     inkscape:deskcolor="#d1d1d1">
    <inkscape:page
       x="0"
       y="0"
       inkscape:label="1"
       id="page1"
       width="793.70135"
       height="1248"
       margin="8.7091064 2.48 25.059999 5.0337467"
       bleed="0" />
  </sodipodi:namedview>
  <g
     id="layer-MC0"
     inkscape:groupmode="layer"
     inkscape:label="Layer 1">
    <path
       id="path1"
       d="M 7.9677266,-1.2049769e-5 V -3.5245696 H 9.7724141 V -4.8914653 H 7.9677266 V -12.934686 H 6.0692891 l -5.77734379,8.2578572 v 1.1522592 H 6.3153828 V -1.2049769e-5 Z M 2.0731953,-4.8914653 v -0.045187 l 3.1640625,-4.3944002 c 0.3515625,-0.598723 0.6796875,-1.1635555 1.078125,-1.9204315 h 0.058594 c -0.046875,0.677799 -0.058594,1.3555985 -0.058594,2.033398 v 4.3266203 z M 18.499953,-13.138026 c -0.316406,0 -0.761719,0.02259 -1.277344,0.10167 -1.628906,0.20334 -3.070312,0.858546 -4.136718,1.909135 -1.277344,1.2765226 -2.191407,3.2873278 -2.191407,5.829076 0,3.3664043 1.804688,5.51276947 4.582032,5.51276947 2.683593,0 4.300781,-2.18025517 4.300781,-4.55255347 0,-2.5304515 -1.617188,-4.1797637 -3.902344,-4.1797637 -1.441406,0 -2.519531,0.6777995 -3.128906,1.4911589 h -0.05859 c 0.292969,-2.1350685 1.746094,-4.1345772 4.5,-4.5977402 0.492188,-0.07908 0.949219,-0.10167 1.3125,-0.07908 z m -3.023437,12.0083481 c -1.839844,0 -2.8125,-1.5815322 -2.847657,-3.7053041 0,-0.3163064 0.07031,-0.5761296 0.199219,-0.7794694 0.46875,-0.9376227 1.453125,-1.5928289 2.507813,-1.5928289 1.605468,0 2.660156,1.1183692 2.660156,2.9710212 0,1.8526521 -1.007813,3.1065812 -2.519531,3.1065812 z m 0,0"
       style="fill:#231f20;fill-opacity:1;fill-rule:nonzero;stroke:none"
       aria-label="46"
       transform="matrix(1.3333333,0,0,1.3831523,674.66933,1232.4063)" />
    <path
       id="path2"
       d="m 0,0 -40.253,-23.506 0.231,-46.613 40.483,-23.107 40.253,23.506 -0.231,46.613 z"
       style="fill:#4fc6f4;fill-opacity:1;fill-rule:nonzero;stroke:#231f20;stroke-width:1;stroke-linecap:butt;stroke-linejoin:miter;stroke-miterlimit:10;stroke-dasharray:none;stroke-opacity:1"
       transform="matrix(1.3333333,0,0,-1.3333333,228.6,125.62907)" />
    <path
       id="path3"
       d="m 0,0 -40.253,-23.506 0.231,-46.613 40.483,-23.107 40.253,23.506 -0.231,46.613 z"
       style="fill:#4fc6f4;fill-opacity:1;fill-rule:nonzero;stroke:#231f20;stroke-width:1;stroke-linecap:butt;stroke-linejoin:miter;stroke-miterlimit:10;stroke-dasharray:none;stroke-opacity:1"
       transform="matrix(1.3333333,0,0,-1.3333333,116.35253,125.62907)" />
    <path
       id="path4"
       d="m 0,0 -40.253,-23.506 0.231,-46.613 40.483,-23.107 40.253,23.506 -0.231,46.613 z"
       style="fill:#4fc6f4;fill-opacity:1;fill-rule:nonzero;stroke:#231f20;stroke-width:1;stroke-linecap:butt;stroke-linejoin:miter;stroke-miterlimit:10;stroke-dasharray:none;stroke-opacity:1"
       transform="matrix(1.3333333,0,0,-1.3333333,340.84747,125.62907)" />
    <path
       id="path5"
       d="m 0,0 -40.253,-23.506 0.231,-46.613 40.483,-23.107 40.253,23.506 -0.231,46.613 z"
       style="fill:#4fc6f4;fill-opacity:1;fill-rule:nonzero;stroke:#231f20;stroke-width:1;stroke-linecap:butt;stroke-linejoin:miter;stroke-miterlimit:10;stroke-dasharray:none;stroke-opacity:1"
       transform="matrix(1.3333333,0,0,-1.3333333,453.0948,125.62907)" />
    <path
       id="path6"
       d="m 0,0 -40.253,-23.506 0.231,-46.613 40.483,-23.107 40.253,23.506 -0.231,46.613 z"
       style="fill:#4fc6f4;fill-opacity:1;fill-rule:nonzero;stroke:#231f20;stroke-width:1;stroke-linecap:butt;stroke-linejoin:miter;stroke-miterlimit:10;stroke-dasharray:none;stroke-opacity:1"
       transform="matrix(1.3333333,0,0,-1.3333333,565.34227,125.62907)" />
    <path
       id="path7"
       d="m 0,0 -40.253,-23.506 0.231,-46.613 40.483,-23.107 40.253,23.506 -0.231,46.613 z"
       style="fill:#4fc6f4;fill-opacity:1;fill-rule:nonzero;stroke:#231f20;stroke-width:1;stroke-linecap:butt;stroke-linejoin:miter;stroke-miterlimit:10;stroke-dasharray:none;stroke-opacity:1"
       transform="matrix(1.3333333,0,0,-1.3333333,677.58973,125.62907)" />
    <path
       id="path8"
       d="m 0,0 -40.253,-23.506 0.231,-46.613 40.483,-23.107 40.253,23.506 -0.231,46.613 z"
       style="fill:#4fc6f4;fill-opacity:1;fill-rule:nonzero;stroke:#231f20;stroke-width:1;stroke-linecap:butt;stroke-linejoin:miter;stroke-miterlimit:10;stroke-dasharray:none;stroke-opacity:1"
       transform="matrix(1.3333333,0,0,-1.3333333,172.47627,226.1104)" />
    <path
       id="path9"
       d="m 0,0 -40.253,-23.506 0.231,-46.613 40.483,-23.107 40.253,23.506 -0.231,46.613 z"
       style="fill:#4fc6f4;fill-opacity:1;fill-rule:nonzero;stroke:#231f20;stroke-width:1;stroke-linecap:butt;stroke-linejoin:miter;stroke-miterlimit:10;stroke-dasharray:none;stroke-opacity:1"
       transform="matrix(1.3333333,0,0,-1.3333333,284.72373,226.1104)" />
    <path
       id="path10"
       d="m 0,0 -40.253,-23.506 0.231,-46.613 40.483,-23.107 40.253,23.506 -0.231,46.613 z"
       style="fill:#4fc6f4;fill-opacity:1;fill-rule:nonzero;stroke:#231f20;stroke-width:1;stroke-linecap:butt;stroke-linejoin:miter;stroke-miterlimit:10;stroke-dasharray:none;stroke-opacity:1"
       transform="matrix(1.3333333,0,0,-1.3333333,396.9712,226.1104)" />
    <path
       id="path11"
       d="m 0,0 -40.253,-23.506 0.231,-46.613 40.483,-23.107 40.253,23.506 -0.231,46.613 z"
       style="fill:#4fc6f4;fill-opacity:1;fill-rule:nonzero;stroke:#231f20;stroke-width:1;stroke-linecap:butt;stroke-linejoin:miter;stroke-miterlimit:10;stroke-dasharray:none;stroke-opacity:1"
       transform="matrix(1.3333333,0,0,-1.3333333,509.21853,226.1104)" />
    <path
       id="path12"
       d="m 0,0 -40.253,-23.506 0.231,-46.613 40.483,-23.107 40.253,23.506 -0.231,46.613 z"
       style="fill:#4fc6f4;fill-opacity:1;fill-rule:nonzero;stroke:#231f20;stroke-width:1;stroke-linecap:butt;stroke-linejoin:miter;stroke-miterlimit:10;stroke-dasharray:none;stroke-opacity:1"
       transform="matrix(1.3333333,0,0,-1.3333333,621.466,226.1104)" />
    <path
       id="path13"
       d="m 0,0 -40.253,-23.506 0.231,-46.613 40.483,-23.107 40.253,23.506 -0.231,46.613 z"
       style="fill:#4fc6f4;fill-opacity:1;fill-rule:nonzero;stroke:#231f20;stroke-width:1;stroke-linecap:butt;stroke-linejoin:miter;stroke-miterlimit:10;stroke-dasharray:none;stroke-opacity:1"
       transform="matrix(1.3333333,0,0,-1.3333333,736.2672,226.1104)" />
    <path
       id="path14"
       d="m 0,0 -40.253,-23.506 0.231,-46.613 40.483,-23.107 40.253,23.506 -0.231,46.613 z"
       style="fill:#4fc6f4;fill-opacity:1;fill-rule:nonzero;stroke:#231f20;stroke-width:1;stroke-linecap:butt;stroke-linejoin:miter;stroke-miterlimit:10;stroke-dasharray:none;stroke-opacity:1"
       transform="matrix(1.3333333,0,0,-1.3333333,396.9712,25.830133)" />
    <path
       id="path15"
       d="m 0,0 -40.253,-23.506 0.231,-46.613 40.483,-23.107 40.253,23.506 -0.231,46.613 z"
       style="fill:#4fc6f4;fill-opacity:1;fill-rule:nonzero;stroke:#231f20;stroke-width:1;stroke-linecap:butt;stroke-linejoin:miter;stroke-miterlimit:10;stroke-dasharray:none;stroke-opacity:1"
       transform="matrix(1.3333333,0,0,-1.3333333,284.72373,25.830133)" />
    <path
       id="path16"
       d="m 0,0 -40.253,-23.506 0.231,-46.613 40.483,-23.107 40.253,23.506 -0.231,46.613 z"
       style="fill:#4fc6f4;fill-opacity:1;fill-rule:nonzero;stroke:#231f20;stroke-width:1;stroke-linecap:butt;stroke-linejoin:miter;stroke-miterlimit:10;stroke-dasharray:none;stroke-opacity:1"
       transform="matrix(1.3333333,0,0,-1.3333333,170.32093,25.830133)" />
    <path
       id="path17"
       d="m 0,0 -40.253,-23.506 0.231,-46.613 40.483,-23.107 40.253,23.506 -0.231,46.613 z"
       style="fill:#4fc6f4;fill-opacity:1;fill-rule:nonzero;stroke:#231f20;stroke-width:1;stroke-linecap:butt;stroke-linejoin:miter;stroke-miterlimit:10;stroke-dasharray:none;stroke-opacity:1"
       transform="matrix(1.3333333,0,0,-1.3333333,679.67227,325.25107)" />
    <path
       id="path18"
       d="m 0,0 -40.253,-23.506 0.231,-46.613 40.483,-23.107 40.253,23.506 -0.231,46.613 z"
       style="fill:#4fc6f4;fill-opacity:1;fill-rule:nonzero;stroke:#231f20;stroke-width:1;stroke-linecap:butt;stroke-linejoin:miter;stroke-miterlimit:10;stroke-dasharray:none;stroke-opacity:1"
       transform="matrix(1.3333333,0,0,-1.3333333,228.6,326.80747)" />
    <path
       id="path19"
       d="m 0,0 -40.253,-23.506 0.231,-46.613 40.483,-23.107 40.253,23.506 -0.231,46.613 z"
       style="fill:#4fc6f4;fill-opacity:1;fill-rule:nonzero;stroke:#231f20;stroke-width:1;stroke-linecap:butt;stroke-linejoin:miter;stroke-miterlimit:10;stroke-dasharray:none;stroke-opacity:1"
       transform="matrix(1.3333333,0,0,-1.3333333,565.34227,326.80747)" />
    <path
       id="path20"
       d="m 0,0 -40.253,-23.506 0.231,-46.613 40.483,-23.107 40.253,23.506 -0.231,46.613 z"
       style="fill:#4fc6f4;fill-opacity:1;fill-rule:nonzero;stroke:#231f20;stroke-width:1;stroke-linecap:butt;stroke-linejoin:miter;stroke-miterlimit:10;stroke-dasharray:none;stroke-opacity:1"
       transform="matrix(1.3333333,0,0,-1.3333333,172.47627,427.28893)" />
    <path
       id="path21"
       d="m 0,0 -40.253,-23.506 0.231,-46.613 40.483,-23.107 40.253,23.506 -0.231,46.613 z"
       style="fill:#4fc6f4;fill-opacity:1;fill-rule:nonzero;stroke:#231f20;stroke-width:1;stroke-linecap:butt;stroke-linejoin:miter;stroke-miterlimit:10;stroke-dasharray:none;stroke-opacity:1"
       transform="matrix(1.3333333,0,0,-1.3333333,621.466,423.28893)" />
    <path
       id="path22"
       d="m 0,0 -40.253,-23.506 0.231,-46.613 40.483,-23.107 40.253,23.506 -0.231,46.613 z"
       style="fill:#4fc6f4;fill-opacity:1;fill-rule:nonzero;stroke:#231f20;stroke-width:1;stroke-linecap:butt;stroke-linejoin:miter;stroke-miterlimit:10;stroke-dasharray:none;stroke-opacity:1"
       transform="matrix(1.3333333,0,0,-1.3333333,116.35253,527.98587)" />
    <path
       id="path23"
       d="m 0,0 -40.253,-23.506 0.231,-46.613 40.483,-23.107 40.253,23.506 -0.231,46.613 z"
       style="fill:#4fc6f4;fill-opacity:1;fill-rule:nonzero;stroke:#231f20;stroke-width:1;stroke-linecap:butt;stroke-linejoin:miter;stroke-miterlimit:10;stroke-dasharray:none;stroke-opacity:1"
       transform="matrix(1.3333333,0,0,-1.3333333,677.58973,527.98587)" />
    <path
       id="path24"
       d="m 0,0 -40.253,-23.506 0.231,-46.613 40.483,-23.107 40.253,23.506 -0.231,46.613 z"
       style="fill:#4fc6f4;fill-opacity:1;fill-rule:nonzero;stroke:#231f20;stroke-width:1;stroke-linecap:butt;stroke-linejoin:miter;stroke-miterlimit:10;stroke-dasharray:none;stroke-opacity:1"
       transform="matrix(1.3333333,0,0,-1.3333333,172.47627,628.46733)" />
    <path
       id="path25"
       d="m 0,0 -40.253,-23.506 0.231,-46.613 40.483,-23.107 40.253,23.506 -0.231,46.613 z"
       style="fill:#4fc6f4;fill-opacity:1;fill-rule:nonzero;stroke:#231f20;stroke-width:1;stroke-linecap:butt;stroke-linejoin:miter;stroke-miterlimit:10;stroke-dasharray:none;stroke-opacity:1"
       transform="matrix(1.3333333,0,0,-1.3333333,621.466,628.46733)" />
    <path
       id="path26"
       d="m 0,0 -40.253,-23.506 0.231,-46.613 40.483,-23.107 40.253,23.506 -0.231,46.613 z"
       style="fill:#4fc6f4;fill-opacity:1;fill-rule:nonzero;stroke:#231f20;stroke-width:1;stroke-linecap:butt;stroke-linejoin:miter;stroke-miterlimit:10;stroke-dasharray:none;stroke-opacity:1"
       transform="matrix(1.3333333,0,0,-1.3333333,228.6,729.16427)" />
    <path
       id="path27"
       d="m 0,0 -40.253,-23.506 0.231,-46.613 40.483,-23.107 40.253,23.506 -0.231,46.613 z"
       style="fill:#4fc6f4;fill-opacity:1;fill-rule:nonzero;stroke:#231f20;stroke-width:1;stroke-linecap:butt;stroke-linejoin:miter;stroke-miterlimit:10;stroke-dasharray:none;stroke-opacity:1"
       transform="matrix(1.3333333,0,0,-1.3333333,565.34227,729.16427)" />
    <path
       id="path28"
       d="m 0,0 -40.253,-23.506 0.231,-46.613 40.483,-23.107 40.253,23.506 -0.231,46.613 z"
       style="fill:#4fc6f4;fill-opacity:1;fill-rule:nonzero;stroke:#231f20;stroke-width:1;stroke-linecap:butt;stroke-linejoin:miter;stroke-miterlimit:10;stroke-dasharray:none;stroke-opacity:1"
       transform="matrix(1.3333333,0,0,-1.3333333,284.72373,829.64573)" />
    <path
       id="path29"
       d="m 0,0 -40.253,-23.506 0.231,-46.613 40.483,-23.107 40.253,23.506 -0.231,46.613 z"
       style="fill:#4fc6f4;fill-opacity:1;fill-rule:nonzero;stroke:#231f20;stroke-width:1;stroke-linecap:butt;stroke-linejoin:miter;stroke-miterlimit:10;stroke-dasharray:none;stroke-opacity:1"
       transform="matrix(1.3333333,0,0,-1.3333333,396.9712,829.64573)" />
    <path
       id="path30"
       d="m 0,0 -40.253,-23.506 0.231,-46.613 40.483,-23.107 40.253,23.506 -0.231,46.613 z"
       style="fill:#4fc6f4;fill-opacity:1;fill-rule:nonzero;stroke:#231f20;stroke-width:1;stroke-linecap:butt;stroke-linejoin:miter;stroke-miterlimit:10;stroke-dasharray:none;stroke-opacity:1"
       transform="matrix(1.3333333,0,0,-1.3333333,509.21853,829.64573)" />
    <path
       id="path31"
       d="m 0,0 -40.253,-23.506 0.231,-46.613 40.483,-23.107 40.253,23.506 -0.231,46.613 z"
       style="fill:#4fc6f4;fill-opacity:1;fill-rule:nonzero;stroke:#231f20;stroke-width:1;stroke-linecap:butt;stroke-linejoin:miter;stroke-miterlimit:10;stroke-dasharray:none;stroke-opacity:1"
       transform="matrix(1.3333333,0,0,-1.3333333,453.0948,926.1048)" />
    <path
       id="path32"
       d="m 0,0 -40.253,-23.506 0.231,-46.613 40.483,-23.107 40.253,23.506 -0.231,46.613 z"
       style="fill:#4fc6f4;fill-opacity:1;fill-rule:nonzero;stroke:#231f20;stroke-width:1;stroke-linecap:butt;stroke-linejoin:miter;stroke-miterlimit:10;stroke-dasharray:none;stroke-opacity:1"
       transform="matrix(1.3333333,0,0,-1.3333333,565.5472,926.1048)" />
    <path
       id="path33"
       d="m 0,0 -40.253,-23.506 0.231,-46.613 40.483,-23.107 40.253,23.506 -0.231,46.613 z"
       style="fill:#4fc6f4;fill-opacity:1;fill-rule:nonzero;stroke:#231f20;stroke-width:1;stroke-linecap:butt;stroke-linejoin:miter;stroke-miterlimit:10;stroke-dasharray:none;stroke-opacity:1"
       transform="matrix(1.3333333,0,0,-1.3333333,733.71347,628.46733)" />
    <path
       id="path34"
       d="m 0,0 -40.253,-23.506 0.231,-46.613 40.483,-23.107 40.253,23.506 -0.231,46.613 z"
       style="fill:#4fc6f4;fill-opacity:1;fill-rule:nonzero;stroke:#231f20;stroke-width:1;stroke-linecap:butt;stroke-linejoin:miter;stroke-miterlimit:10;stroke-dasharray:none;stroke-opacity:1"
       transform="matrix(1.3333333,0,0,-1.3333333,396.9712,1022.1959)" />
    <path
       id="path35"
       d="m 0,0 -40.253,-23.506 0.231,-46.613 40.483,-23.107 40.253,23.506 -0.231,46.613 z"
       style="fill:#4fc6f4;fill-opacity:1;fill-rule:nonzero;stroke:#231f20;stroke-width:1;stroke-linecap:butt;stroke-linejoin:miter;stroke-miterlimit:10;stroke-dasharray:none;stroke-opacity:1"
       transform="matrix(1.3333333,0,0,-1.3333333,509.55693,1022.1959)" />
    <path
       id="path36"
       d="m 0,0 -40.253,-23.506 0.231,-46.613 40.483,-23.107 40.253,23.506 -0.231,46.613 z"
       style="fill:#4fc6f4;fill-opacity:1;fill-rule:nonzero;stroke:#231f20;stroke-width:1;stroke-linecap:butt;stroke-linejoin:miter;stroke-miterlimit:10;stroke-dasharray:none;stroke-opacity:1"
       transform="matrix(1.3333333,0,0,-1.3333333,284.71373,1022.1959)" />
    <path
       id="path37"
       d="m 0,0 -40.253,-23.506 0.231,-46.613 40.483,-23.107 40.253,23.506 -0.231,46.613 z"
       style="fill:#4fc6f4;fill-opacity:1;fill-rule:nonzero;stroke:#231f20;stroke-width:1;stroke-linecap:butt;stroke-linejoin:miter;stroke-miterlimit:10;stroke-dasharray:none;stroke-opacity:1"
       transform="matrix(1.3333333,0,0,-1.3333333,60.2288,628.46733)" />
    <path
       id="path38"
       d="m 0,0 -40.253,-23.506 0.231,-46.613 40.483,-23.107 40.253,23.506 -0.231,46.613 z"
       style="fill:#4fc6f4;fill-opacity:1;fill-rule:nonzero;stroke:#231f20;stroke-width:1;stroke-linecap:butt;stroke-linejoin:miter;stroke-miterlimit:10;stroke-dasharray:none;stroke-opacity:1"
       transform="matrix(1.3333333,0,0,-1.3333333,116.35253,729.16427)" />
    <path
       id="path39"
       d="m 0,0 -40.253,-23.506 0.231,-46.613 40.483,-23.107 40.253,23.506 -0.231,46.613 z"
       style="fill:#4fc6f4;fill-opacity:1;fill-rule:nonzero;stroke:#231f20;stroke-width:1;stroke-linecap:butt;stroke-linejoin:miter;stroke-miterlimit:10;stroke-dasharray:none;stroke-opacity:1"
       transform="matrix(1.3333333,0,0,-1.3333333,170.89053,829.64573)" />
    <path
       id="path40"
       d="m 0,0 -40.253,-23.506 0.231,-46.613 40.483,-23.107 40.253,23.506 -0.231,46.613 z"
       style="fill:#4fc6f4;fill-opacity:1;fill-rule:nonzero;stroke:#231f20;stroke-width:1;stroke-linecap:butt;stroke-linejoin:miter;stroke-miterlimit:10;stroke-dasharray:none;stroke-opacity:1"
       transform="matrix(1.3333333,0,0,-1.3333333,624.01987,829.64573)" />
    <path
       id="path41"
       d="m 0,0 -40.253,-23.506 0.231,-46.613 40.483,-23.107 40.253,23.506 -0.231,46.613 z"
       style="fill:#4fc6f4;fill-opacity:1;fill-rule:nonzero;stroke:#231f20;stroke-width:1;stroke-linecap:butt;stroke-linejoin:miter;stroke-miterlimit:10;stroke-dasharray:none;stroke-opacity:1"
       transform="matrix(1.3333333,0,0,-1.3333333,678.09493,729.16427)" />
    <path
       id="path42"
       d="m 0,0 -40.253,-23.506 0.231,-46.613 40.483,-23.107 40.253,23.506 -0.231,46.613 z"
       style="fill:#4fc6f4;fill-opacity:1;fill-rule:nonzero;stroke:#231f20;stroke-width:1;stroke-linecap:butt;stroke-linejoin:miter;stroke-miterlimit:10;stroke-dasharray:none;stroke-opacity:1"
       transform="matrix(1.3333333,0,0,-1.3333333,59.372533,427.60733)" />
    <path
       id="path43"
       d="m 0,0 -40.253,-23.506 0.231,-46.613 40.483,-23.107 40.253,23.506 -0.231,46.613 z"
       style="fill:#4fc6f4;fill-opacity:1;fill-rule:nonzero;stroke:#231f20;stroke-width:1;stroke-linecap:butt;stroke-linejoin:miter;stroke-miterlimit:10;stroke-dasharray:none;stroke-opacity:1"
       transform="matrix(1.3333333,0,0,-1.3333333,733.71347,427.28893)" />
    <path
       id="path44"
       d="m 0,0 -40.253,-23.506 0.231,-46.613 40.483,-23.107 40.253,23.506 -0.231,46.613 z"
       style="fill:#4fc6f4;fill-opacity:1;fill-rule:nonzero;stroke:#231f20;stroke-width:1;stroke-linecap:butt;stroke-linejoin:miter;stroke-miterlimit:10;stroke-dasharray:none;stroke-opacity:1"
       transform="matrix(1.3333333,0,0,-1.3333333,340.84747,926.1048)" />
    <path
       id="path45"
       d="m 0,0 -40.253,-23.506 0.231,-46.613 40.483,-23.107 40.253,23.506 -0.231,46.613 z"
       style="fill:#4fc6f4;fill-opacity:1;fill-rule:nonzero;stroke:#231f20;stroke-width:1;stroke-linecap:butt;stroke-linejoin:miter;stroke-miterlimit:10;stroke-dasharray:none;stroke-opacity:1"
       transform="matrix(1.3333333,0,0,-1.3333333,228.6,926.1048)" />
    <path
       id="path46"
       d="m 0,0 -40.253,-23.506 0.231,-46.613 40.483,-23.107 40.253,23.506 -0.231,46.613 z"
       style="fill:#4fc6f4;fill-opacity:1;fill-rule:nonzero;stroke:#231f20;stroke-width:1;stroke-linecap:butt;stroke-linejoin:miter;stroke-miterlimit:10;stroke-dasharray:none;stroke-opacity:1"
       transform="matrix(1.3333333,0,0,-1.3333333,509.21853,25.830133)" />
    <path
       id="path47"
       d="m 0,0 -40.253,-23.506 0.231,-46.613 40.483,-23.107 40.253,23.506 -0.231,46.613 z"
       style="fill:#4fc6f4;fill-opacity:1;fill-rule:nonzero;stroke:#231f20;stroke-width:1;stroke-linecap:butt;stroke-linejoin:miter;stroke-miterlimit:10;stroke-dasharray:none;stroke-opacity:1"
       transform="matrix(1.3333333,0,0,-1.3333333,621.466,25.830133)" />
    <path
       id="path48"
       d="m 0,0 -40.253,-23.506 0.231,-46.613 40.483,-23.107 40.253,23.506 -0.231,46.613 z"
       style="fill:#4fc6f4;fill-opacity:1;fill-rule:nonzero;stroke:#231f20;stroke-width:1;stroke-linecap:butt;stroke-linejoin:miter;stroke-miterlimit:10;stroke-dasharray:none;stroke-opacity:1"
       transform="matrix(1.3333333,0,0,-1.3333333,113.79867,326.80747)" />
    <path
       id="path49"
       d="M 0,0 37.662,23.4 80.552,-1.122 122.216,23.4 159.504,2.37 v -51.506 l 42.527,-23.944 v -47.764 l 40.53,-27.811 1.746,-46.891 -40.281,-25.164 -1.372,-49.412 -41.528,-26.938 -0.375,-50.383 -38.036,-25.191 -42.163,27.81 L 38.66,-370.639 0,-349.812 v 50.632 l -41.529,24.568 v 49.884 l -42.027,25.69 v 48.887 l 42.027,25.69 0.499,49.011 43.275,26.439 z"
       style="fill:#4fc6f4;fill-opacity:1;fill-rule:nonzero;stroke:#231f20;stroke-width:1;stroke-linecap:butt;stroke-linejoin:miter;stroke-miterlimit:10;stroke-dasharray:none;stroke-opacity:1"
       transform="matrix(1.3333333,0,0,-1.3333333,289.8752,358.00733)" />
  </g>
</svg>
