<?xml version="1.0" encoding="UTF-8" standalone="no"?>
<!-- Created with Inkscape (http://www.inkscape.org/) -->

<svg
   version="1.1"
   id="svg1"
   width="793.70135"
   height="1248"
   viewBox="0 0 793.70135 1248"
   sodipodi:docname="upload_lnwyibheqg7w4jndwth3i7kzng.pdf"
   xmlns:inkscape="http://www.inkscape.org/namespaces/inkscape"
   xmlns:sodipodi="http://sodipodi.sourceforge.net/DTD/sodipodi-0.dtd"
   xmlns="http://www.w3.org/2000/svg"
   xmlns:svg="http://www.w3.org/2000/svg">
  <defs
     id="defs1" />
  <sodipodi:namedview
     id="namedview1"
     pagecolor="#ffffff"
     bordercolor="#000000"
     borderopacity="0.25"
     inkscape:showpageshadow="2"
     inkscape:pageopacity="0.0"
     inkscape:pagecheckerboard="0"
     inkscape:deskcolor="#d1d1d1">
    <inkscape:page
       x="0"
       y="0"
       inkscape:label="1"
       id="page1"
       width="793.70135"
       height="1248"
       margin="8.7091064 26.093334 19.854666 33.645599"
       bleed="0" />
  </sodipodi:namedview>
  <g
     id="layer-MC0"
     inkscape:groupmode="layer"
     inkscape:label="Layer 1">
    <path
       id="path1"
       d="m 0,0 -37.738,-22.038 0.216,-43.701 37.954,-21.663 37.738,22.038 -0.216,43.701 z"
       style="fill:#4fc6f4;fill-opacity:1;fill-rule:nonzero;stroke:#231f20;stroke-width:1;stroke-linecap:butt;stroke-linejoin:miter;stroke-miterlimit:10;stroke-dasharray:none;stroke-opacity:1"
       transform="matrix(1.3333333,0,0,-1.3333333,137.2496,209.2352)" />
    <path
       id="path2"
       d="m 0,0 -37.738,-22.038 0.216,-43.701 37.954,-21.663 37.738,22.038 -0.216,43.701 z"
       style="fill:#4fc6f4;fill-opacity:1;fill-rule:nonzero;stroke:#231f20;stroke-width:1;stroke-linecap:butt;stroke-linejoin:miter;stroke-miterlimit:10;stroke-dasharray:none;stroke-opacity:1"
       transform="matrix(1.3333333,0,0,-1.3333333,242.4852,209.2352)" />
    <path
       id="path3"
       d="m 0,0 -37.738,-22.038 0.216,-43.701 37.954,-21.663 37.738,22.038 -0.216,43.701 z"
       style="fill:#4fc6f4;fill-opacity:1;fill-rule:nonzero;stroke:#231f20;stroke-width:1;stroke-linecap:butt;stroke-linejoin:miter;stroke-miterlimit:10;stroke-dasharray:none;stroke-opacity:1"
       transform="matrix(1.3333333,0,0,-1.3333333,347.72093,209.2352)" />
    <path
       id="path4"
       d="m 0,0 -37.738,-22.038 0.216,-43.701 37.954,-21.663 37.738,22.038 -0.216,43.701 z"
       style="fill:#4fc6f4;fill-opacity:1;fill-rule:nonzero;stroke:#231f20;stroke-width:1;stroke-linecap:butt;stroke-linejoin:miter;stroke-miterlimit:10;stroke-dasharray:none;stroke-opacity:1"
       transform="matrix(1.3333333,0,0,-1.3333333,452.95653,209.2352)" />
    <path
       id="path5"
       d="m 0,0 -37.738,-22.038 0.216,-43.701 37.954,-21.663 37.738,22.038 -0.216,43.701 z"
       style="fill:#4fc6f4;fill-opacity:1;fill-rule:nonzero;stroke:#231f20;stroke-width:1;stroke-linecap:butt;stroke-linejoin:miter;stroke-miterlimit:10;stroke-dasharray:none;stroke-opacity:1"
       transform="matrix(1.3333333,0,0,-1.3333333,558.19227,209.2352)" />
    <path
       id="path6"
       d="m 0,0 -37.738,-22.038 0.216,-43.701 37.954,-21.663 37.738,22.038 -0.216,43.701 z"
       style="fill:#4fc6f4;fill-opacity:1;fill-rule:nonzero;stroke:#231f20;stroke-width:1;stroke-linecap:butt;stroke-linejoin:miter;stroke-miterlimit:10;stroke-dasharray:none;stroke-opacity:1"
       transform="matrix(1.3333333,0,0,-1.3333333,663.428,209.2352)" />
    <path
       id="path7"
       d="m 0,0 -37.738,-22.038 0.216,-43.701 37.954,-21.663 37.738,22.038 -0.216,43.701 z"
       style="fill:#4fc6f4;fill-opacity:1;fill-rule:nonzero;stroke:#231f20;stroke-width:1;stroke-linecap:butt;stroke-linejoin:miter;stroke-miterlimit:10;stroke-dasharray:none;stroke-opacity:1"
       transform="matrix(1.3333333,0,0,-1.3333333,189.86747,303.43973)" />
    <path
       id="path8"
       d="m 0,0 -37.738,-22.038 0.216,-43.701 37.954,-21.663 37.738,22.038 -0.216,43.701 z"
       style="fill:#4fc6f4;fill-opacity:1;fill-rule:nonzero;stroke:#231f20;stroke-width:1;stroke-linecap:butt;stroke-linejoin:miter;stroke-miterlimit:10;stroke-dasharray:none;stroke-opacity:1"
       transform="matrix(1.3333333,0,0,-1.3333333,295.10307,303.43973)" />
    <path
       id="path9"
       d="m 0,0 -37.738,-22.038 0.216,-43.701 37.954,-21.663 37.738,22.038 -0.216,43.701 z"
       style="fill:#4fc6f4;fill-opacity:1;fill-rule:nonzero;stroke:#231f20;stroke-width:1;stroke-linecap:butt;stroke-linejoin:miter;stroke-miterlimit:10;stroke-dasharray:none;stroke-opacity:1"
       transform="matrix(1.3333333,0,0,-1.3333333,400.3388,303.43973)" />
    <path
       id="path10"
       d="m 0,0 -37.738,-22.038 0.216,-43.701 37.954,-21.663 37.738,22.038 -0.216,43.701 z"
       style="fill:#4fc6f4;fill-opacity:1;fill-rule:nonzero;stroke:#231f20;stroke-width:1;stroke-linecap:butt;stroke-linejoin:miter;stroke-miterlimit:10;stroke-dasharray:none;stroke-opacity:1"
       transform="matrix(1.3333333,0,0,-1.3333333,505.5744,303.43973)" />
    <path
       id="path11"
       d="m 0,0 -37.738,-22.038 0.216,-43.701 37.954,-21.663 37.738,22.038 -0.216,43.701 z"
       style="fill:#4fc6f4;fill-opacity:1;fill-rule:nonzero;stroke:#231f20;stroke-width:1;stroke-linecap:butt;stroke-linejoin:miter;stroke-miterlimit:10;stroke-dasharray:none;stroke-opacity:1"
       transform="matrix(1.3333333,0,0,-1.3333333,610.81013,303.43973)" />
    <path
       id="path12"
       d="m 0,0 -37.738,-22.038 0.216,-43.701 37.954,-21.663 37.738,22.038 -0.216,43.701 z"
       style="fill:#4fc6f4;fill-opacity:1;fill-rule:nonzero;stroke:#231f20;stroke-width:1;stroke-linecap:butt;stroke-linejoin:miter;stroke-miterlimit:10;stroke-dasharray:none;stroke-opacity:1"
       transform="matrix(1.3333333,0,0,-1.3333333,189.86747,114.8284)" />
    <path
       id="path13"
       d="m 0,0 -37.738,-22.038 0.216,-43.701 37.954,-21.663 37.738,22.038 -0.216,43.701 z"
       style="fill:#4fc6f4;fill-opacity:1;fill-rule:nonzero;stroke:#231f20;stroke-width:1;stroke-linecap:butt;stroke-linejoin:miter;stroke-miterlimit:10;stroke-dasharray:none;stroke-opacity:1"
       transform="matrix(1.3333333,0,0,-1.3333333,295.10307,114.8284)" />
    <path
       id="path14"
       d="m 0,0 -37.738,-22.038 0.216,-43.701 37.954,-21.663 37.738,22.038 -0.216,43.701 z"
       style="fill:#4fc6f4;fill-opacity:1;fill-rule:nonzero;stroke:#231f20;stroke-width:1;stroke-linecap:butt;stroke-linejoin:miter;stroke-miterlimit:10;stroke-dasharray:none;stroke-opacity:1"
       transform="matrix(1.3333333,0,0,-1.3333333,400.3388,114.8284)" />
    <path
       id="path15"
       d="m 0,0 -37.738,-22.038 0.216,-43.701 37.954,-21.663 37.738,22.038 -0.216,43.701 z"
       style="fill:#4fc6f4;fill-opacity:1;fill-rule:nonzero;stroke:#231f20;stroke-width:1;stroke-linecap:butt;stroke-linejoin:miter;stroke-miterlimit:10;stroke-dasharray:none;stroke-opacity:1"
       transform="matrix(1.3333333,0,0,-1.3333333,505.5744,114.8284)" />
    <path
       id="path16"
       d="m 0,0 -37.738,-22.038 0.216,-43.701 37.954,-21.663 37.738,22.038 -0.216,43.701 z"
       style="fill:#4fc6f4;fill-opacity:1;fill-rule:nonzero;stroke:#231f20;stroke-width:1;stroke-linecap:butt;stroke-linejoin:miter;stroke-miterlimit:10;stroke-dasharray:none;stroke-opacity:1"
       transform="matrix(1.3333333,0,0,-1.3333333,610.81013,114.8284)" />
    <path
       id="path17"
       d="m 0,0 -37.738,-22.038 0.216,-43.701 37.954,-21.663 37.738,22.038 -0.216,43.701 z"
       style="fill:#4fc6f4;fill-opacity:1;fill-rule:nonzero;stroke:#231f20;stroke-width:1;stroke-linecap:butt;stroke-linejoin:miter;stroke-miterlimit:10;stroke-dasharray:none;stroke-opacity:1"
       transform="matrix(1.3333333,0,0,-1.3333333,137.2496,397.84653)" />
    <path
       id="path18"
       d="m 0,0 -37.738,-22.038 0.216,-43.701 37.954,-21.663 37.738,22.038 -0.216,43.701 z"
       style="fill:#4fc6f4;fill-opacity:1;fill-rule:nonzero;stroke:#231f20;stroke-width:1;stroke-linecap:butt;stroke-linejoin:miter;stroke-miterlimit:10;stroke-dasharray:none;stroke-opacity:1"
       transform="matrix(1.3333333,0,0,-1.3333333,242.4852,397.84653)" />
    <path
       id="path19"
       d="m 0,0 -37.738,-22.038 0.216,-43.701 37.954,-21.663 37.738,22.038 -0.216,43.701 z"
       style="fill:#4fc6f4;fill-opacity:1;fill-rule:nonzero;stroke:#231f20;stroke-width:1;stroke-linecap:butt;stroke-linejoin:miter;stroke-miterlimit:10;stroke-dasharray:none;stroke-opacity:1"
       transform="matrix(1.3333333,0,0,-1.3333333,558.19227,397.84653)" />
    <path
       id="path20"
       d="m 0,0 -37.738,-22.038 0.216,-43.701 37.954,-21.663 37.738,22.038 -0.216,43.701 z"
       style="fill:#4fc6f4;fill-opacity:1;fill-rule:nonzero;stroke:#231f20;stroke-width:1;stroke-linecap:butt;stroke-linejoin:miter;stroke-miterlimit:10;stroke-dasharray:none;stroke-opacity:1"
       transform="matrix(1.3333333,0,0,-1.3333333,663.428,397.84653)" />
    <path
       id="path21"
       d="m 0,0 -37.738,-22.038 0.216,-43.701 37.954,-21.663 37.738,22.038 -0.216,43.701 z"
       style="fill:#4fc6f4;fill-opacity:1;fill-rule:nonzero;stroke:#231f20;stroke-width:1;stroke-linecap:butt;stroke-linejoin:miter;stroke-miterlimit:10;stroke-dasharray:none;stroke-opacity:1"
       transform="matrix(1.3333333,0,0,-1.3333333,189.86747,492.05107)" />
    <path
       id="path22"
       d="m 0,0 -37.738,-22.038 0.216,-43.701 37.954,-21.663 37.738,22.038 -0.216,43.701 z"
       style="fill:#4fc6f4;fill-opacity:1;fill-rule:nonzero;stroke:#231f20;stroke-width:1;stroke-linecap:butt;stroke-linejoin:miter;stroke-miterlimit:10;stroke-dasharray:none;stroke-opacity:1"
       transform="matrix(1.3333333,0,0,-1.3333333,610.81013,492.05107)" />
    <path
       id="path23"
       d="m 0,0 -37.738,-22.038 0.216,-43.701 37.954,-21.663 37.738,22.038 -0.216,43.701 z"
       style="fill:#4fc6f4;fill-opacity:1;fill-rule:nonzero;stroke:#231f20;stroke-width:1;stroke-linecap:butt;stroke-linejoin:miter;stroke-miterlimit:10;stroke-dasharray:none;stroke-opacity:1"
       transform="matrix(1.3333333,0,0,-1.3333333,137.2496,586.45787)" />
    <path
       id="path24"
       d="m 0,0 -37.738,-22.038 0.216,-43.701 37.954,-21.663 37.738,22.038 -0.216,43.701 z"
       style="fill:#4fc6f4;fill-opacity:1;fill-rule:nonzero;stroke:#231f20;stroke-width:1;stroke-linecap:butt;stroke-linejoin:miter;stroke-miterlimit:10;stroke-dasharray:none;stroke-opacity:1"
       transform="matrix(1.3333333,0,0,-1.3333333,663.428,586.45787)" />
    <path
       id="path25"
       d="m 0,0 -37.738,-22.038 0.216,-43.701 37.954,-21.663 37.738,22.038 -0.216,43.701 z"
       style="fill:#4fc6f4;fill-opacity:1;fill-rule:nonzero;stroke:#231f20;stroke-width:1;stroke-linecap:butt;stroke-linejoin:miter;stroke-miterlimit:10;stroke-dasharray:none;stroke-opacity:1"
       transform="matrix(1.3333333,0,0,-1.3333333,189.86747,680.66253)" />
    <path
       id="path26"
       d="m 0,0 -37.738,-22.038 0.216,-43.701 37.954,-21.663 37.738,22.038 -0.216,43.701 z"
       style="fill:#4fc6f4;fill-opacity:1;fill-rule:nonzero;stroke:#231f20;stroke-width:1;stroke-linecap:butt;stroke-linejoin:miter;stroke-miterlimit:10;stroke-dasharray:none;stroke-opacity:1"
       transform="matrix(1.3333333,0,0,-1.3333333,610.81013,680.66253)" />
    <path
       id="path27"
       d="m 0,0 -37.738,-22.038 0.216,-43.701 37.954,-21.663 37.738,22.038 -0.216,43.701 z"
       style="fill:#4fc6f4;fill-opacity:1;fill-rule:nonzero;stroke:#231f20;stroke-width:1;stroke-linecap:butt;stroke-linejoin:miter;stroke-miterlimit:10;stroke-dasharray:none;stroke-opacity:1"
       transform="matrix(1.3333333,0,0,-1.3333333,137.2496,775.0692)" />
    <path
       id="path28"
       d="m 0,0 -37.738,-22.038 0.216,-43.701 37.954,-21.663 37.738,22.038 -0.216,43.701 z"
       style="fill:#4fc6f4;fill-opacity:1;fill-rule:nonzero;stroke:#231f20;stroke-width:1;stroke-linecap:butt;stroke-linejoin:miter;stroke-miterlimit:10;stroke-dasharray:none;stroke-opacity:1"
       transform="matrix(1.3333333,0,0,-1.3333333,242.4852,775.0692)" />
    <path
       id="path29"
       d="m 0,0 -37.738,-22.038 0.216,-43.701 37.954,-21.663 37.738,22.038 -0.216,43.701 z"
       style="fill:#4fc6f4;fill-opacity:1;fill-rule:nonzero;stroke:#231f20;stroke-width:1;stroke-linecap:butt;stroke-linejoin:miter;stroke-miterlimit:10;stroke-dasharray:none;stroke-opacity:1"
       transform="matrix(1.3333333,0,0,-1.3333333,558.19227,775.0692)" />
    <path
       id="path30"
       d="m 0,0 -37.738,-22.038 0.216,-43.701 37.954,-21.663 37.738,22.038 -0.216,43.701 z"
       style="fill:#4fc6f4;fill-opacity:1;fill-rule:nonzero;stroke:#231f20;stroke-width:1;stroke-linecap:butt;stroke-linejoin:miter;stroke-miterlimit:10;stroke-dasharray:none;stroke-opacity:1"
       transform="matrix(1.3333333,0,0,-1.3333333,663.428,775.0692)" />
    <path
       id="path31"
       d="m 0,0 -37.738,-22.038 0.216,-43.701 37.954,-21.663 37.738,22.038 -0.216,43.701 z"
       style="fill:#4fc6f4;fill-opacity:1;fill-rule:nonzero;stroke:#231f20;stroke-width:1;stroke-linecap:butt;stroke-linejoin:miter;stroke-miterlimit:10;stroke-dasharray:none;stroke-opacity:1"
       transform="matrix(1.3333333,0,0,-1.3333333,189.86747,869.27387)" />
    <path
       id="path32"
       d="m 0,0 -37.738,-22.038 0.216,-43.701 37.954,-21.663 37.738,22.038 -0.216,43.701 z"
       style="fill:#4fc6f4;fill-opacity:1;fill-rule:nonzero;stroke:#231f20;stroke-width:1;stroke-linecap:butt;stroke-linejoin:miter;stroke-miterlimit:10;stroke-dasharray:none;stroke-opacity:1"
       transform="matrix(1.3333333,0,0,-1.3333333,295.10307,869.27387)" />
    <path
       id="path33"
       d="m 0,0 -37.738,-22.038 0.216,-43.701 37.954,-21.663 37.738,22.038 -0.216,43.701 z"
       style="fill:#4fc6f4;fill-opacity:1;fill-rule:nonzero;stroke:#231f20;stroke-width:1;stroke-linecap:butt;stroke-linejoin:miter;stroke-miterlimit:10;stroke-dasharray:none;stroke-opacity:1"
       transform="matrix(1.3333333,0,0,-1.3333333,400.3388,869.27387)" />
    <path
       id="path34"
       d="m 0,0 -37.738,-22.038 0.216,-43.701 37.954,-21.663 37.738,22.038 -0.216,43.701 z"
       style="fill:#4fc6f4;fill-opacity:1;fill-rule:nonzero;stroke:#231f20;stroke-width:1;stroke-linecap:butt;stroke-linejoin:miter;stroke-miterlimit:10;stroke-dasharray:none;stroke-opacity:1"
       transform="matrix(1.3333333,0,0,-1.3333333,505.5744,869.27387)" />
    <path
       id="path35"
       d="m 0,0 -37.738,-22.038 0.216,-43.701 37.954,-21.663 37.738,22.038 -0.216,43.701 z"
       style="fill:#4fc6f4;fill-opacity:1;fill-rule:nonzero;stroke:#231f20;stroke-width:1;stroke-linecap:butt;stroke-linejoin:miter;stroke-miterlimit:10;stroke-dasharray:none;stroke-opacity:1"
       transform="matrix(1.3333333,0,0,-1.3333333,610.81013,869.27387)" />
    <path
       id="path36"
       d="m 0,0 -37.738,-22.038 0.216,-43.701 37.954,-21.663 37.738,22.038 -0.216,43.701 z"
       style="fill:#4fc6f4;fill-opacity:1;fill-rule:nonzero;stroke:#231f20;stroke-width:1;stroke-linecap:butt;stroke-linejoin:miter;stroke-miterlimit:10;stroke-dasharray:none;stroke-opacity:1"
       transform="matrix(1.3333333,0,0,-1.3333333,137.2496,963.68067)" />
    <path
       id="path37"
       d="m 0,0 -37.738,-22.038 0.216,-43.701 37.954,-21.663 37.738,22.038 -0.216,43.701 z"
       style="fill:#4fc6f4;fill-opacity:1;fill-rule:nonzero;stroke:#231f20;stroke-width:1;stroke-linecap:butt;stroke-linejoin:miter;stroke-miterlimit:10;stroke-dasharray:none;stroke-opacity:1"
       transform="matrix(1.3333333,0,0,-1.3333333,242.4852,963.68067)" />
    <path
       id="path38"
       d="m 0,0 -37.738,-22.038 0.216,-43.701 37.954,-21.663 37.738,22.038 -0.216,43.701 z"
       style="fill:#4fc6f4;fill-opacity:1;fill-rule:nonzero;stroke:#231f20;stroke-width:1;stroke-linecap:butt;stroke-linejoin:miter;stroke-miterlimit:10;stroke-dasharray:none;stroke-opacity:1"
       transform="matrix(1.3333333,0,0,-1.3333333,347.72093,963.68067)" />
    <path
       id="path39"
       d="m 0,0 -37.738,-22.038 0.216,-43.701 37.954,-21.663 37.738,22.038 -0.216,43.701 z"
       style="fill:#4fc6f4;fill-opacity:1;fill-rule:nonzero;stroke:#231f20;stroke-width:1;stroke-linecap:butt;stroke-linejoin:miter;stroke-miterlimit:10;stroke-dasharray:none;stroke-opacity:1"
       transform="matrix(1.3333333,0,0,-1.3333333,452.95653,963.68067)" />
    <path
       id="path40"
       d="m 0,0 -37.738,-22.038 0.216,-43.701 37.954,-21.663 37.738,22.038 -0.216,43.701 z"
       style="fill:#4fc6f4;fill-opacity:1;fill-rule:nonzero;stroke:#231f20;stroke-width:1;stroke-linecap:butt;stroke-linejoin:miter;stroke-miterlimit:10;stroke-dasharray:none;stroke-opacity:1"
       transform="matrix(1.3333333,0,0,-1.3333333,558.19227,963.68067)" />
    <path
       id="path41"
       d="m 0,0 -37.738,-22.038 0.216,-43.701 37.954,-21.663 37.738,22.038 -0.216,43.701 z"
       style="fill:#4fc6f4;fill-opacity:1;fill-rule:nonzero;stroke:#231f20;stroke-width:1;stroke-linecap:butt;stroke-linejoin:miter;stroke-miterlimit:10;stroke-dasharray:none;stroke-opacity:1"
       transform="matrix(1.3333333,0,0,-1.3333333,663.428,963.68067)" />
    <path
       id="path42"
       d="m 0,0 -37.738,-22.038 0.216,-43.701 37.954,-21.663 37.738,22.038 -0.216,43.701 z"
       style="fill:#4fc6f4;fill-opacity:1;fill-rule:nonzero;stroke:#231f20;stroke-width:1;stroke-linecap:butt;stroke-linejoin:miter;stroke-miterlimit:10;stroke-dasharray:none;stroke-opacity:1"
       transform="matrix(1.3333333,0,0,-1.3333333,242.4852,20.623733)" />
    <path
       id="path43"
       d="m 0,0 -37.738,-22.038 0.216,-43.701 37.954,-21.663 37.738,22.038 -0.216,43.701 z"
       style="fill:#4fc6f4;fill-opacity:1;fill-rule:nonzero;stroke:#231f20;stroke-width:1;stroke-linecap:butt;stroke-linejoin:miter;stroke-miterlimit:10;stroke-dasharray:none;stroke-opacity:1"
       transform="matrix(1.3333333,0,0,-1.3333333,347.72093,20.623733)" />
    <path
       id="path44"
       d="m 0,0 -37.738,-22.038 0.216,-43.701 37.954,-21.663 37.738,22.038 -0.216,43.701 z"
       style="fill:#4fc6f4;fill-opacity:1;fill-rule:nonzero;stroke:#231f20;stroke-width:1;stroke-linecap:butt;stroke-linejoin:miter;stroke-miterlimit:10;stroke-dasharray:none;stroke-opacity:1"
       transform="matrix(1.3333333,0,0,-1.3333333,452.95653,20.623733)" />
    <path
       id="path45"
       d="m 0,0 -37.738,-22.038 0.216,-43.701 37.954,-21.663 37.738,22.038 -0.216,43.701 z"
       style="fill:#4fc6f4;fill-opacity:1;fill-rule:nonzero;stroke:#231f20;stroke-width:1;stroke-linecap:butt;stroke-linejoin:miter;stroke-miterlimit:10;stroke-dasharray:none;stroke-opacity:1"
       transform="matrix(1.3333333,0,0,-1.3333333,558.19227,20.623733)" />
    <path
       id="path46"
       d="m 0,0 -37.738,-22.038 0.216,-43.701 37.954,-21.663 37.738,22.038 -0.216,43.701 z"
       style="fill:#4fc6f4;fill-opacity:1;fill-rule:nonzero;stroke:#231f20;stroke-width:1;stroke-linecap:butt;stroke-linejoin:miter;stroke-miterlimit:10;stroke-dasharray:none;stroke-opacity:1"
       transform="matrix(1.3333333,0,0,-1.3333333,188.3092,1058.0555)" />
    <path
       id="path47"
       d="m 0,0 -37.738,-22.038 0.216,-43.701 37.954,-21.663 37.738,22.038 -0.216,43.701 z"
       style="fill:#4fc6f4;fill-opacity:1;fill-rule:nonzero;stroke:#231f20;stroke-width:1;stroke-linecap:butt;stroke-linejoin:miter;stroke-miterlimit:10;stroke-dasharray:none;stroke-opacity:1"
       transform="matrix(1.3333333,0,0,-1.3333333,611.8624,1058.0555)" />
    <path
       id="path48"
       d="m 0,0 -37.738,-22.038 0.216,-43.701 37.954,-21.663 37.738,22.038 -0.216,43.701 z"
       style="fill:#4fc6f4;fill-opacity:1;fill-rule:nonzero;stroke:#231f20;stroke-width:1;stroke-linecap:butt;stroke-linejoin:miter;stroke-miterlimit:10;stroke-dasharray:none;stroke-opacity:1"
       transform="matrix(1.3333333,0,0,-1.3333333,295.10307,1057.8852)" />
    <path
       id="path49"
       d="m 0,0 -37.738,-22.038 0.216,-43.701 37.954,-21.663 37.738,22.038 -0.216,43.701 z"
       style="fill:#4fc6f4;fill-opacity:1;fill-rule:nonzero;stroke:#231f20;stroke-width:1;stroke-linecap:butt;stroke-linejoin:miter;stroke-miterlimit:10;stroke-dasharray:none;stroke-opacity:1"
       transform="matrix(1.3333333,0,0,-1.3333333,400.3388,1057.8852)" />
    <path
       id="path50"
       d="m 0,0 -37.738,-22.038 0.216,-43.701 37.954,-21.663 37.738,22.038 -0.216,43.701 z"
       style="fill:#4fc6f4;fill-opacity:1;fill-rule:nonzero;stroke:#231f20;stroke-width:1;stroke-linecap:butt;stroke-linejoin:miter;stroke-miterlimit:10;stroke-dasharray:none;stroke-opacity:1"
       transform="matrix(1.3333333,0,0,-1.3333333,505.5744,1057.8852)" />
    <path
       id="path51"
       d="m 0,0 -37.738,-22.038 0.216,-43.701 37.954,-21.663 37.738,22.038 -0.216,43.701 z"
       style="fill:#4fc6f4;fill-opacity:1;fill-rule:nonzero;stroke:#231f20;stroke-width:1;stroke-linecap:butt;stroke-linejoin:miter;stroke-miterlimit:10;stroke-dasharray:none;stroke-opacity:1"
       transform="matrix(1.3333333,0,0,-1.3333333,716.04573,492.05107)" />
    <path
       id="path52"
       d="m 0,0 -37.738,-22.038 0.216,-43.701 37.954,-21.663 37.738,22.038 -0.216,43.701 z"
       style="fill:#4fc6f4;fill-opacity:1;fill-rule:nonzero;stroke:#231f20;stroke-width:1;stroke-linecap:butt;stroke-linejoin:miter;stroke-miterlimit:10;stroke-dasharray:none;stroke-opacity:1"
       transform="matrix(1.3333333,0,0,-1.3333333,84.631733,492.05107)" />
    <path
       id="path53"
       d="m 0,0 35.31,21.938 40.211,-22.99 39.061,22.99 34.959,-19.717 v -48.287 l 39.869,-22.449 v -44.78 l 37.999,-26.074 1.637,-43.961 -37.765,-23.593 -1.286,-46.326 -38.934,-25.254 -0.351,-47.236 -35.661,-23.618 -39.528,26.073 L 36.245,-347.486 0,-327.96 v 47.469 l -38.934,23.033 v 46.768 l -39.402,24.086 v 45.832 l 39.402,24.086 0.467,45.949 40.572,24.787 z"
       style="fill:#4fc6f4;fill-opacity:1;fill-rule:nonzero;stroke:#231f20;stroke-width:1;stroke-linecap:butt;stroke-linejoin:miter;stroke-miterlimit:10;stroke-dasharray:none;stroke-opacity:1"
       transform="matrix(1.3333333,0,0,-1.3333333,299.9328,427.09747)" />
    <path
       id="path54"
       d="M 8.6260063,-12.934686 H 2.4267875 l -0.8320312,6.2018654 c 0.4804687,-0.056483 1.0546875,-0.1355599 1.7929687,-0.1355599 2.5898438,0 3.703125,1.1974458 3.7265625,2.8693513 0,1.7283888 -1.4179687,2.8015713 -3.0703125,2.8015713 -1.171875,0 -2.2265625,-0.395383 -2.765625,-0.7116895 l -0.4453125,1.33300576 c 0.6210938,0.39538305 1.8164063,0.79076611 3.234375,0.79076611 2.8007813,0 4.8164063,-1.88654197 4.8164063,-4.41699357 0,-1.6267188 -0.84375,-2.7450881 -1.8515625,-3.3212176 -0.796875,-0.4744597 -1.7929688,-0.7003929 -2.7890625,-0.7003929 -0.4804688,0 -0.7617188,0.045187 -1.0546875,0.079077 L 3.6806938,-11.466121 H 8.6260063 Z M 19.377959,-1.2049769e-5 V -1.457281 h -5.824218 v -0.03389 l 1.042968,-0.960216 c 2.730469,-2.6208248 4.453125,-4.5525534 4.453125,-6.9474451 0,-1.8526519 -1.171875,-3.7617869 -3.960937,-3.7617869 -1.488281,0 -2.765625,0.564832 -3.65625,1.321709 l 0.550781,1.231335 c 0.597656,-0.497053 1.570313,-1.095775 2.753906,-1.095775 1.921875,0 2.566407,1.208742 2.566407,2.5304511 -0.02344,1.9430253 -1.511719,3.6149308 -4.816407,6.7666985 l -1.382812,1.3330058 V -1.2049769e-5 Z m 0,0"
       style="fill:#231f20;fill-opacity:1;fill-rule:nonzero;stroke:none"
       aria-label="52"
       transform="matrix(1.3333333,0,0,1.3831523,674.67053,1232.4063)" />
  </g>
</svg>
