<?xml version="1.0" encoding="UTF-8" standalone="no"?>
<!-- Created with Inkscape (http://www.inkscape.org/) -->

<svg
   version="1.1"
   id="svg1"
   width="793.70135"
   height="1248"
   viewBox="0 0 793.70135 1248"
   sodipodi:docname="upload_ogosgyde4xz4lsjstrbpgnqv75.pdf"
   xmlns:inkscape="http://www.inkscape.org/namespaces/inkscape"
   xmlns:sodipodi="http://sodipodi.sourceforge.net/DTD/sodipodi-0.dtd"
   xmlns="http://www.w3.org/2000/svg"
   xmlns:svg="http://www.w3.org/2000/svg">
  <defs
     id="defs1" />
  <sodipodi:namedview
     id="namedview1"
     pagecolor="#ffffff"
     bordercolor="#000000"
     borderopacity="0.25"
     inkscape:showpageshadow="2"
     inkscape:pageopacity="0.0"
     inkscape:pagecheckerboard="0"
     inkscape:deskcolor="#d1d1d1">
    <inkscape:page
       x="0"
       y="0"
       inkscape:label="1"
       id="page1"
       width="793.70135"
       height="1248"
       margin="8.7091064 51.012001 19.854666 41.645599"
       bleed="0" />
  </sodipodi:namedview>
  <g
     id="layer-MC0"
     inkscape:groupmode="layer"
     inkscape:label="Layer 1">
    <path
       id="path1"
       d="m 0,0 -36.043,-21.047 0.207,-41.738 36.249,-20.69 36.042,21.048 -0.206,41.737 z"
       style="fill:#4fc6f4;fill-opacity:1;fill-rule:nonzero;stroke:#231f20;stroke-width:1;stroke-linecap:butt;stroke-linejoin:miter;stroke-miterlimit:10;stroke-dasharray:none;stroke-opacity:1"
       transform="matrix(1.3333333,0,0,-1.3333333,140.62453,200.76053)" />
    <path
       id="path2"
       d="m 0,0 -36.043,-21.047 0.207,-41.738 36.249,-20.69 36.042,21.048 -0.206,41.737 z"
       style="fill:#4fc6f4;fill-opacity:1;fill-rule:nonzero;stroke:#231f20;stroke-width:1;stroke-linecap:butt;stroke-linejoin:miter;stroke-miterlimit:10;stroke-dasharray:none;stroke-opacity:1"
       transform="matrix(1.3333333,0,0,-1.3333333,241.13173,200.76053)" />
    <path
       id="path3"
       d="m 0,0 -36.043,-21.047 0.207,-41.738 36.249,-20.69 36.042,21.048 -0.206,41.737 z"
       style="fill:#4fc6f4;fill-opacity:1;fill-rule:nonzero;stroke:#231f20;stroke-width:1;stroke-linecap:butt;stroke-linejoin:miter;stroke-miterlimit:10;stroke-dasharray:none;stroke-opacity:1"
       transform="matrix(1.3333333,0,0,-1.3333333,341.63893,200.76053)" />
    <path
       id="path4"
       d="m 0,0 -36.043,-21.047 0.207,-41.738 36.249,-20.69 36.042,21.048 -0.206,41.737 z"
       style="fill:#4fc6f4;fill-opacity:1;fill-rule:nonzero;stroke:#231f20;stroke-width:1;stroke-linecap:butt;stroke-linejoin:miter;stroke-miterlimit:10;stroke-dasharray:none;stroke-opacity:1"
       transform="matrix(1.3333333,0,0,-1.3333333,442.14613,200.76053)" />
    <path
       id="path5"
       d="m 0,0 -36.043,-21.047 0.207,-41.738 36.249,-20.69 36.042,21.048 -0.206,41.737 z"
       style="fill:#4fc6f4;fill-opacity:1;fill-rule:nonzero;stroke:#231f20;stroke-width:1;stroke-linecap:butt;stroke-linejoin:miter;stroke-miterlimit:10;stroke-dasharray:none;stroke-opacity:1"
       transform="matrix(1.3333333,0,0,-1.3333333,542.65333,200.76053)" />
    <path
       id="path6"
       d="m 0,0 -36.043,-21.047 0.207,-41.738 36.249,-20.69 36.042,21.048 -0.206,41.737 z"
       style="fill:#4fc6f4;fill-opacity:1;fill-rule:nonzero;stroke:#231f20;stroke-width:1;stroke-linecap:butt;stroke-linejoin:miter;stroke-miterlimit:10;stroke-dasharray:none;stroke-opacity:1"
       transform="matrix(1.3333333,0,0,-1.3333333,643.16053,200.76053)" />
    <path
       id="path7"
       d="m 0,0 -36.043,-21.047 0.207,-41.738 36.249,-20.69 36.042,21.048 -0.206,41.737 z"
       style="fill:#4fc6f4;fill-opacity:1;fill-rule:nonzero;stroke:#231f20;stroke-width:1;stroke-linecap:butt;stroke-linejoin:miter;stroke-miterlimit:10;stroke-dasharray:none;stroke-opacity:1"
       transform="matrix(1.3333333,0,0,-1.3333333,190.87813,290.73227)" />
    <path
       id="path8"
       d="m 0,0 -36.043,-21.047 0.207,-41.738 36.249,-20.69 36.042,21.048 -0.206,41.737 z"
       style="fill:#4fc6f4;fill-opacity:1;fill-rule:nonzero;stroke:#231f20;stroke-width:1;stroke-linecap:butt;stroke-linejoin:miter;stroke-miterlimit:10;stroke-dasharray:none;stroke-opacity:1"
       transform="matrix(1.3333333,0,0,-1.3333333,291.38533,290.73227)" />
    <path
       id="path9"
       d="m 0,0 -36.043,-21.047 0.207,-41.738 36.249,-20.69 36.042,21.048 -0.206,41.737 z"
       style="fill:#4fc6f4;fill-opacity:1;fill-rule:nonzero;stroke:#231f20;stroke-width:1;stroke-linecap:butt;stroke-linejoin:miter;stroke-miterlimit:10;stroke-dasharray:none;stroke-opacity:1"
       transform="matrix(1.3333333,0,0,-1.3333333,391.89253,290.73227)" />
    <path
       id="path10"
       d="m 0,0 -36.043,-21.047 0.207,-41.738 36.249,-20.69 36.042,21.048 -0.206,41.737 z"
       style="fill:#4fc6f4;fill-opacity:1;fill-rule:nonzero;stroke:#231f20;stroke-width:1;stroke-linecap:butt;stroke-linejoin:miter;stroke-miterlimit:10;stroke-dasharray:none;stroke-opacity:1"
       transform="matrix(1.3333333,0,0,-1.3333333,492.39973,290.73227)" />
    <path
       id="path11"
       d="m 0,0 -36.043,-21.047 0.207,-41.738 36.249,-20.69 36.042,21.048 -0.206,41.737 z"
       style="fill:#4fc6f4;fill-opacity:1;fill-rule:nonzero;stroke:#231f20;stroke-width:1;stroke-linecap:butt;stroke-linejoin:miter;stroke-miterlimit:10;stroke-dasharray:none;stroke-opacity:1"
       transform="matrix(1.3333333,0,0,-1.3333333,592.90693,290.73227)" />
    <path
       id="path12"
       d="m 0,0 -36.043,-21.047 0.207,-41.738 36.249,-20.69 36.042,21.048 -0.206,41.737 z"
       style="fill:#4fc6f4;fill-opacity:1;fill-rule:nonzero;stroke:#231f20;stroke-width:1;stroke-linecap:butt;stroke-linejoin:miter;stroke-miterlimit:10;stroke-dasharray:none;stroke-opacity:1"
       transform="matrix(1.3333333,0,0,-1.3333333,190.87813,110.5956)" />
    <path
       id="path13"
       d="m 0,0 -36.043,-21.047 0.207,-41.738 36.249,-20.69 36.042,21.048 -0.206,41.737 z"
       style="fill:#4fc6f4;fill-opacity:1;fill-rule:nonzero;stroke:#231f20;stroke-width:1;stroke-linecap:butt;stroke-linejoin:miter;stroke-miterlimit:10;stroke-dasharray:none;stroke-opacity:1"
       transform="matrix(1.3333333,0,0,-1.3333333,291.38533,110.5956)" />
    <path
       id="path14"
       d="m 0,0 -36.043,-21.047 0.207,-41.738 36.249,-20.69 36.042,21.048 -0.206,41.737 z"
       style="fill:#4fc6f4;fill-opacity:1;fill-rule:nonzero;stroke:#231f20;stroke-width:1;stroke-linecap:butt;stroke-linejoin:miter;stroke-miterlimit:10;stroke-dasharray:none;stroke-opacity:1"
       transform="matrix(1.3333333,0,0,-1.3333333,391.89253,110.5956)" />
    <path
       id="path15"
       d="m 0,0 -36.043,-21.047 0.207,-41.738 36.249,-20.69 36.042,21.048 -0.206,41.737 z"
       style="fill:#4fc6f4;fill-opacity:1;fill-rule:nonzero;stroke:#231f20;stroke-width:1;stroke-linecap:butt;stroke-linejoin:miter;stroke-miterlimit:10;stroke-dasharray:none;stroke-opacity:1"
       transform="matrix(1.3333333,0,0,-1.3333333,492.39973,110.5956)" />
    <path
       id="path16"
       d="m 0,0 -36.043,-21.047 0.207,-41.738 36.249,-20.69 36.042,21.048 -0.206,41.737 z"
       style="fill:#4fc6f4;fill-opacity:1;fill-rule:nonzero;stroke:#231f20;stroke-width:1;stroke-linecap:butt;stroke-linejoin:miter;stroke-miterlimit:10;stroke-dasharray:none;stroke-opacity:1"
       transform="matrix(1.3333333,0,0,-1.3333333,592.90693,110.5956)" />
    <path
       id="path17"
       d="m 0,0 -36.043,-21.047 0.207,-41.738 36.249,-20.69 36.042,21.048 -0.206,41.737 z"
       style="fill:#4fc6f4;fill-opacity:1;fill-rule:nonzero;stroke:#231f20;stroke-width:1;stroke-linecap:butt;stroke-linejoin:miter;stroke-miterlimit:10;stroke-dasharray:none;stroke-opacity:1"
       transform="matrix(1.3333333,0,0,-1.3333333,140.62453,380.8972)" />
    <path
       id="path18"
       d="m 0,0 -36.043,-21.047 0.207,-41.738 36.249,-20.69 36.042,21.048 -0.206,41.737 z"
       style="fill:#4fc6f4;fill-opacity:1;fill-rule:nonzero;stroke:#231f20;stroke-width:1;stroke-linecap:butt;stroke-linejoin:miter;stroke-miterlimit:10;stroke-dasharray:none;stroke-opacity:1"
       transform="matrix(1.3333333,0,0,-1.3333333,241.13173,380.8972)" />
    <path
       id="path19"
       d="m 0,0 -36.043,-21.047 0.207,-41.738 36.249,-20.69 36.042,21.048 -0.206,41.737 z"
       style="fill:#4fc6f4;fill-opacity:1;fill-rule:nonzero;stroke:#231f20;stroke-width:1;stroke-linecap:butt;stroke-linejoin:miter;stroke-miterlimit:10;stroke-dasharray:none;stroke-opacity:1"
       transform="matrix(1.3333333,0,0,-1.3333333,542.65333,380.8972)" />
    <path
       id="path20"
       d="m 0,0 -36.043,-21.047 0.207,-41.738 36.249,-20.69 36.042,21.048 -0.206,41.737 z"
       style="fill:#4fc6f4;fill-opacity:1;fill-rule:nonzero;stroke:#231f20;stroke-width:1;stroke-linecap:butt;stroke-linejoin:miter;stroke-miterlimit:10;stroke-dasharray:none;stroke-opacity:1"
       transform="matrix(1.3333333,0,0,-1.3333333,643.16053,380.8972)" />
    <path
       id="path21"
       d="m 0,0 -36.043,-21.048 0.207,-41.737 36.249,-20.69 36.042,21.048 -0.206,41.737 z"
       style="fill:#4fc6f4;fill-opacity:1;fill-rule:nonzero;stroke:#231f20;stroke-width:1;stroke-linecap:butt;stroke-linejoin:miter;stroke-miterlimit:10;stroke-dasharray:none;stroke-opacity:1"
       transform="matrix(1.3333333,0,0,-1.3333333,190.87813,470.86893)" />
    <path
       id="path22"
       d="m 0,0 -36.043,-21.048 0.207,-41.737 36.249,-20.69 36.042,21.048 -0.206,41.737 z"
       style="fill:#4fc6f4;fill-opacity:1;fill-rule:nonzero;stroke:#231f20;stroke-width:1;stroke-linecap:butt;stroke-linejoin:miter;stroke-miterlimit:10;stroke-dasharray:none;stroke-opacity:1"
       transform="matrix(1.3333333,0,0,-1.3333333,592.90693,470.86893)" />
    <path
       id="path23"
       d="m 0,0 -36.043,-21.048 0.207,-41.737 36.249,-20.69 36.042,21.048 -0.206,41.737 z"
       style="fill:#4fc6f4;fill-opacity:1;fill-rule:nonzero;stroke:#231f20;stroke-width:1;stroke-linecap:butt;stroke-linejoin:miter;stroke-miterlimit:10;stroke-dasharray:none;stroke-opacity:1"
       transform="matrix(1.3333333,0,0,-1.3333333,140.62453,561.03373)" />
    <path
       id="path24"
       d="m 0,0 -36.043,-21.048 0.207,-41.737 36.249,-20.69 36.042,21.048 -0.206,41.737 z"
       style="fill:#4fc6f4;fill-opacity:1;fill-rule:nonzero;stroke:#231f20;stroke-width:1;stroke-linecap:butt;stroke-linejoin:miter;stroke-miterlimit:10;stroke-dasharray:none;stroke-opacity:1"
       transform="matrix(1.3333333,0,0,-1.3333333,643.16053,561.03373)" />
    <path
       id="path25"
       d="m 0,0 -36.043,-21.048 0.207,-41.737 36.249,-20.69 36.042,21.048 -0.206,41.737 z"
       style="fill:#4fc6f4;fill-opacity:1;fill-rule:nonzero;stroke:#231f20;stroke-width:1;stroke-linecap:butt;stroke-linejoin:miter;stroke-miterlimit:10;stroke-dasharray:none;stroke-opacity:1"
       transform="matrix(1.3333333,0,0,-1.3333333,190.87813,651.0056)" />
    <path
       id="path26"
       d="m 0,0 -36.043,-21.048 0.207,-41.737 36.249,-20.69 36.042,21.048 -0.206,41.737 z"
       style="fill:#4fc6f4;fill-opacity:1;fill-rule:nonzero;stroke:#231f20;stroke-width:1;stroke-linecap:butt;stroke-linejoin:miter;stroke-miterlimit:10;stroke-dasharray:none;stroke-opacity:1"
       transform="matrix(1.3333333,0,0,-1.3333333,592.90693,651.0056)" />
    <path
       id="path27"
       d="m 0,0 -36.043,-21.048 0.207,-41.737 36.249,-20.69 36.042,21.048 -0.206,41.737 z"
       style="fill:#4fc6f4;fill-opacity:1;fill-rule:nonzero;stroke:#231f20;stroke-width:1;stroke-linecap:butt;stroke-linejoin:miter;stroke-miterlimit:10;stroke-dasharray:none;stroke-opacity:1"
       transform="matrix(1.3333333,0,0,-1.3333333,140.62453,741.1704)" />
    <path
       id="path28"
       d="m 0,0 -36.043,-21.048 0.207,-41.737 36.249,-20.69 36.042,21.048 -0.206,41.737 z"
       style="fill:#4fc6f4;fill-opacity:1;fill-rule:nonzero;stroke:#231f20;stroke-width:1;stroke-linecap:butt;stroke-linejoin:miter;stroke-miterlimit:10;stroke-dasharray:none;stroke-opacity:1"
       transform="matrix(1.3333333,0,0,-1.3333333,241.13173,741.1704)" />
    <path
       id="path29"
       d="m 0,0 -36.043,-21.048 0.207,-41.737 36.249,-20.69 36.042,21.048 -0.206,41.737 z"
       style="fill:#4fc6f4;fill-opacity:1;fill-rule:nonzero;stroke:#231f20;stroke-width:1;stroke-linecap:butt;stroke-linejoin:miter;stroke-miterlimit:10;stroke-dasharray:none;stroke-opacity:1"
       transform="matrix(1.3333333,0,0,-1.3333333,542.65333,741.1704)" />
    <path
       id="path30"
       d="m 0,0 -36.043,-21.048 0.207,-41.737 36.249,-20.69 36.042,21.048 -0.206,41.737 z"
       style="fill:#4fc6f4;fill-opacity:1;fill-rule:nonzero;stroke:#231f20;stroke-width:1;stroke-linecap:butt;stroke-linejoin:miter;stroke-miterlimit:10;stroke-dasharray:none;stroke-opacity:1"
       transform="matrix(1.3333333,0,0,-1.3333333,643.16053,741.1704)" />
    <path
       id="path31"
       d="m 0,0 -36.043,-21.048 0.207,-41.737 36.249,-20.69 36.042,21.048 -0.206,41.737 z"
       style="fill:#4fc6f4;fill-opacity:1;fill-rule:nonzero;stroke:#231f20;stroke-width:1;stroke-linecap:butt;stroke-linejoin:miter;stroke-miterlimit:10;stroke-dasharray:none;stroke-opacity:1"
       transform="matrix(1.3333333,0,0,-1.3333333,190.87813,831.14227)" />
    <path
       id="path32"
       d="m 0,0 -36.043,-21.048 0.207,-41.737 36.249,-20.69 36.042,21.048 -0.206,41.737 z"
       style="fill:#4fc6f4;fill-opacity:1;fill-rule:nonzero;stroke:#231f20;stroke-width:1;stroke-linecap:butt;stroke-linejoin:miter;stroke-miterlimit:10;stroke-dasharray:none;stroke-opacity:1"
       transform="matrix(1.3333333,0,0,-1.3333333,291.38533,831.14227)" />
    <path
       id="path33"
       d="m 0,0 -36.043,-21.048 0.207,-41.737 36.249,-20.69 36.042,21.048 -0.206,41.737 z"
       style="fill:#4fc6f4;fill-opacity:1;fill-rule:nonzero;stroke:#231f20;stroke-width:1;stroke-linecap:butt;stroke-linejoin:miter;stroke-miterlimit:10;stroke-dasharray:none;stroke-opacity:1"
       transform="matrix(1.3333333,0,0,-1.3333333,391.89253,831.14227)" />
    <path
       id="path34"
       d="m 0,0 -36.043,-21.048 0.207,-41.737 36.249,-20.69 36.042,21.048 -0.206,41.737 z"
       style="fill:#4fc6f4;fill-opacity:1;fill-rule:nonzero;stroke:#231f20;stroke-width:1;stroke-linecap:butt;stroke-linejoin:miter;stroke-miterlimit:10;stroke-dasharray:none;stroke-opacity:1"
       transform="matrix(1.3333333,0,0,-1.3333333,492.39973,831.14227)" />
    <path
       id="path35"
       d="m 0,0 -36.043,-21.048 0.207,-41.737 36.249,-20.69 36.042,21.048 -0.206,41.737 z"
       style="fill:#4fc6f4;fill-opacity:1;fill-rule:nonzero;stroke:#231f20;stroke-width:1;stroke-linecap:butt;stroke-linejoin:miter;stroke-miterlimit:10;stroke-dasharray:none;stroke-opacity:1"
       transform="matrix(1.3333333,0,0,-1.3333333,592.90693,831.14227)" />
    <path
       id="path36"
       d="m 0,0 -36.043,-21.048 0.207,-41.737 36.249,-20.69 36.042,21.048 -0.206,41.737 z"
       style="fill:#4fc6f4;fill-opacity:1;fill-rule:nonzero;stroke:#231f20;stroke-width:1;stroke-linecap:butt;stroke-linejoin:miter;stroke-miterlimit:10;stroke-dasharray:none;stroke-opacity:1"
       transform="matrix(1.3333333,0,0,-1.3333333,140.62453,921.30707)" />
    <path
       id="path37"
       d="m 0,0 -36.043,-21.048 0.207,-41.737 36.249,-20.69 36.042,21.048 -0.206,41.737 z"
       style="fill:#4fc6f4;fill-opacity:1;fill-rule:nonzero;stroke:#231f20;stroke-width:1;stroke-linecap:butt;stroke-linejoin:miter;stroke-miterlimit:10;stroke-dasharray:none;stroke-opacity:1"
       transform="matrix(1.3333333,0,0,-1.3333333,241.13173,921.30707)" />
    <path
       id="path38"
       d="m 0,0 -36.043,-21.048 0.207,-41.737 36.249,-20.69 36.042,21.048 -0.206,41.737 z"
       style="fill:#4fc6f4;fill-opacity:1;fill-rule:nonzero;stroke:#231f20;stroke-width:1;stroke-linecap:butt;stroke-linejoin:miter;stroke-miterlimit:10;stroke-dasharray:none;stroke-opacity:1"
       transform="matrix(1.3333333,0,0,-1.3333333,341.63893,921.30707)" />
    <path
       id="path39"
       d="m 0,0 -36.043,-21.048 0.207,-41.737 36.249,-20.69 36.042,21.048 -0.206,41.737 z"
       style="fill:#4fc6f4;fill-opacity:1;fill-rule:nonzero;stroke:#231f20;stroke-width:1;stroke-linecap:butt;stroke-linejoin:miter;stroke-miterlimit:10;stroke-dasharray:none;stroke-opacity:1"
       transform="matrix(1.3333333,0,0,-1.3333333,442.14613,921.30707)" />
    <path
       id="path40"
       d="m 0,0 -36.043,-21.048 0.207,-41.737 36.249,-20.69 36.042,21.048 -0.206,41.737 z"
       style="fill:#4fc6f4;fill-opacity:1;fill-rule:nonzero;stroke:#231f20;stroke-width:1;stroke-linecap:butt;stroke-linejoin:miter;stroke-miterlimit:10;stroke-dasharray:none;stroke-opacity:1"
       transform="matrix(1.3333333,0,0,-1.3333333,542.65333,921.30707)" />
    <path
       id="path41"
       d="m 0,0 -36.043,-21.048 0.207,-41.737 36.249,-20.69 36.042,21.048 -0.206,41.737 z"
       style="fill:#4fc6f4;fill-opacity:1;fill-rule:nonzero;stroke:#231f20;stroke-width:1;stroke-linecap:butt;stroke-linejoin:miter;stroke-miterlimit:10;stroke-dasharray:none;stroke-opacity:1"
       transform="matrix(1.3333333,0,0,-1.3333333,643.16053,921.30707)" />
    <path
       id="path42"
       d="m 0,0 -36.043,-21.048 0.207,-41.737 36.249,-20.69 36.042,21.048 -0.206,41.737 z"
       style="fill:#4fc6f4;fill-opacity:1;fill-rule:nonzero;stroke:#231f20;stroke-width:1;stroke-linecap:butt;stroke-linejoin:miter;stroke-miterlimit:10;stroke-dasharray:none;stroke-opacity:1"
       transform="matrix(1.3333333,0,0,-1.3333333,241.13173,20.623733)" />
    <path
       id="path43"
       d="m 0,0 -36.043,-21.048 0.207,-41.737 36.249,-20.69 36.042,21.048 -0.206,41.737 z"
       style="fill:#4fc6f4;fill-opacity:1;fill-rule:nonzero;stroke:#231f20;stroke-width:1;stroke-linecap:butt;stroke-linejoin:miter;stroke-miterlimit:10;stroke-dasharray:none;stroke-opacity:1"
       transform="matrix(1.3333333,0,0,-1.3333333,341.63893,20.623733)" />
    <path
       id="path44"
       d="m 0,0 -36.043,-21.048 0.207,-41.737 36.249,-20.69 36.042,21.048 -0.206,41.737 z"
       style="fill:#4fc6f4;fill-opacity:1;fill-rule:nonzero;stroke:#231f20;stroke-width:1;stroke-linecap:butt;stroke-linejoin:miter;stroke-miterlimit:10;stroke-dasharray:none;stroke-opacity:1"
       transform="matrix(1.3333333,0,0,-1.3333333,442.14613,20.623733)" />
    <path
       id="path45"
       d="m 0,0 -36.043,-21.048 0.207,-41.737 36.249,-20.69 36.042,21.048 -0.206,41.737 z"
       style="fill:#4fc6f4;fill-opacity:1;fill-rule:nonzero;stroke:#231f20;stroke-width:1;stroke-linecap:butt;stroke-linejoin:miter;stroke-miterlimit:10;stroke-dasharray:none;stroke-opacity:1"
       transform="matrix(1.3333333,0,0,-1.3333333,542.65333,20.623733)" />
    <path
       id="path46"
       d="m 0,0 -36.043,-21.048 0.207,-41.737 36.249,-20.69 36.042,21.048 -0.206,41.737 z"
       style="fill:#4fc6f4;fill-opacity:1;fill-rule:nonzero;stroke:#231f20;stroke-width:1;stroke-linecap:butt;stroke-linejoin:miter;stroke-miterlimit:10;stroke-dasharray:none;stroke-opacity:1"
       transform="matrix(1.3333333,0,0,-1.3333333,241.13173,1100.2013)" />
    <path
       id="path47"
       d="m 0,0 -36.043,-21.048 0.207,-41.737 36.249,-20.69 36.042,21.048 -0.206,41.737 z"
       style="fill:#4fc6f4;fill-opacity:1;fill-rule:nonzero;stroke:#231f20;stroke-width:1;stroke-linecap:butt;stroke-linejoin:miter;stroke-miterlimit:10;stroke-dasharray:none;stroke-opacity:1"
       transform="matrix(1.3333333,0,0,-1.3333333,341.63893,1100.2013)" />
    <path
       id="path48"
       d="m 0,0 -36.043,-21.048 0.207,-41.737 36.249,-20.69 36.042,21.048 -0.206,41.737 z"
       style="fill:#4fc6f4;fill-opacity:1;fill-rule:nonzero;stroke:#231f20;stroke-width:1;stroke-linecap:butt;stroke-linejoin:miter;stroke-miterlimit:10;stroke-dasharray:none;stroke-opacity:1"
       transform="matrix(1.3333333,0,0,-1.3333333,442.14613,1100.2013)" />
    <path
       id="path49"
       d="m 0,0 -36.043,-21.048 0.207,-41.737 36.249,-20.69 36.042,21.048 -0.206,41.737 z"
       style="fill:#4fc6f4;fill-opacity:1;fill-rule:nonzero;stroke:#231f20;stroke-width:1;stroke-linecap:butt;stroke-linejoin:miter;stroke-miterlimit:10;stroke-dasharray:none;stroke-opacity:1"
       transform="matrix(1.3333333,0,0,-1.3333333,542.65333,1100.2013)" />
    <path
       id="path50"
       d="m 0,0 -36.043,-21.048 0.207,-41.737 36.249,-20.69 36.042,21.048 -0.206,41.737 z"
       style="fill:#4fc6f4;fill-opacity:1;fill-rule:nonzero;stroke:#231f20;stroke-width:1;stroke-linecap:butt;stroke-linejoin:miter;stroke-miterlimit:10;stroke-dasharray:none;stroke-opacity:1"
       transform="matrix(1.3333333,0,0,-1.3333333,190.87813,1011.2789)" />
    <path
       id="path51"
       d="m 0,0 -36.043,-21.048 0.207,-41.737 36.249,-20.69 36.042,21.048 -0.206,41.737 z"
       style="fill:#4fc6f4;fill-opacity:1;fill-rule:nonzero;stroke:#231f20;stroke-width:1;stroke-linecap:butt;stroke-linejoin:miter;stroke-miterlimit:10;stroke-dasharray:none;stroke-opacity:1"
       transform="matrix(1.3333333,0,0,-1.3333333,291.38533,1011.2789)" />
    <path
       id="path52"
       d="m 0,0 -36.043,-21.048 0.207,-41.737 36.249,-20.69 36.042,21.048 -0.206,41.737 z"
       style="fill:#4fc6f4;fill-opacity:1;fill-rule:nonzero;stroke:#231f20;stroke-width:1;stroke-linecap:butt;stroke-linejoin:miter;stroke-miterlimit:10;stroke-dasharray:none;stroke-opacity:1"
       transform="matrix(1.3333333,0,0,-1.3333333,391.89253,1011.2789)" />
    <path
       id="path53"
       d="m 0,0 -36.043,-21.048 0.207,-41.737 36.249,-20.69 36.042,21.048 -0.206,41.737 z"
       style="fill:#4fc6f4;fill-opacity:1;fill-rule:nonzero;stroke:#231f20;stroke-width:1;stroke-linecap:butt;stroke-linejoin:miter;stroke-miterlimit:10;stroke-dasharray:none;stroke-opacity:1"
       transform="matrix(1.3333333,0,0,-1.3333333,492.39973,1011.2789)" />
    <path
       id="path54"
       d="m 0,0 -36.043,-21.048 0.207,-41.737 36.249,-20.69 36.042,21.048 -0.206,41.737 z"
       style="fill:#4fc6f4;fill-opacity:1;fill-rule:nonzero;stroke:#231f20;stroke-width:1;stroke-linecap:butt;stroke-linejoin:miter;stroke-miterlimit:10;stroke-dasharray:none;stroke-opacity:1"
       transform="matrix(1.3333333,0,0,-1.3333333,592.90693,1011.2789)" />
    <path
       id="path55"
       d="m 0,0 -36.043,-21.048 0.207,-41.737 36.249,-20.69 36.042,21.048 -0.206,41.737 z"
       style="fill:#4fc6f4;fill-opacity:1;fill-rule:nonzero;stroke:#231f20;stroke-width:1;stroke-linecap:butt;stroke-linejoin:miter;stroke-miterlimit:10;stroke-dasharray:none;stroke-opacity:1"
       transform="matrix(1.3333333,0,0,-1.3333333,693.41413,470.86893)" />
    <path
       id="path56"
       d="m 0,0 -36.043,-21.048 0.207,-41.737 36.249,-20.69 36.042,21.048 -0.206,41.737 z"
       style="fill:#4fc6f4;fill-opacity:1;fill-rule:nonzero;stroke:#231f20;stroke-width:1;stroke-linecap:butt;stroke-linejoin:miter;stroke-miterlimit:10;stroke-dasharray:none;stroke-opacity:1"
       transform="matrix(1.3333333,0,0,-1.3333333,693.41413,651.0056)" />
    <path
       id="path57"
       d="m 0,0 -36.043,-21.047 0.207,-41.738 36.249,-20.69 36.042,21.048 -0.206,41.737 z"
       style="fill:#4fc6f4;fill-opacity:1;fill-rule:nonzero;stroke:#231f20;stroke-width:1;stroke-linecap:butt;stroke-linejoin:miter;stroke-miterlimit:10;stroke-dasharray:none;stroke-opacity:1"
       transform="matrix(1.3333333,0,0,-1.3333333,90.370933,290.73227)" />
    <path
       id="path58"
       d="m 0,0 -36.043,-21.048 0.207,-41.737 36.249,-20.69 36.042,21.048 -0.206,41.737 z"
       style="fill:#4fc6f4;fill-opacity:1;fill-rule:nonzero;stroke:#231f20;stroke-width:1;stroke-linecap:butt;stroke-linejoin:miter;stroke-miterlimit:10;stroke-dasharray:none;stroke-opacity:1"
       transform="matrix(1.3333333,0,0,-1.3333333,90.370933,470.86893)" />
    <path
       id="path59"
       d="m 0,0 -36.043,-21.048 0.207,-41.737 36.249,-20.69 36.042,21.048 -0.206,41.737 z"
       style="fill:#4fc6f4;fill-opacity:1;fill-rule:nonzero;stroke:#231f20;stroke-width:1;stroke-linecap:butt;stroke-linejoin:miter;stroke-miterlimit:10;stroke-dasharray:none;stroke-opacity:1"
       transform="matrix(1.3333333,0,0,-1.3333333,90.370933,651.0056)" />
    <path
       id="path60"
       d="m 0,0 33.723,20.952 38.404,-21.957 37.306,21.957 33.388,-18.83 v -46.119 l 38.079,-21.44 v -42.768 l 36.291,-24.901 1.564,-41.987 -36.069,-22.532 -1.228,-44.245 -37.185,-24.12 -0.335,-45.113 -34.058,-22.556 -37.753,24.901 -37.51,-23.115 L 0,-313.224 v 45.336 l -37.185,21.998 v 44.667 l -37.632,23.003 v 43.774 l 37.632,23.003 0.447,43.885 38.748,23.673 z"
       style="fill:#4fc6f4;fill-opacity:1;fill-rule:nonzero;stroke:#231f20;stroke-width:1;stroke-linecap:butt;stroke-linejoin:miter;stroke-miterlimit:10;stroke-dasharray:none;stroke-opacity:1"
       transform="matrix(1.3333333,0,0,-1.3333333,295.998,408.8336)" />
    <path
       id="path61"
       d="M 8.6260063,-12.934686 H 2.4267875 l -0.8320312,6.2018654 c 0.4804687,-0.056483 1.0546875,-0.1355599 1.7929687,-0.1355599 2.5898438,0 3.703125,1.1974458 3.7265625,2.8693513 0,1.7283888 -1.4179687,2.8015713 -3.0703125,2.8015713 -1.171875,0 -2.2265625,-0.395383 -2.765625,-0.7116895 l -0.4453125,1.33300576 c 0.6210938,0.39538305 1.8164063,0.79076611 3.234375,0.79076611 2.8007813,0 4.8164063,-1.88654197 4.8164063,-4.41699357 0,-1.6267188 -0.84375,-2.7450881 -1.8515625,-3.3212176 -0.796875,-0.4744597 -1.7929688,-0.7003929 -2.7890625,-0.7003929 -0.4804688,0 -0.7617188,0.045187 -1.0546875,0.079077 L 3.6806938,-11.466121 H 8.6260063 Z M 12.124053,0.20332781 c 0.421875,0.0112967 0.972656,0 1.617188,-0.10166993 1.394531,-0.15815322 2.765625,-0.75687613 3.761718,-1.72838878 1.277344,-1.2426325 2.226563,-3.2308444 2.226563,-6.0776024 0,-3.2986247 -1.628906,-5.4562857 -4.277344,-5.4562857 -2.648437,0 -4.417969,2.157661 -4.417969,4.5977397 0,2.2141451 1.488282,3.9651272 3.820313,3.9651272 1.289062,0 2.332031,-0.5196463 3.046875,-1.3894891 h 0.05859 c -0.234375,1.525049 -0.855469,2.6660115 -1.710938,3.4341843 -0.738281,0.7003928 -1.699219,1.1183692 -2.707031,1.2539291 -0.597656,0.06778 -1.042969,0.1016699 -1.417969,0.06778 z m 3.1875,-12.03094181 c 1.828125,0 2.648438,1.694499 2.648438,3.9086442 0,0.2711198 -0.05859,0.4744597 -0.164063,0.6326129 -0.457031,0.7794694 -1.371094,1.355599 -2.542969,1.355599 -1.511718,0 -2.496093,-1.1409625 -2.496093,-2.745088 0,-1.8300591 1.066406,-3.1517681 2.554687,-3.1517681 z m 0,0"
       style="fill:#231f20;fill-opacity:1;fill-rule:nonzero;stroke:none"
       aria-label="59"
       transform="matrix(1.3333333,0,0,1.3831523,674.67053,1232.4063)" />
  </g>
</svg>
