<?xml version="1.0" encoding="UTF-8" standalone="no"?>
<!-- Created with Inkscape (http://www.inkscape.org/) -->

<svg
   version="1.1"
   id="svg1"
   width="793.70135"
   height="1248"
   viewBox="0 0 793.70135 1248"
   sodipodi:docname="upload_6v7yjr5mi7imajfl7t2keqkb42.pdf"
   xmlns:inkscape="http://www.inkscape.org/namespaces/inkscape"
   xmlns:sodipodi="http://sodipodi.sourceforge.net/DTD/sodipodi-0.dtd"
   xmlns="http://www.w3.org/2000/svg"
   xmlns:svg="http://www.w3.org/2000/svg">
  <defs
     id="defs1" />
  <sodipodi:namedview
     id="namedview1"
     pagecolor="#ffffff"
     bordercolor="#000000"
     borderopacity="0.25"
     inkscape:showpageshadow="2"
     inkscape:pageopacity="0.0"
     inkscape:pagecheckerboard="0"
     inkscape:deskcolor="#d1d1d1">
    <inkscape:page
       x="0"
       y="0"
       inkscape:label="1"
       id="page1"
       width="793.70135"
       height="1248"
       margin="8.7091064 51.012001 19.854666 41.645599"
       bleed="0" />
  </sodipodi:namedview>
  <g
     id="layer-MC0"
     inkscape:groupmode="layer"
     inkscape:label="Layer 1">
    <path
       id="path1"
       d="m 0,0 -36.043,-21.047 0.207,-41.738 36.249,-20.69 36.042,21.048 -0.206,41.737 z"
       style="fill:#4fc6f4;fill-opacity:1;fill-rule:nonzero;stroke:#231f20;stroke-width:1;stroke-linecap:butt;stroke-linejoin:miter;stroke-miterlimit:10;stroke-dasharray:none;stroke-opacity:1"
       transform="matrix(1.3333333,0,0,-1.3333333,140.62453,200.76053)" />
    <path
       id="path2"
       d="m 0,0 -36.043,-21.047 0.207,-41.738 36.249,-20.69 36.042,21.048 -0.206,41.737 z"
       style="fill:#4fc6f4;fill-opacity:1;fill-rule:nonzero;stroke:#231f20;stroke-width:1;stroke-linecap:butt;stroke-linejoin:miter;stroke-miterlimit:10;stroke-dasharray:none;stroke-opacity:1"
       transform="matrix(1.3333333,0,0,-1.3333333,241.13173,200.76053)" />
    <path
       id="path3"
       d="m 0,0 -36.043,-21.047 0.207,-41.738 36.249,-20.69 36.042,21.048 -0.206,41.737 z"
       style="fill:#4fc6f4;fill-opacity:1;fill-rule:nonzero;stroke:#231f20;stroke-width:1;stroke-linecap:butt;stroke-linejoin:miter;stroke-miterlimit:10;stroke-dasharray:none;stroke-opacity:1"
       transform="matrix(1.3333333,0,0,-1.3333333,341.63893,200.76053)" />
    <path
       id="path4"
       d="m 0,0 -36.043,-21.047 0.207,-41.738 36.249,-20.69 36.042,21.048 -0.206,41.737 z"
       style="fill:#4fc6f4;fill-opacity:1;fill-rule:nonzero;stroke:#231f20;stroke-width:1;stroke-linecap:butt;stroke-linejoin:miter;stroke-miterlimit:10;stroke-dasharray:none;stroke-opacity:1"
       transform="matrix(1.3333333,0,0,-1.3333333,442.14613,200.76053)" />
    <path
       id="path5"
       d="m 0,0 -36.043,-21.047 0.207,-41.738 36.249,-20.69 36.042,21.048 -0.206,41.737 z"
       style="fill:#4fc6f4;fill-opacity:1;fill-rule:nonzero;stroke:#231f20;stroke-width:1;stroke-linecap:butt;stroke-linejoin:miter;stroke-miterlimit:10;stroke-dasharray:none;stroke-opacity:1"
       transform="matrix(1.3333333,0,0,-1.3333333,542.65333,200.76053)" />
    <path
       id="path6"
       d="m 0,0 -36.043,-21.047 0.207,-41.738 36.249,-20.69 36.042,21.048 -0.206,41.737 z"
       style="fill:#4fc6f4;fill-opacity:1;fill-rule:nonzero;stroke:#231f20;stroke-width:1;stroke-linecap:butt;stroke-linejoin:miter;stroke-miterlimit:10;stroke-dasharray:none;stroke-opacity:1"
       transform="matrix(1.3333333,0,0,-1.3333333,643.16053,200.76053)" />
    <path
       id="path7"
       d="m 0,0 -36.043,-21.047 0.207,-41.738 36.249,-20.69 36.042,21.048 -0.206,41.737 z"
       style="fill:#4fc6f4;fill-opacity:1;fill-rule:nonzero;stroke:#231f20;stroke-width:1;stroke-linecap:butt;stroke-linejoin:miter;stroke-miterlimit:10;stroke-dasharray:none;stroke-opacity:1"
       transform="matrix(1.3333333,0,0,-1.3333333,190.87813,290.73227)" />
    <path
       id="path8"
       d="m 0,0 -36.043,-21.047 0.207,-41.738 36.249,-20.69 36.042,21.048 -0.206,41.737 z"
       style="fill:#4fc6f4;fill-opacity:1;fill-rule:nonzero;stroke:#231f20;stroke-width:1;stroke-linecap:butt;stroke-linejoin:miter;stroke-miterlimit:10;stroke-dasharray:none;stroke-opacity:1"
       transform="matrix(1.3333333,0,0,-1.3333333,291.38533,290.73227)" />
    <path
       id="path9"
       d="m 0,0 -36.043,-21.047 0.207,-41.738 36.249,-20.69 36.042,21.048 -0.206,41.737 z"
       style="fill:#4fc6f4;fill-opacity:1;fill-rule:nonzero;stroke:#231f20;stroke-width:1;stroke-linecap:butt;stroke-linejoin:miter;stroke-miterlimit:10;stroke-dasharray:none;stroke-opacity:1"
       transform="matrix(1.3333333,0,0,-1.3333333,391.89253,290.73227)" />
    <path
       id="path10"
       d="m 0,0 -36.043,-21.047 0.207,-41.738 36.249,-20.69 36.042,21.048 -0.206,41.737 z"
       style="fill:#4fc6f4;fill-opacity:1;fill-rule:nonzero;stroke:#231f20;stroke-width:1;stroke-linecap:butt;stroke-linejoin:miter;stroke-miterlimit:10;stroke-dasharray:none;stroke-opacity:1"
       transform="matrix(1.3333333,0,0,-1.3333333,492.39973,290.73227)" />
    <path
       id="path11"
       d="m 0,0 -36.043,-21.047 0.207,-41.738 36.249,-20.69 36.042,21.048 -0.206,41.737 z"
       style="fill:#4fc6f4;fill-opacity:1;fill-rule:nonzero;stroke:#231f20;stroke-width:1;stroke-linecap:butt;stroke-linejoin:miter;stroke-miterlimit:10;stroke-dasharray:none;stroke-opacity:1"
       transform="matrix(1.3333333,0,0,-1.3333333,592.90693,290.73227)" />
    <path
       id="path12"
       d="m 0,0 -36.043,-21.047 0.207,-41.738 36.249,-20.69 36.042,21.048 -0.206,41.737 z"
       style="fill:#4fc6f4;fill-opacity:1;fill-rule:nonzero;stroke:#231f20;stroke-width:1;stroke-linecap:butt;stroke-linejoin:miter;stroke-miterlimit:10;stroke-dasharray:none;stroke-opacity:1"
       transform="matrix(1.3333333,0,0,-1.3333333,190.87813,110.5956)" />
    <path
       id="path13"
       d="m 0,0 -36.043,-21.047 0.207,-41.738 36.249,-20.69 36.042,21.048 -0.206,41.737 z"
       style="fill:#4fc6f4;fill-opacity:1;fill-rule:nonzero;stroke:#231f20;stroke-width:1;stroke-linecap:butt;stroke-linejoin:miter;stroke-miterlimit:10;stroke-dasharray:none;stroke-opacity:1"
       transform="matrix(1.3333333,0,0,-1.3333333,291.38533,110.5956)" />
    <path
       id="path14"
       d="m 0,0 -36.043,-21.047 0.207,-41.738 36.249,-20.69 36.042,21.048 -0.206,41.737 z"
       style="fill:#4fc6f4;fill-opacity:1;fill-rule:nonzero;stroke:#231f20;stroke-width:1;stroke-linecap:butt;stroke-linejoin:miter;stroke-miterlimit:10;stroke-dasharray:none;stroke-opacity:1"
       transform="matrix(1.3333333,0,0,-1.3333333,391.89253,110.5956)" />
    <path
       id="path15"
       d="m 0,0 -36.043,-21.047 0.207,-41.738 36.249,-20.69 36.042,21.048 -0.206,41.737 z"
       style="fill:#4fc6f4;fill-opacity:1;fill-rule:nonzero;stroke:#231f20;stroke-width:1;stroke-linecap:butt;stroke-linejoin:miter;stroke-miterlimit:10;stroke-dasharray:none;stroke-opacity:1"
       transform="matrix(1.3333333,0,0,-1.3333333,492.39973,110.5956)" />
    <path
       id="path16"
       d="m 0,0 -36.043,-21.047 0.207,-41.738 36.249,-20.69 36.042,21.048 -0.206,41.737 z"
       style="fill:#4fc6f4;fill-opacity:1;fill-rule:nonzero;stroke:#231f20;stroke-width:1;stroke-linecap:butt;stroke-linejoin:miter;stroke-miterlimit:10;stroke-dasharray:none;stroke-opacity:1"
       transform="matrix(1.3333333,0,0,-1.3333333,592.90693,110.5956)" />
    <path
       id="path17"
       d="m 0,0 -36.043,-21.047 0.207,-41.738 36.249,-20.69 36.042,21.048 -0.206,41.737 z"
       style="fill:#4fc6f4;fill-opacity:1;fill-rule:nonzero;stroke:#231f20;stroke-width:1;stroke-linecap:butt;stroke-linejoin:miter;stroke-miterlimit:10;stroke-dasharray:none;stroke-opacity:1"
       transform="matrix(1.3333333,0,0,-1.3333333,140.62453,380.8972)" />
    <path
       id="path18"
       d="m 0,0 -36.043,-21.047 0.207,-41.738 36.249,-20.69 36.042,21.048 -0.206,41.737 z"
       style="fill:#4fc6f4;fill-opacity:1;fill-rule:nonzero;stroke:#231f20;stroke-width:1;stroke-linecap:butt;stroke-linejoin:miter;stroke-miterlimit:10;stroke-dasharray:none;stroke-opacity:1"
       transform="matrix(1.3333333,0,0,-1.3333333,241.13173,380.8972)" />
    <path
       id="path19"
       d="m 0,0 -36.043,-21.047 0.207,-41.738 36.249,-20.69 36.042,21.048 -0.206,41.737 z"
       style="fill:#4fc6f4;fill-opacity:1;fill-rule:nonzero;stroke:#231f20;stroke-width:1;stroke-linecap:butt;stroke-linejoin:miter;stroke-miterlimit:10;stroke-dasharray:none;stroke-opacity:1"
       transform="matrix(1.3333333,0,0,-1.3333333,542.65333,380.8972)" />
    <path
       id="path20"
       d="m 0,0 -36.043,-21.047 0.207,-41.738 36.249,-20.69 36.042,21.048 -0.206,41.737 z"
       style="fill:#4fc6f4;fill-opacity:1;fill-rule:nonzero;stroke:#231f20;stroke-width:1;stroke-linecap:butt;stroke-linejoin:miter;stroke-miterlimit:10;stroke-dasharray:none;stroke-opacity:1"
       transform="matrix(1.3333333,0,0,-1.3333333,643.16053,380.8972)" />
    <path
       id="path21"
       d="m 0,0 -36.043,-21.048 0.207,-41.737 36.249,-20.69 36.042,21.048 -0.206,41.737 z"
       style="fill:#4fc6f4;fill-opacity:1;fill-rule:nonzero;stroke:#231f20;stroke-width:1;stroke-linecap:butt;stroke-linejoin:miter;stroke-miterlimit:10;stroke-dasharray:none;stroke-opacity:1"
       transform="matrix(1.3333333,0,0,-1.3333333,190.87813,470.86893)" />
    <path
       id="path22"
       d="m 0,0 -36.043,-21.048 0.207,-41.737 36.249,-20.69 36.042,21.048 -0.206,41.737 z"
       style="fill:#4fc6f4;fill-opacity:1;fill-rule:nonzero;stroke:#231f20;stroke-width:1;stroke-linecap:butt;stroke-linejoin:miter;stroke-miterlimit:10;stroke-dasharray:none;stroke-opacity:1"
       transform="matrix(1.3333333,0,0,-1.3333333,592.90693,470.86893)" />
    <path
       id="path23"
       d="m 0,0 -36.043,-21.048 0.207,-41.737 36.249,-20.69 36.042,21.048 -0.206,41.737 z"
       style="fill:#4fc6f4;fill-opacity:1;fill-rule:nonzero;stroke:#231f20;stroke-width:1;stroke-linecap:butt;stroke-linejoin:miter;stroke-miterlimit:10;stroke-dasharray:none;stroke-opacity:1"
       transform="matrix(1.3333333,0,0,-1.3333333,140.62453,561.03373)" />
    <path
       id="path24"
       d="m 0,0 -36.043,-21.048 0.207,-41.737 36.249,-20.69 36.042,21.048 -0.206,41.737 z"
       style="fill:#4fc6f4;fill-opacity:1;fill-rule:nonzero;stroke:#231f20;stroke-width:1;stroke-linecap:butt;stroke-linejoin:miter;stroke-miterlimit:10;stroke-dasharray:none;stroke-opacity:1"
       transform="matrix(1.3333333,0,0,-1.3333333,643.16053,561.03373)" />
    <path
       id="path25"
       d="m 0,0 -36.043,-21.048 0.207,-41.737 36.249,-20.69 36.042,21.048 -0.206,41.737 z"
       style="fill:#4fc6f4;fill-opacity:1;fill-rule:nonzero;stroke:#231f20;stroke-width:1;stroke-linecap:butt;stroke-linejoin:miter;stroke-miterlimit:10;stroke-dasharray:none;stroke-opacity:1"
       transform="matrix(1.3333333,0,0,-1.3333333,190.87813,651.0056)" />
    <path
       id="path26"
       d="m 0,0 -36.043,-21.048 0.207,-41.737 36.249,-20.69 36.042,21.048 -0.206,41.737 z"
       style="fill:#4fc6f4;fill-opacity:1;fill-rule:nonzero;stroke:#231f20;stroke-width:1;stroke-linecap:butt;stroke-linejoin:miter;stroke-miterlimit:10;stroke-dasharray:none;stroke-opacity:1"
       transform="matrix(1.3333333,0,0,-1.3333333,592.90693,651.0056)" />
    <path
       id="path27"
       d="m 0,0 -36.043,-21.048 0.207,-41.737 36.249,-20.69 36.042,21.048 -0.206,41.737 z"
       style="fill:#4fc6f4;fill-opacity:1;fill-rule:nonzero;stroke:#231f20;stroke-width:1;stroke-linecap:butt;stroke-linejoin:miter;stroke-miterlimit:10;stroke-dasharray:none;stroke-opacity:1"
       transform="matrix(1.3333333,0,0,-1.3333333,140.62453,741.1704)" />
    <path
       id="path28"
       d="m 0,0 -36.043,-21.048 0.207,-41.737 36.249,-20.69 36.042,21.048 -0.206,41.737 z"
       style="fill:#4fc6f4;fill-opacity:1;fill-rule:nonzero;stroke:#231f20;stroke-width:1;stroke-linecap:butt;stroke-linejoin:miter;stroke-miterlimit:10;stroke-dasharray:none;stroke-opacity:1"
       transform="matrix(1.3333333,0,0,-1.3333333,241.13173,741.1704)" />
    <path
       id="path29"
       d="m 0,0 -36.043,-21.048 0.207,-41.737 36.249,-20.69 36.042,21.048 -0.206,41.737 z"
       style="fill:#4fc6f4;fill-opacity:1;fill-rule:nonzero;stroke:#231f20;stroke-width:1;stroke-linecap:butt;stroke-linejoin:miter;stroke-miterlimit:10;stroke-dasharray:none;stroke-opacity:1"
       transform="matrix(1.3333333,0,0,-1.3333333,542.65333,741.1704)" />
    <path
       id="path30"
       d="m 0,0 -36.043,-21.048 0.207,-41.737 36.249,-20.69 36.042,21.048 -0.206,41.737 z"
       style="fill:#4fc6f4;fill-opacity:1;fill-rule:nonzero;stroke:#231f20;stroke-width:1;stroke-linecap:butt;stroke-linejoin:miter;stroke-miterlimit:10;stroke-dasharray:none;stroke-opacity:1"
       transform="matrix(1.3333333,0,0,-1.3333333,643.16053,741.1704)" />
    <path
       id="path31"
       d="m 0,0 -36.043,-21.048 0.207,-41.737 36.249,-20.69 36.042,21.048 -0.206,41.737 z"
       style="fill:#4fc6f4;fill-opacity:1;fill-rule:nonzero;stroke:#231f20;stroke-width:1;stroke-linecap:butt;stroke-linejoin:miter;stroke-miterlimit:10;stroke-dasharray:none;stroke-opacity:1"
       transform="matrix(1.3333333,0,0,-1.3333333,190.87813,831.14227)" />
    <path
       id="path32"
       d="m 0,0 -36.043,-21.048 0.207,-41.737 36.249,-20.69 36.042,21.048 -0.206,41.737 z"
       style="fill:#4fc6f4;fill-opacity:1;fill-rule:nonzero;stroke:#231f20;stroke-width:1;stroke-linecap:butt;stroke-linejoin:miter;stroke-miterlimit:10;stroke-dasharray:none;stroke-opacity:1"
       transform="matrix(1.3333333,0,0,-1.3333333,291.38533,831.14227)" />
    <path
       id="path33"
       d="m 0,0 -36.043,-21.048 0.207,-41.737 36.249,-20.69 36.042,21.048 -0.206,41.737 z"
       style="fill:#4fc6f4;fill-opacity:1;fill-rule:nonzero;stroke:#231f20;stroke-width:1;stroke-linecap:butt;stroke-linejoin:miter;stroke-miterlimit:10;stroke-dasharray:none;stroke-opacity:1"
       transform="matrix(1.3333333,0,0,-1.3333333,391.89253,831.14227)" />
    <path
       id="path34"
       d="m 0,0 -36.043,-21.048 0.207,-41.737 36.249,-20.69 36.042,21.048 -0.206,41.737 z"
       style="fill:#4fc6f4;fill-opacity:1;fill-rule:nonzero;stroke:#231f20;stroke-width:1;stroke-linecap:butt;stroke-linejoin:miter;stroke-miterlimit:10;stroke-dasharray:none;stroke-opacity:1"
       transform="matrix(1.3333333,0,0,-1.3333333,492.39973,831.14227)" />
    <path
       id="path35"
       d="m 0,0 -36.043,-21.048 0.207,-41.737 36.249,-20.69 36.042,21.048 -0.206,41.737 z"
       style="fill:#4fc6f4;fill-opacity:1;fill-rule:nonzero;stroke:#231f20;stroke-width:1;stroke-linecap:butt;stroke-linejoin:miter;stroke-miterlimit:10;stroke-dasharray:none;stroke-opacity:1"
       transform="matrix(1.3333333,0,0,-1.3333333,592.90693,831.14227)" />
    <path
       id="path36"
       d="m 0,0 -36.043,-21.048 0.207,-41.737 36.249,-20.69 36.042,21.048 -0.206,41.737 z"
       style="fill:#4fc6f4;fill-opacity:1;fill-rule:nonzero;stroke:#231f20;stroke-width:1;stroke-linecap:butt;stroke-linejoin:miter;stroke-miterlimit:10;stroke-dasharray:none;stroke-opacity:1"
       transform="matrix(1.3333333,0,0,-1.3333333,140.62453,921.30707)" />
    <path
       id="path37"
       d="m 0,0 -36.043,-21.048 0.207,-41.737 36.249,-20.69 36.042,21.048 -0.206,41.737 z"
       style="fill:#4fc6f4;fill-opacity:1;fill-rule:nonzero;stroke:#231f20;stroke-width:1;stroke-linecap:butt;stroke-linejoin:miter;stroke-miterlimit:10;stroke-dasharray:none;stroke-opacity:1"
       transform="matrix(1.3333333,0,0,-1.3333333,241.13173,921.30707)" />
    <path
       id="path38"
       d="m 0,0 -36.043,-21.048 0.207,-41.737 36.249,-20.69 36.042,21.048 -0.206,41.737 z"
       style="fill:#4fc6f4;fill-opacity:1;fill-rule:nonzero;stroke:#231f20;stroke-width:1;stroke-linecap:butt;stroke-linejoin:miter;stroke-miterlimit:10;stroke-dasharray:none;stroke-opacity:1"
       transform="matrix(1.3333333,0,0,-1.3333333,341.63893,921.30707)" />
    <path
       id="path39"
       d="m 0,0 -36.043,-21.048 0.207,-41.737 36.249,-20.69 36.042,21.048 -0.206,41.737 z"
       style="fill:#4fc6f4;fill-opacity:1;fill-rule:nonzero;stroke:#231f20;stroke-width:1;stroke-linecap:butt;stroke-linejoin:miter;stroke-miterlimit:10;stroke-dasharray:none;stroke-opacity:1"
       transform="matrix(1.3333333,0,0,-1.3333333,442.14613,921.30707)" />
    <path
       id="path40"
       d="m 0,0 -36.043,-21.048 0.207,-41.737 36.249,-20.69 36.042,21.048 -0.206,41.737 z"
       style="fill:#4fc6f4;fill-opacity:1;fill-rule:nonzero;stroke:#231f20;stroke-width:1;stroke-linecap:butt;stroke-linejoin:miter;stroke-miterlimit:10;stroke-dasharray:none;stroke-opacity:1"
       transform="matrix(1.3333333,0,0,-1.3333333,542.65333,921.30707)" />
    <path
       id="path41"
       d="m 0,0 -36.043,-21.048 0.207,-41.737 36.249,-20.69 36.042,21.048 -0.206,41.737 z"
       style="fill:#4fc6f4;fill-opacity:1;fill-rule:nonzero;stroke:#231f20;stroke-width:1;stroke-linecap:butt;stroke-linejoin:miter;stroke-miterlimit:10;stroke-dasharray:none;stroke-opacity:1"
       transform="matrix(1.3333333,0,0,-1.3333333,643.16053,921.30707)" />
    <path
       id="path42"
       d="m 0,0 -36.043,-21.048 0.207,-41.737 36.249,-20.69 36.042,21.048 -0.206,41.737 z"
       style="fill:#4fc6f4;fill-opacity:1;fill-rule:nonzero;stroke:#231f20;stroke-width:1;stroke-linecap:butt;stroke-linejoin:miter;stroke-miterlimit:10;stroke-dasharray:none;stroke-opacity:1"
       transform="matrix(1.3333333,0,0,-1.3333333,140.62453,20.623733)" />
    <path
       id="path43"
       d="m 0,0 -36.043,-21.048 0.207,-41.737 36.249,-20.69 36.042,21.048 -0.206,41.737 z"
       style="fill:#4fc6f4;fill-opacity:1;fill-rule:nonzero;stroke:#231f20;stroke-width:1;stroke-linecap:butt;stroke-linejoin:miter;stroke-miterlimit:10;stroke-dasharray:none;stroke-opacity:1"
       transform="matrix(1.3333333,0,0,-1.3333333,241.13173,20.623733)" />
    <path
       id="path44"
       d="m 0,0 -36.043,-21.048 0.207,-41.737 36.249,-20.69 36.042,21.048 -0.206,41.737 z"
       style="fill:#4fc6f4;fill-opacity:1;fill-rule:nonzero;stroke:#231f20;stroke-width:1;stroke-linecap:butt;stroke-linejoin:miter;stroke-miterlimit:10;stroke-dasharray:none;stroke-opacity:1"
       transform="matrix(1.3333333,0,0,-1.3333333,341.63893,20.623733)" />
    <path
       id="path45"
       d="m 0,0 -36.043,-21.048 0.207,-41.737 36.249,-20.69 36.042,21.048 -0.206,41.737 z"
       style="fill:#4fc6f4;fill-opacity:1;fill-rule:nonzero;stroke:#231f20;stroke-width:1;stroke-linecap:butt;stroke-linejoin:miter;stroke-miterlimit:10;stroke-dasharray:none;stroke-opacity:1"
       transform="matrix(1.3333333,0,0,-1.3333333,442.14613,20.623733)" />
    <path
       id="path46"
       d="m 0,0 -36.043,-21.048 0.207,-41.737 36.249,-20.69 36.042,21.048 -0.206,41.737 z"
       style="fill:#4fc6f4;fill-opacity:1;fill-rule:nonzero;stroke:#231f20;stroke-width:1;stroke-linecap:butt;stroke-linejoin:miter;stroke-miterlimit:10;stroke-dasharray:none;stroke-opacity:1"
       transform="matrix(1.3333333,0,0,-1.3333333,542.65333,20.623733)" />
    <path
       id="path47"
       d="m 0,0 -36.043,-21.048 0.207,-41.737 36.249,-20.69 36.042,21.048 -0.206,41.737 z"
       style="fill:#4fc6f4;fill-opacity:1;fill-rule:nonzero;stroke:#231f20;stroke-width:1;stroke-linecap:butt;stroke-linejoin:miter;stroke-miterlimit:10;stroke-dasharray:none;stroke-opacity:1"
       transform="matrix(1.3333333,0,0,-1.3333333,643.16053,20.623733)" />
    <path
       id="path48"
       d="m 0,0 -36.043,-21.048 0.207,-41.737 36.249,-20.69 36.042,21.048 -0.206,41.737 z"
       style="fill:#4fc6f4;fill-opacity:1;fill-rule:nonzero;stroke:#231f20;stroke-width:1;stroke-linecap:butt;stroke-linejoin:miter;stroke-miterlimit:10;stroke-dasharray:none;stroke-opacity:1"
       transform="matrix(1.3333333,0,0,-1.3333333,241.13173,1100.2013)" />
    <path
       id="path49"
       d="m 0,0 -36.043,-21.048 0.207,-41.737 36.249,-20.69 36.042,21.048 -0.206,41.737 z"
       style="fill:#4fc6f4;fill-opacity:1;fill-rule:nonzero;stroke:#231f20;stroke-width:1;stroke-linecap:butt;stroke-linejoin:miter;stroke-miterlimit:10;stroke-dasharray:none;stroke-opacity:1"
       transform="matrix(1.3333333,0,0,-1.3333333,341.63893,1100.2013)" />
    <path
       id="path50"
       d="m 0,0 -36.043,-21.048 0.207,-41.737 36.249,-20.69 36.042,21.048 -0.206,41.737 z"
       style="fill:#4fc6f4;fill-opacity:1;fill-rule:nonzero;stroke:#231f20;stroke-width:1;stroke-linecap:butt;stroke-linejoin:miter;stroke-miterlimit:10;stroke-dasharray:none;stroke-opacity:1"
       transform="matrix(1.3333333,0,0,-1.3333333,442.14613,1100.2013)" />
    <path
       id="path51"
       d="m 0,0 -36.043,-21.048 0.207,-41.737 36.249,-20.69 36.042,21.048 -0.206,41.737 z"
       style="fill:#4fc6f4;fill-opacity:1;fill-rule:nonzero;stroke:#231f20;stroke-width:1;stroke-linecap:butt;stroke-linejoin:miter;stroke-miterlimit:10;stroke-dasharray:none;stroke-opacity:1"
       transform="matrix(1.3333333,0,0,-1.3333333,542.65333,1100.2013)" />
    <path
       id="path52"
       d="m 0,0 -36.043,-21.048 0.207,-41.737 36.249,-20.69 36.042,21.048 -0.206,41.737 z"
       style="fill:#4fc6f4;fill-opacity:1;fill-rule:nonzero;stroke:#231f20;stroke-width:1;stroke-linecap:butt;stroke-linejoin:miter;stroke-miterlimit:10;stroke-dasharray:none;stroke-opacity:1"
       transform="matrix(1.3333333,0,0,-1.3333333,190.87813,1011.2789)" />
    <path
       id="path53"
       d="m 0,0 -36.043,-21.048 0.207,-41.737 36.249,-20.69 36.042,21.048 -0.206,41.737 z"
       style="fill:#4fc6f4;fill-opacity:1;fill-rule:nonzero;stroke:#231f20;stroke-width:1;stroke-linecap:butt;stroke-linejoin:miter;stroke-miterlimit:10;stroke-dasharray:none;stroke-opacity:1"
       transform="matrix(1.3333333,0,0,-1.3333333,291.38533,1011.2789)" />
    <path
       id="path54"
       d="m 0,0 -36.043,-21.048 0.207,-41.737 36.249,-20.69 36.042,21.048 -0.206,41.737 z"
       style="fill:#4fc6f4;fill-opacity:1;fill-rule:nonzero;stroke:#231f20;stroke-width:1;stroke-linecap:butt;stroke-linejoin:miter;stroke-miterlimit:10;stroke-dasharray:none;stroke-opacity:1"
       transform="matrix(1.3333333,0,0,-1.3333333,391.89253,1011.2789)" />
    <path
       id="path55"
       d="m 0,0 -36.043,-21.048 0.207,-41.737 36.249,-20.69 36.042,21.048 -0.206,41.737 z"
       style="fill:#4fc6f4;fill-opacity:1;fill-rule:nonzero;stroke:#231f20;stroke-width:1;stroke-linecap:butt;stroke-linejoin:miter;stroke-miterlimit:10;stroke-dasharray:none;stroke-opacity:1"
       transform="matrix(1.3333333,0,0,-1.3333333,492.39973,1011.2789)" />
    <path
       id="path56"
       d="m 0,0 -36.043,-21.048 0.207,-41.737 36.249,-20.69 36.042,21.048 -0.206,41.737 z"
       style="fill:#4fc6f4;fill-opacity:1;fill-rule:nonzero;stroke:#231f20;stroke-width:1;stroke-linecap:butt;stroke-linejoin:miter;stroke-miterlimit:10;stroke-dasharray:none;stroke-opacity:1"
       transform="matrix(1.3333333,0,0,-1.3333333,592.90693,1011.2789)" />
    <path
       id="path57"
       d="m 0,0 -36.043,-21.047 0.207,-41.738 36.249,-20.69 36.042,21.048 -0.206,41.737 z"
       style="fill:#4fc6f4;fill-opacity:1;fill-rule:nonzero;stroke:#231f20;stroke-width:1;stroke-linecap:butt;stroke-linejoin:miter;stroke-miterlimit:10;stroke-dasharray:none;stroke-opacity:1"
       transform="matrix(1.3333333,0,0,-1.3333333,693.41413,290.73227)" />
    <path
       id="path58"
       d="m 0,0 -36.043,-21.047 0.207,-41.738 36.249,-20.69 36.042,21.048 -0.206,41.737 z"
       style="fill:#4fc6f4;fill-opacity:1;fill-rule:nonzero;stroke:#231f20;stroke-width:1;stroke-linecap:butt;stroke-linejoin:miter;stroke-miterlimit:10;stroke-dasharray:none;stroke-opacity:1"
       transform="matrix(1.3333333,0,0,-1.3333333,693.41413,110.5956)" />
    <path
       id="path59"
       d="m 0,0 -36.043,-21.048 0.207,-41.737 36.249,-20.69 36.042,21.048 -0.206,41.737 z"
       style="fill:#4fc6f4;fill-opacity:1;fill-rule:nonzero;stroke:#231f20;stroke-width:1;stroke-linecap:butt;stroke-linejoin:miter;stroke-miterlimit:10;stroke-dasharray:none;stroke-opacity:1"
       transform="matrix(1.3333333,0,0,-1.3333333,693.41413,470.86893)" />
    <path
       id="path60"
       d="m 0,0 -36.043,-21.048 0.207,-41.737 36.249,-20.69 36.042,21.048 -0.206,41.737 z"
       style="fill:#4fc6f4;fill-opacity:1;fill-rule:nonzero;stroke:#231f20;stroke-width:1;stroke-linecap:butt;stroke-linejoin:miter;stroke-miterlimit:10;stroke-dasharray:none;stroke-opacity:1"
       transform="matrix(1.3333333,0,0,-1.3333333,693.41413,651.0056)" />
    <path
       id="path61"
       d="m 0,0 -36.043,-21.047 0.207,-41.738 36.249,-20.69 36.042,21.048 -0.206,41.737 z"
       style="fill:#4fc6f4;fill-opacity:1;fill-rule:nonzero;stroke:#231f20;stroke-width:1;stroke-linecap:butt;stroke-linejoin:miter;stroke-miterlimit:10;stroke-dasharray:none;stroke-opacity:1"
       transform="matrix(1.3333333,0,0,-1.3333333,90.370933,290.73227)" />
    <path
       id="path62"
       d="m 0,0 -36.043,-21.048 0.207,-41.737 36.249,-20.69 36.042,21.048 -0.206,41.737 z"
       style="fill:#4fc6f4;fill-opacity:1;fill-rule:nonzero;stroke:#231f20;stroke-width:1;stroke-linecap:butt;stroke-linejoin:miter;stroke-miterlimit:10;stroke-dasharray:none;stroke-opacity:1"
       transform="matrix(1.3333333,0,0,-1.3333333,90.370933,470.86893)" />
    <path
       id="path63"
       d="m 0,0 -36.043,-21.048 0.207,-41.737 36.249,-20.69 36.042,21.048 -0.206,41.737 z"
       style="fill:#4fc6f4;fill-opacity:1;fill-rule:nonzero;stroke:#231f20;stroke-width:1;stroke-linecap:butt;stroke-linejoin:miter;stroke-miterlimit:10;stroke-dasharray:none;stroke-opacity:1"
       transform="matrix(1.3333333,0,0,-1.3333333,90.370933,651.0056)" />
    <path
       id="path64"
       d="m 0,0 33.723,20.952 38.404,-21.957 37.306,21.957 33.388,-18.83 v -46.119 l 38.079,-21.44 v -42.768 l 36.291,-24.901 1.564,-41.987 -36.069,-22.532 -1.228,-44.245 -37.185,-24.12 -0.335,-45.113 -34.058,-22.556 -37.753,24.901 -37.51,-23.115 L 0,-313.224 v 45.336 l -37.185,21.998 v 44.667 l -37.632,23.003 v 43.774 l 37.632,23.003 0.447,43.885 38.748,23.673 z"
       style="fill:#4fc6f4;fill-opacity:1;fill-rule:nonzero;stroke:#231f20;stroke-width:1;stroke-linecap:butt;stroke-linejoin:miter;stroke-miterlimit:10;stroke-dasharray:none;stroke-opacity:1"
       transform="matrix(1.3333333,0,0,-1.3333333,295.998,408.8336)" />
    <path
       id="path65"
       d="m 8.2841328,-13.138026 c -0.3164062,0 -0.7617187,0.02259 -1.2773437,0.10167 -1.6289063,0.20334 -3.0703125,0.858546 -4.1367188,1.909135 -1.2773437,1.2765226 -2.19140624,3.2873278 -2.19140624,5.829076 0,3.3664043 1.80468754,5.51276947 4.58203124,5.51276947 2.6835938,0 4.3007813,-2.18025517 4.3007813,-4.55255347 0,-2.5304515 -1.6171875,-4.1797637 -3.9023438,-4.1797637 -1.4414062,0 -2.5195312,0.6777995 -3.1289062,1.4911589 h -0.058594 c 0.2929688,-2.1350685 1.7460938,-4.1345772 4.5,-4.5977402 0.4921875,-0.07908 0.9492188,-0.10167 1.3125,-0.07908 z M 5.2606953,-1.1296779 c -1.8398437,0 -2.8125,-1.5815322 -2.8476562,-3.7053041 0,-0.3163064 0.070312,-0.5761296 0.1992187,-0.7794694 0.46875,-0.9376227 1.453125,-1.5928289 2.5078125,-1.5928289 1.6054688,0 2.6601563,1.1183692 2.6601563,2.9710212 0,1.8526521 -1.0078125,3.1065812 -2.5195313,3.1065812 z m 5.7861327,0.47445965 c 0.644531,0.41797637 1.910156,0.86984272 3.363281,0.86984272 3.117188,0 4.722657,-1.80746537 4.722657,-3.87475397 0,-1.818762 -1.289063,-3.0049112 -2.882813,-3.3212176 v -0.045187 c 1.59375,-0.5761296 2.390625,-1.7170921 2.390625,-3.0500979 0,-1.570235 -1.160156,-3.083987 -3.703125,-3.083987 -1.394531,0 -2.707031,0.497053 -3.386719,0.994106 l 0.457032,1.276522 c 0.550781,-0.395383 1.546875,-0.858546 2.589843,-0.858546 1.605469,0 2.261719,0.915029 2.261719,1.9543216 0,1.5363455 -1.605469,2.1915517 -2.882812,2.1915517 h -0.972657 v 1.3104125 h 0.972657 c 1.699218,0 3.328125,0.7794694 3.351562,2.5869348 0.01172,1.0731826 -0.679687,2.5078582 -2.929687,2.5078582 -1.21875,0 -2.367188,-0.497053 -2.871094,-0.8133594 z m 0,0"
       style="fill:#231f20;fill-opacity:1;fill-rule:nonzero;stroke:none"
       aria-label="63"
       transform="matrix(1.3333333,0,0,1.3831523,674.66933,1232.4063)" />
  </g>
</svg>
