<?xml version="1.0" encoding="UTF-8" standalone="no"?>
<!-- Created with Inkscape (http://www.inkscape.org/) -->

<svg
   version="1.1"
   id="svg1"
   width="793.70135"
   height="1248"
   viewBox="0 0 793.70135 1248"
   sodipodi:docname="upload_gc5cwzayz3dtvtsyi2xc4ot4dg.pdf"
   xmlns:inkscape="http://www.inkscape.org/namespaces/inkscape"
   xmlns:sodipodi="http://sodipodi.sourceforge.net/DTD/sodipodi-0.dtd"
   xmlns="http://www.w3.org/2000/svg"
   xmlns:svg="http://www.w3.org/2000/svg">
  <defs
     id="defs1" />
  <sodipodi:namedview
     id="namedview1"
     pagecolor="#ffffff"
     bordercolor="#000000"
     borderopacity="0.25"
     inkscape:showpageshadow="2"
     inkscape:pageopacity="0.0"
     inkscape:pagecheckerboard="0"
     inkscape:deskcolor="#d1d1d1">
    <inkscape:page
       x="0"
       y="0"
       inkscape:label="1"
       id="page1"
       width="793.70135"
       height="1248"
       margin="8.7091064 8.758667 10.584 56.082001"
       bleed="0" />
  </sodipodi:namedview>
  <g
     id="layer-MC0"
     inkscape:groupmode="layer"
     inkscape:label="Layer 1">
    <path
       id="path1"
       d="m 0,0 -34.827,-20.338 0.199,-40.33 35.027,-19.993 34.827,20.338 -0.199,40.331 z"
       style="fill:#4fc6f4;fill-opacity:1;fill-rule:nonzero;stroke:#231f20;stroke-width:1;stroke-linecap:butt;stroke-linejoin:miter;stroke-miterlimit:10;stroke-dasharray:none;stroke-opacity:1"
       transform="matrix(1.3333333,0,0,-1.3333333,151.74653,185.4172)" />
    <path
       id="path2"
       d="m 0,0 -34.827,-20.338 0.199,-40.33 35.027,-19.993 34.827,20.338 -0.199,40.331 z"
       style="fill:#4fc6f4;fill-opacity:1;fill-rule:nonzero;stroke:#231f20;stroke-width:1;stroke-linecap:butt;stroke-linejoin:miter;stroke-miterlimit:10;stroke-dasharray:none;stroke-opacity:1"
       transform="matrix(1.3333333,0,0,-1.3333333,248.86533,185.4172)" />
    <path
       id="path3"
       d="m 0,0 -34.827,-20.338 0.199,-40.33 35.027,-19.993 34.827,20.338 -0.199,40.331 z"
       style="fill:#4fc6f4;fill-opacity:1;fill-rule:nonzero;stroke:#231f20;stroke-width:1;stroke-linecap:butt;stroke-linejoin:miter;stroke-miterlimit:10;stroke-dasharray:none;stroke-opacity:1"
       transform="matrix(1.3333333,0,0,-1.3333333,345.98427,185.4172)" />
    <path
       id="path4"
       d="m 0,0 -34.827,-20.338 0.199,-40.33 35.027,-19.993 34.827,20.338 -0.199,40.331 z"
       style="fill:#4fc6f4;fill-opacity:1;fill-rule:nonzero;stroke:#231f20;stroke-width:1;stroke-linecap:butt;stroke-linejoin:miter;stroke-miterlimit:10;stroke-dasharray:none;stroke-opacity:1"
       transform="matrix(1.3333333,0,0,-1.3333333,443.10307,185.4172)" />
    <path
       id="path5"
       d="m 0,0 -34.827,-20.338 0.199,-40.33 35.027,-19.993 34.827,20.338 -0.199,40.331 z"
       style="fill:#4fc6f4;fill-opacity:1;fill-rule:nonzero;stroke:#231f20;stroke-width:1;stroke-linecap:butt;stroke-linejoin:miter;stroke-miterlimit:10;stroke-dasharray:none;stroke-opacity:1"
       transform="matrix(1.3333333,0,0,-1.3333333,540.22187,185.4172)" />
    <path
       id="path6"
       d="m 0,0 -34.827,-20.338 0.199,-40.33 35.027,-19.993 34.827,20.338 -0.199,40.331 z"
       style="fill:#4fc6f4;fill-opacity:1;fill-rule:nonzero;stroke:#231f20;stroke-width:1;stroke-linecap:butt;stroke-linejoin:miter;stroke-miterlimit:10;stroke-dasharray:none;stroke-opacity:1"
       transform="matrix(1.3333333,0,0,-1.3333333,637.3408,185.4172)" />
    <path
       id="path7"
       d="m 0,0 -34.827,-20.338 0.199,-40.33 35.027,-19.993 34.827,20.338 -0.199,40.331 z"
       style="fill:#4fc6f4;fill-opacity:1;fill-rule:nonzero;stroke:#231f20;stroke-width:1;stroke-linecap:butt;stroke-linejoin:miter;stroke-miterlimit:10;stroke-dasharray:none;stroke-opacity:1"
       transform="matrix(1.3333333,0,0,-1.3333333,200.306,272.35573)" />
    <path
       id="path8"
       d="m 0,0 -34.827,-20.338 0.199,-40.33 35.027,-19.993 34.827,20.338 -0.199,40.331 z"
       style="fill:#4fc6f4;fill-opacity:1;fill-rule:nonzero;stroke:#231f20;stroke-width:1;stroke-linecap:butt;stroke-linejoin:miter;stroke-miterlimit:10;stroke-dasharray:none;stroke-opacity:1"
       transform="matrix(1.3333333,0,0,-1.3333333,297.4248,272.35573)" />
    <path
       id="path9"
       d="m 0,0 -34.827,-20.338 0.199,-40.33 35.027,-19.993 34.827,20.338 -0.199,40.331 z"
       style="fill:#4fc6f4;fill-opacity:1;fill-rule:nonzero;stroke:#231f20;stroke-width:1;stroke-linecap:butt;stroke-linejoin:miter;stroke-miterlimit:10;stroke-dasharray:none;stroke-opacity:1"
       transform="matrix(1.3333333,0,0,-1.3333333,394.5436,272.35573)" />
    <path
       id="path10"
       d="m 0,0 -34.827,-20.338 0.199,-40.33 35.027,-19.993 34.827,20.338 -0.199,40.331 z"
       style="fill:#4fc6f4;fill-opacity:1;fill-rule:nonzero;stroke:#231f20;stroke-width:1;stroke-linecap:butt;stroke-linejoin:miter;stroke-miterlimit:10;stroke-dasharray:none;stroke-opacity:1"
       transform="matrix(1.3333333,0,0,-1.3333333,491.66253,272.35573)" />
    <path
       id="path11"
       d="m 0,0 -34.827,-20.338 0.199,-40.33 35.027,-19.993 34.827,20.338 -0.199,40.331 z"
       style="fill:#4fc6f4;fill-opacity:1;fill-rule:nonzero;stroke:#231f20;stroke-width:1;stroke-linecap:butt;stroke-linejoin:miter;stroke-miterlimit:10;stroke-dasharray:none;stroke-opacity:1"
       transform="matrix(1.3333333,0,0,-1.3333333,588.78133,272.35573)" />
    <path
       id="path12"
       d="m 0,0 -34.827,-20.338 0.199,-40.33 35.027,-19.993 34.827,20.338 -0.199,40.331 z"
       style="fill:#4fc6f4;fill-opacity:1;fill-rule:nonzero;stroke:#231f20;stroke-width:1;stroke-linecap:butt;stroke-linejoin:miter;stroke-miterlimit:10;stroke-dasharray:none;stroke-opacity:1"
       transform="matrix(1.3333333,0,0,-1.3333333,200.306,98.292133)" />
    <path
       id="path13"
       d="m 0,0 -34.827,-20.338 0.199,-40.33 35.027,-19.993 34.827,20.338 -0.199,40.331 z"
       style="fill:#4fc6f4;fill-opacity:1;fill-rule:nonzero;stroke:#231f20;stroke-width:1;stroke-linecap:butt;stroke-linejoin:miter;stroke-miterlimit:10;stroke-dasharray:none;stroke-opacity:1"
       transform="matrix(1.3333333,0,0,-1.3333333,297.4248,98.292133)" />
    <path
       id="path14"
       d="m 0,0 -34.827,-20.338 0.199,-40.33 35.027,-19.993 34.827,20.338 -0.199,40.331 z"
       style="fill:#4fc6f4;fill-opacity:1;fill-rule:nonzero;stroke:#231f20;stroke-width:1;stroke-linecap:butt;stroke-linejoin:miter;stroke-miterlimit:10;stroke-dasharray:none;stroke-opacity:1"
       transform="matrix(1.3333333,0,0,-1.3333333,394.5436,98.292133)" />
    <path
       id="path15"
       d="m 0,0 -34.827,-20.338 0.199,-40.33 35.027,-19.993 34.827,20.338 -0.199,40.331 z"
       style="fill:#4fc6f4;fill-opacity:1;fill-rule:nonzero;stroke:#231f20;stroke-width:1;stroke-linecap:butt;stroke-linejoin:miter;stroke-miterlimit:10;stroke-dasharray:none;stroke-opacity:1"
       transform="matrix(1.3333333,0,0,-1.3333333,491.66253,98.292133)" />
    <path
       id="path16"
       d="m 0,0 -34.827,-20.338 0.199,-40.33 35.027,-19.993 34.827,20.338 -0.199,40.331 z"
       style="fill:#4fc6f4;fill-opacity:1;fill-rule:nonzero;stroke:#231f20;stroke-width:1;stroke-linecap:butt;stroke-linejoin:miter;stroke-miterlimit:10;stroke-dasharray:none;stroke-opacity:1"
       transform="matrix(1.3333333,0,0,-1.3333333,588.78133,98.292133)" />
    <path
       id="path17"
       d="m 0,0 -34.827,-20.338 0.199,-40.33 35.027,-19.993 34.827,20.338 -0.199,40.331 z"
       style="fill:#4fc6f4;fill-opacity:1;fill-rule:nonzero;stroke:#231f20;stroke-width:1;stroke-linecap:butt;stroke-linejoin:miter;stroke-miterlimit:10;stroke-dasharray:none;stroke-opacity:1"
       transform="matrix(1.3333333,0,0,-1.3333333,151.74653,359.48093)" />
    <path
       id="path18"
       d="m 0,0 -34.827,-20.338 0.199,-40.33 35.027,-19.993 34.827,20.338 -0.199,40.331 z"
       style="fill:#4fc6f4;fill-opacity:1;fill-rule:nonzero;stroke:#231f20;stroke-width:1;stroke-linecap:butt;stroke-linejoin:miter;stroke-miterlimit:10;stroke-dasharray:none;stroke-opacity:1"
       transform="matrix(1.3333333,0,0,-1.3333333,248.86533,359.48093)" />
    <path
       id="path19"
       d="m 0,0 -34.827,-20.338 0.199,-40.33 35.027,-19.993 34.827,20.338 -0.199,40.331 z"
       style="fill:#4fc6f4;fill-opacity:1;fill-rule:nonzero;stroke:#231f20;stroke-width:1;stroke-linecap:butt;stroke-linejoin:miter;stroke-miterlimit:10;stroke-dasharray:none;stroke-opacity:1"
       transform="matrix(1.3333333,0,0,-1.3333333,540.22187,359.48093)" />
    <path
       id="path20"
       d="m 0,0 -34.827,-20.338 0.199,-40.33 35.027,-19.993 34.827,20.338 -0.199,40.331 z"
       style="fill:#4fc6f4;fill-opacity:1;fill-rule:nonzero;stroke:#231f20;stroke-width:1;stroke-linecap:butt;stroke-linejoin:miter;stroke-miterlimit:10;stroke-dasharray:none;stroke-opacity:1"
       transform="matrix(1.3333333,0,0,-1.3333333,637.3408,359.48093)" />
    <path
       id="path21"
       d="m 0,0 -34.827,-20.338 0.199,-40.33 35.027,-19.993 34.827,20.338 -0.199,40.331 z"
       style="fill:#4fc6f4;fill-opacity:1;fill-rule:nonzero;stroke:#231f20;stroke-width:1;stroke-linecap:butt;stroke-linejoin:miter;stroke-miterlimit:10;stroke-dasharray:none;stroke-opacity:1"
       transform="matrix(1.3333333,0,0,-1.3333333,200.306,446.41947)" />
    <path
       id="path22"
       d="m 0,0 -34.827,-20.338 0.199,-40.33 35.027,-19.993 34.827,20.338 -0.199,40.331 z"
       style="fill:#4fc6f4;fill-opacity:1;fill-rule:nonzero;stroke:#231f20;stroke-width:1;stroke-linecap:butt;stroke-linejoin:miter;stroke-miterlimit:10;stroke-dasharray:none;stroke-opacity:1"
       transform="matrix(1.3333333,0,0,-1.3333333,588.78133,446.41947)" />
    <path
       id="path23"
       d="m 0,0 -34.827,-20.338 0.199,-40.33 35.027,-19.993 34.827,20.338 -0.199,40.331 z"
       style="fill:#4fc6f4;fill-opacity:1;fill-rule:nonzero;stroke:#231f20;stroke-width:1;stroke-linecap:butt;stroke-linejoin:miter;stroke-miterlimit:10;stroke-dasharray:none;stroke-opacity:1"
       transform="matrix(1.3333333,0,0,-1.3333333,151.74653,533.54467)" />
    <path
       id="path24"
       d="m 0,0 -34.827,-20.338 0.199,-40.33 35.027,-19.993 34.827,20.338 -0.199,40.331 z"
       style="fill:#4fc6f4;fill-opacity:1;fill-rule:nonzero;stroke:#231f20;stroke-width:1;stroke-linecap:butt;stroke-linejoin:miter;stroke-miterlimit:10;stroke-dasharray:none;stroke-opacity:1"
       transform="matrix(1.3333333,0,0,-1.3333333,637.3408,533.54467)" />
    <path
       id="path25"
       d="m 0,0 -34.827,-20.338 0.199,-40.33 35.027,-19.993 34.827,20.338 -0.199,40.331 z"
       style="fill:#4fc6f4;fill-opacity:1;fill-rule:nonzero;stroke:#231f20;stroke-width:1;stroke-linecap:butt;stroke-linejoin:miter;stroke-miterlimit:10;stroke-dasharray:none;stroke-opacity:1"
       transform="matrix(1.3333333,0,0,-1.3333333,200.306,620.48333)" />
    <path
       id="path26"
       d="m 0,0 -34.827,-20.338 0.199,-40.33 35.027,-19.993 34.827,20.338 -0.199,40.331 z"
       style="fill:#4fc6f4;fill-opacity:1;fill-rule:nonzero;stroke:#231f20;stroke-width:1;stroke-linecap:butt;stroke-linejoin:miter;stroke-miterlimit:10;stroke-dasharray:none;stroke-opacity:1"
       transform="matrix(1.3333333,0,0,-1.3333333,588.78133,620.48333)" />
    <path
       id="path27"
       d="m 0,0 -34.827,-20.338 0.199,-40.33 35.027,-19.993 34.827,20.338 -0.199,40.331 z"
       style="fill:#4fc6f4;fill-opacity:1;fill-rule:nonzero;stroke:#231f20;stroke-width:1;stroke-linecap:butt;stroke-linejoin:miter;stroke-miterlimit:10;stroke-dasharray:none;stroke-opacity:1"
       transform="matrix(1.3333333,0,0,-1.3333333,151.74653,707.60853)" />
    <path
       id="path28"
       d="m 0,0 -34.827,-20.338 0.199,-40.33 35.027,-19.993 34.827,20.338 -0.199,40.331 z"
       style="fill:#4fc6f4;fill-opacity:1;fill-rule:nonzero;stroke:#231f20;stroke-width:1;stroke-linecap:butt;stroke-linejoin:miter;stroke-miterlimit:10;stroke-dasharray:none;stroke-opacity:1"
       transform="matrix(1.3333333,0,0,-1.3333333,248.86533,707.60853)" />
    <path
       id="path29"
       d="m 0,0 -34.827,-20.338 0.199,-40.33 35.027,-19.993 34.827,20.338 -0.199,40.331 z"
       style="fill:#4fc6f4;fill-opacity:1;fill-rule:nonzero;stroke:#231f20;stroke-width:1;stroke-linecap:butt;stroke-linejoin:miter;stroke-miterlimit:10;stroke-dasharray:none;stroke-opacity:1"
       transform="matrix(1.3333333,0,0,-1.3333333,540.22187,707.60853)" />
    <path
       id="path30"
       d="m 0,0 -34.827,-20.338 0.199,-40.33 35.027,-19.993 34.827,20.338 -0.199,40.331 z"
       style="fill:#4fc6f4;fill-opacity:1;fill-rule:nonzero;stroke:#231f20;stroke-width:1;stroke-linecap:butt;stroke-linejoin:miter;stroke-miterlimit:10;stroke-dasharray:none;stroke-opacity:1"
       transform="matrix(1.3333333,0,0,-1.3333333,637.3408,707.60853)" />
    <path
       id="path31"
       d="m 0,0 -34.827,-20.338 0.199,-40.33 35.027,-19.993 34.827,20.338 -0.199,40.331 z"
       style="fill:#4fc6f4;fill-opacity:1;fill-rule:nonzero;stroke:#231f20;stroke-width:1;stroke-linecap:butt;stroke-linejoin:miter;stroke-miterlimit:10;stroke-dasharray:none;stroke-opacity:1"
       transform="matrix(1.3333333,0,0,-1.3333333,200.306,794.54707)" />
    <path
       id="path32"
       d="m 0,0 -34.827,-20.338 0.199,-40.33 35.027,-19.993 34.827,20.338 -0.199,40.331 z"
       style="fill:#4fc6f4;fill-opacity:1;fill-rule:nonzero;stroke:#231f20;stroke-width:1;stroke-linecap:butt;stroke-linejoin:miter;stroke-miterlimit:10;stroke-dasharray:none;stroke-opacity:1"
       transform="matrix(1.3333333,0,0,-1.3333333,297.4248,794.54707)" />
    <path
       id="path33"
       d="m 0,0 -34.827,-20.338 0.199,-40.33 35.027,-19.993 34.827,20.338 -0.199,40.331 z"
       style="fill:#4fc6f4;fill-opacity:1;fill-rule:nonzero;stroke:#231f20;stroke-width:1;stroke-linecap:butt;stroke-linejoin:miter;stroke-miterlimit:10;stroke-dasharray:none;stroke-opacity:1"
       transform="matrix(1.3333333,0,0,-1.3333333,394.5436,794.54707)" />
    <path
       id="path34"
       d="m 0,0 -34.827,-20.338 0.199,-40.33 35.027,-19.993 34.827,20.338 -0.199,40.331 z"
       style="fill:#4fc6f4;fill-opacity:1;fill-rule:nonzero;stroke:#231f20;stroke-width:1;stroke-linecap:butt;stroke-linejoin:miter;stroke-miterlimit:10;stroke-dasharray:none;stroke-opacity:1"
       transform="matrix(1.3333333,0,0,-1.3333333,491.66253,794.54707)" />
    <path
       id="path35"
       d="m 0,0 -34.827,-20.338 0.199,-40.33 35.027,-19.993 34.827,20.338 -0.199,40.331 z"
       style="fill:#4fc6f4;fill-opacity:1;fill-rule:nonzero;stroke:#231f20;stroke-width:1;stroke-linecap:butt;stroke-linejoin:miter;stroke-miterlimit:10;stroke-dasharray:none;stroke-opacity:1"
       transform="matrix(1.3333333,0,0,-1.3333333,588.78133,794.54707)" />
    <path
       id="path36"
       d="m 0,0 -34.827,-20.338 0.199,-40.33 35.027,-19.993 34.827,20.338 -0.199,40.331 z"
       style="fill:#4fc6f4;fill-opacity:1;fill-rule:nonzero;stroke:#231f20;stroke-width:1;stroke-linecap:butt;stroke-linejoin:miter;stroke-miterlimit:10;stroke-dasharray:none;stroke-opacity:1"
       transform="matrix(1.3333333,0,0,-1.3333333,151.74653,881.67227)" />
    <path
       id="path37"
       d="m 0,0 -34.827,-20.338 0.199,-40.33 35.027,-19.993 34.827,20.338 -0.199,40.331 z"
       style="fill:#4fc6f4;fill-opacity:1;fill-rule:nonzero;stroke:#231f20;stroke-width:1;stroke-linecap:butt;stroke-linejoin:miter;stroke-miterlimit:10;stroke-dasharray:none;stroke-opacity:1"
       transform="matrix(1.3333333,0,0,-1.3333333,248.86533,881.67227)" />
    <path
       id="path38"
       d="m 0,0 -34.827,-20.338 0.199,-40.33 35.027,-19.993 34.827,20.338 -0.199,40.331 z"
       style="fill:#4fc6f4;fill-opacity:1;fill-rule:nonzero;stroke:#231f20;stroke-width:1;stroke-linecap:butt;stroke-linejoin:miter;stroke-miterlimit:10;stroke-dasharray:none;stroke-opacity:1"
       transform="matrix(1.3333333,0,0,-1.3333333,345.98427,881.67227)" />
    <path
       id="path39"
       d="m 0,0 -34.827,-20.338 0.199,-40.33 35.027,-19.993 34.827,20.338 -0.199,40.331 z"
       style="fill:#4fc6f4;fill-opacity:1;fill-rule:nonzero;stroke:#231f20;stroke-width:1;stroke-linecap:butt;stroke-linejoin:miter;stroke-miterlimit:10;stroke-dasharray:none;stroke-opacity:1"
       transform="matrix(1.3333333,0,0,-1.3333333,443.10307,881.67227)" />
    <path
       id="path40"
       d="m 0,0 -34.827,-20.338 0.199,-40.33 35.027,-19.993 34.827,20.338 -0.199,40.331 z"
       style="fill:#4fc6f4;fill-opacity:1;fill-rule:nonzero;stroke:#231f20;stroke-width:1;stroke-linecap:butt;stroke-linejoin:miter;stroke-miterlimit:10;stroke-dasharray:none;stroke-opacity:1"
       transform="matrix(1.3333333,0,0,-1.3333333,540.22187,881.67227)" />
    <path
       id="path41"
       d="m 0,0 -34.827,-20.338 0.199,-40.33 35.027,-19.993 34.827,20.338 -0.199,40.331 z"
       style="fill:#4fc6f4;fill-opacity:1;fill-rule:nonzero;stroke:#231f20;stroke-width:1;stroke-linecap:butt;stroke-linejoin:miter;stroke-miterlimit:10;stroke-dasharray:none;stroke-opacity:1"
       transform="matrix(1.3333333,0,0,-1.3333333,637.3408,881.67227)" />
    <path
       id="path42"
       d="m 0,0 -34.827,-20.338 0.199,-40.33 35.027,-19.993 34.827,20.338 -0.199,40.331 z"
       style="fill:#4fc6f4;fill-opacity:1;fill-rule:nonzero;stroke:#231f20;stroke-width:1;stroke-linecap:butt;stroke-linejoin:miter;stroke-miterlimit:10;stroke-dasharray:none;stroke-opacity:1"
       transform="matrix(1.3333333,0,0,-1.3333333,737.30627,881.67227)" />
    <path
       id="path43"
       d="m 0,0 -34.827,-20.338 0.199,-40.33 35.027,-19.993 34.827,20.338 -0.199,40.331 z"
       style="fill:#4fc6f4;fill-opacity:1;fill-rule:nonzero;stroke:#231f20;stroke-width:1;stroke-linecap:butt;stroke-linejoin:miter;stroke-miterlimit:10;stroke-dasharray:none;stroke-opacity:1"
       transform="matrix(1.3333333,0,0,-1.3333333,151.74653,11.353467)" />
    <path
       id="path44"
       d="m 0,0 -34.827,-20.338 0.199,-40.33 35.027,-19.993 34.827,20.338 -0.199,40.331 z"
       style="fill:#4fc6f4;fill-opacity:1;fill-rule:nonzero;stroke:#231f20;stroke-width:1;stroke-linecap:butt;stroke-linejoin:miter;stroke-miterlimit:10;stroke-dasharray:none;stroke-opacity:1"
       transform="matrix(1.3333333,0,0,-1.3333333,248.86533,11.353467)" />
    <path
       id="path45"
       d="m 0,0 -34.827,-20.338 0.199,-40.33 35.027,-19.993 34.827,20.338 -0.199,40.331 z"
       style="fill:#4fc6f4;fill-opacity:1;fill-rule:nonzero;stroke:#231f20;stroke-width:1;stroke-linecap:butt;stroke-linejoin:miter;stroke-miterlimit:10;stroke-dasharray:none;stroke-opacity:1"
       transform="matrix(1.3333333,0,0,-1.3333333,345.98427,11.353467)" />
    <path
       id="path46"
       d="m 0,0 -34.827,-20.338 0.199,-40.33 35.027,-19.993 34.827,20.338 -0.199,40.331 z"
       style="fill:#4fc6f4;fill-opacity:1;fill-rule:nonzero;stroke:#231f20;stroke-width:1;stroke-linecap:butt;stroke-linejoin:miter;stroke-miterlimit:10;stroke-dasharray:none;stroke-opacity:1"
       transform="matrix(1.3333333,0,0,-1.3333333,443.10307,11.353467)" />
    <path
       id="path47"
       d="m 0,0 -34.827,-20.338 0.199,-40.33 35.027,-19.993 34.827,20.338 -0.199,40.331 z"
       style="fill:#4fc6f4;fill-opacity:1;fill-rule:nonzero;stroke:#231f20;stroke-width:1;stroke-linecap:butt;stroke-linejoin:miter;stroke-miterlimit:10;stroke-dasharray:none;stroke-opacity:1"
       transform="matrix(1.3333333,0,0,-1.3333333,540.22187,11.353467)" />
    <path
       id="path48"
       d="m 0,0 -34.827,-20.338 0.199,-40.33 35.027,-19.993 34.827,20.338 -0.199,40.331 z"
       style="fill:#4fc6f4;fill-opacity:1;fill-rule:nonzero;stroke:#231f20;stroke-width:1;stroke-linecap:butt;stroke-linejoin:miter;stroke-miterlimit:10;stroke-dasharray:none;stroke-opacity:1"
       transform="matrix(1.3333333,0,0,-1.3333333,637.3408,11.353467)" />
    <path
       id="path49"
       d="m 0,0 -34.827,-20.338 0.199,-40.33 35.027,-19.993 34.827,20.338 -0.199,40.331 z"
       style="fill:#4fc6f4;fill-opacity:1;fill-rule:nonzero;stroke:#231f20;stroke-width:1;stroke-linecap:butt;stroke-linejoin:miter;stroke-miterlimit:10;stroke-dasharray:none;stroke-opacity:1"
       transform="matrix(1.3333333,0,0,-1.3333333,151.74653,1054.5353)" />
    <path
       id="path50"
       d="m 0,0 -34.827,-20.338 0.199,-40.33 35.027,-19.993 34.827,20.338 -0.199,40.331 z"
       style="fill:#4fc6f4;fill-opacity:1;fill-rule:nonzero;stroke:#231f20;stroke-width:1;stroke-linecap:butt;stroke-linejoin:miter;stroke-miterlimit:10;stroke-dasharray:none;stroke-opacity:1"
       transform="matrix(1.3333333,0,0,-1.3333333,248.86533,1054.5353)" />
    <path
       id="path51"
       d="m 0,0 -34.827,-20.338 0.199,-40.33 35.027,-19.993 34.827,20.338 -0.199,40.331 z"
       style="fill:#4fc6f4;fill-opacity:1;fill-rule:nonzero;stroke:#231f20;stroke-width:1;stroke-linecap:butt;stroke-linejoin:miter;stroke-miterlimit:10;stroke-dasharray:none;stroke-opacity:1"
       transform="matrix(1.3333333,0,0,-1.3333333,345.98427,1054.5353)" />
    <path
       id="path52"
       d="m 0,0 -34.827,-20.338 0.199,-40.33 35.027,-19.993 34.827,20.338 -0.199,40.331 z"
       style="fill:#4fc6f4;fill-opacity:1;fill-rule:nonzero;stroke:#231f20;stroke-width:1;stroke-linecap:butt;stroke-linejoin:miter;stroke-miterlimit:10;stroke-dasharray:none;stroke-opacity:1"
       transform="matrix(1.3333333,0,0,-1.3333333,443.10307,1054.5353)" />
    <path
       id="path53"
       d="m 0,0 -34.827,-20.338 0.199,-40.33 35.027,-19.993 34.827,20.338 -0.199,40.331 z"
       style="fill:#4fc6f4;fill-opacity:1;fill-rule:nonzero;stroke:#231f20;stroke-width:1;stroke-linecap:butt;stroke-linejoin:miter;stroke-miterlimit:10;stroke-dasharray:none;stroke-opacity:1"
       transform="matrix(1.3333333,0,0,-1.3333333,540.22187,1054.5353)" />
    <path
       id="path54"
       d="m 0,0 -34.827,-20.338 0.199,-40.33 35.027,-19.993 34.827,20.338 -0.199,40.331 z"
       style="fill:#4fc6f4;fill-opacity:1;fill-rule:nonzero;stroke:#231f20;stroke-width:1;stroke-linecap:butt;stroke-linejoin:miter;stroke-miterlimit:10;stroke-dasharray:none;stroke-opacity:1"
       transform="matrix(1.3333333,0,0,-1.3333333,637.3408,1054.5353)" />
    <path
       id="path55"
       d="m 0,0 -34.827,-20.338 0.199,-40.33 35.027,-19.993 34.827,20.338 -0.199,40.331 z"
       style="fill:#4fc6f4;fill-opacity:1;fill-rule:nonzero;stroke:#231f20;stroke-width:1;stroke-linecap:butt;stroke-linejoin:miter;stroke-miterlimit:10;stroke-dasharray:none;stroke-opacity:1"
       transform="matrix(1.3333333,0,0,-1.3333333,200.306,968.6108)" />
    <path
       id="path56"
       d="m 0,0 -34.827,-20.338 0.199,-40.33 35.027,-19.993 34.827,20.338 -0.199,40.331 z"
       style="fill:#4fc6f4;fill-opacity:1;fill-rule:nonzero;stroke:#231f20;stroke-width:1;stroke-linecap:butt;stroke-linejoin:miter;stroke-miterlimit:10;stroke-dasharray:none;stroke-opacity:1"
       transform="matrix(1.3333333,0,0,-1.3333333,297.4248,968.6108)" />
    <path
       id="path57"
       d="m 0,0 -34.827,-20.338 0.199,-40.33 35.027,-19.993 34.827,20.338 -0.199,40.331 z"
       style="fill:#4fc6f4;fill-opacity:1;fill-rule:nonzero;stroke:#231f20;stroke-width:1;stroke-linecap:butt;stroke-linejoin:miter;stroke-miterlimit:10;stroke-dasharray:none;stroke-opacity:1"
       transform="matrix(1.3333333,0,0,-1.3333333,394.5436,968.6108)" />
    <path
       id="path58"
       d="m 0,0 -34.827,-20.338 0.199,-40.33 35.027,-19.993 34.827,20.338 -0.199,40.331 z"
       style="fill:#4fc6f4;fill-opacity:1;fill-rule:nonzero;stroke:#231f20;stroke-width:1;stroke-linecap:butt;stroke-linejoin:miter;stroke-miterlimit:10;stroke-dasharray:none;stroke-opacity:1"
       transform="matrix(1.3333333,0,0,-1.3333333,491.66253,968.6108)" />
    <path
       id="path59"
       d="m 0,0 -34.827,-20.338 0.199,-40.33 35.027,-19.993 34.827,20.338 -0.199,40.331 z"
       style="fill:#4fc6f4;fill-opacity:1;fill-rule:nonzero;stroke:#231f20;stroke-width:1;stroke-linecap:butt;stroke-linejoin:miter;stroke-miterlimit:10;stroke-dasharray:none;stroke-opacity:1"
       transform="matrix(1.3333333,0,0,-1.3333333,588.78133,968.6108)" />
    <path
       id="path60"
       d="m 0,0 -34.827,-20.338 0.199,-40.33 35.027,-19.993 34.827,20.338 -0.199,40.331 z"
       style="fill:#4fc6f4;fill-opacity:1;fill-rule:nonzero;stroke:#231f20;stroke-width:1;stroke-linecap:butt;stroke-linejoin:miter;stroke-miterlimit:10;stroke-dasharray:none;stroke-opacity:1"
       transform="matrix(1.3333333,0,0,-1.3333333,685.90013,272.35573)" />
    <path
       id="path61"
       d="m 0,0 -34.827,-20.338 0.199,-40.33 35.027,-19.993 34.827,20.338 -0.199,40.331 z"
       style="fill:#4fc6f4;fill-opacity:1;fill-rule:nonzero;stroke:#231f20;stroke-width:1;stroke-linecap:butt;stroke-linejoin:miter;stroke-miterlimit:10;stroke-dasharray:none;stroke-opacity:1"
       transform="matrix(1.3333333,0,0,-1.3333333,685.90013,98.292133)" />
    <path
       id="path62"
       d="m 0,0 -34.827,-20.338 0.199,-40.33 35.027,-19.993 34.827,20.338 -0.199,40.331 z"
       style="fill:#4fc6f4;fill-opacity:1;fill-rule:nonzero;stroke:#231f20;stroke-width:1;stroke-linecap:butt;stroke-linejoin:miter;stroke-miterlimit:10;stroke-dasharray:none;stroke-opacity:1"
       transform="matrix(1.3333333,0,0,-1.3333333,685.90013,446.41947)" />
    <path
       id="path63"
       d="m 0,0 -34.827,-20.338 0.199,-40.33 35.027,-19.993 34.827,20.338 -0.199,40.331 z"
       style="fill:#4fc6f4;fill-opacity:1;fill-rule:nonzero;stroke:#231f20;stroke-width:1;stroke-linecap:butt;stroke-linejoin:miter;stroke-miterlimit:10;stroke-dasharray:none;stroke-opacity:1"
       transform="matrix(1.3333333,0,0,-1.3333333,685.90013,620.48333)" />
    <path
       id="path64"
       d="m 0,0 -34.827,-20.338 0.199,-40.33 35.027,-19.993 34.827,20.338 -0.199,40.331 z"
       style="fill:#4fc6f4;fill-opacity:1;fill-rule:nonzero;stroke:#231f20;stroke-width:1;stroke-linecap:butt;stroke-linejoin:miter;stroke-miterlimit:10;stroke-dasharray:none;stroke-opacity:1"
       transform="matrix(1.3333333,0,0,-1.3333333,685.90013,794.54707)" />
    <path
       id="path65"
       d="m 0,0 -34.827,-20.338 0.199,-40.33 35.027,-19.993 34.827,20.338 -0.199,40.331 z"
       style="fill:#4fc6f4;fill-opacity:1;fill-rule:nonzero;stroke:#231f20;stroke-width:1;stroke-linecap:butt;stroke-linejoin:miter;stroke-miterlimit:10;stroke-dasharray:none;stroke-opacity:1"
       transform="matrix(1.3333333,0,0,-1.3333333,103.1872,272.35573)" />
    <path
       id="path66"
       d="m 0,0 -34.827,-20.338 0.199,-40.33 35.027,-19.993 34.827,20.338 -0.199,40.331 z"
       style="fill:#4fc6f4;fill-opacity:1;fill-rule:nonzero;stroke:#231f20;stroke-width:1;stroke-linecap:butt;stroke-linejoin:miter;stroke-miterlimit:10;stroke-dasharray:none;stroke-opacity:1"
       transform="matrix(1.3333333,0,0,-1.3333333,103.1872,98.292133)" />
    <path
       id="path67"
       d="m 0,0 -34.827,-20.338 0.199,-40.33 35.027,-19.993 34.827,20.338 -0.199,40.331 z"
       style="fill:#4fc6f4;fill-opacity:1;fill-rule:nonzero;stroke:#231f20;stroke-width:1;stroke-linecap:butt;stroke-linejoin:miter;stroke-miterlimit:10;stroke-dasharray:none;stroke-opacity:1"
       transform="matrix(1.3333333,0,0,-1.3333333,103.1872,446.41947)" />
    <path
       id="path68"
       d="m 0,0 -34.827,-20.338 0.199,-40.33 35.027,-19.993 34.827,20.338 -0.199,40.331 z"
       style="fill:#4fc6f4;fill-opacity:1;fill-rule:nonzero;stroke:#231f20;stroke-width:1;stroke-linecap:butt;stroke-linejoin:miter;stroke-miterlimit:10;stroke-dasharray:none;stroke-opacity:1"
       transform="matrix(1.3333333,0,0,-1.3333333,103.1872,620.48333)" />
    <path
       id="path69"
       d="m 0,0 -34.827,-20.338 0.199,-40.33 35.027,-19.993 34.827,20.338 -0.199,40.331 z"
       style="fill:#4fc6f4;fill-opacity:1;fill-rule:nonzero;stroke:#231f20;stroke-width:1;stroke-linecap:butt;stroke-linejoin:miter;stroke-miterlimit:10;stroke-dasharray:none;stroke-opacity:1"
       transform="matrix(1.3333333,0,0,-1.3333333,103.1872,794.54707)" />
    <path
       id="path70"
       d="m 0,0 -34.827,-20.338 0.199,-40.33 35.027,-19.993 34.827,20.338 -0.199,40.331 z"
       style="fill:#4fc6f4;fill-opacity:1;fill-rule:nonzero;stroke:#231f20;stroke-width:1;stroke-linecap:butt;stroke-linejoin:miter;stroke-miterlimit:10;stroke-dasharray:none;stroke-opacity:1"
       transform="matrix(1.3333333,0,0,-1.3333333,103.1872,968.6108)" />
    <path
       id="path71"
       d="m 0,0 -34.827,-20.338 0.199,-40.33 35.027,-19.993 34.827,20.338 -0.199,40.331 z"
       style="fill:#4fc6f4;fill-opacity:1;fill-rule:nonzero;stroke:#231f20;stroke-width:1;stroke-linecap:butt;stroke-linejoin:miter;stroke-miterlimit:10;stroke-dasharray:none;stroke-opacity:1"
       transform="matrix(1.3333333,0,0,-1.3333333,688.10973,968.6108)" />
    <path
       id="path72"
       d="M 0,0 32.586,20.246 69.696,-0.971 105.744,20.246 138.007,2.05 v -44.563 l 36.794,-20.718 v -41.326 l 35.068,-24.062 1.511,-40.571 -34.852,-21.773 -1.187,-42.753 -35.932,-23.306 -0.323,-43.593 -32.911,-21.796 -36.479,24.062 L 33.45,-320.684 0,-302.665 v 43.808 l -35.931,21.257 v 43.161 l -36.363,22.228 v 42.297 l 36.363,22.228 0.431,42.405 37.442,22.876 z"
       style="fill:#4fc6f4;fill-opacity:1;fill-rule:nonzero;stroke:#231f20;stroke-width:1;stroke-linecap:butt;stroke-linejoin:miter;stroke-miterlimit:10;stroke-dasharray:none;stroke-opacity:1"
       transform="matrix(1.3333333,0,0,-1.3333333,301.882,386.47573)" />
    <path
       id="path73"
       d="m 1.136725,-12.934686 v 1.445972 H 7.46485 v 0.04519 L 1.8515688,-1.2049769e-5 H 3.667975 L 9.292975,-11.782427 v -1.152259 z M 14.912116,-1.2049769e-5 h 1.6875 V -12.934686 h -1.488282 l -2.824218,1.513752 0.339843,1.333006 2.25,-1.220039 h 0.03516 z m 0,0"
       style="fill:#231f20;fill-opacity:1;fill-rule:nonzero;stroke:none"
       aria-label="71"
       transform="matrix(1.3333333,0,0,1.3831523,674.67187,1232.4063)" />
  </g>
</svg>
