<?xml version="1.0" encoding="UTF-8" standalone="no"?>
<!-- Created with Inkscape (http://www.inkscape.org/) -->

<svg
   version="1.1"
   id="svg1"
   width="793.70135"
   height="1248"
   viewBox="0 0 793.70135 1248"
   sodipodi:docname="upload_idjjnckgq5kdajyzaurvmhntb2.pdf"
   xmlns:inkscape="http://www.inkscape.org/namespaces/inkscape"
   xmlns:sodipodi="http://sodipodi.sourceforge.net/DTD/sodipodi-0.dtd"
   xmlns="http://www.w3.org/2000/svg"
   xmlns:svg="http://www.w3.org/2000/svg">
  <defs
     id="defs1" />
  <sodipodi:namedview
     id="namedview1"
     pagecolor="#ffffff"
     bordercolor="#000000"
     borderopacity="0.25"
     inkscape:showpageshadow="2"
     inkscape:pageopacity="0.0"
     inkscape:pagecheckerboard="0"
     inkscape:deskcolor="#d1d1d1">
    <inkscape:page
       x="0"
       y="0"
       inkscape:label="1"
       id="page1"
       width="793.70135"
       height="1248"
       margin="8.7091064 11.604 10.584 7.5227599"
       bleed="0" />
  </sodipodi:namedview>
  <g
     id="layer-MC0"
     inkscape:groupmode="layer"
     inkscape:label="Layer 1">
    <path
       id="path1"
       d="m 0,0 -34.827,-20.338 0.199,-40.33 35.027,-19.993 34.827,20.338 -0.199,40.331 z"
       style="fill:#4fc6f4;fill-opacity:1;fill-rule:nonzero;stroke:#231f20;stroke-width:1;stroke-linecap:butt;stroke-linejoin:miter;stroke-miterlimit:10;stroke-dasharray:none;stroke-opacity:1"
       transform="matrix(1.3333333,0,0,-1.3333333,151.74667,185.4172)" />
    <path
       id="path2"
       d="m 0,0 -34.827,-20.338 0.199,-40.33 35.027,-19.993 34.827,20.338 -0.199,40.331 z"
       style="fill:#4fc6f4;fill-opacity:1;fill-rule:nonzero;stroke:#231f20;stroke-width:1;stroke-linecap:butt;stroke-linejoin:miter;stroke-miterlimit:10;stroke-dasharray:none;stroke-opacity:1"
       transform="matrix(1.3333333,0,0,-1.3333333,248.8656,185.4172)" />
    <path
       id="path3"
       d="m 0,0 -34.827,-20.338 0.199,-40.33 35.027,-19.993 34.827,20.338 -0.199,40.331 z"
       style="fill:#4fc6f4;fill-opacity:1;fill-rule:nonzero;stroke:#231f20;stroke-width:1;stroke-linecap:butt;stroke-linejoin:miter;stroke-miterlimit:10;stroke-dasharray:none;stroke-opacity:1"
       transform="matrix(1.3333333,0,0,-1.3333333,345.9844,185.4172)" />
    <path
       id="path4"
       d="m 0,0 -34.827,-20.338 0.199,-40.33 35.027,-19.993 34.827,20.338 -0.199,40.331 z"
       style="fill:#4fc6f4;fill-opacity:1;fill-rule:nonzero;stroke:#231f20;stroke-width:1;stroke-linecap:butt;stroke-linejoin:miter;stroke-miterlimit:10;stroke-dasharray:none;stroke-opacity:1"
       transform="matrix(1.3333333,0,0,-1.3333333,443.1032,185.4172)" />
    <path
       id="path5"
       d="m 0,0 -34.827,-20.338 0.199,-40.33 35.027,-19.993 34.827,20.338 -0.199,40.331 z"
       style="fill:#4fc6f4;fill-opacity:1;fill-rule:nonzero;stroke:#231f20;stroke-width:1;stroke-linecap:butt;stroke-linejoin:miter;stroke-miterlimit:10;stroke-dasharray:none;stroke-opacity:1"
       transform="matrix(1.3333333,0,0,-1.3333333,540.22213,185.4172)" />
    <path
       id="path6"
       d="m 0,0 -34.827,-20.338 0.199,-40.33 35.027,-19.993 34.827,20.338 -0.199,40.331 z"
       style="fill:#4fc6f4;fill-opacity:1;fill-rule:nonzero;stroke:#231f20;stroke-width:1;stroke-linecap:butt;stroke-linejoin:miter;stroke-miterlimit:10;stroke-dasharray:none;stroke-opacity:1"
       transform="matrix(1.3333333,0,0,-1.3333333,637.34093,185.4172)" />
    <path
       id="path7"
       d="m 0,0 -34.827,-20.338 0.199,-40.33 35.027,-19.993 34.827,20.338 -0.199,40.331 z"
       style="fill:#4fc6f4;fill-opacity:1;fill-rule:nonzero;stroke:#231f20;stroke-width:1;stroke-linecap:butt;stroke-linejoin:miter;stroke-miterlimit:10;stroke-dasharray:none;stroke-opacity:1"
       transform="matrix(1.3333333,0,0,-1.3333333,200.30613,272.35573)" />
    <path
       id="path8"
       d="m 0,0 -34.827,-20.338 0.199,-40.33 35.027,-19.993 34.827,20.338 -0.199,40.331 z"
       style="fill:#4fc6f4;fill-opacity:1;fill-rule:nonzero;stroke:#231f20;stroke-width:1;stroke-linecap:butt;stroke-linejoin:miter;stroke-miterlimit:10;stroke-dasharray:none;stroke-opacity:1"
       transform="matrix(1.3333333,0,0,-1.3333333,297.42493,272.35573)" />
    <path
       id="path9"
       d="m 0,0 -34.827,-20.338 0.199,-40.33 35.027,-19.993 34.827,20.338 -0.199,40.331 z"
       style="fill:#4fc6f4;fill-opacity:1;fill-rule:nonzero;stroke:#231f20;stroke-width:1;stroke-linecap:butt;stroke-linejoin:miter;stroke-miterlimit:10;stroke-dasharray:none;stroke-opacity:1"
       transform="matrix(1.3333333,0,0,-1.3333333,394.54387,272.35573)" />
    <path
       id="path10"
       d="m 0,0 -34.827,-20.338 0.199,-40.33 35.027,-19.993 34.827,20.338 -0.199,40.331 z"
       style="fill:#4fc6f4;fill-opacity:1;fill-rule:nonzero;stroke:#231f20;stroke-width:1;stroke-linecap:butt;stroke-linejoin:miter;stroke-miterlimit:10;stroke-dasharray:none;stroke-opacity:1"
       transform="matrix(1.3333333,0,0,-1.3333333,491.66267,272.35573)" />
    <path
       id="path11"
       d="m 0,0 -34.827,-20.338 0.199,-40.33 35.027,-19.993 34.827,20.338 -0.199,40.331 z"
       style="fill:#4fc6f4;fill-opacity:1;fill-rule:nonzero;stroke:#231f20;stroke-width:1;stroke-linecap:butt;stroke-linejoin:miter;stroke-miterlimit:10;stroke-dasharray:none;stroke-opacity:1"
       transform="matrix(1.3333333,0,0,-1.3333333,588.78147,272.35573)" />
    <path
       id="path12"
       d="m 0,0 -34.827,-20.338 0.199,-40.33 35.027,-19.993 34.827,20.338 -0.199,40.331 z"
       style="fill:#4fc6f4;fill-opacity:1;fill-rule:nonzero;stroke:#231f20;stroke-width:1;stroke-linecap:butt;stroke-linejoin:miter;stroke-miterlimit:10;stroke-dasharray:none;stroke-opacity:1"
       transform="matrix(1.3333333,0,0,-1.3333333,200.30613,98.292133)" />
    <path
       id="path13"
       d="m 0,0 -34.827,-20.338 0.199,-40.33 35.027,-19.993 34.827,20.338 -0.199,40.331 z"
       style="fill:#4fc6f4;fill-opacity:1;fill-rule:nonzero;stroke:#231f20;stroke-width:1;stroke-linecap:butt;stroke-linejoin:miter;stroke-miterlimit:10;stroke-dasharray:none;stroke-opacity:1"
       transform="matrix(1.3333333,0,0,-1.3333333,297.42493,98.292133)" />
    <path
       id="path14"
       d="m 0,0 -34.827,-20.338 0.199,-40.33 35.027,-19.993 34.827,20.338 -0.199,40.331 z"
       style="fill:#4fc6f4;fill-opacity:1;fill-rule:nonzero;stroke:#231f20;stroke-width:1;stroke-linecap:butt;stroke-linejoin:miter;stroke-miterlimit:10;stroke-dasharray:none;stroke-opacity:1"
       transform="matrix(1.3333333,0,0,-1.3333333,394.54387,98.292133)" />
    <path
       id="path15"
       d="m 0,0 -34.827,-20.338 0.199,-40.33 35.027,-19.993 34.827,20.338 -0.199,40.331 z"
       style="fill:#4fc6f4;fill-opacity:1;fill-rule:nonzero;stroke:#231f20;stroke-width:1;stroke-linecap:butt;stroke-linejoin:miter;stroke-miterlimit:10;stroke-dasharray:none;stroke-opacity:1"
       transform="matrix(1.3333333,0,0,-1.3333333,491.66267,98.292133)" />
    <path
       id="path16"
       d="m 0,0 -34.827,-20.338 0.199,-40.33 35.027,-19.993 34.827,20.338 -0.199,40.331 z"
       style="fill:#4fc6f4;fill-opacity:1;fill-rule:nonzero;stroke:#231f20;stroke-width:1;stroke-linecap:butt;stroke-linejoin:miter;stroke-miterlimit:10;stroke-dasharray:none;stroke-opacity:1"
       transform="matrix(1.3333333,0,0,-1.3333333,588.78147,98.292133)" />
    <path
       id="path17"
       d="m 0,0 -34.827,-20.338 0.199,-40.33 35.027,-19.993 34.827,20.338 -0.199,40.331 z"
       style="fill:#4fc6f4;fill-opacity:1;fill-rule:nonzero;stroke:#231f20;stroke-width:1;stroke-linecap:butt;stroke-linejoin:miter;stroke-miterlimit:10;stroke-dasharray:none;stroke-opacity:1"
       transform="matrix(1.3333333,0,0,-1.3333333,151.74667,359.48093)" />
    <path
       id="path18"
       d="m 0,0 -34.827,-20.338 0.199,-40.33 35.027,-19.993 34.827,20.338 -0.199,40.331 z"
       style="fill:#4fc6f4;fill-opacity:1;fill-rule:nonzero;stroke:#231f20;stroke-width:1;stroke-linecap:butt;stroke-linejoin:miter;stroke-miterlimit:10;stroke-dasharray:none;stroke-opacity:1"
       transform="matrix(1.3333333,0,0,-1.3333333,248.8656,359.48093)" />
    <path
       id="path19"
       d="m 0,0 -34.827,-20.338 0.199,-40.33 35.027,-19.993 34.827,20.338 -0.199,40.331 z"
       style="fill:#4fc6f4;fill-opacity:1;fill-rule:nonzero;stroke:#231f20;stroke-width:1;stroke-linecap:butt;stroke-linejoin:miter;stroke-miterlimit:10;stroke-dasharray:none;stroke-opacity:1"
       transform="matrix(1.3333333,0,0,-1.3333333,540.22213,359.48093)" />
    <path
       id="path20"
       d="m 0,0 -34.827,-20.338 0.199,-40.33 35.027,-19.993 34.827,20.338 -0.199,40.331 z"
       style="fill:#4fc6f4;fill-opacity:1;fill-rule:nonzero;stroke:#231f20;stroke-width:1;stroke-linecap:butt;stroke-linejoin:miter;stroke-miterlimit:10;stroke-dasharray:none;stroke-opacity:1"
       transform="matrix(1.3333333,0,0,-1.3333333,637.34093,359.48093)" />
    <path
       id="path21"
       d="m 0,0 -34.827,-20.338 0.199,-40.33 35.027,-19.993 34.827,20.338 -0.199,40.331 z"
       style="fill:#4fc6f4;fill-opacity:1;fill-rule:nonzero;stroke:#231f20;stroke-width:1;stroke-linecap:butt;stroke-linejoin:miter;stroke-miterlimit:10;stroke-dasharray:none;stroke-opacity:1"
       transform="matrix(1.3333333,0,0,-1.3333333,200.30613,446.41947)" />
    <path
       id="path22"
       d="m 0,0 -34.827,-20.338 0.199,-40.33 35.027,-19.993 34.827,20.338 -0.199,40.331 z"
       style="fill:#4fc6f4;fill-opacity:1;fill-rule:nonzero;stroke:#231f20;stroke-width:1;stroke-linecap:butt;stroke-linejoin:miter;stroke-miterlimit:10;stroke-dasharray:none;stroke-opacity:1"
       transform="matrix(1.3333333,0,0,-1.3333333,588.78147,446.41947)" />
    <path
       id="path23"
       d="m 0,0 -34.827,-20.338 0.199,-40.33 35.027,-19.993 34.827,20.338 -0.199,40.331 z"
       style="fill:#4fc6f4;fill-opacity:1;fill-rule:nonzero;stroke:#231f20;stroke-width:1;stroke-linecap:butt;stroke-linejoin:miter;stroke-miterlimit:10;stroke-dasharray:none;stroke-opacity:1"
       transform="matrix(1.3333333,0,0,-1.3333333,151.74667,533.54467)" />
    <path
       id="path24"
       d="m 0,0 -34.827,-20.338 0.199,-40.33 35.027,-19.993 34.827,20.338 -0.199,40.331 z"
       style="fill:#4fc6f4;fill-opacity:1;fill-rule:nonzero;stroke:#231f20;stroke-width:1;stroke-linecap:butt;stroke-linejoin:miter;stroke-miterlimit:10;stroke-dasharray:none;stroke-opacity:1"
       transform="matrix(1.3333333,0,0,-1.3333333,637.34093,533.54467)" />
    <path
       id="path25"
       d="m 0,0 -34.827,-20.338 0.199,-40.33 35.027,-19.993 34.827,20.338 -0.199,40.331 z"
       style="fill:#4fc6f4;fill-opacity:1;fill-rule:nonzero;stroke:#231f20;stroke-width:1;stroke-linecap:butt;stroke-linejoin:miter;stroke-miterlimit:10;stroke-dasharray:none;stroke-opacity:1"
       transform="matrix(1.3333333,0,0,-1.3333333,200.30613,620.48333)" />
    <path
       id="path26"
       d="m 0,0 -34.827,-20.338 0.199,-40.33 35.027,-19.993 34.827,20.338 -0.199,40.331 z"
       style="fill:#4fc6f4;fill-opacity:1;fill-rule:nonzero;stroke:#231f20;stroke-width:1;stroke-linecap:butt;stroke-linejoin:miter;stroke-miterlimit:10;stroke-dasharray:none;stroke-opacity:1"
       transform="matrix(1.3333333,0,0,-1.3333333,588.78147,620.48333)" />
    <path
       id="path27"
       d="m 0,0 -34.827,-20.338 0.199,-40.33 35.027,-19.993 34.827,20.338 -0.199,40.331 z"
       style="fill:#4fc6f4;fill-opacity:1;fill-rule:nonzero;stroke:#231f20;stroke-width:1;stroke-linecap:butt;stroke-linejoin:miter;stroke-miterlimit:10;stroke-dasharray:none;stroke-opacity:1"
       transform="matrix(1.3333333,0,0,-1.3333333,151.74667,707.60853)" />
    <path
       id="path28"
       d="m 0,0 -34.827,-20.338 0.199,-40.33 35.027,-19.993 34.827,20.338 -0.199,40.331 z"
       style="fill:#4fc6f4;fill-opacity:1;fill-rule:nonzero;stroke:#231f20;stroke-width:1;stroke-linecap:butt;stroke-linejoin:miter;stroke-miterlimit:10;stroke-dasharray:none;stroke-opacity:1"
       transform="matrix(1.3333333,0,0,-1.3333333,248.8656,707.60853)" />
    <path
       id="path29"
       d="m 0,0 -34.827,-20.338 0.199,-40.33 35.027,-19.993 34.827,20.338 -0.199,40.331 z"
       style="fill:#4fc6f4;fill-opacity:1;fill-rule:nonzero;stroke:#231f20;stroke-width:1;stroke-linecap:butt;stroke-linejoin:miter;stroke-miterlimit:10;stroke-dasharray:none;stroke-opacity:1"
       transform="matrix(1.3333333,0,0,-1.3333333,540.22213,707.60853)" />
    <path
       id="path30"
       d="m 0,0 -34.827,-20.338 0.199,-40.33 35.027,-19.993 34.827,20.338 -0.199,40.331 z"
       style="fill:#4fc6f4;fill-opacity:1;fill-rule:nonzero;stroke:#231f20;stroke-width:1;stroke-linecap:butt;stroke-linejoin:miter;stroke-miterlimit:10;stroke-dasharray:none;stroke-opacity:1"
       transform="matrix(1.3333333,0,0,-1.3333333,637.34093,707.60853)" />
    <path
       id="path31"
       d="m 0,0 -34.827,-20.338 0.199,-40.33 35.027,-19.993 34.827,20.338 -0.199,40.331 z"
       style="fill:#4fc6f4;fill-opacity:1;fill-rule:nonzero;stroke:#231f20;stroke-width:1;stroke-linecap:butt;stroke-linejoin:miter;stroke-miterlimit:10;stroke-dasharray:none;stroke-opacity:1"
       transform="matrix(1.3333333,0,0,-1.3333333,200.30613,794.54707)" />
    <path
       id="path32"
       d="m 0,0 -34.827,-20.338 0.199,-40.33 35.027,-19.993 34.827,20.338 -0.199,40.331 z"
       style="fill:#4fc6f4;fill-opacity:1;fill-rule:nonzero;stroke:#231f20;stroke-width:1;stroke-linecap:butt;stroke-linejoin:miter;stroke-miterlimit:10;stroke-dasharray:none;stroke-opacity:1"
       transform="matrix(1.3333333,0,0,-1.3333333,297.42493,794.54707)" />
    <path
       id="path33"
       d="m 0,0 -34.827,-20.338 0.199,-40.33 35.027,-19.993 34.827,20.338 -0.199,40.331 z"
       style="fill:#4fc6f4;fill-opacity:1;fill-rule:nonzero;stroke:#231f20;stroke-width:1;stroke-linecap:butt;stroke-linejoin:miter;stroke-miterlimit:10;stroke-dasharray:none;stroke-opacity:1"
       transform="matrix(1.3333333,0,0,-1.3333333,394.54387,794.54707)" />
    <path
       id="path34"
       d="m 0,0 -34.827,-20.338 0.199,-40.33 35.027,-19.993 34.827,20.338 -0.199,40.331 z"
       style="fill:#4fc6f4;fill-opacity:1;fill-rule:nonzero;stroke:#231f20;stroke-width:1;stroke-linecap:butt;stroke-linejoin:miter;stroke-miterlimit:10;stroke-dasharray:none;stroke-opacity:1"
       transform="matrix(1.3333333,0,0,-1.3333333,491.66267,794.54707)" />
    <path
       id="path35"
       d="m 0,0 -34.827,-20.338 0.199,-40.33 35.027,-19.993 34.827,20.338 -0.199,40.331 z"
       style="fill:#4fc6f4;fill-opacity:1;fill-rule:nonzero;stroke:#231f20;stroke-width:1;stroke-linecap:butt;stroke-linejoin:miter;stroke-miterlimit:10;stroke-dasharray:none;stroke-opacity:1"
       transform="matrix(1.3333333,0,0,-1.3333333,588.78147,794.54707)" />
    <path
       id="path36"
       d="m 0,0 -34.827,-20.338 0.199,-40.33 35.027,-19.993 34.827,20.338 -0.199,40.331 z"
       style="fill:#4fc6f4;fill-opacity:1;fill-rule:nonzero;stroke:#231f20;stroke-width:1;stroke-linecap:butt;stroke-linejoin:miter;stroke-miterlimit:10;stroke-dasharray:none;stroke-opacity:1"
       transform="matrix(1.3333333,0,0,-1.3333333,151.74667,881.67227)" />
    <path
       id="path37"
       d="m 0,0 -34.827,-20.338 0.199,-40.33 35.027,-19.993 34.827,20.338 -0.199,40.331 z"
       style="fill:#4fc6f4;fill-opacity:1;fill-rule:nonzero;stroke:#231f20;stroke-width:1;stroke-linecap:butt;stroke-linejoin:miter;stroke-miterlimit:10;stroke-dasharray:none;stroke-opacity:1"
       transform="matrix(1.3333333,0,0,-1.3333333,248.8656,881.67227)" />
    <path
       id="path38"
       d="m 0,0 -34.827,-20.338 0.199,-40.33 35.027,-19.993 34.827,20.338 -0.199,40.331 z"
       style="fill:#4fc6f4;fill-opacity:1;fill-rule:nonzero;stroke:#231f20;stroke-width:1;stroke-linecap:butt;stroke-linejoin:miter;stroke-miterlimit:10;stroke-dasharray:none;stroke-opacity:1"
       transform="matrix(1.3333333,0,0,-1.3333333,345.9844,881.67227)" />
    <path
       id="path39"
       d="m 0,0 -34.827,-20.338 0.199,-40.33 35.027,-19.993 34.827,20.338 -0.199,40.331 z"
       style="fill:#4fc6f4;fill-opacity:1;fill-rule:nonzero;stroke:#231f20;stroke-width:1;stroke-linecap:butt;stroke-linejoin:miter;stroke-miterlimit:10;stroke-dasharray:none;stroke-opacity:1"
       transform="matrix(1.3333333,0,0,-1.3333333,443.1032,881.67227)" />
    <path
       id="path40"
       d="m 0,0 -34.827,-20.338 0.199,-40.33 35.027,-19.993 34.827,20.338 -0.199,40.331 z"
       style="fill:#4fc6f4;fill-opacity:1;fill-rule:nonzero;stroke:#231f20;stroke-width:1;stroke-linecap:butt;stroke-linejoin:miter;stroke-miterlimit:10;stroke-dasharray:none;stroke-opacity:1"
       transform="matrix(1.3333333,0,0,-1.3333333,540.22213,881.67227)" />
    <path
       id="path41"
       d="m 0,0 -34.827,-20.338 0.199,-40.33 35.027,-19.993 34.827,20.338 -0.199,40.331 z"
       style="fill:#4fc6f4;fill-opacity:1;fill-rule:nonzero;stroke:#231f20;stroke-width:1;stroke-linecap:butt;stroke-linejoin:miter;stroke-miterlimit:10;stroke-dasharray:none;stroke-opacity:1"
       transform="matrix(1.3333333,0,0,-1.3333333,637.34093,881.67227)" />
    <path
       id="path42"
       d="m 0,0 -34.827,-20.338 0.199,-40.33 35.027,-19.993 34.827,20.338 -0.199,40.331 z"
       style="fill:#4fc6f4;fill-opacity:1;fill-rule:nonzero;stroke:#231f20;stroke-width:1;stroke-linecap:butt;stroke-linejoin:miter;stroke-miterlimit:10;stroke-dasharray:none;stroke-opacity:1"
       transform="matrix(1.3333333,0,0,-1.3333333,734.45973,185.4172)" />
    <path
       id="path43"
       d="m 0,0 -34.827,-20.338 0.199,-40.33 35.027,-19.993 34.827,20.338 -0.199,40.331 z"
       style="fill:#4fc6f4;fill-opacity:1;fill-rule:nonzero;stroke:#231f20;stroke-width:1;stroke-linecap:butt;stroke-linejoin:miter;stroke-miterlimit:10;stroke-dasharray:none;stroke-opacity:1"
       transform="matrix(1.3333333,0,0,-1.3333333,734.45973,359.48093)" />
    <path
       id="path44"
       d="m 0,0 -34.827,-20.338 0.199,-40.33 35.027,-19.993 34.827,20.338 -0.199,40.331 z"
       style="fill:#4fc6f4;fill-opacity:1;fill-rule:nonzero;stroke:#231f20;stroke-width:1;stroke-linecap:butt;stroke-linejoin:miter;stroke-miterlimit:10;stroke-dasharray:none;stroke-opacity:1"
       transform="matrix(1.3333333,0,0,-1.3333333,734.45973,533.54467)" />
    <path
       id="path45"
       d="m 0,0 -34.827,-20.338 0.199,-40.33 35.027,-19.993 34.827,20.338 -0.199,40.331 z"
       style="fill:#4fc6f4;fill-opacity:1;fill-rule:nonzero;stroke:#231f20;stroke-width:1;stroke-linecap:butt;stroke-linejoin:miter;stroke-miterlimit:10;stroke-dasharray:none;stroke-opacity:1"
       transform="matrix(1.3333333,0,0,-1.3333333,734.45973,707.60853)" />
    <path
       id="path46"
       d="m 0,0 -34.827,-20.338 0.199,-40.33 35.027,-19.993 34.827,20.338 -0.199,40.331 z"
       style="fill:#4fc6f4;fill-opacity:1;fill-rule:nonzero;stroke:#231f20;stroke-width:1;stroke-linecap:butt;stroke-linejoin:miter;stroke-miterlimit:10;stroke-dasharray:none;stroke-opacity:1"
       transform="matrix(1.3333333,0,0,-1.3333333,734.45973,881.67227)" />
    <path
       id="path47"
       d="m 0,0 -34.827,-20.338 0.199,-40.33 35.027,-19.993 34.827,20.338 -0.199,40.331 z"
       style="fill:#4fc6f4;fill-opacity:1;fill-rule:nonzero;stroke:#231f20;stroke-width:1;stroke-linecap:butt;stroke-linejoin:miter;stroke-miterlimit:10;stroke-dasharray:none;stroke-opacity:1"
       transform="matrix(1.3333333,0,0,-1.3333333,54.627867,185.4172)" />
    <path
       id="path48"
       d="m 0,0 -34.827,-20.338 0.199,-40.33 35.027,-19.993 34.827,20.338 -0.199,40.331 z"
       style="fill:#4fc6f4;fill-opacity:1;fill-rule:nonzero;stroke:#231f20;stroke-width:1;stroke-linecap:butt;stroke-linejoin:miter;stroke-miterlimit:10;stroke-dasharray:none;stroke-opacity:1"
       transform="matrix(1.3333333,0,0,-1.3333333,151.74667,11.353467)" />
    <path
       id="path49"
       d="m 0,0 -34.827,-20.338 0.199,-40.33 35.027,-19.993 34.827,20.338 -0.199,40.331 z"
       style="fill:#4fc6f4;fill-opacity:1;fill-rule:nonzero;stroke:#231f20;stroke-width:1;stroke-linecap:butt;stroke-linejoin:miter;stroke-miterlimit:10;stroke-dasharray:none;stroke-opacity:1"
       transform="matrix(1.3333333,0,0,-1.3333333,248.8656,11.353467)" />
    <path
       id="path50"
       d="m 0,0 -34.827,-20.338 0.199,-40.33 35.027,-19.993 34.827,20.338 -0.199,40.331 z"
       style="fill:#4fc6f4;fill-opacity:1;fill-rule:nonzero;stroke:#231f20;stroke-width:1;stroke-linecap:butt;stroke-linejoin:miter;stroke-miterlimit:10;stroke-dasharray:none;stroke-opacity:1"
       transform="matrix(1.3333333,0,0,-1.3333333,345.9844,11.353467)" />
    <path
       id="path51"
       d="m 0,0 -34.827,-20.338 0.199,-40.33 35.027,-19.993 34.827,20.338 -0.199,40.331 z"
       style="fill:#4fc6f4;fill-opacity:1;fill-rule:nonzero;stroke:#231f20;stroke-width:1;stroke-linecap:butt;stroke-linejoin:miter;stroke-miterlimit:10;stroke-dasharray:none;stroke-opacity:1"
       transform="matrix(1.3333333,0,0,-1.3333333,443.1032,11.353467)" />
    <path
       id="path52"
       d="m 0,0 -34.827,-20.338 0.199,-40.33 35.027,-19.993 34.827,20.338 -0.199,40.331 z"
       style="fill:#4fc6f4;fill-opacity:1;fill-rule:nonzero;stroke:#231f20;stroke-width:1;stroke-linecap:butt;stroke-linejoin:miter;stroke-miterlimit:10;stroke-dasharray:none;stroke-opacity:1"
       transform="matrix(1.3333333,0,0,-1.3333333,540.22213,11.353467)" />
    <path
       id="path53"
       d="m 0,0 -34.827,-20.338 0.199,-40.33 35.027,-19.993 34.827,20.338 -0.199,40.331 z"
       style="fill:#4fc6f4;fill-opacity:1;fill-rule:nonzero;stroke:#231f20;stroke-width:1;stroke-linecap:butt;stroke-linejoin:miter;stroke-miterlimit:10;stroke-dasharray:none;stroke-opacity:1"
       transform="matrix(1.3333333,0,0,-1.3333333,637.34093,11.353467)" />
    <path
       id="path54"
       d="m 0,0 -34.827,-20.338 0.199,-40.33 35.027,-19.993 34.827,20.338 -0.199,40.331 z"
       style="fill:#4fc6f4;fill-opacity:1;fill-rule:nonzero;stroke:#231f20;stroke-width:1;stroke-linecap:butt;stroke-linejoin:miter;stroke-miterlimit:10;stroke-dasharray:none;stroke-opacity:1"
       transform="matrix(1.3333333,0,0,-1.3333333,734.45973,11.353467)" />
    <path
       id="path55"
       d="m 0,0 -34.827,-20.338 0.199,-40.33 35.027,-19.993 34.827,20.338 -0.199,40.331 z"
       style="fill:#4fc6f4;fill-opacity:1;fill-rule:nonzero;stroke:#231f20;stroke-width:1;stroke-linecap:butt;stroke-linejoin:miter;stroke-miterlimit:10;stroke-dasharray:none;stroke-opacity:1"
       transform="matrix(1.3333333,0,0,-1.3333333,54.627867,11.353467)" />
    <path
       id="path56"
       d="m 0,0 -34.827,-20.338 0.199,-40.33 35.027,-19.993 34.827,20.338 -0.199,40.331 z"
       style="fill:#4fc6f4;fill-opacity:1;fill-rule:nonzero;stroke:#231f20;stroke-width:1;stroke-linecap:butt;stroke-linejoin:miter;stroke-miterlimit:10;stroke-dasharray:none;stroke-opacity:1"
       transform="matrix(1.3333333,0,0,-1.3333333,54.627867,359.48093)" />
    <path
       id="path57"
       d="m 0,0 -34.827,-20.338 0.199,-40.33 35.027,-19.993 34.827,20.338 -0.199,40.331 z"
       style="fill:#4fc6f4;fill-opacity:1;fill-rule:nonzero;stroke:#231f20;stroke-width:1;stroke-linecap:butt;stroke-linejoin:miter;stroke-miterlimit:10;stroke-dasharray:none;stroke-opacity:1"
       transform="matrix(1.3333333,0,0,-1.3333333,54.627867,533.54467)" />
    <path
       id="path58"
       d="m 0,0 -34.827,-20.338 0.199,-40.33 35.027,-19.993 34.827,20.338 -0.199,40.331 z"
       style="fill:#4fc6f4;fill-opacity:1;fill-rule:nonzero;stroke:#231f20;stroke-width:1;stroke-linecap:butt;stroke-linejoin:miter;stroke-miterlimit:10;stroke-dasharray:none;stroke-opacity:1"
       transform="matrix(1.3333333,0,0,-1.3333333,54.627867,707.60853)" />
    <path
       id="path59"
       d="m 0,0 -34.827,-20.338 0.199,-40.33 35.027,-19.993 34.827,20.338 -0.199,40.331 z"
       style="fill:#4fc6f4;fill-opacity:1;fill-rule:nonzero;stroke:#231f20;stroke-width:1;stroke-linecap:butt;stroke-linejoin:miter;stroke-miterlimit:10;stroke-dasharray:none;stroke-opacity:1"
       transform="matrix(1.3333333,0,0,-1.3333333,54.627867,881.67227)" />
    <path
       id="path60"
       d="m 0,0 -34.827,-20.338 0.199,-40.33 35.027,-19.993 34.827,20.338 -0.199,40.331 z"
       style="fill:#4fc6f4;fill-opacity:1;fill-rule:nonzero;stroke:#231f20;stroke-width:1;stroke-linecap:butt;stroke-linejoin:miter;stroke-miterlimit:10;stroke-dasharray:none;stroke-opacity:1"
       transform="matrix(1.3333333,0,0,-1.3333333,200.30613,968.6108)" />
    <path
       id="path61"
       d="m 0,0 -34.827,-20.338 0.199,-40.33 35.027,-19.993 34.827,20.338 -0.199,40.331 z"
       style="fill:#4fc6f4;fill-opacity:1;fill-rule:nonzero;stroke:#231f20;stroke-width:1;stroke-linecap:butt;stroke-linejoin:miter;stroke-miterlimit:10;stroke-dasharray:none;stroke-opacity:1"
       transform="matrix(1.3333333,0,0,-1.3333333,297.42493,968.6108)" />
    <path
       id="path62"
       d="m 0,0 -34.827,-20.338 0.199,-40.33 35.027,-19.993 34.827,20.338 -0.199,40.331 z"
       style="fill:#4fc6f4;fill-opacity:1;fill-rule:nonzero;stroke:#231f20;stroke-width:1;stroke-linecap:butt;stroke-linejoin:miter;stroke-miterlimit:10;stroke-dasharray:none;stroke-opacity:1"
       transform="matrix(1.3333333,0,0,-1.3333333,394.54387,968.6108)" />
    <path
       id="path63"
       d="m 0,0 -34.827,-20.338 0.199,-40.33 35.027,-19.993 34.827,20.338 -0.199,40.331 z"
       style="fill:#4fc6f4;fill-opacity:1;fill-rule:nonzero;stroke:#231f20;stroke-width:1;stroke-linecap:butt;stroke-linejoin:miter;stroke-miterlimit:10;stroke-dasharray:none;stroke-opacity:1"
       transform="matrix(1.3333333,0,0,-1.3333333,491.66267,968.6108)" />
    <path
       id="path64"
       d="m 0,0 -34.827,-20.338 0.199,-40.33 35.027,-19.993 34.827,20.338 -0.199,40.331 z"
       style="fill:#4fc6f4;fill-opacity:1;fill-rule:nonzero;stroke:#231f20;stroke-width:1;stroke-linecap:butt;stroke-linejoin:miter;stroke-miterlimit:10;stroke-dasharray:none;stroke-opacity:1"
       transform="matrix(1.3333333,0,0,-1.3333333,588.78147,968.6108)" />
    <path
       id="path65"
       d="m 0,0 -34.827,-20.338 0.199,-40.33 35.027,-19.993 34.827,20.338 -0.199,40.331 z"
       style="fill:#4fc6f4;fill-opacity:1;fill-rule:nonzero;stroke:#231f20;stroke-width:1;stroke-linecap:butt;stroke-linejoin:miter;stroke-miterlimit:10;stroke-dasharray:none;stroke-opacity:1"
       transform="matrix(1.3333333,0,0,-1.3333333,685.90027,272.35573)" />
    <path
       id="path66"
       d="m 0,0 -34.827,-20.338 0.199,-40.33 35.027,-19.993 34.827,20.338 -0.199,40.331 z"
       style="fill:#4fc6f4;fill-opacity:1;fill-rule:nonzero;stroke:#231f20;stroke-width:1;stroke-linecap:butt;stroke-linejoin:miter;stroke-miterlimit:10;stroke-dasharray:none;stroke-opacity:1"
       transform="matrix(1.3333333,0,0,-1.3333333,685.90027,98.292133)" />
    <path
       id="path67"
       d="m 0,0 -34.827,-20.338 0.199,-40.33 35.027,-19.993 34.827,20.338 -0.199,40.331 z"
       style="fill:#4fc6f4;fill-opacity:1;fill-rule:nonzero;stroke:#231f20;stroke-width:1;stroke-linecap:butt;stroke-linejoin:miter;stroke-miterlimit:10;stroke-dasharray:none;stroke-opacity:1"
       transform="matrix(1.3333333,0,0,-1.3333333,685.90027,446.41947)" />
    <path
       id="path68"
       d="m 0,0 -34.827,-20.338 0.199,-40.33 35.027,-19.993 34.827,20.338 -0.199,40.331 z"
       style="fill:#4fc6f4;fill-opacity:1;fill-rule:nonzero;stroke:#231f20;stroke-width:1;stroke-linecap:butt;stroke-linejoin:miter;stroke-miterlimit:10;stroke-dasharray:none;stroke-opacity:1"
       transform="matrix(1.3333333,0,0,-1.3333333,685.90027,620.48333)" />
    <path
       id="path69"
       d="m 0,0 -34.827,-20.338 0.199,-40.33 35.027,-19.993 34.827,20.338 -0.199,40.331 z"
       style="fill:#4fc6f4;fill-opacity:1;fill-rule:nonzero;stroke:#231f20;stroke-width:1;stroke-linecap:butt;stroke-linejoin:miter;stroke-miterlimit:10;stroke-dasharray:none;stroke-opacity:1"
       transform="matrix(1.3333333,0,0,-1.3333333,685.90027,794.54707)" />
    <path
       id="path70"
       d="m 0,0 -34.827,-20.338 0.199,-40.33 35.027,-19.993 34.827,20.338 -0.199,40.331 z"
       style="fill:#4fc6f4;fill-opacity:1;fill-rule:nonzero;stroke:#231f20;stroke-width:1;stroke-linecap:butt;stroke-linejoin:miter;stroke-miterlimit:10;stroke-dasharray:none;stroke-opacity:1"
       transform="matrix(1.3333333,0,0,-1.3333333,685.90027,968.6108)" />
    <path
       id="path71"
       d="m 0,0 -34.827,-20.338 0.199,-40.33 35.027,-19.993 34.827,20.338 -0.199,40.331 z"
       style="fill:#4fc6f4;fill-opacity:1;fill-rule:nonzero;stroke:#231f20;stroke-width:1;stroke-linecap:butt;stroke-linejoin:miter;stroke-miterlimit:10;stroke-dasharray:none;stroke-opacity:1"
       transform="matrix(1.3333333,0,0,-1.3333333,103.18733,272.35573)" />
    <path
       id="path72"
       d="m 0,0 -34.827,-20.338 0.199,-40.33 35.027,-19.993 34.827,20.338 -0.199,40.331 z"
       style="fill:#4fc6f4;fill-opacity:1;fill-rule:nonzero;stroke:#231f20;stroke-width:1;stroke-linecap:butt;stroke-linejoin:miter;stroke-miterlimit:10;stroke-dasharray:none;stroke-opacity:1"
       transform="matrix(1.3333333,0,0,-1.3333333,103.18733,98.292133)" />
    <path
       id="path73"
       d="m 0,0 -34.827,-20.338 0.199,-40.33 35.027,-19.993 34.827,20.338 -0.199,40.331 z"
       style="fill:#4fc6f4;fill-opacity:1;fill-rule:nonzero;stroke:#231f20;stroke-width:1;stroke-linecap:butt;stroke-linejoin:miter;stroke-miterlimit:10;stroke-dasharray:none;stroke-opacity:1"
       transform="matrix(1.3333333,0,0,-1.3333333,347.84133,1060.4523)" />
    <path
       id="path74"
       d="m 0,0 -34.827,-20.338 0.199,-40.33 35.027,-19.993 34.827,20.338 -0.199,40.331 z"
       style="fill:#4fc6f4;fill-opacity:1;fill-rule:nonzero;stroke:#231f20;stroke-width:1;stroke-linecap:butt;stroke-linejoin:miter;stroke-miterlimit:10;stroke-dasharray:none;stroke-opacity:1"
       transform="matrix(1.3333333,0,0,-1.3333333,444.96013,1060.4523)" />
    <path
       id="path75"
       d="m 0,0 -34.827,-20.338 0.199,-40.33 35.027,-19.993 34.827,20.338 -0.199,40.331 z"
       style="fill:#4fc6f4;fill-opacity:1;fill-rule:nonzero;stroke:#231f20;stroke-width:1;stroke-linecap:butt;stroke-linejoin:miter;stroke-miterlimit:10;stroke-dasharray:none;stroke-opacity:1"
       transform="matrix(1.3333333,0,0,-1.3333333,103.18733,446.41947)" />
    <path
       id="path76"
       d="m 0,0 -34.827,-20.338 0.199,-40.33 35.027,-19.993 34.827,20.338 -0.199,40.331 z"
       style="fill:#4fc6f4;fill-opacity:1;fill-rule:nonzero;stroke:#231f20;stroke-width:1;stroke-linecap:butt;stroke-linejoin:miter;stroke-miterlimit:10;stroke-dasharray:none;stroke-opacity:1"
       transform="matrix(1.3333333,0,0,-1.3333333,103.18733,620.48333)" />
    <path
       id="path77"
       d="m 0,0 -34.827,-20.338 0.199,-40.33 35.027,-19.993 34.827,20.338 -0.199,40.331 z"
       style="fill:#4fc6f4;fill-opacity:1;fill-rule:nonzero;stroke:#231f20;stroke-width:1;stroke-linecap:butt;stroke-linejoin:miter;stroke-miterlimit:10;stroke-dasharray:none;stroke-opacity:1"
       transform="matrix(1.3333333,0,0,-1.3333333,103.18733,794.54707)" />
    <path
       id="path78"
       d="m 0,0 -34.827,-20.338 0.199,-40.33 35.027,-19.993 34.827,20.338 -0.199,40.331 z"
       style="fill:#4fc6f4;fill-opacity:1;fill-rule:nonzero;stroke:#231f20;stroke-width:1;stroke-linecap:butt;stroke-linejoin:miter;stroke-miterlimit:10;stroke-dasharray:none;stroke-opacity:1"
       transform="matrix(1.3333333,0,0,-1.3333333,103.18733,968.6108)" />
    <path
       id="path79"
       d="M 0,0 32.586,20.246 69.696,-0.971 105.744,20.246 138.007,2.05 v -44.563 l 36.794,-20.718 v -41.326 l 35.068,-24.062 1.511,-40.571 -34.853,-21.773 -1.186,-42.753 -35.932,-23.306 -0.323,-43.593 -32.911,-21.796 -36.479,24.062 L 33.45,-320.684 0,-302.665 v 43.808 l -35.931,21.257 v 43.161 l -36.363,22.228 v 42.297 l 36.363,22.228 0.431,42.405 37.442,22.876 z"
       style="fill:#4fc6f4;fill-opacity:1;fill-rule:nonzero;stroke:#231f20;stroke-width:1;stroke-linecap:butt;stroke-linejoin:miter;stroke-miterlimit:10;stroke-dasharray:none;stroke-opacity:1"
       transform="matrix(1.3333333,0,0,-1.3333333,301.88227,386.47573)" />
    <path
       id="path80"
       d="m 1.135725,-12.934686 v 1.445972 H 7.46385 v 0.04519 L 1.8505688,-1.2049769e-5 H 3.666975 L 9.291975,-11.782427 v -1.152259 z m 14.15332,13.14931047 c 2.472657,0 4.40625,-1.51375227 4.40625,-3.76178737 0,-1.5702355 -0.996093,-2.6999014 -2.613281,-3.343811 v -0.056483 c 1.59375,-0.7568761 2.132813,-1.9317286 2.132813,-3.0275045 0,-1.6041256 -1.253907,-3.1856576 -3.761719,-3.1856576 -2.273438,0 -4.007813,1.400785 -4.007813,3.4454808 0,1.1183692 0.621094,2.2254417 2.050782,2.9032413 l 0.02344,0.06778 c -1.59375,0.6777995 -2.566406,1.8300587 -2.566406,3.4567776 0,1.8978386 1.628906,3.50196417 4.335937,3.50196417 z m 0.04687,-1.26522577 c -1.652343,0 -2.648437,-1.1635559 -2.589843,-2.4739683 0,-1.2313358 0.808593,-2.2254417 2.332031,-2.6660114 1.746094,0.497053 2.847656,1.2539291 2.847656,2.8241647 0,1.3330057 -1.019531,2.315815 -2.589844,2.315815 z m 0.01172,-10.8560887 c 1.582031,0 2.191406,1.073182 2.191406,2.1124749 0,1.1748525 -0.855468,1.9769152 -1.96875,2.349705 -1.488281,-0.3953831 -2.472656,-1.0957759 -2.472656,-2.383595 0,-1.1183689 0.796875,-2.0785849 2.25,-2.0785849 z m 0,0"
       style="fill:#231f20;fill-opacity:1;fill-rule:nonzero;stroke:none"
       aria-label="78"
       transform="matrix(1.3333333,0,0,1.3831523,674.6732,1232.4063)" />
  </g>
</svg>
