<?xml version="1.0" encoding="UTF-8" standalone="no"?>
<!-- Created with Inkscape (http://www.inkscape.org/) -->

<svg
   version="1.1"
   id="svg1"
   width="793.70135"
   height="1248"
   viewBox="0 0 793.70135 1248"
   sodipodi:docname="upload_erbobki4vd7p54umje3bjseqw5.pdf"
   xmlns:inkscape="http://www.inkscape.org/namespaces/inkscape"
   xmlns:sodipodi="http://sodipodi.sourceforge.net/DTD/sodipodi-0.dtd"
   xmlns="http://www.w3.org/2000/svg"
   xmlns:svg="http://www.w3.org/2000/svg">
  <defs
     id="defs1" />
  <sodipodi:namedview
     id="namedview1"
     pagecolor="#ffffff"
     bordercolor="#000000"
     borderopacity="0.25"
     inkscape:showpageshadow="2"
     inkscape:pageopacity="0.0"
     inkscape:pagecheckerboard="0"
     inkscape:deskcolor="#d1d1d1">
    <inkscape:page
       x="0"
       y="0"
       inkscape:label="1"
       id="page1"
       width="793.70135"
       height="1248"
       margin="8.7091064 41.139999 3.4586666 37.058266"
       bleed="0" />
  </sodipodi:namedview>
  <g
     id="layer-MC0"
     inkscape:groupmode="layer"
     inkscape:label="Layer 1">
    <path
       id="path1"
       d="m 0,0 -32.167,-18.784 0.184,-37.25 32.351,-18.465 32.167,18.784 -0.184,37.25 z"
       style="fill:#4fc6f4;fill-opacity:1;fill-rule:nonzero;stroke:#231f20;stroke-width:1;stroke-linecap:butt;stroke-linejoin:miter;stroke-miterlimit:10;stroke-dasharray:none;stroke-opacity:1"
       transform="matrix(1.3333333,0,0,-1.3333333,170.31547,245.46373)" />
    <path
       id="path2"
       d="m 0,0 -32.167,-18.784 0.184,-37.25 32.351,-18.465 32.167,18.784 -0.184,37.25 z"
       style="fill:#4fc6f4;fill-opacity:1;fill-rule:nonzero;stroke:#231f20;stroke-width:1;stroke-linecap:butt;stroke-linejoin:miter;stroke-miterlimit:10;stroke-dasharray:none;stroke-opacity:1"
       transform="matrix(1.3333333,0,0,-1.3333333,260.01493,245.46373)" />
    <path
       id="path3"
       d="m 0,0 -32.167,-18.784 0.184,-37.25 32.351,-18.465 32.167,18.784 -0.184,37.25 z"
       style="fill:#4fc6f4;fill-opacity:1;fill-rule:nonzero;stroke:#231f20;stroke-width:1;stroke-linecap:butt;stroke-linejoin:miter;stroke-miterlimit:10;stroke-dasharray:none;stroke-opacity:1"
       transform="matrix(1.3333333,0,0,-1.3333333,349.7144,245.46373)" />
    <path
       id="path4"
       d="m 0,0 -32.167,-18.784 0.184,-37.25 32.351,-18.465 32.167,18.784 -0.184,37.25 z"
       style="fill:#4fc6f4;fill-opacity:1;fill-rule:nonzero;stroke:#231f20;stroke-width:1;stroke-linecap:butt;stroke-linejoin:miter;stroke-miterlimit:10;stroke-dasharray:none;stroke-opacity:1"
       transform="matrix(1.3333333,0,0,-1.3333333,439.41387,245.46373)" />
    <path
       id="path5"
       d="m 0,0 -32.167,-18.784 0.184,-37.25 32.351,-18.465 32.167,18.784 -0.184,37.25 z"
       style="fill:#4fc6f4;fill-opacity:1;fill-rule:nonzero;stroke:#231f20;stroke-width:1;stroke-linecap:butt;stroke-linejoin:miter;stroke-miterlimit:10;stroke-dasharray:none;stroke-opacity:1"
       transform="matrix(1.3333333,0,0,-1.3333333,529.11333,245.46373)" />
    <path
       id="path6"
       d="m 0,0 -32.167,-18.784 0.184,-37.25 32.351,-18.465 32.167,18.784 -0.184,37.25 z"
       style="fill:#4fc6f4;fill-opacity:1;fill-rule:nonzero;stroke:#231f20;stroke-width:1;stroke-linecap:butt;stroke-linejoin:miter;stroke-miterlimit:10;stroke-dasharray:none;stroke-opacity:1"
       transform="matrix(1.3333333,0,0,-1.3333333,618.8128,245.46373)" />
    <path
       id="path7"
       d="m 0,0 -32.167,-18.784 0.184,-37.25 32.351,-18.465 32.167,18.784 -0.184,37.25 z"
       style="fill:#4fc6f4;fill-opacity:1;fill-rule:nonzero;stroke:#231f20;stroke-width:1;stroke-linecap:butt;stroke-linejoin:miter;stroke-miterlimit:10;stroke-dasharray:none;stroke-opacity:1"
       transform="matrix(1.3333333,0,0,-1.3333333,215.1652,325.7608)" />
    <path
       id="path8"
       d="m 0,0 -32.167,-18.784 0.184,-37.25 32.351,-18.465 32.167,18.784 -0.184,37.25 z"
       style="fill:#4fc6f4;fill-opacity:1;fill-rule:nonzero;stroke:#231f20;stroke-width:1;stroke-linecap:butt;stroke-linejoin:miter;stroke-miterlimit:10;stroke-dasharray:none;stroke-opacity:1"
       transform="matrix(1.3333333,0,0,-1.3333333,304.86467,325.7608)" />
    <path
       id="path9"
       d="m 0,0 -32.167,-18.784 0.184,-37.25 32.351,-18.465 32.167,18.784 -0.184,37.25 z"
       style="fill:#4fc6f4;fill-opacity:1;fill-rule:nonzero;stroke:#231f20;stroke-width:1;stroke-linecap:butt;stroke-linejoin:miter;stroke-miterlimit:10;stroke-dasharray:none;stroke-opacity:1"
       transform="matrix(1.3333333,0,0,-1.3333333,394.56413,325.7608)" />
    <path
       id="path10"
       d="m 0,0 -32.167,-18.784 0.184,-37.25 32.351,-18.465 32.167,18.784 -0.184,37.25 z"
       style="fill:#4fc6f4;fill-opacity:1;fill-rule:nonzero;stroke:#231f20;stroke-width:1;stroke-linecap:butt;stroke-linejoin:miter;stroke-miterlimit:10;stroke-dasharray:none;stroke-opacity:1"
       transform="matrix(1.3333333,0,0,-1.3333333,484.2636,325.7608)" />
    <path
       id="path11"
       d="m 0,0 -32.167,-18.784 0.184,-37.25 32.351,-18.465 32.167,18.784 -0.184,37.25 z"
       style="fill:#4fc6f4;fill-opacity:1;fill-rule:nonzero;stroke:#231f20;stroke-width:1;stroke-linecap:butt;stroke-linejoin:miter;stroke-miterlimit:10;stroke-dasharray:none;stroke-opacity:1"
       transform="matrix(1.3333333,0,0,-1.3333333,573.96307,325.7608)" />
    <path
       id="path12"
       d="m 0,0 -32.167,-18.784 0.184,-37.25 32.351,-18.465 32.167,18.785 -0.184,37.249 z"
       style="fill:#4fc6f4;fill-opacity:1;fill-rule:nonzero;stroke:#231f20;stroke-width:1;stroke-linecap:butt;stroke-linejoin:miter;stroke-miterlimit:10;stroke-dasharray:none;stroke-opacity:1"
       transform="matrix(1.3333333,0,0,-1.3333333,215.1652,164.99453)" />
    <path
       id="path13"
       d="m 0,0 -32.167,-18.784 0.184,-37.25 32.351,-18.465 32.167,18.785 -0.184,37.249 z"
       style="fill:#4fc6f4;fill-opacity:1;fill-rule:nonzero;stroke:#231f20;stroke-width:1;stroke-linecap:butt;stroke-linejoin:miter;stroke-miterlimit:10;stroke-dasharray:none;stroke-opacity:1"
       transform="matrix(1.3333333,0,0,-1.3333333,304.86467,164.99453)" />
    <path
       id="path14"
       d="m 0,0 -32.167,-18.784 0.184,-37.25 32.351,-18.465 32.167,18.785 -0.184,37.249 z"
       style="fill:#4fc6f4;fill-opacity:1;fill-rule:nonzero;stroke:#231f20;stroke-width:1;stroke-linecap:butt;stroke-linejoin:miter;stroke-miterlimit:10;stroke-dasharray:none;stroke-opacity:1"
       transform="matrix(1.3333333,0,0,-1.3333333,394.56413,164.99453)" />
    <path
       id="path15"
       d="m 0,0 -32.167,-18.784 0.184,-37.25 32.351,-18.465 32.167,18.785 -0.184,37.249 z"
       style="fill:#4fc6f4;fill-opacity:1;fill-rule:nonzero;stroke:#231f20;stroke-width:1;stroke-linecap:butt;stroke-linejoin:miter;stroke-miterlimit:10;stroke-dasharray:none;stroke-opacity:1"
       transform="matrix(1.3333333,0,0,-1.3333333,484.2636,164.99453)" />
    <path
       id="path16"
       d="m 0,0 -32.167,-18.784 0.184,-37.25 32.351,-18.465 32.167,18.785 -0.184,37.249 z"
       style="fill:#4fc6f4;fill-opacity:1;fill-rule:nonzero;stroke:#231f20;stroke-width:1;stroke-linecap:butt;stroke-linejoin:miter;stroke-miterlimit:10;stroke-dasharray:none;stroke-opacity:1"
       transform="matrix(1.3333333,0,0,-1.3333333,573.96307,164.99453)" />
    <path
       id="path17"
       d="m 0,0 -32.167,-18.784 0.184,-37.25 32.351,-18.465 32.167,18.784 -0.184,37.25 z"
       style="fill:#4fc6f4;fill-opacity:1;fill-rule:nonzero;stroke:#231f20;stroke-width:1;stroke-linecap:butt;stroke-linejoin:miter;stroke-miterlimit:10;stroke-dasharray:none;stroke-opacity:1"
       transform="matrix(1.3333333,0,0,-1.3333333,170.31547,406.23)" />
    <path
       id="path18"
       d="m 0,0 -32.167,-18.784 0.184,-37.25 32.351,-18.465 32.167,18.784 -0.184,37.25 z"
       style="fill:#4fc6f4;fill-opacity:1;fill-rule:nonzero;stroke:#231f20;stroke-width:1;stroke-linecap:butt;stroke-linejoin:miter;stroke-miterlimit:10;stroke-dasharray:none;stroke-opacity:1"
       transform="matrix(1.3333333,0,0,-1.3333333,260.01493,406.23)" />
    <path
       id="path19"
       d="m 0,0 -32.167,-18.784 0.184,-37.25 32.351,-18.465 32.167,18.784 -0.184,37.25 z"
       style="fill:#4fc6f4;fill-opacity:1;fill-rule:nonzero;stroke:#231f20;stroke-width:1;stroke-linecap:butt;stroke-linejoin:miter;stroke-miterlimit:10;stroke-dasharray:none;stroke-opacity:1"
       transform="matrix(1.3333333,0,0,-1.3333333,529.11333,406.23)" />
    <path
       id="path20"
       d="m 0,0 -32.167,-18.784 0.184,-37.25 32.351,-18.465 32.167,18.784 -0.184,37.25 z"
       style="fill:#4fc6f4;fill-opacity:1;fill-rule:nonzero;stroke:#231f20;stroke-width:1;stroke-linecap:butt;stroke-linejoin:miter;stroke-miterlimit:10;stroke-dasharray:none;stroke-opacity:1"
       transform="matrix(1.3333333,0,0,-1.3333333,618.8128,406.23)" />
    <path
       id="path21"
       d="m 0,0 -32.167,-18.784 0.184,-37.25 32.351,-18.465 32.167,18.785 -0.184,37.249 z"
       style="fill:#4fc6f4;fill-opacity:1;fill-rule:nonzero;stroke:#231f20;stroke-width:1;stroke-linecap:butt;stroke-linejoin:miter;stroke-miterlimit:10;stroke-dasharray:none;stroke-opacity:1"
       transform="matrix(1.3333333,0,0,-1.3333333,215.1652,486.52707)" />
    <path
       id="path22"
       d="m 0,0 -32.167,-18.784 0.184,-37.25 32.351,-18.465 32.167,18.785 -0.184,37.249 z"
       style="fill:#4fc6f4;fill-opacity:1;fill-rule:nonzero;stroke:#231f20;stroke-width:1;stroke-linecap:butt;stroke-linejoin:miter;stroke-miterlimit:10;stroke-dasharray:none;stroke-opacity:1"
       transform="matrix(1.3333333,0,0,-1.3333333,573.96307,486.52707)" />
    <path
       id="path23"
       d="m 0,0 -32.167,-18.784 0.184,-37.25 32.351,-18.465 32.167,18.784 -0.184,37.25 z"
       style="fill:#4fc6f4;fill-opacity:1;fill-rule:nonzero;stroke:#231f20;stroke-width:1;stroke-linecap:butt;stroke-linejoin:miter;stroke-miterlimit:10;stroke-dasharray:none;stroke-opacity:1"
       transform="matrix(1.3333333,0,0,-1.3333333,170.31547,566.99627)" />
    <path
       id="path24"
       d="m 0,0 -32.167,-18.784 0.184,-37.25 32.351,-18.465 32.167,18.784 -0.184,37.25 z"
       style="fill:#4fc6f4;fill-opacity:1;fill-rule:nonzero;stroke:#231f20;stroke-width:1;stroke-linecap:butt;stroke-linejoin:miter;stroke-miterlimit:10;stroke-dasharray:none;stroke-opacity:1"
       transform="matrix(1.3333333,0,0,-1.3333333,618.8128,566.99627)" />
    <path
       id="path25"
       d="m 0,0 -32.167,-18.784 0.184,-37.25 32.351,-18.465 32.167,18.784 -0.184,37.25 z"
       style="fill:#4fc6f4;fill-opacity:1;fill-rule:nonzero;stroke:#231f20;stroke-width:1;stroke-linecap:butt;stroke-linejoin:miter;stroke-miterlimit:10;stroke-dasharray:none;stroke-opacity:1"
       transform="matrix(1.3333333,0,0,-1.3333333,215.1652,647.2932)" />
    <path
       id="path26"
       d="m 0,0 -32.167,-18.784 0.184,-37.25 32.351,-18.465 32.167,18.784 -0.184,37.25 z"
       style="fill:#4fc6f4;fill-opacity:1;fill-rule:nonzero;stroke:#231f20;stroke-width:1;stroke-linecap:butt;stroke-linejoin:miter;stroke-miterlimit:10;stroke-dasharray:none;stroke-opacity:1"
       transform="matrix(1.3333333,0,0,-1.3333333,573.96307,647.2932)" />
    <path
       id="path27"
       d="m 0,0 -32.167,-18.784 0.184,-37.25 32.351,-18.465 32.167,18.784 -0.184,37.25 z"
       style="fill:#4fc6f4;fill-opacity:1;fill-rule:nonzero;stroke:#231f20;stroke-width:1;stroke-linecap:butt;stroke-linejoin:miter;stroke-miterlimit:10;stroke-dasharray:none;stroke-opacity:1"
       transform="matrix(1.3333333,0,0,-1.3333333,170.31547,727.76253)" />
    <path
       id="path28"
       d="m 0,0 -32.167,-18.784 0.184,-37.25 32.351,-18.465 32.167,18.784 -0.184,37.25 z"
       style="fill:#4fc6f4;fill-opacity:1;fill-rule:nonzero;stroke:#231f20;stroke-width:1;stroke-linecap:butt;stroke-linejoin:miter;stroke-miterlimit:10;stroke-dasharray:none;stroke-opacity:1"
       transform="matrix(1.3333333,0,0,-1.3333333,260.01493,727.76253)" />
    <path
       id="path29"
       d="m 0,0 -32.167,-18.784 0.184,-37.25 32.351,-18.465 32.167,18.784 -0.184,37.25 z"
       style="fill:#4fc6f4;fill-opacity:1;fill-rule:nonzero;stroke:#231f20;stroke-width:1;stroke-linecap:butt;stroke-linejoin:miter;stroke-miterlimit:10;stroke-dasharray:none;stroke-opacity:1"
       transform="matrix(1.3333333,0,0,-1.3333333,529.11333,727.76253)" />
    <path
       id="path30"
       d="m 0,0 -32.167,-18.784 0.184,-37.25 32.351,-18.465 32.167,18.784 -0.184,37.25 z"
       style="fill:#4fc6f4;fill-opacity:1;fill-rule:nonzero;stroke:#231f20;stroke-width:1;stroke-linecap:butt;stroke-linejoin:miter;stroke-miterlimit:10;stroke-dasharray:none;stroke-opacity:1"
       transform="matrix(1.3333333,0,0,-1.3333333,618.8128,727.76253)" />
    <path
       id="path31"
       d="m 0,0 -32.167,-18.784 0.184,-37.25 32.351,-18.465 32.167,18.784 -0.184,37.25 z"
       style="fill:#4fc6f4;fill-opacity:1;fill-rule:nonzero;stroke:#231f20;stroke-width:1;stroke-linecap:butt;stroke-linejoin:miter;stroke-miterlimit:10;stroke-dasharray:none;stroke-opacity:1"
       transform="matrix(1.3333333,0,0,-1.3333333,215.1652,808.05947)" />
    <path
       id="path32"
       d="m 0,0 -32.167,-18.784 0.184,-37.25 32.351,-18.465 32.167,18.784 -0.184,37.25 z"
       style="fill:#4fc6f4;fill-opacity:1;fill-rule:nonzero;stroke:#231f20;stroke-width:1;stroke-linecap:butt;stroke-linejoin:miter;stroke-miterlimit:10;stroke-dasharray:none;stroke-opacity:1"
       transform="matrix(1.3333333,0,0,-1.3333333,304.86467,808.05947)" />
    <path
       id="path33"
       d="m 0,0 -32.167,-18.784 0.184,-37.25 32.351,-18.465 32.167,18.784 -0.184,37.25 z"
       style="fill:#4fc6f4;fill-opacity:1;fill-rule:nonzero;stroke:#231f20;stroke-width:1;stroke-linecap:butt;stroke-linejoin:miter;stroke-miterlimit:10;stroke-dasharray:none;stroke-opacity:1"
       transform="matrix(1.3333333,0,0,-1.3333333,394.56413,808.05947)" />
    <path
       id="path34"
       d="m 0,0 -32.167,-18.784 0.184,-37.25 32.351,-18.465 32.167,18.784 -0.184,37.25 z"
       style="fill:#4fc6f4;fill-opacity:1;fill-rule:nonzero;stroke:#231f20;stroke-width:1;stroke-linecap:butt;stroke-linejoin:miter;stroke-miterlimit:10;stroke-dasharray:none;stroke-opacity:1"
       transform="matrix(1.3333333,0,0,-1.3333333,484.2636,808.05947)" />
    <path
       id="path35"
       d="m 0,0 -32.167,-18.784 0.184,-37.25 32.351,-18.465 32.167,18.784 -0.184,37.25 z"
       style="fill:#4fc6f4;fill-opacity:1;fill-rule:nonzero;stroke:#231f20;stroke-width:1;stroke-linecap:butt;stroke-linejoin:miter;stroke-miterlimit:10;stroke-dasharray:none;stroke-opacity:1"
       transform="matrix(1.3333333,0,0,-1.3333333,573.96307,808.05947)" />
    <path
       id="path36"
       d="m 0,0 -32.167,-18.784 0.184,-37.25 32.351,-18.465 32.167,18.784 -0.184,37.25 z"
       style="fill:#4fc6f4;fill-opacity:1;fill-rule:nonzero;stroke:#231f20;stroke-width:1;stroke-linecap:butt;stroke-linejoin:miter;stroke-miterlimit:10;stroke-dasharray:none;stroke-opacity:1"
       transform="matrix(1.3333333,0,0,-1.3333333,170.31547,888.52867)" />
    <path
       id="path37"
       d="m 0,0 -32.167,-18.784 0.184,-37.25 32.351,-18.465 32.167,18.784 -0.184,37.25 z"
       style="fill:#4fc6f4;fill-opacity:1;fill-rule:nonzero;stroke:#231f20;stroke-width:1;stroke-linecap:butt;stroke-linejoin:miter;stroke-miterlimit:10;stroke-dasharray:none;stroke-opacity:1"
       transform="matrix(1.3333333,0,0,-1.3333333,260.01493,888.52867)" />
    <path
       id="path38"
       d="m 0,0 -32.167,-18.784 0.184,-37.25 32.351,-18.465 32.167,18.784 -0.184,37.25 z"
       style="fill:#4fc6f4;fill-opacity:1;fill-rule:nonzero;stroke:#231f20;stroke-width:1;stroke-linecap:butt;stroke-linejoin:miter;stroke-miterlimit:10;stroke-dasharray:none;stroke-opacity:1"
       transform="matrix(1.3333333,0,0,-1.3333333,349.7144,888.52867)" />
    <path
       id="path39"
       d="m 0,0 -32.167,-18.784 0.184,-37.25 32.351,-18.465 32.167,18.784 -0.184,37.25 z"
       style="fill:#4fc6f4;fill-opacity:1;fill-rule:nonzero;stroke:#231f20;stroke-width:1;stroke-linecap:butt;stroke-linejoin:miter;stroke-miterlimit:10;stroke-dasharray:none;stroke-opacity:1"
       transform="matrix(1.3333333,0,0,-1.3333333,439.41387,888.52867)" />
    <path
       id="path40"
       d="m 0,0 -32.167,-18.784 0.184,-37.25 32.351,-18.465 32.167,18.784 -0.184,37.25 z"
       style="fill:#4fc6f4;fill-opacity:1;fill-rule:nonzero;stroke:#231f20;stroke-width:1;stroke-linecap:butt;stroke-linejoin:miter;stroke-miterlimit:10;stroke-dasharray:none;stroke-opacity:1"
       transform="matrix(1.3333333,0,0,-1.3333333,529.11333,888.52867)" />
    <path
       id="path41"
       d="m 0,0 -32.167,-18.784 0.184,-37.25 32.351,-18.465 32.167,18.784 -0.184,37.25 z"
       style="fill:#4fc6f4;fill-opacity:1;fill-rule:nonzero;stroke:#231f20;stroke-width:1;stroke-linecap:butt;stroke-linejoin:miter;stroke-miterlimit:10;stroke-dasharray:none;stroke-opacity:1"
       transform="matrix(1.3333333,0,0,-1.3333333,618.8128,888.52867)" />
    <path
       id="path42"
       d="m 0,0 -32.167,-18.784 0.184,-37.25 32.351,-18.465 32.167,18.784 -0.184,37.25 z"
       style="fill:#4fc6f4;fill-opacity:1;fill-rule:nonzero;stroke:#231f20;stroke-width:1;stroke-linecap:butt;stroke-linejoin:miter;stroke-miterlimit:10;stroke-dasharray:none;stroke-opacity:1"
       transform="matrix(1.3333333,0,0,-1.3333333,438.59813,1049.2949)" />
    <path
       id="path43"
       d="m 0,0 -32.167,-18.784 0.184,-37.25 32.351,-18.465 32.167,18.784 -0.184,37.25 z"
       style="fill:#4fc6f4;fill-opacity:1;fill-rule:nonzero;stroke:#231f20;stroke-width:1;stroke-linecap:butt;stroke-linejoin:miter;stroke-miterlimit:10;stroke-dasharray:none;stroke-opacity:1"
       transform="matrix(1.3333333,0,0,-1.3333333,708.5124,245.46373)" />
    <path
       id="path44"
       d="m 0,0 -32.167,-18.784 0.184,-37.25 32.351,-18.465 32.167,18.784 -0.184,37.25 z"
       style="fill:#4fc6f4;fill-opacity:1;fill-rule:nonzero;stroke:#231f20;stroke-width:1;stroke-linecap:butt;stroke-linejoin:miter;stroke-miterlimit:10;stroke-dasharray:none;stroke-opacity:1"
       transform="matrix(1.3333333,0,0,-1.3333333,708.5124,406.23)" />
    <path
       id="path45"
       d="m 0,0 -32.167,-18.784 0.184,-37.25 32.351,-18.465 32.167,18.784 -0.184,37.25 z"
       style="fill:#4fc6f4;fill-opacity:1;fill-rule:nonzero;stroke:#231f20;stroke-width:1;stroke-linecap:butt;stroke-linejoin:miter;stroke-miterlimit:10;stroke-dasharray:none;stroke-opacity:1"
       transform="matrix(1.3333333,0,0,-1.3333333,708.5124,566.99627)" />
    <path
       id="path46"
       d="m 0,0 -32.167,-18.784 0.184,-37.25 32.351,-18.465 32.167,18.784 -0.184,37.25 z"
       style="fill:#4fc6f4;fill-opacity:1;fill-rule:nonzero;stroke:#231f20;stroke-width:1;stroke-linecap:butt;stroke-linejoin:miter;stroke-miterlimit:10;stroke-dasharray:none;stroke-opacity:1"
       transform="matrix(1.3333333,0,0,-1.3333333,708.5124,727.76253)" />
    <path
       id="path47"
       d="m 0,0 -32.167,-18.784 0.184,-37.25 32.351,-18.465 32.167,18.784 -0.184,37.25 z"
       style="fill:#4fc6f4;fill-opacity:1;fill-rule:nonzero;stroke:#231f20;stroke-width:1;stroke-linecap:butt;stroke-linejoin:miter;stroke-miterlimit:10;stroke-dasharray:none;stroke-opacity:1"
       transform="matrix(1.3333333,0,0,-1.3333333,708.5124,888.52867)" />
    <path
       id="path48"
       d="m 0,0 -32.167,-18.784 0.184,-37.25 32.351,-18.465 32.167,18.784 -0.184,37.25 z"
       style="fill:#4fc6f4;fill-opacity:1;fill-rule:nonzero;stroke:#231f20;stroke-width:1;stroke-linecap:butt;stroke-linejoin:miter;stroke-miterlimit:10;stroke-dasharray:none;stroke-opacity:1"
       transform="matrix(1.3333333,0,0,-1.3333333,80.615867,245.46373)" />
    <path
       id="path49"
       d="m 0,0 -32.167,-18.784 0.184,-37.25 32.351,-18.465 32.167,18.785 -0.184,37.249 z"
       style="fill:#4fc6f4;fill-opacity:1;fill-rule:nonzero;stroke:#231f20;stroke-width:1;stroke-linecap:butt;stroke-linejoin:miter;stroke-miterlimit:10;stroke-dasharray:none;stroke-opacity:1"
       transform="matrix(1.3333333,0,0,-1.3333333,170.31547,84.6976)" />
    <path
       id="path50"
       d="m 0,0 -32.167,-18.784 0.184,-37.25 32.351,-18.465 32.167,18.785 -0.184,37.249 z"
       style="fill:#4fc6f4;fill-opacity:1;fill-rule:nonzero;stroke:#231f20;stroke-width:1;stroke-linecap:butt;stroke-linejoin:miter;stroke-miterlimit:10;stroke-dasharray:none;stroke-opacity:1"
       transform="matrix(1.3333333,0,0,-1.3333333,260.01493,84.6976)" />
    <path
       id="path51"
       d="m 0,0 -32.167,-18.784 0.184,-37.25 32.351,-18.465 32.167,18.785 -0.184,37.249 z"
       style="fill:#4fc6f4;fill-opacity:1;fill-rule:nonzero;stroke:#231f20;stroke-width:1;stroke-linecap:butt;stroke-linejoin:miter;stroke-miterlimit:10;stroke-dasharray:none;stroke-opacity:1"
       transform="matrix(1.3333333,0,0,-1.3333333,349.7144,84.6976)" />
    <path
       id="path52"
       d="m 0,0 -32.167,-18.784 0.184,-37.25 32.351,-18.465 32.167,18.785 -0.184,37.249 z"
       style="fill:#4fc6f4;fill-opacity:1;fill-rule:nonzero;stroke:#231f20;stroke-width:1;stroke-linecap:butt;stroke-linejoin:miter;stroke-miterlimit:10;stroke-dasharray:none;stroke-opacity:1"
       transform="matrix(1.3333333,0,0,-1.3333333,439.41387,84.6976)" />
    <path
       id="path53"
       d="m 0,0 -32.167,-18.784 0.184,-37.25 32.351,-18.465 32.167,18.785 -0.184,37.249 z"
       style="fill:#4fc6f4;fill-opacity:1;fill-rule:nonzero;stroke:#231f20;stroke-width:1;stroke-linecap:butt;stroke-linejoin:miter;stroke-miterlimit:10;stroke-dasharray:none;stroke-opacity:1"
       transform="matrix(1.3333333,0,0,-1.3333333,529.11333,84.6976)" />
    <path
       id="path54"
       d="m 0,0 -32.167,-18.784 0.184,-37.25 32.351,-18.465 32.167,18.785 -0.184,37.249 z"
       style="fill:#4fc6f4;fill-opacity:1;fill-rule:nonzero;stroke:#231f20;stroke-width:1;stroke-linecap:butt;stroke-linejoin:miter;stroke-miterlimit:10;stroke-dasharray:none;stroke-opacity:1"
       transform="matrix(1.3333333,0,0,-1.3333333,618.8128,84.6976)" />
    <path
       id="path55"
       d="m 0,0 -32.167,-18.784 0.184,-37.25 32.351,-18.465 32.167,18.785 -0.184,37.249 z"
       style="fill:#4fc6f4;fill-opacity:1;fill-rule:nonzero;stroke:#231f20;stroke-width:1;stroke-linecap:butt;stroke-linejoin:miter;stroke-miterlimit:10;stroke-dasharray:none;stroke-opacity:1"
       transform="matrix(1.3333333,0,0,-1.3333333,708.5124,84.6976)" />
    <path
       id="path56"
       d="m 0,0 -32.167,-18.784 0.184,-37.25 32.351,-18.465 32.167,18.785 -0.184,37.249 z"
       style="fill:#4fc6f4;fill-opacity:1;fill-rule:nonzero;stroke:#231f20;stroke-width:1;stroke-linecap:butt;stroke-linejoin:miter;stroke-miterlimit:10;stroke-dasharray:none;stroke-opacity:1"
       transform="matrix(1.3333333,0,0,-1.3333333,80.615867,84.6976)" />
    <path
       id="path57"
       d="m 0,0 -32.167,-18.784 0.184,-37.25 32.351,-18.465 32.167,18.784 -0.184,37.25 z"
       style="fill:#4fc6f4;fill-opacity:1;fill-rule:nonzero;stroke:#231f20;stroke-width:1;stroke-linecap:butt;stroke-linejoin:miter;stroke-miterlimit:10;stroke-dasharray:none;stroke-opacity:1"
       transform="matrix(1.3333333,0,0,-1.3333333,80.615867,406.23)" />
    <path
       id="path58"
       d="m 0,0 -32.167,-18.784 0.184,-37.25 32.351,-18.465 32.167,18.784 -0.184,37.25 z"
       style="fill:#4fc6f4;fill-opacity:1;fill-rule:nonzero;stroke:#231f20;stroke-width:1;stroke-linecap:butt;stroke-linejoin:miter;stroke-miterlimit:10;stroke-dasharray:none;stroke-opacity:1"
       transform="matrix(1.3333333,0,0,-1.3333333,80.615867,566.99627)" />
    <path
       id="path59"
       d="m 0,0 -32.167,-18.784 0.184,-37.25 32.351,-18.465 32.167,18.784 -0.184,37.25 z"
       style="fill:#4fc6f4;fill-opacity:1;fill-rule:nonzero;stroke:#231f20;stroke-width:1;stroke-linecap:butt;stroke-linejoin:miter;stroke-miterlimit:10;stroke-dasharray:none;stroke-opacity:1"
       transform="matrix(1.3333333,0,0,-1.3333333,80.615867,727.76253)" />
    <path
       id="path60"
       d="m 0,0 -32.167,-18.784 0.184,-37.25 32.351,-18.465 32.167,18.784 -0.184,37.25 z"
       style="fill:#4fc6f4;fill-opacity:1;fill-rule:nonzero;stroke:#231f20;stroke-width:1;stroke-linecap:butt;stroke-linejoin:miter;stroke-miterlimit:10;stroke-dasharray:none;stroke-opacity:1"
       transform="matrix(1.3333333,0,0,-1.3333333,80.615867,888.52867)" />
    <path
       id="path61"
       d="m 0,0 -32.167,-18.784 0.184,-37.25 32.351,-18.465 32.167,18.784 -0.184,37.25 z"
       style="fill:#4fc6f4;fill-opacity:1;fill-rule:nonzero;stroke:#231f20;stroke-width:1;stroke-linecap:butt;stroke-linejoin:miter;stroke-miterlimit:10;stroke-dasharray:none;stroke-opacity:1"
       transform="matrix(1.3333333,0,0,-1.3333333,215.1652,968.82573)" />
    <path
       id="path62"
       d="m 0,0 -32.167,-18.784 0.184,-37.25 32.351,-18.465 32.167,18.784 -0.184,37.25 z"
       style="fill:#4fc6f4;fill-opacity:1;fill-rule:nonzero;stroke:#231f20;stroke-width:1;stroke-linecap:butt;stroke-linejoin:miter;stroke-miterlimit:10;stroke-dasharray:none;stroke-opacity:1"
       transform="matrix(1.3333333,0,0,-1.3333333,304.86467,968.82573)" />
    <path
       id="path63"
       d="m 0,0 -32.167,-18.784 0.184,-37.25 32.351,-18.465 32.167,18.784 -0.184,37.25 z"
       style="fill:#4fc6f4;fill-opacity:1;fill-rule:nonzero;stroke:#231f20;stroke-width:1;stroke-linecap:butt;stroke-linejoin:miter;stroke-miterlimit:10;stroke-dasharray:none;stroke-opacity:1"
       transform="matrix(1.3333333,0,0,-1.3333333,394.56413,968.82573)" />
    <path
       id="path64"
       d="m 0,0 -32.167,-18.784 0.184,-37.25 32.351,-18.465 32.167,18.784 -0.184,37.25 z"
       style="fill:#4fc6f4;fill-opacity:1;fill-rule:nonzero;stroke:#231f20;stroke-width:1;stroke-linecap:butt;stroke-linejoin:miter;stroke-miterlimit:10;stroke-dasharray:none;stroke-opacity:1"
       transform="matrix(1.3333333,0,0,-1.3333333,484.2636,968.82573)" />
    <path
       id="path65"
       d="m 0,0 -32.167,-18.784 0.184,-37.25 32.351,-18.465 32.167,18.784 -0.184,37.25 z"
       style="fill:#4fc6f4;fill-opacity:1;fill-rule:nonzero;stroke:#231f20;stroke-width:1;stroke-linecap:butt;stroke-linejoin:miter;stroke-miterlimit:10;stroke-dasharray:none;stroke-opacity:1"
       transform="matrix(1.3333333,0,0,-1.3333333,573.96307,968.82573)" />
    <path
       id="path66"
       d="m 0,0 -32.167,-18.784 0.184,-37.25 32.351,-18.465 32.167,18.784 -0.184,37.25 z"
       style="fill:#4fc6f4;fill-opacity:1;fill-rule:nonzero;stroke:#231f20;stroke-width:1;stroke-linecap:butt;stroke-linejoin:miter;stroke-miterlimit:10;stroke-dasharray:none;stroke-opacity:1"
       transform="matrix(1.3333333,0,0,-1.3333333,663.66253,325.7608)" />
    <path
       id="path67"
       d="m 0,0 -32.167,-18.784 0.184,-37.25 32.351,-18.465 32.167,18.785 -0.184,37.249 z"
       style="fill:#4fc6f4;fill-opacity:1;fill-rule:nonzero;stroke:#231f20;stroke-width:1;stroke-linecap:butt;stroke-linejoin:miter;stroke-miterlimit:10;stroke-dasharray:none;stroke-opacity:1"
       transform="matrix(1.3333333,0,0,-1.3333333,663.66253,164.99453)" />
    <path
       id="path68"
       d="m 0,0 -32.167,-18.784 0.184,-37.25 32.351,-18.465 32.167,18.785 -0.184,37.249 z"
       style="fill:#4fc6f4;fill-opacity:1;fill-rule:nonzero;stroke:#231f20;stroke-width:1;stroke-linecap:butt;stroke-linejoin:miter;stroke-miterlimit:10;stroke-dasharray:none;stroke-opacity:1"
       transform="matrix(1.3333333,0,0,-1.3333333,663.66253,486.52707)" />
    <path
       id="path69"
       d="m 0,0 -32.167,-18.784 0.184,-37.25 32.351,-18.465 32.167,18.784 -0.184,37.25 z"
       style="fill:#4fc6f4;fill-opacity:1;fill-rule:nonzero;stroke:#231f20;stroke-width:1;stroke-linecap:butt;stroke-linejoin:miter;stroke-miterlimit:10;stroke-dasharray:none;stroke-opacity:1"
       transform="matrix(1.3333333,0,0,-1.3333333,663.66253,647.2932)" />
    <path
       id="path70"
       d="m 0,0 -32.167,-18.784 0.184,-37.25 32.351,-18.465 32.167,18.784 -0.184,37.25 z"
       style="fill:#4fc6f4;fill-opacity:1;fill-rule:nonzero;stroke:#231f20;stroke-width:1;stroke-linecap:butt;stroke-linejoin:miter;stroke-miterlimit:10;stroke-dasharray:none;stroke-opacity:1"
       transform="matrix(1.3333333,0,0,-1.3333333,663.66253,808.05947)" />
    <path
       id="path71"
       d="m 0,0 -32.167,-18.784 0.184,-37.25 32.351,-18.465 32.167,18.784 -0.184,37.25 z"
       style="fill:#4fc6f4;fill-opacity:1;fill-rule:nonzero;stroke:#231f20;stroke-width:1;stroke-linecap:butt;stroke-linejoin:miter;stroke-miterlimit:10;stroke-dasharray:none;stroke-opacity:1"
       transform="matrix(1.3333333,0,0,-1.3333333,663.66253,968.82573)" />
    <path
       id="path72"
       d="m 0,0 -32.167,-18.784 0.184,-37.25 32.351,-18.465 32.167,18.784 -0.184,37.25 z"
       style="fill:#4fc6f4;fill-opacity:1;fill-rule:nonzero;stroke:#231f20;stroke-width:1;stroke-linecap:butt;stroke-linejoin:miter;stroke-miterlimit:10;stroke-dasharray:none;stroke-opacity:1"
       transform="matrix(1.3333333,0,0,-1.3333333,125.46573,325.7608)" />
    <path
       id="path73"
       d="m 0,0 -32.167,-18.784 0.184,-37.25 32.351,-18.465 32.167,18.785 -0.184,37.249 z"
       style="fill:#4fc6f4;fill-opacity:1;fill-rule:nonzero;stroke:#231f20;stroke-width:1;stroke-linecap:butt;stroke-linejoin:miter;stroke-miterlimit:10;stroke-dasharray:none;stroke-opacity:1"
       transform="matrix(1.3333333,0,0,-1.3333333,125.46573,164.99453)" />
    <path
       id="path74"
       d="m 0,0 -32.167,-18.784 0.184,-37.25 32.351,-18.465 32.167,18.784 -0.184,37.25 z"
       style="fill:#4fc6f4;fill-opacity:1;fill-rule:nonzero;stroke:#231f20;stroke-width:1;stroke-linecap:butt;stroke-linejoin:miter;stroke-miterlimit:10;stroke-dasharray:none;stroke-opacity:1"
       transform="matrix(1.3333333,0,0,-1.3333333,215.1652,4.2282667)" />
    <path
       id="path75"
       d="m 0,0 -32.167,-18.784 0.184,-37.25 32.351,-18.465 32.167,18.784 -0.184,37.25 z"
       style="fill:#4fc6f4;fill-opacity:1;fill-rule:nonzero;stroke:#231f20;stroke-width:1;stroke-linecap:butt;stroke-linejoin:miter;stroke-miterlimit:10;stroke-dasharray:none;stroke-opacity:1"
       transform="matrix(1.3333333,0,0,-1.3333333,304.86467,4.2282667)" />
    <path
       id="path76"
       d="m 0,0 -32.167,-18.784 0.184,-37.25 32.351,-18.465 32.167,18.784 -0.184,37.25 z"
       style="fill:#4fc6f4;fill-opacity:1;fill-rule:nonzero;stroke:#231f20;stroke-width:1;stroke-linecap:butt;stroke-linejoin:miter;stroke-miterlimit:10;stroke-dasharray:none;stroke-opacity:1"
       transform="matrix(1.3333333,0,0,-1.3333333,394.56413,4.2282667)" />
    <path
       id="path77"
       d="m 0,0 -32.167,-18.784 0.184,-37.25 32.351,-18.465 32.167,18.784 -0.184,37.25 z"
       style="fill:#4fc6f4;fill-opacity:1;fill-rule:nonzero;stroke:#231f20;stroke-width:1;stroke-linecap:butt;stroke-linejoin:miter;stroke-miterlimit:10;stroke-dasharray:none;stroke-opacity:1"
       transform="matrix(1.3333333,0,0,-1.3333333,484.2636,4.2282667)" />
    <path
       id="path78"
       d="m 0,0 -32.167,-18.784 0.184,-37.25 32.351,-18.465 32.167,18.784 -0.184,37.25 z"
       style="fill:#4fc6f4;fill-opacity:1;fill-rule:nonzero;stroke:#231f20;stroke-width:1;stroke-linecap:butt;stroke-linejoin:miter;stroke-miterlimit:10;stroke-dasharray:none;stroke-opacity:1"
       transform="matrix(1.3333333,0,0,-1.3333333,573.96307,4.2282667)" />
    <path
       id="path79"
       d="m 0,0 -32.167,-18.784 0.184,-37.25 32.351,-18.465 32.167,18.784 -0.184,37.25 z"
       style="fill:#4fc6f4;fill-opacity:1;fill-rule:nonzero;stroke:#231f20;stroke-width:1;stroke-linecap:butt;stroke-linejoin:miter;stroke-miterlimit:10;stroke-dasharray:none;stroke-opacity:1"
       transform="matrix(1.3333333,0,0,-1.3333333,663.66253,4.2282667)" />
    <path
       id="path80"
       d="m 0,0 -32.167,-18.784 0.184,-37.25 32.351,-18.465 32.167,18.784 -0.184,37.25 z"
       style="fill:#4fc6f4;fill-opacity:1;fill-rule:nonzero;stroke:#231f20;stroke-width:1;stroke-linecap:butt;stroke-linejoin:miter;stroke-miterlimit:10;stroke-dasharray:none;stroke-opacity:1"
       transform="matrix(1.3333333,0,0,-1.3333333,125.46573,4.2282667)" />
    <path
       id="path81"
       d="m 0,0 -32.167,-18.784 0.184,-37.25 32.351,-18.465 32.167,18.785 -0.184,37.249 z"
       style="fill:#4fc6f4;fill-opacity:1;fill-rule:nonzero;stroke:#231f20;stroke-width:1;stroke-linecap:butt;stroke-linejoin:miter;stroke-miterlimit:10;stroke-dasharray:none;stroke-opacity:1"
       transform="matrix(1.3333333,0,0,-1.3333333,125.46573,486.52707)" />
    <path
       id="path82"
       d="m 0,0 -32.167,-18.784 0.184,-37.25 32.351,-18.465 32.167,18.784 -0.184,37.25 z"
       style="fill:#4fc6f4;fill-opacity:1;fill-rule:nonzero;stroke:#231f20;stroke-width:1;stroke-linecap:butt;stroke-linejoin:miter;stroke-miterlimit:10;stroke-dasharray:none;stroke-opacity:1"
       transform="matrix(1.3333333,0,0,-1.3333333,125.46573,647.2932)" />
    <path
       id="path83"
       d="m 0,0 -32.167,-18.784 0.184,-37.25 32.351,-18.465 32.167,18.784 -0.184,37.25 z"
       style="fill:#4fc6f4;fill-opacity:1;fill-rule:nonzero;stroke:#231f20;stroke-width:1;stroke-linecap:butt;stroke-linejoin:miter;stroke-miterlimit:10;stroke-dasharray:none;stroke-opacity:1"
       transform="matrix(1.3333333,0,0,-1.3333333,125.46573,808.05947)" />
    <path
       id="path84"
       d="m 0,0 -32.167,-18.784 0.184,-37.25 32.351,-18.465 32.167,18.784 -0.184,37.25 z"
       style="fill:#4fc6f4;fill-opacity:1;fill-rule:nonzero;stroke:#231f20;stroke-width:1;stroke-linecap:butt;stroke-linejoin:miter;stroke-miterlimit:10;stroke-dasharray:none;stroke-opacity:1"
       transform="matrix(1.3333333,0,0,-1.3333333,125.46573,968.82573)" />
    <path
       id="path85"
       d="M 0,0 30.097,18.699 64.371,-0.897 97.666,18.699 127.464,1.894 v -41.16 L 161.447,-58.4 v -38.169 l 32.389,-22.224 1.396,-37.472 -32.19,-20.109 -1.097,-39.487 -33.186,-21.526 -0.299,-40.262 -30.396,-20.131 -33.693,22.224 -33.477,-20.63 L 0,-279.543 v 40.462 l -33.186,19.632 v 39.864 l -33.585,20.53 v 39.066 l 33.585,20.53 0.398,39.165 34.582,21.128 z"
       style="fill:#4fc6f4;fill-opacity:1;fill-rule:nonzero;stroke:#231f20;stroke-width:1;stroke-linecap:butt;stroke-linejoin:miter;stroke-miterlimit:10;stroke-dasharray:none;stroke-opacity:1"
       transform="matrix(1.3333333,0,0,-1.3333333,308.98133,431.16253)" />
    <path
       id="path86"
       d="m 5.2607766,0.22264375 c 2.5664062,0 4.5703125,-1.57031245 4.5703125,-3.90234375 0,-1.6289062 -1.03125,-2.8007812 -2.7070313,-3.46875 v -0.058594 c 1.6523438,-0.785156 2.203125,-2.003906 2.203125,-3.140625 0,-1.664062 -1.3007812,-3.304687 -3.9023437,-3.304687 -2.34375,0 -4.1484375,1.453125 -4.1484375,3.574219 0,1.1601558 0.6445312,2.3085933 2.1328125,3.0117183 l 0.011719,0.070312 c -1.640625,0.703125 -2.66015624,1.8984375 -2.66015624,3.5859375 0,1.96875 1.69921874,3.63281245 4.49999974,3.63281295 z m 0.046875,-1.31249995 c -1.7109375,0 -2.7539063,-1.2070313 -2.6835938,-2.5664063 0,-1.2773437 0.84375,-2.3085937 2.4140625,-2.765625 1.8164063,0.515625 2.953125,1.3007813 2.953125,2.9296875 0,1.3828125 -1.0546875,2.4023438 -2.6835937,2.4023438 z m 0.023437,-11.2617188 c 1.6289062,0 2.2617187,1.113281 2.2617187,2.191406 0,1.2187503 -0.8789062,2.0507815 -2.0390625,2.4375003 -1.546875,-0.4101563 -2.5664062,-1.1367188 -2.5664062,-2.4726563 0,-1.160156 0.8320312,-2.15625 2.34375,-2.15625 z M 18.857456,-1.25e-5 v -3.65625 h 1.875 v -1.4179687 h -1.875 v -8.3437498 h -1.96875 l -5.988281,8.566406 v 1.1953125 h 6.246094 v 3.65625 z m -6.117187,-5.0742187 v -0.046875 L 16.021519,-9.6797 c 0.375,-0.621094 0.703125,-1.207031 1.125,-1.992187 h 0.05859 c -0.04687,0.703125 -0.05859,1.40625 -0.05859,2.1093745 v 4.4882813 z m 0,0"
       style="fill:#231f20;fill-opacity:1;fill-rule:nonzero;stroke:none"
       aria-label="84"
       transform="matrix(1.3333333,0,0,1.3333333,673.6536,1232.4063)" />
  </g>
</svg>
