<?xml version="1.0" encoding="UTF-8" standalone="no"?>
<!-- Created with Inkscape (http://www.inkscape.org/) -->

<svg
   version="1.1"
   id="svg1"
   width="793.70135"
   height="1248"
   viewBox="0 0 793.70135 1248"
   sodipodi:docname="upload_q2fzyp5botmlzmtfc2jpnkhjjd.pdf"
   xmlns:inkscape="http://www.inkscape.org/namespaces/inkscape"
   xmlns:sodipodi="http://sodipodi.sourceforge.net/DTD/sodipodi-0.dtd"
   xmlns="http://www.w3.org/2000/svg"
   xmlns:svg="http://www.w3.org/2000/svg">
  <defs
     id="defs1" />
  <sodipodi:namedview
     id="namedview1"
     pagecolor="#ffffff"
     bordercolor="#000000"
     borderopacity="0.25"
     inkscape:showpageshadow="2"
     inkscape:pageopacity="0.0"
     inkscape:pagecheckerboard="0"
     inkscape:deskcolor="#d1d1d1">
    <inkscape:page
       x="0"
       y="0"
       inkscape:label="1"
       id="page1"
       width="793.70135"
       height="1248"
       margin="8.7091064 41.139999 3.4586666 37.058266"
       bleed="0" />
  </sodipodi:namedview>
  <g
     id="layer-MC0"
     inkscape:groupmode="layer"
     inkscape:label="Layer 1">
    <path
       id="path1"
       d="m 0,0 -32.167,-18.784 0.184,-37.25 32.351,-18.465 32.167,18.784 -0.184,37.25 z"
       style="fill:#4fc6f4;fill-opacity:1;fill-rule:nonzero;stroke:#231f20;stroke-width:1;stroke-linecap:butt;stroke-linejoin:miter;stroke-miterlimit:10;stroke-dasharray:none;stroke-opacity:1"
       transform="matrix(1.3333333,0,0,-1.3333333,170.31547,245.46373)" />
    <path
       id="path2"
       d="m 0,0 -32.167,-18.784 0.184,-37.25 32.351,-18.465 32.167,18.784 -0.184,37.25 z"
       style="fill:#4fc6f4;fill-opacity:1;fill-rule:nonzero;stroke:#231f20;stroke-width:1;stroke-linecap:butt;stroke-linejoin:miter;stroke-miterlimit:10;stroke-dasharray:none;stroke-opacity:1"
       transform="matrix(1.3333333,0,0,-1.3333333,260.01493,245.46373)" />
    <path
       id="path3"
       d="m 0,0 -32.167,-18.784 0.184,-37.25 32.351,-18.465 32.167,18.784 -0.184,37.25 z"
       style="fill:#4fc6f4;fill-opacity:1;fill-rule:nonzero;stroke:#231f20;stroke-width:1;stroke-linecap:butt;stroke-linejoin:miter;stroke-miterlimit:10;stroke-dasharray:none;stroke-opacity:1"
       transform="matrix(1.3333333,0,0,-1.3333333,349.7144,245.46373)" />
    <path
       id="path4"
       d="m 0,0 -32.167,-18.784 0.184,-37.25 32.351,-18.465 32.167,18.784 -0.184,37.25 z"
       style="fill:#4fc6f4;fill-opacity:1;fill-rule:nonzero;stroke:#231f20;stroke-width:1;stroke-linecap:butt;stroke-linejoin:miter;stroke-miterlimit:10;stroke-dasharray:none;stroke-opacity:1"
       transform="matrix(1.3333333,0,0,-1.3333333,439.41387,245.46373)" />
    <path
       id="path5"
       d="m 0,0 -32.167,-18.784 0.184,-37.25 32.351,-18.465 32.167,18.784 -0.184,37.25 z"
       style="fill:#4fc6f4;fill-opacity:1;fill-rule:nonzero;stroke:#231f20;stroke-width:1;stroke-linecap:butt;stroke-linejoin:miter;stroke-miterlimit:10;stroke-dasharray:none;stroke-opacity:1"
       transform="matrix(1.3333333,0,0,-1.3333333,529.11333,245.46373)" />
    <path
       id="path6"
       d="m 0,0 -32.167,-18.784 0.184,-37.25 32.351,-18.465 32.167,18.784 -0.184,37.25 z"
       style="fill:#4fc6f4;fill-opacity:1;fill-rule:nonzero;stroke:#231f20;stroke-width:1;stroke-linecap:butt;stroke-linejoin:miter;stroke-miterlimit:10;stroke-dasharray:none;stroke-opacity:1"
       transform="matrix(1.3333333,0,0,-1.3333333,618.8128,245.46373)" />
    <path
       id="path7"
       d="m 0,0 -32.167,-18.784 0.184,-37.25 32.351,-18.465 32.167,18.784 -0.184,37.25 z"
       style="fill:#4fc6f4;fill-opacity:1;fill-rule:nonzero;stroke:#231f20;stroke-width:1;stroke-linecap:butt;stroke-linejoin:miter;stroke-miterlimit:10;stroke-dasharray:none;stroke-opacity:1"
       transform="matrix(1.3333333,0,0,-1.3333333,215.1652,325.7608)" />
    <path
       id="path8"
       d="m 0,0 -32.167,-18.784 0.184,-37.25 32.351,-18.465 32.167,18.784 -0.184,37.25 z"
       style="fill:#4fc6f4;fill-opacity:1;fill-rule:nonzero;stroke:#231f20;stroke-width:1;stroke-linecap:butt;stroke-linejoin:miter;stroke-miterlimit:10;stroke-dasharray:none;stroke-opacity:1"
       transform="matrix(1.3333333,0,0,-1.3333333,304.86467,325.7608)" />
    <path
       id="path9"
       d="m 0,0 -32.167,-18.784 0.184,-37.25 32.351,-18.465 32.167,18.784 -0.184,37.25 z"
       style="fill:#4fc6f4;fill-opacity:1;fill-rule:nonzero;stroke:#231f20;stroke-width:1;stroke-linecap:butt;stroke-linejoin:miter;stroke-miterlimit:10;stroke-dasharray:none;stroke-opacity:1"
       transform="matrix(1.3333333,0,0,-1.3333333,394.56413,325.7608)" />
    <path
       id="path10"
       d="m 0,0 -32.167,-18.784 0.184,-37.25 32.351,-18.465 32.167,18.784 -0.184,37.25 z"
       style="fill:#4fc6f4;fill-opacity:1;fill-rule:nonzero;stroke:#231f20;stroke-width:1;stroke-linecap:butt;stroke-linejoin:miter;stroke-miterlimit:10;stroke-dasharray:none;stroke-opacity:1"
       transform="matrix(1.3333333,0,0,-1.3333333,484.2636,325.7608)" />
    <path
       id="path11"
       d="m 0,0 -32.167,-18.784 0.184,-37.25 32.351,-18.465 32.167,18.784 -0.184,37.25 z"
       style="fill:#4fc6f4;fill-opacity:1;fill-rule:nonzero;stroke:#231f20;stroke-width:1;stroke-linecap:butt;stroke-linejoin:miter;stroke-miterlimit:10;stroke-dasharray:none;stroke-opacity:1"
       transform="matrix(1.3333333,0,0,-1.3333333,573.96307,325.7608)" />
    <path
       id="path12"
       d="m 0,0 -32.167,-18.784 0.184,-37.25 32.351,-18.465 32.167,18.785 -0.184,37.249 z"
       style="fill:#4fc6f4;fill-opacity:1;fill-rule:nonzero;stroke:#231f20;stroke-width:1;stroke-linecap:butt;stroke-linejoin:miter;stroke-miterlimit:10;stroke-dasharray:none;stroke-opacity:1"
       transform="matrix(1.3333333,0,0,-1.3333333,215.1652,164.99453)" />
    <path
       id="path13"
       d="m 0,0 -32.167,-18.784 0.184,-37.25 32.351,-18.465 32.167,18.785 -0.184,37.249 z"
       style="fill:#4fc6f4;fill-opacity:1;fill-rule:nonzero;stroke:#231f20;stroke-width:1;stroke-linecap:butt;stroke-linejoin:miter;stroke-miterlimit:10;stroke-dasharray:none;stroke-opacity:1"
       transform="matrix(1.3333333,0,0,-1.3333333,304.86467,164.99453)" />
    <path
       id="path14"
       d="m 0,0 -32.167,-18.784 0.184,-37.25 32.351,-18.465 32.167,18.785 -0.184,37.249 z"
       style="fill:#4fc6f4;fill-opacity:1;fill-rule:nonzero;stroke:#231f20;stroke-width:1;stroke-linecap:butt;stroke-linejoin:miter;stroke-miterlimit:10;stroke-dasharray:none;stroke-opacity:1"
       transform="matrix(1.3333333,0,0,-1.3333333,394.56413,164.99453)" />
    <path
       id="path15"
       d="m 0,0 -32.167,-18.784 0.184,-37.25 32.351,-18.465 32.167,18.785 -0.184,37.249 z"
       style="fill:#4fc6f4;fill-opacity:1;fill-rule:nonzero;stroke:#231f20;stroke-width:1;stroke-linecap:butt;stroke-linejoin:miter;stroke-miterlimit:10;stroke-dasharray:none;stroke-opacity:1"
       transform="matrix(1.3333333,0,0,-1.3333333,484.2636,164.99453)" />
    <path
       id="path16"
       d="m 0,0 -32.167,-18.784 0.184,-37.25 32.351,-18.465 32.167,18.785 -0.184,37.249 z"
       style="fill:#4fc6f4;fill-opacity:1;fill-rule:nonzero;stroke:#231f20;stroke-width:1;stroke-linecap:butt;stroke-linejoin:miter;stroke-miterlimit:10;stroke-dasharray:none;stroke-opacity:1"
       transform="matrix(1.3333333,0,0,-1.3333333,573.96307,164.99453)" />
    <path
       id="path17"
       d="m 0,0 -32.167,-18.784 0.184,-37.25 32.351,-18.465 32.167,18.784 -0.184,37.25 z"
       style="fill:#4fc6f4;fill-opacity:1;fill-rule:nonzero;stroke:#231f20;stroke-width:1;stroke-linecap:butt;stroke-linejoin:miter;stroke-miterlimit:10;stroke-dasharray:none;stroke-opacity:1"
       transform="matrix(1.3333333,0,0,-1.3333333,170.31547,406.23)" />
    <path
       id="path18"
       d="m 0,0 -32.167,-18.784 0.184,-37.25 32.351,-18.465 32.167,18.784 -0.184,37.25 z"
       style="fill:#4fc6f4;fill-opacity:1;fill-rule:nonzero;stroke:#231f20;stroke-width:1;stroke-linecap:butt;stroke-linejoin:miter;stroke-miterlimit:10;stroke-dasharray:none;stroke-opacity:1"
       transform="matrix(1.3333333,0,0,-1.3333333,260.01493,406.23)" />
    <path
       id="path19"
       d="m 0,0 -32.167,-18.784 0.184,-37.25 32.351,-18.465 32.167,18.784 -0.184,37.25 z"
       style="fill:#4fc6f4;fill-opacity:1;fill-rule:nonzero;stroke:#231f20;stroke-width:1;stroke-linecap:butt;stroke-linejoin:miter;stroke-miterlimit:10;stroke-dasharray:none;stroke-opacity:1"
       transform="matrix(1.3333333,0,0,-1.3333333,529.11333,406.23)" />
    <path
       id="path20"
       d="m 0,0 -32.167,-18.784 0.184,-37.25 32.351,-18.465 32.167,18.784 -0.184,37.25 z"
       style="fill:#4fc6f4;fill-opacity:1;fill-rule:nonzero;stroke:#231f20;stroke-width:1;stroke-linecap:butt;stroke-linejoin:miter;stroke-miterlimit:10;stroke-dasharray:none;stroke-opacity:1"
       transform="matrix(1.3333333,0,0,-1.3333333,618.8128,406.23)" />
    <path
       id="path21"
       d="m 0,0 -32.167,-18.784 0.184,-37.25 32.351,-18.465 32.167,18.785 -0.184,37.249 z"
       style="fill:#4fc6f4;fill-opacity:1;fill-rule:nonzero;stroke:#231f20;stroke-width:1;stroke-linecap:butt;stroke-linejoin:miter;stroke-miterlimit:10;stroke-dasharray:none;stroke-opacity:1"
       transform="matrix(1.3333333,0,0,-1.3333333,215.1652,486.52707)" />
    <path
       id="path22"
       d="m 0,0 -32.167,-18.784 0.184,-37.25 32.351,-18.465 32.167,18.785 -0.184,37.249 z"
       style="fill:#4fc6f4;fill-opacity:1;fill-rule:nonzero;stroke:#231f20;stroke-width:1;stroke-linecap:butt;stroke-linejoin:miter;stroke-miterlimit:10;stroke-dasharray:none;stroke-opacity:1"
       transform="matrix(1.3333333,0,0,-1.3333333,573.96307,486.52707)" />
    <path
       id="path23"
       d="m 0,0 -32.167,-18.784 0.184,-37.25 32.351,-18.465 32.167,18.784 -0.184,37.25 z"
       style="fill:#4fc6f4;fill-opacity:1;fill-rule:nonzero;stroke:#231f20;stroke-width:1;stroke-linecap:butt;stroke-linejoin:miter;stroke-miterlimit:10;stroke-dasharray:none;stroke-opacity:1"
       transform="matrix(1.3333333,0,0,-1.3333333,170.31547,566.99627)" />
    <path
       id="path24"
       d="m 0,0 -32.167,-18.784 0.184,-37.25 32.351,-18.465 32.167,18.784 -0.184,37.25 z"
       style="fill:#4fc6f4;fill-opacity:1;fill-rule:nonzero;stroke:#231f20;stroke-width:1;stroke-linecap:butt;stroke-linejoin:miter;stroke-miterlimit:10;stroke-dasharray:none;stroke-opacity:1"
       transform="matrix(1.3333333,0,0,-1.3333333,618.8128,566.99627)" />
    <path
       id="path25"
       d="m 0,0 -32.167,-18.784 0.184,-37.25 32.351,-18.465 32.167,18.784 -0.184,37.25 z"
       style="fill:#4fc6f4;fill-opacity:1;fill-rule:nonzero;stroke:#231f20;stroke-width:1;stroke-linecap:butt;stroke-linejoin:miter;stroke-miterlimit:10;stroke-dasharray:none;stroke-opacity:1"
       transform="matrix(1.3333333,0,0,-1.3333333,215.1652,647.2932)" />
    <path
       id="path26"
       d="m 0,0 -32.167,-18.784 0.184,-37.25 32.351,-18.465 32.167,18.784 -0.184,37.25 z"
       style="fill:#4fc6f4;fill-opacity:1;fill-rule:nonzero;stroke:#231f20;stroke-width:1;stroke-linecap:butt;stroke-linejoin:miter;stroke-miterlimit:10;stroke-dasharray:none;stroke-opacity:1"
       transform="matrix(1.3333333,0,0,-1.3333333,573.96307,647.2932)" />
    <path
       id="path27"
       d="m 0,0 -32.167,-18.784 0.184,-37.25 32.351,-18.465 32.167,18.784 -0.184,37.25 z"
       style="fill:#4fc6f4;fill-opacity:1;fill-rule:nonzero;stroke:#231f20;stroke-width:1;stroke-linecap:butt;stroke-linejoin:miter;stroke-miterlimit:10;stroke-dasharray:none;stroke-opacity:1"
       transform="matrix(1.3333333,0,0,-1.3333333,170.31547,727.76253)" />
    <path
       id="path28"
       d="m 0,0 -32.167,-18.784 0.184,-37.25 32.351,-18.465 32.167,18.784 -0.184,37.25 z"
       style="fill:#4fc6f4;fill-opacity:1;fill-rule:nonzero;stroke:#231f20;stroke-width:1;stroke-linecap:butt;stroke-linejoin:miter;stroke-miterlimit:10;stroke-dasharray:none;stroke-opacity:1"
       transform="matrix(1.3333333,0,0,-1.3333333,260.01493,727.76253)" />
    <path
       id="path29"
       d="m 0,0 -32.167,-18.784 0.184,-37.25 32.351,-18.465 32.167,18.784 -0.184,37.25 z"
       style="fill:#4fc6f4;fill-opacity:1;fill-rule:nonzero;stroke:#231f20;stroke-width:1;stroke-linecap:butt;stroke-linejoin:miter;stroke-miterlimit:10;stroke-dasharray:none;stroke-opacity:1"
       transform="matrix(1.3333333,0,0,-1.3333333,529.11333,727.76253)" />
    <path
       id="path30"
       d="m 0,0 -32.167,-18.784 0.184,-37.25 32.351,-18.465 32.167,18.784 -0.184,37.25 z"
       style="fill:#4fc6f4;fill-opacity:1;fill-rule:nonzero;stroke:#231f20;stroke-width:1;stroke-linecap:butt;stroke-linejoin:miter;stroke-miterlimit:10;stroke-dasharray:none;stroke-opacity:1"
       transform="matrix(1.3333333,0,0,-1.3333333,618.8128,727.76253)" />
    <path
       id="path31"
       d="m 0,0 -32.167,-18.784 0.184,-37.25 32.351,-18.465 32.167,18.784 -0.184,37.25 z"
       style="fill:#4fc6f4;fill-opacity:1;fill-rule:nonzero;stroke:#231f20;stroke-width:1;stroke-linecap:butt;stroke-linejoin:miter;stroke-miterlimit:10;stroke-dasharray:none;stroke-opacity:1"
       transform="matrix(1.3333333,0,0,-1.3333333,215.1652,808.05947)" />
    <path
       id="path32"
       d="m 0,0 -32.167,-18.784 0.184,-37.25 32.351,-18.465 32.167,18.784 -0.184,37.25 z"
       style="fill:#4fc6f4;fill-opacity:1;fill-rule:nonzero;stroke:#231f20;stroke-width:1;stroke-linecap:butt;stroke-linejoin:miter;stroke-miterlimit:10;stroke-dasharray:none;stroke-opacity:1"
       transform="matrix(1.3333333,0,0,-1.3333333,304.86467,808.05947)" />
    <path
       id="path33"
       d="m 0,0 -32.167,-18.784 0.184,-37.25 32.351,-18.465 32.167,18.784 -0.184,37.25 z"
       style="fill:#4fc6f4;fill-opacity:1;fill-rule:nonzero;stroke:#231f20;stroke-width:1;stroke-linecap:butt;stroke-linejoin:miter;stroke-miterlimit:10;stroke-dasharray:none;stroke-opacity:1"
       transform="matrix(1.3333333,0,0,-1.3333333,394.56413,808.05947)" />
    <path
       id="path34"
       d="m 0,0 -32.167,-18.784 0.184,-37.25 32.351,-18.465 32.167,18.784 -0.184,37.25 z"
       style="fill:#4fc6f4;fill-opacity:1;fill-rule:nonzero;stroke:#231f20;stroke-width:1;stroke-linecap:butt;stroke-linejoin:miter;stroke-miterlimit:10;stroke-dasharray:none;stroke-opacity:1"
       transform="matrix(1.3333333,0,0,-1.3333333,484.2636,808.05947)" />
    <path
       id="path35"
       d="m 0,0 -32.167,-18.784 0.184,-37.25 32.351,-18.465 32.167,18.784 -0.184,37.25 z"
       style="fill:#4fc6f4;fill-opacity:1;fill-rule:nonzero;stroke:#231f20;stroke-width:1;stroke-linecap:butt;stroke-linejoin:miter;stroke-miterlimit:10;stroke-dasharray:none;stroke-opacity:1"
       transform="matrix(1.3333333,0,0,-1.3333333,573.96307,808.05947)" />
    <path
       id="path36"
       d="m 0,0 -32.167,-18.784 0.184,-37.25 32.351,-18.465 32.167,18.784 -0.184,37.25 z"
       style="fill:#4fc6f4;fill-opacity:1;fill-rule:nonzero;stroke:#231f20;stroke-width:1;stroke-linecap:butt;stroke-linejoin:miter;stroke-miterlimit:10;stroke-dasharray:none;stroke-opacity:1"
       transform="matrix(1.3333333,0,0,-1.3333333,170.31547,888.52867)" />
    <path
       id="path37"
       d="m 0,0 -32.167,-18.784 0.184,-37.25 32.351,-18.465 32.167,18.784 -0.184,37.25 z"
       style="fill:#4fc6f4;fill-opacity:1;fill-rule:nonzero;stroke:#231f20;stroke-width:1;stroke-linecap:butt;stroke-linejoin:miter;stroke-miterlimit:10;stroke-dasharray:none;stroke-opacity:1"
       transform="matrix(1.3333333,0,0,-1.3333333,260.01493,888.52867)" />
    <path
       id="path38"
       d="m 0,0 -32.167,-18.784 0.184,-37.25 32.351,-18.465 32.167,18.784 -0.184,37.25 z"
       style="fill:#4fc6f4;fill-opacity:1;fill-rule:nonzero;stroke:#231f20;stroke-width:1;stroke-linecap:butt;stroke-linejoin:miter;stroke-miterlimit:10;stroke-dasharray:none;stroke-opacity:1"
       transform="matrix(1.3333333,0,0,-1.3333333,349.7144,888.52867)" />
    <path
       id="path39"
       d="m 0,0 -32.167,-18.784 0.184,-37.25 32.351,-18.465 32.167,18.784 -0.184,37.25 z"
       style="fill:#4fc6f4;fill-opacity:1;fill-rule:nonzero;stroke:#231f20;stroke-width:1;stroke-linecap:butt;stroke-linejoin:miter;stroke-miterlimit:10;stroke-dasharray:none;stroke-opacity:1"
       transform="matrix(1.3333333,0,0,-1.3333333,439.41387,888.52867)" />
    <path
       id="path40"
       d="m 0,0 -32.167,-18.784 0.184,-37.25 32.351,-18.465 32.167,18.784 -0.184,37.25 z"
       style="fill:#4fc6f4;fill-opacity:1;fill-rule:nonzero;stroke:#231f20;stroke-width:1;stroke-linecap:butt;stroke-linejoin:miter;stroke-miterlimit:10;stroke-dasharray:none;stroke-opacity:1"
       transform="matrix(1.3333333,0,0,-1.3333333,529.11333,888.52867)" />
    <path
       id="path41"
       d="m 0,0 -32.167,-18.784 0.184,-37.25 32.351,-18.465 32.167,18.784 -0.184,37.25 z"
       style="fill:#4fc6f4;fill-opacity:1;fill-rule:nonzero;stroke:#231f20;stroke-width:1;stroke-linecap:butt;stroke-linejoin:miter;stroke-miterlimit:10;stroke-dasharray:none;stroke-opacity:1"
       transform="matrix(1.3333333,0,0,-1.3333333,618.8128,888.52867)" />
    <path
       id="path42"
       d="m 0,0 -32.167,-18.784 0.184,-37.25 32.351,-18.465 32.167,18.784 -0.184,37.25 z"
       style="fill:#4fc6f4;fill-opacity:1;fill-rule:nonzero;stroke:#231f20;stroke-width:1;stroke-linecap:butt;stroke-linejoin:miter;stroke-miterlimit:10;stroke-dasharray:none;stroke-opacity:1"
       transform="matrix(1.3333333,0,0,-1.3333333,170.31547,1049.2949)" />
    <path
       id="path43"
       d="m 0,0 -32.167,-18.784 0.184,-37.25 32.351,-18.465 32.167,18.784 -0.184,37.25 z"
       style="fill:#4fc6f4;fill-opacity:1;fill-rule:nonzero;stroke:#231f20;stroke-width:1;stroke-linecap:butt;stroke-linejoin:miter;stroke-miterlimit:10;stroke-dasharray:none;stroke-opacity:1"
       transform="matrix(1.3333333,0,0,-1.3333333,260.01493,1049.2949)" />
    <path
       id="path44"
       d="m 0,0 -32.167,-18.784 0.184,-37.25 32.351,-18.465 32.167,18.784 -0.184,37.25 z"
       style="fill:#4fc6f4;fill-opacity:1;fill-rule:nonzero;stroke:#231f20;stroke-width:1;stroke-linecap:butt;stroke-linejoin:miter;stroke-miterlimit:10;stroke-dasharray:none;stroke-opacity:1"
       transform="matrix(1.3333333,0,0,-1.3333333,349.7144,1049.2949)" />
    <path
       id="path45"
       d="m 0,0 -32.167,-18.784 0.184,-37.25 32.351,-18.465 32.167,18.784 -0.184,37.25 z"
       style="fill:#4fc6f4;fill-opacity:1;fill-rule:nonzero;stroke:#231f20;stroke-width:1;stroke-linecap:butt;stroke-linejoin:miter;stroke-miterlimit:10;stroke-dasharray:none;stroke-opacity:1"
       transform="matrix(1.3333333,0,0,-1.3333333,439.41387,1049.2949)" />
    <path
       id="path46"
       d="m 0,0 -32.167,-18.784 0.184,-37.25 32.351,-18.465 32.167,18.784 -0.184,37.25 z"
       style="fill:#4fc6f4;fill-opacity:1;fill-rule:nonzero;stroke:#231f20;stroke-width:1;stroke-linecap:butt;stroke-linejoin:miter;stroke-miterlimit:10;stroke-dasharray:none;stroke-opacity:1"
       transform="matrix(1.3333333,0,0,-1.3333333,529.11333,1049.2949)" />
    <path
       id="path47"
       d="m 0,0 -32.167,-18.784 0.184,-37.25 32.351,-18.465 32.167,18.784 -0.184,37.25 z"
       style="fill:#4fc6f4;fill-opacity:1;fill-rule:nonzero;stroke:#231f20;stroke-width:1;stroke-linecap:butt;stroke-linejoin:miter;stroke-miterlimit:10;stroke-dasharray:none;stroke-opacity:1"
       transform="matrix(1.3333333,0,0,-1.3333333,618.8128,1049.2949)" />
    <path
       id="path48"
       d="m 0,0 -32.167,-18.784 0.184,-37.25 32.351,-18.465 32.167,18.784 -0.184,37.25 z"
       style="fill:#4fc6f4;fill-opacity:1;fill-rule:nonzero;stroke:#231f20;stroke-width:1;stroke-linecap:butt;stroke-linejoin:miter;stroke-miterlimit:10;stroke-dasharray:none;stroke-opacity:1"
       transform="matrix(1.3333333,0,0,-1.3333333,708.5124,245.46373)" />
    <path
       id="path49"
       d="m 0,0 -32.167,-18.784 0.184,-37.25 32.351,-18.465 32.167,18.784 -0.184,37.25 z"
       style="fill:#4fc6f4;fill-opacity:1;fill-rule:nonzero;stroke:#231f20;stroke-width:1;stroke-linecap:butt;stroke-linejoin:miter;stroke-miterlimit:10;stroke-dasharray:none;stroke-opacity:1"
       transform="matrix(1.3333333,0,0,-1.3333333,708.5124,406.23)" />
    <path
       id="path50"
       d="m 0,0 -32.167,-18.784 0.184,-37.25 32.351,-18.465 32.167,18.784 -0.184,37.25 z"
       style="fill:#4fc6f4;fill-opacity:1;fill-rule:nonzero;stroke:#231f20;stroke-width:1;stroke-linecap:butt;stroke-linejoin:miter;stroke-miterlimit:10;stroke-dasharray:none;stroke-opacity:1"
       transform="matrix(1.3333333,0,0,-1.3333333,708.5124,566.99627)" />
    <path
       id="path51"
       d="m 0,0 -32.167,-18.784 0.184,-37.25 32.351,-18.465 32.167,18.784 -0.184,37.25 z"
       style="fill:#4fc6f4;fill-opacity:1;fill-rule:nonzero;stroke:#231f20;stroke-width:1;stroke-linecap:butt;stroke-linejoin:miter;stroke-miterlimit:10;stroke-dasharray:none;stroke-opacity:1"
       transform="matrix(1.3333333,0,0,-1.3333333,708.5124,727.76253)" />
    <path
       id="path52"
       d="m 0,0 -32.167,-18.784 0.184,-37.25 32.351,-18.465 32.167,18.784 -0.184,37.25 z"
       style="fill:#4fc6f4;fill-opacity:1;fill-rule:nonzero;stroke:#231f20;stroke-width:1;stroke-linecap:butt;stroke-linejoin:miter;stroke-miterlimit:10;stroke-dasharray:none;stroke-opacity:1"
       transform="matrix(1.3333333,0,0,-1.3333333,708.5124,888.52867)" />
    <path
       id="path53"
       d="m 0,0 -32.167,-18.784 0.184,-37.25 32.351,-18.465 32.167,18.784 -0.184,37.25 z"
       style="fill:#4fc6f4;fill-opacity:1;fill-rule:nonzero;stroke:#231f20;stroke-width:1;stroke-linecap:butt;stroke-linejoin:miter;stroke-miterlimit:10;stroke-dasharray:none;stroke-opacity:1"
       transform="matrix(1.3333333,0,0,-1.3333333,80.615867,245.46373)" />
    <path
       id="path54"
       d="m 0,0 -32.167,-18.784 0.184,-37.25 32.351,-18.465 32.167,18.785 -0.184,37.249 z"
       style="fill:#4fc6f4;fill-opacity:1;fill-rule:nonzero;stroke:#231f20;stroke-width:1;stroke-linecap:butt;stroke-linejoin:miter;stroke-miterlimit:10;stroke-dasharray:none;stroke-opacity:1"
       transform="matrix(1.3333333,0,0,-1.3333333,170.31547,84.6976)" />
    <path
       id="path55"
       d="m 0,0 -32.167,-18.784 0.184,-37.25 32.351,-18.465 32.167,18.785 -0.184,37.249 z"
       style="fill:#4fc6f4;fill-opacity:1;fill-rule:nonzero;stroke:#231f20;stroke-width:1;stroke-linecap:butt;stroke-linejoin:miter;stroke-miterlimit:10;stroke-dasharray:none;stroke-opacity:1"
       transform="matrix(1.3333333,0,0,-1.3333333,260.01493,84.6976)" />
    <path
       id="path56"
       d="m 0,0 -32.167,-18.784 0.184,-37.25 32.351,-18.465 32.167,18.785 -0.184,37.249 z"
       style="fill:#4fc6f4;fill-opacity:1;fill-rule:nonzero;stroke:#231f20;stroke-width:1;stroke-linecap:butt;stroke-linejoin:miter;stroke-miterlimit:10;stroke-dasharray:none;stroke-opacity:1"
       transform="matrix(1.3333333,0,0,-1.3333333,349.7144,84.6976)" />
    <path
       id="path57"
       d="m 0,0 -32.167,-18.784 0.184,-37.25 32.351,-18.465 32.167,18.785 -0.184,37.249 z"
       style="fill:#4fc6f4;fill-opacity:1;fill-rule:nonzero;stroke:#231f20;stroke-width:1;stroke-linecap:butt;stroke-linejoin:miter;stroke-miterlimit:10;stroke-dasharray:none;stroke-opacity:1"
       transform="matrix(1.3333333,0,0,-1.3333333,439.41387,84.6976)" />
    <path
       id="path58"
       d="m 0,0 -32.167,-18.784 0.184,-37.25 32.351,-18.465 32.167,18.785 -0.184,37.249 z"
       style="fill:#4fc6f4;fill-opacity:1;fill-rule:nonzero;stroke:#231f20;stroke-width:1;stroke-linecap:butt;stroke-linejoin:miter;stroke-miterlimit:10;stroke-dasharray:none;stroke-opacity:1"
       transform="matrix(1.3333333,0,0,-1.3333333,529.11333,84.6976)" />
    <path
       id="path59"
       d="m 0,0 -32.167,-18.784 0.184,-37.25 32.351,-18.465 32.167,18.785 -0.184,37.249 z"
       style="fill:#4fc6f4;fill-opacity:1;fill-rule:nonzero;stroke:#231f20;stroke-width:1;stroke-linecap:butt;stroke-linejoin:miter;stroke-miterlimit:10;stroke-dasharray:none;stroke-opacity:1"
       transform="matrix(1.3333333,0,0,-1.3333333,618.8128,84.6976)" />
    <path
       id="path60"
       d="m 0,0 -32.167,-18.784 0.184,-37.25 32.351,-18.465 32.167,18.785 -0.184,37.249 z"
       style="fill:#4fc6f4;fill-opacity:1;fill-rule:nonzero;stroke:#231f20;stroke-width:1;stroke-linecap:butt;stroke-linejoin:miter;stroke-miterlimit:10;stroke-dasharray:none;stroke-opacity:1"
       transform="matrix(1.3333333,0,0,-1.3333333,708.5124,84.6976)" />
    <path
       id="path61"
       d="m 0,0 -32.167,-18.784 0.184,-37.25 32.351,-18.465 32.167,18.785 -0.184,37.249 z"
       style="fill:#4fc6f4;fill-opacity:1;fill-rule:nonzero;stroke:#231f20;stroke-width:1;stroke-linecap:butt;stroke-linejoin:miter;stroke-miterlimit:10;stroke-dasharray:none;stroke-opacity:1"
       transform="matrix(1.3333333,0,0,-1.3333333,80.615867,84.6976)" />
    <path
       id="path62"
       d="m 0,0 -32.167,-18.784 0.184,-37.25 32.351,-18.465 32.167,18.784 -0.184,37.25 z"
       style="fill:#4fc6f4;fill-opacity:1;fill-rule:nonzero;stroke:#231f20;stroke-width:1;stroke-linecap:butt;stroke-linejoin:miter;stroke-miterlimit:10;stroke-dasharray:none;stroke-opacity:1"
       transform="matrix(1.3333333,0,0,-1.3333333,80.615867,406.23)" />
    <path
       id="path63"
       d="m 0,0 -32.167,-18.784 0.184,-37.25 32.351,-18.465 32.167,18.784 -0.184,37.25 z"
       style="fill:#4fc6f4;fill-opacity:1;fill-rule:nonzero;stroke:#231f20;stroke-width:1;stroke-linecap:butt;stroke-linejoin:miter;stroke-miterlimit:10;stroke-dasharray:none;stroke-opacity:1"
       transform="matrix(1.3333333,0,0,-1.3333333,80.615867,566.99627)" />
    <path
       id="path64"
       d="m 0,0 -32.167,-18.784 0.184,-37.25 32.351,-18.465 32.167,18.784 -0.184,37.25 z"
       style="fill:#4fc6f4;fill-opacity:1;fill-rule:nonzero;stroke:#231f20;stroke-width:1;stroke-linecap:butt;stroke-linejoin:miter;stroke-miterlimit:10;stroke-dasharray:none;stroke-opacity:1"
       transform="matrix(1.3333333,0,0,-1.3333333,80.615867,727.76253)" />
    <path
       id="path65"
       d="m 0,0 -32.167,-18.784 0.184,-37.25 32.351,-18.465 32.167,18.784 -0.184,37.25 z"
       style="fill:#4fc6f4;fill-opacity:1;fill-rule:nonzero;stroke:#231f20;stroke-width:1;stroke-linecap:butt;stroke-linejoin:miter;stroke-miterlimit:10;stroke-dasharray:none;stroke-opacity:1"
       transform="matrix(1.3333333,0,0,-1.3333333,80.615867,888.52867)" />
    <path
       id="path66"
       d="m 0,0 -32.167,-18.784 0.184,-37.25 32.351,-18.465 32.167,18.784 -0.184,37.25 z"
       style="fill:#4fc6f4;fill-opacity:1;fill-rule:nonzero;stroke:#231f20;stroke-width:1;stroke-linecap:butt;stroke-linejoin:miter;stroke-miterlimit:10;stroke-dasharray:none;stroke-opacity:1"
       transform="matrix(1.3333333,0,0,-1.3333333,80.615867,1049.2949)" />
    <path
       id="path67"
       d="m 0,0 -32.167,-18.784 0.184,-37.25 32.351,-18.465 32.167,18.784 -0.184,37.25 z"
       style="fill:#4fc6f4;fill-opacity:1;fill-rule:nonzero;stroke:#231f20;stroke-width:1;stroke-linecap:butt;stroke-linejoin:miter;stroke-miterlimit:10;stroke-dasharray:none;stroke-opacity:1"
       transform="matrix(1.3333333,0,0,-1.3333333,215.1652,968.82573)" />
    <path
       id="path68"
       d="m 0,0 -32.167,-18.784 0.184,-37.25 32.351,-18.465 32.167,18.784 -0.184,37.25 z"
       style="fill:#4fc6f4;fill-opacity:1;fill-rule:nonzero;stroke:#231f20;stroke-width:1;stroke-linecap:butt;stroke-linejoin:miter;stroke-miterlimit:10;stroke-dasharray:none;stroke-opacity:1"
       transform="matrix(1.3333333,0,0,-1.3333333,304.86467,968.82573)" />
    <path
       id="path69"
       d="m 0,0 -32.167,-18.784 0.184,-37.25 32.351,-18.465 32.167,18.784 -0.184,37.25 z"
       style="fill:#4fc6f4;fill-opacity:1;fill-rule:nonzero;stroke:#231f20;stroke-width:1;stroke-linecap:butt;stroke-linejoin:miter;stroke-miterlimit:10;stroke-dasharray:none;stroke-opacity:1"
       transform="matrix(1.3333333,0,0,-1.3333333,394.56413,968.82573)" />
    <path
       id="path70"
       d="m 0,0 -32.167,-18.784 0.184,-37.25 32.351,-18.465 32.167,18.784 -0.184,37.25 z"
       style="fill:#4fc6f4;fill-opacity:1;fill-rule:nonzero;stroke:#231f20;stroke-width:1;stroke-linecap:butt;stroke-linejoin:miter;stroke-miterlimit:10;stroke-dasharray:none;stroke-opacity:1"
       transform="matrix(1.3333333,0,0,-1.3333333,484.2636,968.82573)" />
    <path
       id="path71"
       d="m 0,0 -32.167,-18.784 0.184,-37.25 32.351,-18.465 32.167,18.784 -0.184,37.25 z"
       style="fill:#4fc6f4;fill-opacity:1;fill-rule:nonzero;stroke:#231f20;stroke-width:1;stroke-linecap:butt;stroke-linejoin:miter;stroke-miterlimit:10;stroke-dasharray:none;stroke-opacity:1"
       transform="matrix(1.3333333,0,0,-1.3333333,573.96307,968.82573)" />
    <path
       id="path72"
       d="m 0,0 -32.167,-18.784 0.184,-37.25 32.351,-18.465 32.167,18.784 -0.184,37.25 z"
       style="fill:#4fc6f4;fill-opacity:1;fill-rule:nonzero;stroke:#231f20;stroke-width:1;stroke-linecap:butt;stroke-linejoin:miter;stroke-miterlimit:10;stroke-dasharray:none;stroke-opacity:1"
       transform="matrix(1.3333333,0,0,-1.3333333,663.66253,325.7608)" />
    <path
       id="path73"
       d="m 0,0 -32.167,-18.784 0.184,-37.25 32.351,-18.465 32.167,18.785 -0.184,37.249 z"
       style="fill:#4fc6f4;fill-opacity:1;fill-rule:nonzero;stroke:#231f20;stroke-width:1;stroke-linecap:butt;stroke-linejoin:miter;stroke-miterlimit:10;stroke-dasharray:none;stroke-opacity:1"
       transform="matrix(1.3333333,0,0,-1.3333333,663.66253,164.99453)" />
    <path
       id="path74"
       d="m 0,0 -32.167,-18.784 0.184,-37.25 32.351,-18.465 32.167,18.785 -0.184,37.249 z"
       style="fill:#4fc6f4;fill-opacity:1;fill-rule:nonzero;stroke:#231f20;stroke-width:1;stroke-linecap:butt;stroke-linejoin:miter;stroke-miterlimit:10;stroke-dasharray:none;stroke-opacity:1"
       transform="matrix(1.3333333,0,0,-1.3333333,663.66253,486.52707)" />
    <path
       id="path75"
       d="m 0,0 -32.167,-18.784 0.184,-37.25 32.351,-18.465 32.167,18.784 -0.184,37.25 z"
       style="fill:#4fc6f4;fill-opacity:1;fill-rule:nonzero;stroke:#231f20;stroke-width:1;stroke-linecap:butt;stroke-linejoin:miter;stroke-miterlimit:10;stroke-dasharray:none;stroke-opacity:1"
       transform="matrix(1.3333333,0,0,-1.3333333,663.66253,647.2932)" />
    <path
       id="path76"
       d="m 0,0 -32.167,-18.784 0.184,-37.25 32.351,-18.465 32.167,18.784 -0.184,37.25 z"
       style="fill:#4fc6f4;fill-opacity:1;fill-rule:nonzero;stroke:#231f20;stroke-width:1;stroke-linecap:butt;stroke-linejoin:miter;stroke-miterlimit:10;stroke-dasharray:none;stroke-opacity:1"
       transform="matrix(1.3333333,0,0,-1.3333333,663.66253,808.05947)" />
    <path
       id="path77"
       d="m 0,0 -32.167,-18.784 0.184,-37.25 32.351,-18.465 32.167,18.784 -0.184,37.25 z"
       style="fill:#4fc6f4;fill-opacity:1;fill-rule:nonzero;stroke:#231f20;stroke-width:1;stroke-linecap:butt;stroke-linejoin:miter;stroke-miterlimit:10;stroke-dasharray:none;stroke-opacity:1"
       transform="matrix(1.3333333,0,0,-1.3333333,663.66253,968.82573)" />
    <path
       id="path78"
       d="m 0,0 -32.167,-18.784 0.184,-37.25 32.351,-18.465 32.167,18.784 -0.184,37.25 z"
       style="fill:#4fc6f4;fill-opacity:1;fill-rule:nonzero;stroke:#231f20;stroke-width:1;stroke-linecap:butt;stroke-linejoin:miter;stroke-miterlimit:10;stroke-dasharray:none;stroke-opacity:1"
       transform="matrix(1.3333333,0,0,-1.3333333,125.46573,325.7608)" />
    <path
       id="path79"
       d="m 0,0 -32.167,-18.784 0.184,-37.25 32.351,-18.465 32.167,18.785 -0.184,37.249 z"
       style="fill:#4fc6f4;fill-opacity:1;fill-rule:nonzero;stroke:#231f20;stroke-width:1;stroke-linecap:butt;stroke-linejoin:miter;stroke-miterlimit:10;stroke-dasharray:none;stroke-opacity:1"
       transform="matrix(1.3333333,0,0,-1.3333333,125.46573,164.99453)" />
    <path
       id="path80"
       d="m 0,0 -32.167,-18.784 0.184,-37.25 32.351,-18.465 32.167,18.784 -0.184,37.25 z"
       style="fill:#4fc6f4;fill-opacity:1;fill-rule:nonzero;stroke:#231f20;stroke-width:1;stroke-linecap:butt;stroke-linejoin:miter;stroke-miterlimit:10;stroke-dasharray:none;stroke-opacity:1"
       transform="matrix(1.3333333,0,0,-1.3333333,215.1652,4.2282667)" />
    <path
       id="path81"
       d="m 0,0 -32.167,-18.784 0.184,-37.25 32.351,-18.465 32.167,18.784 -0.184,37.25 z"
       style="fill:#4fc6f4;fill-opacity:1;fill-rule:nonzero;stroke:#231f20;stroke-width:1;stroke-linecap:butt;stroke-linejoin:miter;stroke-miterlimit:10;stroke-dasharray:none;stroke-opacity:1"
       transform="matrix(1.3333333,0,0,-1.3333333,304.86467,4.2282667)" />
    <path
       id="path82"
       d="m 0,0 -32.167,-18.784 0.184,-37.25 32.351,-18.465 32.167,18.784 -0.184,37.25 z"
       style="fill:#4fc6f4;fill-opacity:1;fill-rule:nonzero;stroke:#231f20;stroke-width:1;stroke-linecap:butt;stroke-linejoin:miter;stroke-miterlimit:10;stroke-dasharray:none;stroke-opacity:1"
       transform="matrix(1.3333333,0,0,-1.3333333,394.56413,4.2282667)" />
    <path
       id="path83"
       d="m 0,0 -32.167,-18.784 0.184,-37.25 32.351,-18.465 32.167,18.784 -0.184,37.25 z"
       style="fill:#4fc6f4;fill-opacity:1;fill-rule:nonzero;stroke:#231f20;stroke-width:1;stroke-linecap:butt;stroke-linejoin:miter;stroke-miterlimit:10;stroke-dasharray:none;stroke-opacity:1"
       transform="matrix(1.3333333,0,0,-1.3333333,484.2636,4.2282667)" />
    <path
       id="path84"
       d="m 0,0 -32.167,-18.784 0.184,-37.25 32.351,-18.465 32.167,18.784 -0.184,37.25 z"
       style="fill:#4fc6f4;fill-opacity:1;fill-rule:nonzero;stroke:#231f20;stroke-width:1;stroke-linecap:butt;stroke-linejoin:miter;stroke-miterlimit:10;stroke-dasharray:none;stroke-opacity:1"
       transform="matrix(1.3333333,0,0,-1.3333333,573.96307,4.2282667)" />
    <path
       id="path85"
       d="m 0,0 -32.167,-18.784 0.184,-37.25 32.351,-18.465 32.167,18.784 -0.184,37.25 z"
       style="fill:#4fc6f4;fill-opacity:1;fill-rule:nonzero;stroke:#231f20;stroke-width:1;stroke-linecap:butt;stroke-linejoin:miter;stroke-miterlimit:10;stroke-dasharray:none;stroke-opacity:1"
       transform="matrix(1.3333333,0,0,-1.3333333,663.66253,4.2282667)" />
    <path
       id="path86"
       d="m 0,0 -32.167,-18.784 0.184,-37.25 32.351,-18.465 32.167,18.784 -0.184,37.25 z"
       style="fill:#4fc6f4;fill-opacity:1;fill-rule:nonzero;stroke:#231f20;stroke-width:1;stroke-linecap:butt;stroke-linejoin:miter;stroke-miterlimit:10;stroke-dasharray:none;stroke-opacity:1"
       transform="matrix(1.3333333,0,0,-1.3333333,125.46573,4.2282667)" />
    <path
       id="path87"
       d="m 0,0 -32.167,-18.784 0.184,-37.25 32.351,-18.465 32.167,18.785 -0.184,37.249 z"
       style="fill:#4fc6f4;fill-opacity:1;fill-rule:nonzero;stroke:#231f20;stroke-width:1;stroke-linecap:butt;stroke-linejoin:miter;stroke-miterlimit:10;stroke-dasharray:none;stroke-opacity:1"
       transform="matrix(1.3333333,0,0,-1.3333333,125.46573,486.52707)" />
    <path
       id="path88"
       d="m 0,0 -32.167,-18.784 0.184,-37.25 32.351,-18.465 32.167,18.784 -0.184,37.25 z"
       style="fill:#4fc6f4;fill-opacity:1;fill-rule:nonzero;stroke:#231f20;stroke-width:1;stroke-linecap:butt;stroke-linejoin:miter;stroke-miterlimit:10;stroke-dasharray:none;stroke-opacity:1"
       transform="matrix(1.3333333,0,0,-1.3333333,125.46573,647.2932)" />
    <path
       id="path89"
       d="m 0,0 -32.167,-18.784 0.184,-37.25 32.351,-18.465 32.167,18.784 -0.184,37.25 z"
       style="fill:#4fc6f4;fill-opacity:1;fill-rule:nonzero;stroke:#231f20;stroke-width:1;stroke-linecap:butt;stroke-linejoin:miter;stroke-miterlimit:10;stroke-dasharray:none;stroke-opacity:1"
       transform="matrix(1.3333333,0,0,-1.3333333,125.46573,808.05947)" />
    <path
       id="path90"
       d="m 0,0 -32.167,-18.784 0.184,-37.25 32.351,-18.465 32.167,18.784 -0.184,37.25 z"
       style="fill:#4fc6f4;fill-opacity:1;fill-rule:nonzero;stroke:#231f20;stroke-width:1;stroke-linecap:butt;stroke-linejoin:miter;stroke-miterlimit:10;stroke-dasharray:none;stroke-opacity:1"
       transform="matrix(1.3333333,0,0,-1.3333333,125.46573,968.82573)" />
    <path
       id="path91"
       d="M 0,0 30.097,18.699 64.371,-0.897 97.666,18.699 127.464,1.894 v -41.16 L 161.447,-58.4 v -38.169 l 32.389,-22.224 1.396,-37.472 -32.19,-20.109 -1.097,-39.487 -33.186,-21.526 -0.299,-40.262 -30.396,-20.131 -33.693,22.224 -33.477,-20.63 L 0,-279.543 v 40.462 l -33.186,19.632 v 39.864 l -33.585,20.53 v 39.066 l 33.585,20.53 0.398,39.165 34.582,21.128 z"
       style="fill:#4fc6f4;fill-opacity:1;fill-rule:nonzero;stroke:#231f20;stroke-width:1;stroke-linecap:butt;stroke-linejoin:miter;stroke-miterlimit:10;stroke-dasharray:none;stroke-opacity:1"
       transform="matrix(1.3333333,0,0,-1.3333333,308.98133,431.16253)" />
    <path
       id="path92"
       d="m 1.9795266,0.210925 c 0.4335937,0.0117188 1.0078125,0 1.6757812,-0.10546875 C 5.0967141,-0.05860625 6.5264016,-0.6797 7.5576516,-1.6875125 8.8818703,-2.976575 9.8662453,-5.039075 9.8662453,-7.9922 c 0,-3.421875 -1.6875,-5.660156 -4.4414062,-5.660156 -2.7421875,0 -4.58203129,2.238281 -4.58203129,4.769531 0,2.296875 1.54687499,4.1132813 3.97265629,4.1132813 1.3359375,0 2.4140625,-0.5390625 3.1523437,-1.4414063 h 0.058594 c -0.2460938,1.5820313 -0.8789063,2.765625 -1.7695313,3.5625 -0.7617187,0.7265625 -1.7578125,1.1601563 -2.8125,1.3007813 -0.6210937,0.070312 -1.0664062,0.1054687 -1.4648437,0.070312 z m 3.3046875,-12.480469 c 1.8984375,0 2.7421875,1.757813 2.7421875,4.0546878 0,0.28125 -0.058594,0.4921875 -0.1640625,0.65625 -0.46875,0.8085937 -1.4179688,1.40625 -2.6367188,1.40625 -1.5703125,0 -2.578125,-1.1835938 -2.578125,-2.8476563 0,-1.8984375 1.0898438,-3.2695315 2.6367188,-3.2695315 z M 16.0098,-13.652356 c -2.730469,0 -4.675781,2.484375 -4.675781,6.9843748 0.04687,4.4414062 1.816406,6.89062495 4.441406,6.89062495 2.976563,0 4.664063,-2.51953125 4.664063,-7.07812495 0,-4.2773438 -1.605469,-6.7968748 -4.429688,-6.7968748 z m -0.105469,1.40625 c 1.875,0 2.71875,2.167969 2.71875,5.472656 0,3.4335938 -0.878906,5.6015625 -2.742187,5.6015625 -1.652344,0 -2.730469,-1.9921875 -2.730469,-5.4726562 0,-3.6562503 1.160156,-5.6015623 2.753906,-5.6015623 z m 0,0"
       style="fill:#231f20;fill-opacity:1;fill-rule:nonzero;stroke:none"
       aria-label="90"
       transform="matrix(1.3333333,0,0,1.3333333,673.6536,1232.4063)" />
  </g>
</svg>
