<?xml version="1.0" encoding="UTF-8" standalone="no"?>
<!-- Created with Inkscape (http://www.inkscape.org/) -->

<svg
   version="1.1"
   id="svg1"
   width="793.70135"
   height="1248"
   viewBox="0 0 793.70135 1248"
   sodipodi:docname="upload_iwf453vf7o5qsur2moxxonbi2g.pdf"
   xmlns:inkscape="http://www.inkscape.org/namespaces/inkscape"
   xmlns:sodipodi="http://sodipodi.sourceforge.net/DTD/sodipodi-0.dtd"
   xmlns="http://www.w3.org/2000/svg"
   xmlns:svg="http://www.w3.org/2000/svg">
  <defs
     id="defs1" />
  <sodipodi:namedview
     id="namedview1"
     pagecolor="#ffffff"
     bordercolor="#000000"
     borderopacity="0.25"
     inkscape:showpageshadow="2"
     inkscape:pageopacity="0.0"
     inkscape:pagecheckerboard="0"
     inkscape:deskcolor="#d1d1d1">
    <inkscape:page
       x="0"
       y="0"
       inkscape:label="1"
       id="page1"
       width="793.70135"
       height="1248"
       margin="8.7091064 12.076 25.931999 7.9944401"
       bleed="0" />
  </sodipodi:namedview>
  <g
     id="layer-MC0"
     inkscape:groupmode="layer"
     inkscape:label="Layer 1">
    <path
       id="path1"
       d="m 0,0 -30.903,-18.046 0.177,-35.787 31.08,-17.74 30.903,18.047 -0.177,35.786 z"
       style="fill:#4fc6f4;fill-opacity:1;fill-rule:nonzero;stroke:#231f20;stroke-width:1;stroke-linecap:butt;stroke-linejoin:miter;stroke-miterlimit:10;stroke-dasharray:none;stroke-opacity:1"
       transform="matrix(1.3333333,0,0,-1.3333333,179.1324,258.4624)" />
    <path
       id="path2"
       d="m 0,0 -30.903,-18.046 0.177,-35.787 31.08,-17.74 30.903,18.047 -0.177,35.786 z"
       style="fill:#4fc6f4;fill-opacity:1;fill-rule:nonzero;stroke:#231f20;stroke-width:1;stroke-linecap:butt;stroke-linejoin:miter;stroke-miterlimit:10;stroke-dasharray:none;stroke-opacity:1"
       transform="matrix(1.3333333,0,0,-1.3333333,265.30893,258.4624)" />
    <path
       id="path3"
       d="m 0,0 -30.903,-18.046 0.177,-35.787 31.08,-17.74 30.903,18.047 -0.177,35.786 z"
       style="fill:#4fc6f4;fill-opacity:1;fill-rule:nonzero;stroke:#231f20;stroke-width:1;stroke-linecap:butt;stroke-linejoin:miter;stroke-miterlimit:10;stroke-dasharray:none;stroke-opacity:1"
       transform="matrix(1.3333333,0,0,-1.3333333,351.48547,258.4624)" />
    <path
       id="path4"
       d="m 0,0 -30.903,-18.046 0.177,-35.787 31.08,-17.74 30.903,18.047 -0.177,35.786 z"
       style="fill:#4fc6f4;fill-opacity:1;fill-rule:nonzero;stroke:#231f20;stroke-width:1;stroke-linecap:butt;stroke-linejoin:miter;stroke-miterlimit:10;stroke-dasharray:none;stroke-opacity:1"
       transform="matrix(1.3333333,0,0,-1.3333333,437.66213,258.4624)" />
    <path
       id="path5"
       d="m 0,0 -30.903,-18.046 0.177,-35.787 31.08,-17.74 30.903,18.047 -0.177,35.786 z"
       style="fill:#4fc6f4;fill-opacity:1;fill-rule:nonzero;stroke:#231f20;stroke-width:1;stroke-linecap:butt;stroke-linejoin:miter;stroke-miterlimit:10;stroke-dasharray:none;stroke-opacity:1"
       transform="matrix(1.3333333,0,0,-1.3333333,523.83853,258.4624)" />
    <path
       id="path6"
       d="m 0,0 -30.903,-18.046 0.177,-35.787 31.08,-17.74 30.903,18.047 -0.177,35.786 z"
       style="fill:#4fc6f4;fill-opacity:1;fill-rule:nonzero;stroke:#231f20;stroke-width:1;stroke-linecap:butt;stroke-linejoin:miter;stroke-miterlimit:10;stroke-dasharray:none;stroke-opacity:1"
       transform="matrix(1.3333333,0,0,-1.3333333,610.0152,258.4624)" />
    <path
       id="path7"
       d="m 0,0 -30.903,-18.046 0.177,-35.787 31.08,-17.74 30.903,18.047 -0.177,35.786 z"
       style="fill:#4fc6f4;fill-opacity:1;fill-rule:nonzero;stroke:#231f20;stroke-width:1;stroke-linecap:butt;stroke-linejoin:miter;stroke-miterlimit:10;stroke-dasharray:none;stroke-opacity:1"
       transform="matrix(1.3333333,0,0,-1.3333333,222.22067,335.60573)" />
    <path
       id="path8"
       d="m 0,0 -30.903,-18.046 0.177,-35.787 31.08,-17.74 30.903,18.047 -0.177,35.786 z"
       style="fill:#4fc6f4;fill-opacity:1;fill-rule:nonzero;stroke:#231f20;stroke-width:1;stroke-linecap:butt;stroke-linejoin:miter;stroke-miterlimit:10;stroke-dasharray:none;stroke-opacity:1"
       transform="matrix(1.3333333,0,0,-1.3333333,308.3972,335.60573)" />
    <path
       id="path9"
       d="m 0,0 -30.903,-18.046 0.177,-35.787 31.08,-17.74 30.903,18.047 -0.177,35.786 z"
       style="fill:#4fc6f4;fill-opacity:1;fill-rule:nonzero;stroke:#231f20;stroke-width:1;stroke-linecap:butt;stroke-linejoin:miter;stroke-miterlimit:10;stroke-dasharray:none;stroke-opacity:1"
       transform="matrix(1.3333333,0,0,-1.3333333,394.57373,335.60573)" />
    <path
       id="path10"
       d="m 0,0 -30.903,-18.046 0.177,-35.787 31.08,-17.74 30.903,18.047 -0.177,35.786 z"
       style="fill:#4fc6f4;fill-opacity:1;fill-rule:nonzero;stroke:#231f20;stroke-width:1;stroke-linecap:butt;stroke-linejoin:miter;stroke-miterlimit:10;stroke-dasharray:none;stroke-opacity:1"
       transform="matrix(1.3333333,0,0,-1.3333333,480.75027,335.60573)" />
    <path
       id="path11"
       d="m 0,0 -30.903,-18.046 0.177,-35.787 31.08,-17.74 30.903,18.047 -0.177,35.786 z"
       style="fill:#4fc6f4;fill-opacity:1;fill-rule:nonzero;stroke:#231f20;stroke-width:1;stroke-linecap:butt;stroke-linejoin:miter;stroke-miterlimit:10;stroke-dasharray:none;stroke-opacity:1"
       transform="matrix(1.3333333,0,0,-1.3333333,566.92693,335.60573)" />
    <path
       id="path12"
       d="m 0,0 -30.903,-18.046 0.177,-35.787 31.08,-17.74 30.903,18.047 -0.177,35.786 z"
       style="fill:#4fc6f4;fill-opacity:1;fill-rule:nonzero;stroke:#231f20;stroke-width:1;stroke-linecap:butt;stroke-linejoin:miter;stroke-miterlimit:10;stroke-dasharray:none;stroke-opacity:1"
       transform="matrix(1.3333333,0,0,-1.3333333,222.22067,181.1536)" />
    <path
       id="path13"
       d="m 0,0 -30.903,-18.046 0.177,-35.787 31.08,-17.74 30.903,18.047 -0.177,35.786 z"
       style="fill:#4fc6f4;fill-opacity:1;fill-rule:nonzero;stroke:#231f20;stroke-width:1;stroke-linecap:butt;stroke-linejoin:miter;stroke-miterlimit:10;stroke-dasharray:none;stroke-opacity:1"
       transform="matrix(1.3333333,0,0,-1.3333333,308.3972,181.1536)" />
    <path
       id="path14"
       d="m 0,0 -30.903,-18.046 0.177,-35.787 31.08,-17.74 30.903,18.047 -0.177,35.786 z"
       style="fill:#4fc6f4;fill-opacity:1;fill-rule:nonzero;stroke:#231f20;stroke-width:1;stroke-linecap:butt;stroke-linejoin:miter;stroke-miterlimit:10;stroke-dasharray:none;stroke-opacity:1"
       transform="matrix(1.3333333,0,0,-1.3333333,394.57373,181.1536)" />
    <path
       id="path15"
       d="m 0,0 -30.903,-18.046 0.177,-35.787 31.08,-17.74 30.903,18.047 -0.177,35.786 z"
       style="fill:#4fc6f4;fill-opacity:1;fill-rule:nonzero;stroke:#231f20;stroke-width:1;stroke-linecap:butt;stroke-linejoin:miter;stroke-miterlimit:10;stroke-dasharray:none;stroke-opacity:1"
       transform="matrix(1.3333333,0,0,-1.3333333,480.75027,181.1536)" />
    <path
       id="path16"
       d="m 0,0 -30.903,-18.046 0.177,-35.787 31.08,-17.74 30.903,18.047 -0.177,35.786 z"
       style="fill:#4fc6f4;fill-opacity:1;fill-rule:nonzero;stroke:#231f20;stroke-width:1;stroke-linecap:butt;stroke-linejoin:miter;stroke-miterlimit:10;stroke-dasharray:none;stroke-opacity:1"
       transform="matrix(1.3333333,0,0,-1.3333333,566.92693,181.1536)" />
    <path
       id="path17"
       d="m 0,0 -30.903,-18.046 0.177,-35.787 31.08,-17.74 30.903,18.047 -0.177,35.786 z"
       style="fill:#4fc6f4;fill-opacity:1;fill-rule:nonzero;stroke:#231f20;stroke-width:1;stroke-linecap:butt;stroke-linejoin:miter;stroke-miterlimit:10;stroke-dasharray:none;stroke-opacity:1"
       transform="matrix(1.3333333,0,0,-1.3333333,179.1324,412.91453)" />
    <path
       id="path18"
       d="m 0,0 -30.903,-18.046 0.177,-35.787 31.08,-17.74 30.903,18.047 -0.177,35.786 z"
       style="fill:#4fc6f4;fill-opacity:1;fill-rule:nonzero;stroke:#231f20;stroke-width:1;stroke-linecap:butt;stroke-linejoin:miter;stroke-miterlimit:10;stroke-dasharray:none;stroke-opacity:1"
       transform="matrix(1.3333333,0,0,-1.3333333,265.30893,412.91453)" />
    <path
       id="path19"
       d="m 0,0 -30.903,-18.046 0.177,-35.787 31.08,-17.74 30.903,18.047 -0.177,35.786 z"
       style="fill:#4fc6f4;fill-opacity:1;fill-rule:nonzero;stroke:#231f20;stroke-width:1;stroke-linecap:butt;stroke-linejoin:miter;stroke-miterlimit:10;stroke-dasharray:none;stroke-opacity:1"
       transform="matrix(1.3333333,0,0,-1.3333333,523.83853,412.91453)" />
    <path
       id="path20"
       d="m 0,0 -30.903,-18.046 0.177,-35.787 31.08,-17.74 30.903,18.047 -0.177,35.786 z"
       style="fill:#4fc6f4;fill-opacity:1;fill-rule:nonzero;stroke:#231f20;stroke-width:1;stroke-linecap:butt;stroke-linejoin:miter;stroke-miterlimit:10;stroke-dasharray:none;stroke-opacity:1"
       transform="matrix(1.3333333,0,0,-1.3333333,610.0152,412.91453)" />
    <path
       id="path21"
       d="m 0,0 -30.903,-18.047 0.177,-35.786 31.08,-17.74 30.903,18.047 -0.177,35.786 z"
       style="fill:#4fc6f4;fill-opacity:1;fill-rule:nonzero;stroke:#231f20;stroke-width:1;stroke-linecap:butt;stroke-linejoin:miter;stroke-miterlimit:10;stroke-dasharray:none;stroke-opacity:1"
       transform="matrix(1.3333333,0,0,-1.3333333,222.22067,490.05773)" />
    <path
       id="path22"
       d="m 0,0 -30.903,-18.047 0.177,-35.786 31.08,-17.74 30.903,18.047 -0.177,35.786 z"
       style="fill:#4fc6f4;fill-opacity:1;fill-rule:nonzero;stroke:#231f20;stroke-width:1;stroke-linecap:butt;stroke-linejoin:miter;stroke-miterlimit:10;stroke-dasharray:none;stroke-opacity:1"
       transform="matrix(1.3333333,0,0,-1.3333333,566.92693,490.05773)" />
    <path
       id="path23"
       d="m 0,0 -30.903,-18.046 0.177,-35.787 31.08,-17.74 30.903,18.047 -0.177,35.786 z"
       style="fill:#4fc6f4;fill-opacity:1;fill-rule:nonzero;stroke:#231f20;stroke-width:1;stroke-linecap:butt;stroke-linejoin:miter;stroke-miterlimit:10;stroke-dasharray:none;stroke-opacity:1"
       transform="matrix(1.3333333,0,0,-1.3333333,179.1324,567.36667)" />
    <path
       id="path24"
       d="m 0,0 -30.903,-18.046 0.177,-35.787 31.08,-17.74 30.903,18.047 -0.177,35.786 z"
       style="fill:#4fc6f4;fill-opacity:1;fill-rule:nonzero;stroke:#231f20;stroke-width:1;stroke-linecap:butt;stroke-linejoin:miter;stroke-miterlimit:10;stroke-dasharray:none;stroke-opacity:1"
       transform="matrix(1.3333333,0,0,-1.3333333,610.0152,567.36667)" />
    <path
       id="path25"
       d="m 0,0 -30.903,-18.046 0.177,-35.787 31.08,-17.74 30.903,18.047 -0.177,35.786 z"
       style="fill:#4fc6f4;fill-opacity:1;fill-rule:nonzero;stroke:#231f20;stroke-width:1;stroke-linecap:butt;stroke-linejoin:miter;stroke-miterlimit:10;stroke-dasharray:none;stroke-opacity:1"
       transform="matrix(1.3333333,0,0,-1.3333333,222.22067,644.51)" />
    <path
       id="path26"
       d="m 0,0 -30.903,-18.046 0.177,-35.787 31.08,-17.74 30.903,18.047 -0.177,35.786 z"
       style="fill:#4fc6f4;fill-opacity:1;fill-rule:nonzero;stroke:#231f20;stroke-width:1;stroke-linecap:butt;stroke-linejoin:miter;stroke-miterlimit:10;stroke-dasharray:none;stroke-opacity:1"
       transform="matrix(1.3333333,0,0,-1.3333333,566.92693,644.51)" />
    <path
       id="path27"
       d="m 0,0 -30.903,-18.046 0.177,-35.787 31.08,-17.74 30.903,18.047 -0.177,35.786 z"
       style="fill:#4fc6f4;fill-opacity:1;fill-rule:nonzero;stroke:#231f20;stroke-width:1;stroke-linecap:butt;stroke-linejoin:miter;stroke-miterlimit:10;stroke-dasharray:none;stroke-opacity:1"
       transform="matrix(1.3333333,0,0,-1.3333333,179.1324,721.8188)" />
    <path
       id="path28"
       d="m 0,0 -30.903,-18.046 0.177,-35.787 31.08,-17.74 30.903,18.047 -0.177,35.786 z"
       style="fill:#4fc6f4;fill-opacity:1;fill-rule:nonzero;stroke:#231f20;stroke-width:1;stroke-linecap:butt;stroke-linejoin:miter;stroke-miterlimit:10;stroke-dasharray:none;stroke-opacity:1"
       transform="matrix(1.3333333,0,0,-1.3333333,265.30893,721.8188)" />
    <path
       id="path29"
       d="m 0,0 -30.903,-18.046 0.177,-35.787 31.08,-17.74 30.903,18.047 -0.177,35.786 z"
       style="fill:#4fc6f4;fill-opacity:1;fill-rule:nonzero;stroke:#231f20;stroke-width:1;stroke-linecap:butt;stroke-linejoin:miter;stroke-miterlimit:10;stroke-dasharray:none;stroke-opacity:1"
       transform="matrix(1.3333333,0,0,-1.3333333,523.83853,721.8188)" />
    <path
       id="path30"
       d="m 0,0 -30.903,-18.046 0.177,-35.787 31.08,-17.74 30.903,18.047 -0.177,35.786 z"
       style="fill:#4fc6f4;fill-opacity:1;fill-rule:nonzero;stroke:#231f20;stroke-width:1;stroke-linecap:butt;stroke-linejoin:miter;stroke-miterlimit:10;stroke-dasharray:none;stroke-opacity:1"
       transform="matrix(1.3333333,0,0,-1.3333333,610.0152,721.8188)" />
    <path
       id="path31"
       d="m 0,0 -30.903,-18.046 0.177,-35.787 31.08,-17.74 30.903,18.047 -0.177,35.786 z"
       style="fill:#4fc6f4;fill-opacity:1;fill-rule:nonzero;stroke:#231f20;stroke-width:1;stroke-linecap:butt;stroke-linejoin:miter;stroke-miterlimit:10;stroke-dasharray:none;stroke-opacity:1"
       transform="matrix(1.3333333,0,0,-1.3333333,222.22067,798.96213)" />
    <path
       id="path32"
       d="m 0,0 -30.903,-18.046 0.177,-35.787 31.08,-17.74 30.903,18.047 -0.177,35.786 z"
       style="fill:#4fc6f4;fill-opacity:1;fill-rule:nonzero;stroke:#231f20;stroke-width:1;stroke-linecap:butt;stroke-linejoin:miter;stroke-miterlimit:10;stroke-dasharray:none;stroke-opacity:1"
       transform="matrix(1.3333333,0,0,-1.3333333,308.3972,798.96213)" />
    <path
       id="path33"
       d="m 0,0 -30.903,-18.046 0.177,-35.787 31.08,-17.74 30.903,18.047 -0.177,35.786 z"
       style="fill:#4fc6f4;fill-opacity:1;fill-rule:nonzero;stroke:#231f20;stroke-width:1;stroke-linecap:butt;stroke-linejoin:miter;stroke-miterlimit:10;stroke-dasharray:none;stroke-opacity:1"
       transform="matrix(1.3333333,0,0,-1.3333333,394.57373,798.96213)" />
    <path
       id="path34"
       d="m 0,0 -30.903,-18.046 0.177,-35.787 31.08,-17.74 30.903,18.047 -0.177,35.786 z"
       style="fill:#4fc6f4;fill-opacity:1;fill-rule:nonzero;stroke:#231f20;stroke-width:1;stroke-linecap:butt;stroke-linejoin:miter;stroke-miterlimit:10;stroke-dasharray:none;stroke-opacity:1"
       transform="matrix(1.3333333,0,0,-1.3333333,480.75027,798.96213)" />
    <path
       id="path35"
       d="m 0,0 -30.903,-18.046 0.177,-35.787 31.08,-17.74 30.903,18.047 -0.177,35.786 z"
       style="fill:#4fc6f4;fill-opacity:1;fill-rule:nonzero;stroke:#231f20;stroke-width:1;stroke-linecap:butt;stroke-linejoin:miter;stroke-miterlimit:10;stroke-dasharray:none;stroke-opacity:1"
       transform="matrix(1.3333333,0,0,-1.3333333,566.92693,798.96213)" />
    <path
       id="path36"
       d="m 0,0 -30.903,-18.046 0.177,-35.787 31.08,-17.74 30.903,18.047 -0.177,35.786 z"
       style="fill:#4fc6f4;fill-opacity:1;fill-rule:nonzero;stroke:#231f20;stroke-width:1;stroke-linecap:butt;stroke-linejoin:miter;stroke-miterlimit:10;stroke-dasharray:none;stroke-opacity:1"
       transform="matrix(1.3333333,0,0,-1.3333333,179.1324,876.27093)" />
    <path
       id="path37"
       d="m 0,0 -30.903,-18.046 0.177,-35.787 31.08,-17.74 30.903,18.047 -0.177,35.786 z"
       style="fill:#4fc6f4;fill-opacity:1;fill-rule:nonzero;stroke:#231f20;stroke-width:1;stroke-linecap:butt;stroke-linejoin:miter;stroke-miterlimit:10;stroke-dasharray:none;stroke-opacity:1"
       transform="matrix(1.3333333,0,0,-1.3333333,265.30893,876.27093)" />
    <path
       id="path38"
       d="m 0,0 -30.903,-18.046 0.177,-35.787 31.08,-17.74 30.903,18.047 -0.177,35.786 z"
       style="fill:#4fc6f4;fill-opacity:1;fill-rule:nonzero;stroke:#231f20;stroke-width:1;stroke-linecap:butt;stroke-linejoin:miter;stroke-miterlimit:10;stroke-dasharray:none;stroke-opacity:1"
       transform="matrix(1.3333333,0,0,-1.3333333,351.48547,876.27093)" />
    <path
       id="path39"
       d="m 0,0 -30.903,-18.046 0.177,-35.787 31.08,-17.74 30.903,18.047 -0.177,35.786 z"
       style="fill:#4fc6f4;fill-opacity:1;fill-rule:nonzero;stroke:#231f20;stroke-width:1;stroke-linecap:butt;stroke-linejoin:miter;stroke-miterlimit:10;stroke-dasharray:none;stroke-opacity:1"
       transform="matrix(1.3333333,0,0,-1.3333333,437.66213,876.27093)" />
    <path
       id="path40"
       d="m 0,0 -30.903,-18.046 0.177,-35.787 31.08,-17.74 30.903,18.047 -0.177,35.786 z"
       style="fill:#4fc6f4;fill-opacity:1;fill-rule:nonzero;stroke:#231f20;stroke-width:1;stroke-linecap:butt;stroke-linejoin:miter;stroke-miterlimit:10;stroke-dasharray:none;stroke-opacity:1"
       transform="matrix(1.3333333,0,0,-1.3333333,523.83853,876.27093)" />
    <path
       id="path41"
       d="m 0,0 -30.903,-18.046 0.177,-35.787 31.08,-17.74 30.903,18.047 -0.177,35.786 z"
       style="fill:#4fc6f4;fill-opacity:1;fill-rule:nonzero;stroke:#231f20;stroke-width:1;stroke-linecap:butt;stroke-linejoin:miter;stroke-miterlimit:10;stroke-dasharray:none;stroke-opacity:1"
       transform="matrix(1.3333333,0,0,-1.3333333,610.0152,876.27093)" />
    <path
       id="path42"
       d="m 0,0 -30.903,-18.046 0.177,-35.787 31.08,-17.74 30.903,18.047 -0.177,35.786 z"
       style="fill:#4fc6f4;fill-opacity:1;fill-rule:nonzero;stroke:#231f20;stroke-width:1;stroke-linecap:butt;stroke-linejoin:miter;stroke-miterlimit:10;stroke-dasharray:none;stroke-opacity:1"
       transform="matrix(1.3333333,0,0,-1.3333333,179.1324,1030.7231)" />
    <path
       id="path43"
       d="m 0,0 -30.903,-18.046 0.177,-35.787 31.08,-17.74 30.903,18.047 -0.177,35.786 z"
       style="fill:#4fc6f4;fill-opacity:1;fill-rule:nonzero;stroke:#231f20;stroke-width:1;stroke-linecap:butt;stroke-linejoin:miter;stroke-miterlimit:10;stroke-dasharray:none;stroke-opacity:1"
       transform="matrix(1.3333333,0,0,-1.3333333,265.30893,1030.7231)" />
    <path
       id="path44"
       d="m 0,0 -30.903,-18.046 0.177,-35.787 31.08,-17.74 30.903,18.047 -0.177,35.786 z"
       style="fill:#4fc6f4;fill-opacity:1;fill-rule:nonzero;stroke:#231f20;stroke-width:1;stroke-linecap:butt;stroke-linejoin:miter;stroke-miterlimit:10;stroke-dasharray:none;stroke-opacity:1"
       transform="matrix(1.3333333,0,0,-1.3333333,351.48547,1030.7231)" />
    <path
       id="path45"
       d="m 0,0 -30.903,-18.046 0.177,-35.787 31.08,-17.74 30.903,18.047 -0.177,35.786 z"
       style="fill:#4fc6f4;fill-opacity:1;fill-rule:nonzero;stroke:#231f20;stroke-width:1;stroke-linecap:butt;stroke-linejoin:miter;stroke-miterlimit:10;stroke-dasharray:none;stroke-opacity:1"
       transform="matrix(1.3333333,0,0,-1.3333333,437.66213,1030.7231)" />
    <path
       id="path46"
       d="m 0,0 -30.903,-18.046 0.177,-35.787 31.08,-17.74 30.903,18.047 -0.177,35.786 z"
       style="fill:#4fc6f4;fill-opacity:1;fill-rule:nonzero;stroke:#231f20;stroke-width:1;stroke-linecap:butt;stroke-linejoin:miter;stroke-miterlimit:10;stroke-dasharray:none;stroke-opacity:1"
       transform="matrix(1.3333333,0,0,-1.3333333,523.83853,1030.7231)" />
    <path
       id="path47"
       d="m 0,0 -30.903,-18.046 0.177,-35.787 31.08,-17.74 30.903,18.047 -0.177,35.786 z"
       style="fill:#4fc6f4;fill-opacity:1;fill-rule:nonzero;stroke:#231f20;stroke-width:1;stroke-linecap:butt;stroke-linejoin:miter;stroke-miterlimit:10;stroke-dasharray:none;stroke-opacity:1"
       transform="matrix(1.3333333,0,0,-1.3333333,610.0152,1030.7231)" />
    <path
       id="path48"
       d="m 0,0 -30.903,-18.046 0.177,-35.787 31.08,-17.74 30.903,18.047 -0.177,35.786 z"
       style="fill:#4fc6f4;fill-opacity:1;fill-rule:nonzero;stroke:#231f20;stroke-width:1;stroke-linecap:butt;stroke-linejoin:miter;stroke-miterlimit:10;stroke-dasharray:none;stroke-opacity:1"
       transform="matrix(1.3333333,0,0,-1.3333333,696.1916,258.4624)" />
    <path
       id="path49"
       d="m 0,0 -30.903,-18.046 0.177,-35.787 31.08,-17.74 30.903,18.047 -0.177,35.786 z"
       style="fill:#4fc6f4;fill-opacity:1;fill-rule:nonzero;stroke:#231f20;stroke-width:1;stroke-linecap:butt;stroke-linejoin:miter;stroke-miterlimit:10;stroke-dasharray:none;stroke-opacity:1"
       transform="matrix(1.3333333,0,0,-1.3333333,696.1916,412.91453)" />
    <path
       id="path50"
       d="m 0,0 -30.903,-18.046 0.177,-35.787 31.08,-17.74 30.903,18.047 -0.177,35.786 z"
       style="fill:#4fc6f4;fill-opacity:1;fill-rule:nonzero;stroke:#231f20;stroke-width:1;stroke-linecap:butt;stroke-linejoin:miter;stroke-miterlimit:10;stroke-dasharray:none;stroke-opacity:1"
       transform="matrix(1.3333333,0,0,-1.3333333,696.1916,567.36667)" />
    <path
       id="path51"
       d="m 0,0 -30.903,-18.046 0.177,-35.787 31.08,-17.74 30.903,18.047 -0.177,35.786 z"
       style="fill:#4fc6f4;fill-opacity:1;fill-rule:nonzero;stroke:#231f20;stroke-width:1;stroke-linecap:butt;stroke-linejoin:miter;stroke-miterlimit:10;stroke-dasharray:none;stroke-opacity:1"
       transform="matrix(1.3333333,0,0,-1.3333333,696.1916,721.8188)" />
    <path
       id="path52"
       d="m 0,0 -30.903,-18.046 0.177,-35.787 31.08,-17.74 30.903,18.047 -0.177,35.786 z"
       style="fill:#4fc6f4;fill-opacity:1;fill-rule:nonzero;stroke:#231f20;stroke-width:1;stroke-linecap:butt;stroke-linejoin:miter;stroke-miterlimit:10;stroke-dasharray:none;stroke-opacity:1"
       transform="matrix(1.3333333,0,0,-1.3333333,696.1916,876.27093)" />
    <path
       id="path53"
       d="m 0,0 -30.903,-18.046 0.177,-35.787 31.08,-17.74 30.903,18.047 -0.177,35.786 z"
       style="fill:#4fc6f4;fill-opacity:1;fill-rule:nonzero;stroke:#231f20;stroke-width:1;stroke-linecap:butt;stroke-linejoin:miter;stroke-miterlimit:10;stroke-dasharray:none;stroke-opacity:1"
       transform="matrix(1.3333333,0,0,-1.3333333,696.1916,1030.7231)" />
    <path
       id="path54"
       d="m 0,0 -30.903,-18.046 0.177,-35.787 31.08,-17.74 30.903,18.047 -0.177,35.786 z"
       style="fill:#4fc6f4;fill-opacity:1;fill-rule:nonzero;stroke:#231f20;stroke-width:1;stroke-linecap:butt;stroke-linejoin:miter;stroke-miterlimit:10;stroke-dasharray:none;stroke-opacity:1"
       transform="matrix(1.3333333,0,0,-1.3333333,92.955867,258.4624)" />
    <path
       id="path55"
       d="m 0,0 -30.903,-18.046 0.177,-35.787 31.08,-17.74 30.903,18.047 -0.177,35.786 z"
       style="fill:#4fc6f4;fill-opacity:1;fill-rule:nonzero;stroke:#231f20;stroke-width:1;stroke-linecap:butt;stroke-linejoin:miter;stroke-miterlimit:10;stroke-dasharray:none;stroke-opacity:1"
       transform="matrix(1.3333333,0,0,-1.3333333,179.1324,104.01027)" />
    <path
       id="path56"
       d="m 0,0 -30.903,-18.046 0.177,-35.787 31.08,-17.74 30.903,18.047 -0.177,35.786 z"
       style="fill:#4fc6f4;fill-opacity:1;fill-rule:nonzero;stroke:#231f20;stroke-width:1;stroke-linecap:butt;stroke-linejoin:miter;stroke-miterlimit:10;stroke-dasharray:none;stroke-opacity:1"
       transform="matrix(1.3333333,0,0,-1.3333333,265.30893,104.01027)" />
    <path
       id="path57"
       d="m 0,0 -30.903,-18.046 0.177,-35.787 31.08,-17.74 30.903,18.047 -0.177,35.786 z"
       style="fill:#4fc6f4;fill-opacity:1;fill-rule:nonzero;stroke:#231f20;stroke-width:1;stroke-linecap:butt;stroke-linejoin:miter;stroke-miterlimit:10;stroke-dasharray:none;stroke-opacity:1"
       transform="matrix(1.3333333,0,0,-1.3333333,351.48547,104.01027)" />
    <path
       id="path58"
       d="m 0,0 -30.903,-18.046 0.177,-35.787 31.08,-17.74 30.903,18.047 -0.177,35.786 z"
       style="fill:#4fc6f4;fill-opacity:1;fill-rule:nonzero;stroke:#231f20;stroke-width:1;stroke-linecap:butt;stroke-linejoin:miter;stroke-miterlimit:10;stroke-dasharray:none;stroke-opacity:1"
       transform="matrix(1.3333333,0,0,-1.3333333,437.66213,104.01027)" />
    <path
       id="path59"
       d="m 0,0 -30.903,-18.046 0.177,-35.787 31.08,-17.74 30.903,18.047 -0.177,35.786 z"
       style="fill:#4fc6f4;fill-opacity:1;fill-rule:nonzero;stroke:#231f20;stroke-width:1;stroke-linecap:butt;stroke-linejoin:miter;stroke-miterlimit:10;stroke-dasharray:none;stroke-opacity:1"
       transform="matrix(1.3333333,0,0,-1.3333333,523.83853,104.01027)" />
    <path
       id="path60"
       d="m 0,0 -30.903,-18.046 0.177,-35.787 31.08,-17.74 30.903,18.047 -0.177,35.786 z"
       style="fill:#4fc6f4;fill-opacity:1;fill-rule:nonzero;stroke:#231f20;stroke-width:1;stroke-linecap:butt;stroke-linejoin:miter;stroke-miterlimit:10;stroke-dasharray:none;stroke-opacity:1"
       transform="matrix(1.3333333,0,0,-1.3333333,610.0152,104.01027)" />
    <path
       id="path61"
       d="m 0,0 -30.903,-18.046 0.177,-35.787 31.08,-17.74 30.903,18.047 -0.177,35.786 z"
       style="fill:#4fc6f4;fill-opacity:1;fill-rule:nonzero;stroke:#231f20;stroke-width:1;stroke-linecap:butt;stroke-linejoin:miter;stroke-miterlimit:10;stroke-dasharray:none;stroke-opacity:1"
       transform="matrix(1.3333333,0,0,-1.3333333,696.1916,104.01027)" />
    <path
       id="path62"
       d="m 0,0 -30.903,-18.046 0.177,-35.787 31.08,-17.74 30.903,18.047 -0.177,35.786 z"
       style="fill:#4fc6f4;fill-opacity:1;fill-rule:nonzero;stroke:#231f20;stroke-width:1;stroke-linecap:butt;stroke-linejoin:miter;stroke-miterlimit:10;stroke-dasharray:none;stroke-opacity:1"
       transform="matrix(1.3333333,0,0,-1.3333333,92.955867,104.01027)" />
    <path
       id="path63"
       d="m 0,0 -30.903,-18.046 0.177,-35.787 31.08,-17.74 30.903,18.047 -0.177,35.786 z"
       style="fill:#4fc6f4;fill-opacity:1;fill-rule:nonzero;stroke:#231f20;stroke-width:1;stroke-linecap:butt;stroke-linejoin:miter;stroke-miterlimit:10;stroke-dasharray:none;stroke-opacity:1"
       transform="matrix(1.3333333,0,0,-1.3333333,92.955867,412.91453)" />
    <path
       id="path64"
       d="m 0,0 -30.903,-18.046 0.177,-35.787 31.08,-17.74 30.903,18.047 -0.177,35.786 z"
       style="fill:#4fc6f4;fill-opacity:1;fill-rule:nonzero;stroke:#231f20;stroke-width:1;stroke-linecap:butt;stroke-linejoin:miter;stroke-miterlimit:10;stroke-dasharray:none;stroke-opacity:1"
       transform="matrix(1.3333333,0,0,-1.3333333,92.955867,567.36667)" />
    <path
       id="path65"
       d="m 0,0 -30.903,-18.046 0.177,-35.787 31.08,-17.74 30.903,18.047 -0.177,35.786 z"
       style="fill:#4fc6f4;fill-opacity:1;fill-rule:nonzero;stroke:#231f20;stroke-width:1;stroke-linecap:butt;stroke-linejoin:miter;stroke-miterlimit:10;stroke-dasharray:none;stroke-opacity:1"
       transform="matrix(1.3333333,0,0,-1.3333333,92.955867,721.8188)" />
    <path
       id="path66"
       d="m 0,0 -30.903,-18.046 0.177,-35.787 31.08,-17.74 30.903,18.047 -0.177,35.786 z"
       style="fill:#4fc6f4;fill-opacity:1;fill-rule:nonzero;stroke:#231f20;stroke-width:1;stroke-linecap:butt;stroke-linejoin:miter;stroke-miterlimit:10;stroke-dasharray:none;stroke-opacity:1"
       transform="matrix(1.3333333,0,0,-1.3333333,92.955867,876.27093)" />
    <path
       id="path67"
       d="m 0,0 -30.903,-18.046 0.177,-35.787 31.08,-17.74 30.903,18.047 -0.177,35.786 z"
       style="fill:#4fc6f4;fill-opacity:1;fill-rule:nonzero;stroke:#231f20;stroke-width:1;stroke-linecap:butt;stroke-linejoin:miter;stroke-miterlimit:10;stroke-dasharray:none;stroke-opacity:1"
       transform="matrix(1.3333333,0,0,-1.3333333,92.955867,1030.7231)" />
    <path
       id="path68"
       d="m 0,0 -30.903,-18.046 0.177,-35.787 31.08,-17.74 30.903,18.047 -0.177,35.786 z"
       style="fill:#4fc6f4;fill-opacity:1;fill-rule:nonzero;stroke:#231f20;stroke-width:1;stroke-linecap:butt;stroke-linejoin:miter;stroke-miterlimit:10;stroke-dasharray:none;stroke-opacity:1"
       transform="matrix(1.3333333,0,0,-1.3333333,222.22067,953.41427)" />
    <path
       id="path69"
       d="m 0,0 -30.903,-18.046 0.177,-35.787 31.08,-17.74 30.903,18.047 -0.177,35.786 z"
       style="fill:#4fc6f4;fill-opacity:1;fill-rule:nonzero;stroke:#231f20;stroke-width:1;stroke-linecap:butt;stroke-linejoin:miter;stroke-miterlimit:10;stroke-dasharray:none;stroke-opacity:1"
       transform="matrix(1.3333333,0,0,-1.3333333,308.3972,953.41427)" />
    <path
       id="path70"
       d="m 0,0 -30.903,-18.046 0.177,-35.787 31.08,-17.74 30.903,18.047 -0.177,35.786 z"
       style="fill:#4fc6f4;fill-opacity:1;fill-rule:nonzero;stroke:#231f20;stroke-width:1;stroke-linecap:butt;stroke-linejoin:miter;stroke-miterlimit:10;stroke-dasharray:none;stroke-opacity:1"
       transform="matrix(1.3333333,0,0,-1.3333333,394.57373,953.41427)" />
    <path
       id="path71"
       d="m 0,0 -30.903,-18.046 0.177,-35.787 31.08,-17.74 30.903,18.047 -0.177,35.786 z"
       style="fill:#4fc6f4;fill-opacity:1;fill-rule:nonzero;stroke:#231f20;stroke-width:1;stroke-linecap:butt;stroke-linejoin:miter;stroke-miterlimit:10;stroke-dasharray:none;stroke-opacity:1"
       transform="matrix(1.3333333,0,0,-1.3333333,480.75027,953.41427)" />
    <path
       id="path72"
       d="m 0,0 -30.903,-18.046 0.177,-35.787 31.08,-17.74 30.903,18.047 -0.177,35.786 z"
       style="fill:#4fc6f4;fill-opacity:1;fill-rule:nonzero;stroke:#231f20;stroke-width:1;stroke-linecap:butt;stroke-linejoin:miter;stroke-miterlimit:10;stroke-dasharray:none;stroke-opacity:1"
       transform="matrix(1.3333333,0,0,-1.3333333,566.92693,953.41427)" />
    <path
       id="path73"
       d="m 0,0 -30.903,-18.046 0.177,-35.787 31.08,-17.74 30.903,18.047 -0.177,35.786 z"
       style="fill:#4fc6f4;fill-opacity:1;fill-rule:nonzero;stroke:#231f20;stroke-width:1;stroke-linecap:butt;stroke-linejoin:miter;stroke-miterlimit:10;stroke-dasharray:none;stroke-opacity:1"
       transform="matrix(1.3333333,0,0,-1.3333333,653.10333,335.60573)" />
    <path
       id="path74"
       d="m 0,0 -30.903,-18.046 0.177,-35.787 31.08,-17.74 30.903,18.047 -0.177,35.786 z"
       style="fill:#4fc6f4;fill-opacity:1;fill-rule:nonzero;stroke:#231f20;stroke-width:1;stroke-linecap:butt;stroke-linejoin:miter;stroke-miterlimit:10;stroke-dasharray:none;stroke-opacity:1"
       transform="matrix(1.3333333,0,0,-1.3333333,653.10333,181.1536)" />
    <path
       id="path75"
       d="m 0,0 -30.903,-18.047 0.177,-35.786 31.08,-17.74 30.903,18.047 -0.177,35.786 z"
       style="fill:#4fc6f4;fill-opacity:1;fill-rule:nonzero;stroke:#231f20;stroke-width:1;stroke-linecap:butt;stroke-linejoin:miter;stroke-miterlimit:10;stroke-dasharray:none;stroke-opacity:1"
       transform="matrix(1.3333333,0,0,-1.3333333,653.10333,490.05773)" />
    <path
       id="path76"
       d="m 0,0 -30.903,-18.046 0.177,-35.787 31.08,-17.74 30.903,18.047 -0.177,35.786 z"
       style="fill:#4fc6f4;fill-opacity:1;fill-rule:nonzero;stroke:#231f20;stroke-width:1;stroke-linecap:butt;stroke-linejoin:miter;stroke-miterlimit:10;stroke-dasharray:none;stroke-opacity:1"
       transform="matrix(1.3333333,0,0,-1.3333333,653.10333,644.51)" />
    <path
       id="path77"
       d="m 0,0 -30.903,-18.046 0.177,-35.787 31.08,-17.74 30.903,18.047 -0.177,35.786 z"
       style="fill:#4fc6f4;fill-opacity:1;fill-rule:nonzero;stroke:#231f20;stroke-width:1;stroke-linecap:butt;stroke-linejoin:miter;stroke-miterlimit:10;stroke-dasharray:none;stroke-opacity:1"
       transform="matrix(1.3333333,0,0,-1.3333333,653.10333,798.96213)" />
    <path
       id="path78"
       d="m 0,0 -30.903,-18.046 0.177,-35.787 31.08,-17.74 30.903,18.047 -0.177,35.786 z"
       style="fill:#4fc6f4;fill-opacity:1;fill-rule:nonzero;stroke:#231f20;stroke-width:1;stroke-linecap:butt;stroke-linejoin:miter;stroke-miterlimit:10;stroke-dasharray:none;stroke-opacity:1"
       transform="matrix(1.3333333,0,0,-1.3333333,653.10333,953.41427)" />
    <path
       id="path79"
       d="m 0,0 -30.903,-18.046 0.177,-35.787 31.08,-17.74 30.903,18.047 -0.177,35.786 z"
       style="fill:#4fc6f4;fill-opacity:1;fill-rule:nonzero;stroke:#231f20;stroke-width:1;stroke-linecap:butt;stroke-linejoin:miter;stroke-miterlimit:10;stroke-dasharray:none;stroke-opacity:1"
       transform="matrix(1.3333333,0,0,-1.3333333,136.04413,335.60573)" />
    <path
       id="path80"
       d="m 0,0 -30.903,-18.046 0.177,-35.787 31.08,-17.74 30.903,18.047 -0.177,35.786 z"
       style="fill:#4fc6f4;fill-opacity:1;fill-rule:nonzero;stroke:#231f20;stroke-width:1;stroke-linecap:butt;stroke-linejoin:miter;stroke-miterlimit:10;stroke-dasharray:none;stroke-opacity:1"
       transform="matrix(1.3333333,0,0,-1.3333333,136.04413,181.1536)" />
    <path
       id="path81"
       d="m 0,0 -30.903,-18.046 0.177,-35.787 31.08,-17.74 30.903,18.047 -0.177,35.786 z"
       style="fill:#4fc6f4;fill-opacity:1;fill-rule:nonzero;stroke:#231f20;stroke-width:1;stroke-linecap:butt;stroke-linejoin:miter;stroke-miterlimit:10;stroke-dasharray:none;stroke-opacity:1"
       transform="matrix(1.3333333,0,0,-1.3333333,222.22067,26.701467)" />
    <path
       id="path82"
       d="m 0,0 -30.903,-18.046 0.177,-35.787 31.08,-17.74 30.903,18.047 -0.177,35.786 z"
       style="fill:#4fc6f4;fill-opacity:1;fill-rule:nonzero;stroke:#231f20;stroke-width:1;stroke-linecap:butt;stroke-linejoin:miter;stroke-miterlimit:10;stroke-dasharray:none;stroke-opacity:1"
       transform="matrix(1.3333333,0,0,-1.3333333,308.3972,26.701467)" />
    <path
       id="path83"
       d="m 0,0 -30.903,-18.046 0.177,-35.787 31.08,-17.74 30.903,18.047 -0.177,35.786 z"
       style="fill:#4fc6f4;fill-opacity:1;fill-rule:nonzero;stroke:#231f20;stroke-width:1;stroke-linecap:butt;stroke-linejoin:miter;stroke-miterlimit:10;stroke-dasharray:none;stroke-opacity:1"
       transform="matrix(1.3333333,0,0,-1.3333333,394.57373,26.701467)" />
    <path
       id="path84"
       d="m 0,0 -30.903,-18.046 0.177,-35.787 31.08,-17.74 30.903,18.047 -0.177,35.786 z"
       style="fill:#4fc6f4;fill-opacity:1;fill-rule:nonzero;stroke:#231f20;stroke-width:1;stroke-linecap:butt;stroke-linejoin:miter;stroke-miterlimit:10;stroke-dasharray:none;stroke-opacity:1"
       transform="matrix(1.3333333,0,0,-1.3333333,480.75027,26.701467)" />
    <path
       id="path85"
       d="m 0,0 -30.903,-18.046 0.177,-35.787 31.08,-17.74 30.903,18.047 -0.177,35.786 z"
       style="fill:#4fc6f4;fill-opacity:1;fill-rule:nonzero;stroke:#231f20;stroke-width:1;stroke-linecap:butt;stroke-linejoin:miter;stroke-miterlimit:10;stroke-dasharray:none;stroke-opacity:1"
       transform="matrix(1.3333333,0,0,-1.3333333,566.92693,26.701467)" />
    <path
       id="path86"
       d="m 0,0 -30.903,-18.046 0.177,-35.787 31.08,-17.74 30.903,18.047 -0.177,35.786 z"
       style="fill:#4fc6f4;fill-opacity:1;fill-rule:nonzero;stroke:#231f20;stroke-width:1;stroke-linecap:butt;stroke-linejoin:miter;stroke-miterlimit:10;stroke-dasharray:none;stroke-opacity:1"
       transform="matrix(1.3333333,0,0,-1.3333333,653.10333,26.701467)" />
    <path
       id="path87"
       d="m 0,0 -30.903,-18.046 0.177,-35.787 31.08,-17.74 30.903,18.047 -0.177,35.786 z"
       style="fill:#4fc6f4;fill-opacity:1;fill-rule:nonzero;stroke:#231f20;stroke-width:1;stroke-linecap:butt;stroke-linejoin:miter;stroke-miterlimit:10;stroke-dasharray:none;stroke-opacity:1"
       transform="matrix(1.3333333,0,0,-1.3333333,136.04413,26.701467)" />
    <path
       id="path88"
       d="m 0,0 -30.903,-18.047 0.177,-35.786 31.08,-17.74 30.903,18.047 -0.177,35.786 z"
       style="fill:#4fc6f4;fill-opacity:1;fill-rule:nonzero;stroke:#231f20;stroke-width:1;stroke-linecap:butt;stroke-linejoin:miter;stroke-miterlimit:10;stroke-dasharray:none;stroke-opacity:1"
       transform="matrix(1.3333333,0,0,-1.3333333,136.04413,490.05773)" />
    <path
       id="path89"
       d="m 0,0 -30.903,-18.046 0.177,-35.787 31.08,-17.74 30.903,18.047 -0.177,35.786 z"
       style="fill:#4fc6f4;fill-opacity:1;fill-rule:nonzero;stroke:#231f20;stroke-width:1;stroke-linecap:butt;stroke-linejoin:miter;stroke-miterlimit:10;stroke-dasharray:none;stroke-opacity:1"
       transform="matrix(1.3333333,0,0,-1.3333333,136.04413,644.51)" />
    <path
       id="path90"
       d="m 0,0 -30.903,-18.046 0.177,-35.787 31.08,-17.74 30.903,18.047 -0.177,35.786 z"
       style="fill:#4fc6f4;fill-opacity:1;fill-rule:nonzero;stroke:#231f20;stroke-width:1;stroke-linecap:butt;stroke-linejoin:miter;stroke-miterlimit:10;stroke-dasharray:none;stroke-opacity:1"
       transform="matrix(1.3333333,0,0,-1.3333333,136.04413,798.96213)" />
    <path
       id="path91"
       d="m 0,0 -30.903,-18.046 0.177,-35.787 31.08,-17.74 30.903,18.047 -0.177,35.786 z"
       style="fill:#4fc6f4;fill-opacity:1;fill-rule:nonzero;stroke:#231f20;stroke-width:1;stroke-linecap:butt;stroke-linejoin:miter;stroke-miterlimit:10;stroke-dasharray:none;stroke-opacity:1"
       transform="matrix(1.3333333,0,0,-1.3333333,136.04413,953.41427)" />
    <path
       id="path92"
       d="m 0,0 -30.903,-18.046 0.177,-35.787 31.08,-17.74 30.903,18.047 -0.177,35.786 z"
       style="fill:#4fc6f4;fill-opacity:1;fill-rule:nonzero;stroke:#231f20;stroke-width:1;stroke-linecap:butt;stroke-linejoin:miter;stroke-miterlimit:10;stroke-dasharray:none;stroke-opacity:1"
       transform="matrix(1.3333333,0,0,-1.3333333,739.28,335.60573)" />
    <path
       id="path93"
       d="m 0,0 -30.903,-18.046 0.177,-35.787 31.08,-17.74 30.903,18.047 -0.177,35.786 z"
       style="fill:#4fc6f4;fill-opacity:1;fill-rule:nonzero;stroke:#231f20;stroke-width:1;stroke-linecap:butt;stroke-linejoin:miter;stroke-miterlimit:10;stroke-dasharray:none;stroke-opacity:1"
       transform="matrix(1.3333333,0,0,-1.3333333,739.28,181.1536)" />
    <path
       id="path94"
       d="m 0,0 -30.903,-18.046 0.177,-35.787 31.08,-17.74 30.903,18.047 -0.177,35.786 z"
       style="fill:#4fc6f4;fill-opacity:1;fill-rule:nonzero;stroke:#231f20;stroke-width:1;stroke-linecap:butt;stroke-linejoin:miter;stroke-miterlimit:10;stroke-dasharray:none;stroke-opacity:1"
       transform="matrix(1.3333333,0,0,-1.3333333,49.8676,181.1536)" />
    <path
       id="path95"
       d="M 0,0 28.915,17.965 61.843,-0.862 93.83,17.965 122.457,1.819 v -39.542 l 32.649,-18.383 v -36.671 l 31.117,-21.351 1.341,-36 -30.926,-19.319 -1.053,-37.936 -31.883,-20.681 -0.287,-38.681 -29.202,-19.34 -32.37,21.351 L 29.681,-284.553 0,-268.564 v 38.873 l -31.883,18.861 v 38.298 l -32.266,19.723 v 37.532 l 32.266,19.724 0.383,37.627 33.223,20.298 z"
       style="fill:#4fc6f4;fill-opacity:1;fill-rule:nonzero;stroke:#231f20;stroke-width:1;stroke-linecap:butt;stroke-linejoin:miter;stroke-miterlimit:10;stroke-dasharray:none;stroke-opacity:1"
       transform="matrix(1.3333333,0,0,-1.3333333,312.35227,436.86773)" />
    <path
       id="path96"
       d="m 1.9795266,0.210925 c 0.4335937,0.0117188 1.0078125,0 1.6757812,-0.10546875 C 5.0967141,-0.05860625 6.5264016,-0.6797 7.5576516,-1.6875125 8.8818703,-2.976575 9.8662453,-5.039075 9.8662453,-7.9922 c 0,-3.421875 -1.6875,-5.660156 -4.4414062,-5.660156 -2.7421875,0 -4.58203129,2.238281 -4.58203129,4.769531 0,2.296875 1.54687499,4.1132813 3.97265629,4.1132813 1.3359375,0 2.4140625,-0.5390625 3.1523437,-1.4414063 h 0.058594 c -0.2460938,1.5820313 -0.8789063,2.765625 -1.7695313,3.5625 -0.7617187,0.7265625 -1.7578125,1.1601563 -2.8125,1.3007813 -0.6210937,0.070312 -1.0664062,0.1054687 -1.4648437,0.070312 z m 3.3046875,-12.480469 c 1.8984375,0 2.7421875,1.757813 2.7421875,4.0546878 0,0.28125 -0.058594,0.4921875 -0.1640625,0.65625 -0.46875,0.8085937 -1.4179688,1.40625 -2.6367188,1.40625 -1.5703125,0 -2.578125,-1.1835938 -2.578125,-2.8476563 0,-1.8984375 1.0898438,-3.2695315 2.6367188,-3.2695315 z M 18.857456,-1.25e-5 v -3.65625 h 1.875 v -1.4179687 h -1.875 v -8.3437498 h -1.96875 l -5.988281,8.566406 v 1.1953125 h 6.246094 v 3.65625 z m -6.117187,-5.0742187 v -0.046875 L 16.021519,-9.6797 c 0.375,-0.621094 0.703125,-1.207031 1.125,-1.992187 h 0.05859 c -0.04687,0.703125 -0.05859,1.40625 -0.05859,2.1093745 v 4.4882813 z m 0,0"
       style="fill:#231f20;fill-opacity:1;fill-rule:nonzero;stroke:none"
       aria-label="94"
       transform="matrix(1.3333333,0,0,1.3333333,673.6536,1232.4063)" />
  </g>
</svg>
